<svg width="40" height="40" viewBox="0 0 40 40" fill="none" xmlns="http://www.w3.org/2000/svg">
<rect width="40" height="40" rx="20" fill="#BCF6FD"/>
<path d="M16.0849 17.7699C16.9547 19.8189 18.84 22.646 22.0222 24.0166C22.6424 23.5432 23.4195 22.9538 23.9104 22.5953C25.2534 22.7379 25.5416 22.7736 26.0856 22.841C26.4551 22.8867 26.9427 22.9471 27.959 23.0656V27.9728C25.8273 28.101 23.6926 27.7756 21.696 27.0181C19.6994 26.2607 17.8864 25.0883 16.3767 23.5786C14.8671 22.0689 13.6951 20.2562 12.9384 18.2602C12.1816 16.2643 11.8573 14.1305 11.9868 12H16.9054C17.1679 14.3324 17.2004 14.5957 17.2498 14.9956C17.2756 15.2042 17.3059 15.45 17.3759 16.0464C16.9409 16.6429 16.4741 17.261 16.0849 17.7699Z" fill="#006195"/>
</svg>
