<svg width="40" height="40" viewBox="0 0 40 40" fill="none" xmlns="http://www.w3.org/2000/svg">
<rect width="40" height="40" rx="20" fill="#F4E9FF"/>
<g clip-path="url(#clip0_14408_41535)">
<path opacity="0.3" d="M15.832 13.3334H23.332V25H15.832V13.3334Z" fill="#5A30AD"/>
<path d="M22.918 10.8334H16.2513C15.1013 10.8334 14.168 11.7667 14.168 12.9167V27.0834C14.168 28.2334 15.1013 29.1667 16.2513 29.1667H22.918C24.068 29.1667 25.0013 28.2334 25.0013 27.0834V12.9167C25.0013 11.7667 24.068 10.8334 22.918 10.8334ZM19.5846 28.3334C18.893 28.3334 18.3346 27.775 18.3346 27.0834C18.3346 26.3917 18.893 25.8334 19.5846 25.8334C20.2763 25.8334 20.8346 26.3917 20.8346 27.0834C20.8346 27.775 20.2763 28.3334 19.5846 28.3334ZM23.3346 25H15.8346V13.3334H23.3346V25Z" fill="#5A30AD"/>
</g>
<defs>
<clipPath id="clip0_14408_41535">
<rect width="20" height="20" fill="white" transform="translate(10 10)"/>
</clipPath>
</defs>
</svg>
