<svg width="40" height="40" viewBox="0 0 40 40" fill="none" xmlns="http://www.w3.org/2000/svg">
<rect width="40" height="40" rx="20" fill="#D3E1FF"/>
<g clip-path="url(#clip0_7192_95307)">
<path opacity="0.3" d="M13.332 24.1666H26.6654V25.8333H13.332V24.1666ZM24.1654 19.025L22.8154 20L20.832 17.3L19.9987 16.1666L19.1654 17.3L17.182 20L15.832 19.025L17.5654 16.6666H13.332V21.6666H26.6654V16.6666H22.432L24.1654 19.025Z" fill="#003EC1"/>
<path d="M26.668 15H24.8513C24.943 14.7416 25.0013 14.4583 25.0013 14.1666C25.0013 12.7833 23.8846 11.6666 22.5013 11.6666C21.6263 11.6666 20.868 12.1166 20.418 12.7916L20.0013 13.35L19.5846 12.7833C19.1346 12.1166 18.3763 11.6666 17.5013 11.6666C16.118 11.6666 15.0013 12.7833 15.0013 14.1666C15.0013 14.4583 15.0596 14.7416 15.1513 15H13.3346C12.4096 15 11.6763 15.7416 11.6763 16.6666L11.668 25.8333C11.668 26.7583 12.4096 27.5 13.3346 27.5H26.668C27.593 27.5 28.3346 26.7583 28.3346 25.8333V16.6666C28.3346 15.7416 27.593 15 26.668 15ZM22.5013 13.3333C22.9596 13.3333 23.3346 13.7083 23.3346 14.1666C23.3346 14.625 22.9596 15 22.5013 15C22.043 15 21.668 14.625 21.668 14.1666C21.668 13.7083 22.043 13.3333 22.5013 13.3333ZM17.5013 13.3333C17.9596 13.3333 18.3346 13.7083 18.3346 14.1666C18.3346 14.625 17.9596 15 17.5013 15C17.043 15 16.668 14.625 16.668 14.1666C16.668 13.7083 17.043 13.3333 17.5013 13.3333ZM26.668 25.8333H13.3346V24.1666H26.668V25.8333ZM26.668 21.6666H13.3346V16.6666H17.568L15.8346 19.025L17.1846 20L19.168 17.3L20.0013 16.1666L20.8346 17.3L22.818 20L24.168 19.025L22.4346 16.6666H26.668V21.6666Z" fill="#003EC1"/>
</g>
<defs>
<clipPath id="clip0_7192_95307">
<rect width="20" height="20" fill="white" transform="translate(10 10)"/>
</clipPath>
</defs>
</svg>
