<svg width="40" height="40" viewBox="0 0 40 40" fill="none" xmlns="http://www.w3.org/2000/svg">
<rect width="40.0007" height="40" rx="20" fill="#FEE8D2"/>
<g clip-path="url(#clip0_14408_41550)">
<path opacity="0.3" d="M26.6654 16.6667L19.9987 20.8333L13.332 16.6667V25H26.6654V16.6667ZM26.6654 15H13.332L19.9987 19.1583L26.6654 15Z" fill="#912702"/>
<path d="M13.3346 26.6667H26.668C27.5846 26.6667 28.3346 25.9167 28.3346 25V15C28.3346 14.0834 27.5846 13.3334 26.668 13.3334H13.3346C12.418 13.3334 11.668 14.0834 11.668 15V25C11.668 25.9167 12.418 26.6667 13.3346 26.6667ZM26.668 15L20.0013 19.1584L13.3346 15H26.668ZM13.3346 16.6667L20.0013 20.8334L26.668 16.6667V25H13.3346V16.6667Z" fill="#912702"/>
</g>
<defs>
<clipPath id="clip0_14408_41550">
<rect width="20" height="20" fill="white" transform="translate(10 10)"/>
</clipPath>
</defs>
</svg>
