<svg width="40" height="40" viewBox="0 0 40 40" fill="none" xmlns="http://www.w3.org/2000/svg">
<rect width="40" height="40" rx="20" fill="#F4E9FF"/>
<path d="M20.0013 20C20.368 20 20.6819 19.8694 20.943 19.6083C21.2041 19.3472 21.3346 19.0333 21.3346 18.6667C21.3346 18.3 21.2041 17.9861 20.943 17.725C20.6819 17.4639 20.368 17.3333 20.0013 17.3333C19.6346 17.3333 19.3207 17.4639 19.0596 17.725C18.7985 17.9861 18.668 18.3 18.668 18.6667C18.668 19.0333 18.7985 19.3472 19.0596 19.6083C19.3207 19.8694 19.6346 20 20.0013 20ZM20.0013 24.9C21.3569 23.6555 22.3624 22.525 23.018 21.5083C23.6735 20.4917 24.0013 19.5889 24.0013 18.8C24.0013 17.5889 23.6152 16.5972 22.843 15.825C22.0707 15.0528 21.1235 14.6667 20.0013 14.6667C18.8791 14.6667 17.9319 15.0528 17.1596 15.825C16.3874 16.5972 16.0013 17.5889 16.0013 18.8C16.0013 19.5889 16.3291 20.4917 16.9846 21.5083C17.6402 22.525 18.6457 23.6555 20.0013 24.9ZM20.0013 26.6667C18.2124 25.1444 16.8763 23.7305 15.993 22.425C15.1096 21.1194 14.668 19.9111 14.668 18.8C14.668 17.1333 15.2041 15.8056 16.2763 14.8167C17.3485 13.8278 18.5902 13.3333 20.0013 13.3333C21.4124 13.3333 22.6541 13.8278 23.7263 14.8167C24.7985 15.8056 25.3346 17.1333 25.3346 18.8C25.3346 19.9111 24.893 21.1194 24.0096 22.425C23.1263 23.7305 21.7902 25.1444 20.0013 26.6667Z" fill="#7743D7"/>
</svg>
