<svg width="40" height="40" viewBox="0 0 40 40" fill="none" xmlns="http://www.w3.org/2000/svg">
<rect width="40" height="40" rx="20" fill="#CBF5E3"/>
<g clip-path="url(#clip0_14408_41558)">
<path d="M25.4154 18.5C25.4154 20.6416 23.6654 23.325 20.282 26.425L19.9987 26.675L19.7154 26.4166C16.332 23.325 14.582 20.6416 14.582 18.5C14.582 15.3 16.932 12.9166 19.9987 12.9166C23.0654 12.9166 25.4154 15.2916 25.4154 18.5Z" fill="#015C36" fill-opacity="0.3"/>
<path d="M19.9987 11.6666C23.4987 11.6666 26.6654 14.35 26.6654 18.5C26.6654 21.2666 24.4404 24.5416 19.9987 28.3333C15.557 24.5416 13.332 21.2666 13.332 18.5C13.332 14.35 16.4987 11.6666 19.9987 11.6666ZM24.9987 18.5C24.9987 15.475 22.7904 13.3333 19.9987 13.3333C17.207 13.3333 14.9987 15.475 14.9987 18.5C14.9987 20.45 16.6237 23.0333 19.9987 26.1166C23.3737 23.0333 24.9987 20.45 24.9987 18.5ZM19.9987 20C19.082 20 18.332 19.25 18.332 18.3333C18.332 17.4166 19.082 16.6666 19.9987 16.6666C20.9154 16.6666 21.6654 17.4166 21.6654 18.3333C21.6654 19.25 20.9154 20 19.9987 20Z" fill="#015C36"/>
</g>
<defs>
<clipPath id="clip0_14408_41558">
<rect width="20" height="20" fill="white" transform="translate(10 10)"/>
</clipPath>
</defs>
</svg>
