<svg width="40" height="40" viewBox="0 0 40 40" fill="none" xmlns="http://www.w3.org/2000/svg">
  <rect width="40.0007" height="40" rx="20" fill="#D62828"/>
  <g clip-path="url(#clip0_5328_1095)">
  <path opacity="0.3" d="M13.002 27H27.002V28H13.002V27Z" fill="white"/>
  <path d="M26 21H25.32L23.32 23H25.23L27 25H13L14.78 23H16.83L14.83 21H14L11 24V28C11 29.1 11.89 30 12.99 30H27C28.1 30 29 29.11 29 28V24L26 21ZM27 28H13V27H27V28Z" fill="white"/>
  <path opacity="0.3" d="M20.0469 20.9049L16.5039 17.3619L21.4539 12.4119L24.9969 15.9549L20.0469 20.9049Z" fill="white"/>
  <path d="M27.1102 15.25L22.1602 10.3C21.7802 9.90004 21.1502 9.90004 20.7602 10.29L14.3902 16.66C14.0002 17.05 14.0002 17.68 14.3902 18.07L19.3402 23.02C19.7302 23.41 20.3602 23.41 20.7502 23.02L27.1102 16.66C27.5002 16.27 27.5002 15.64 27.1102 15.25ZM20.0502 20.9L16.5102 17.36L21.4602 12.41L25.0002 15.95L20.0502 20.9Z" fill="white"/>
  </g>
  <defs>
  <clipPath id="clip0_5328_1095">
  <rect width="24" height="24" fill="white" transform="translate(8 8)"/>
  </clipPath>
  </defs>
  </svg>
  