<svg width="40" height="40" viewBox="0 0 40 40" fill="none" xmlns="http://www.w3.org/2000/svg">
  <rect width="40" height="40" rx="20" fill="#FFF2B2"/>
  <g clip-path="url(#clip0_5232_17227)">
  <path opacity="0.3" d="M15.8333 21.6667H18.3333V24.1667H15.8333V21.6667ZM15.8333 15.8334H18.3333V18.3334H15.8333V15.8334ZM14.1666 25.8334H25.8333V14.1667H14.1666V25.8334ZM20.8333 16.2501H25V17.9167H20.8333V16.2501ZM20.8333 22.0834H25V23.7501H20.8333V22.0834ZM15 15.0001H19.1666V19.1667H15V15.0001ZM15 20.8334H19.1666V25.0001H15V20.8334Z" fill="#4A2100"/>
  <path d="M20.8333 16.25H25V17.9167H20.8333V16.25ZM20.8333 22.0833H25V23.75H20.8333V22.0833ZM25.8333 12.5H14.1667C13.25 12.5 12.5 13.25 12.5 14.1667V25.8333C12.5 26.75 13.25 27.5 14.1667 27.5H25.8333C26.75 27.5 27.5 26.75 27.5 25.8333V14.1667C27.5 13.25 26.75 12.5 25.8333 12.5ZM25.8333 25.8333H14.1667V14.1667H25.8333V25.8333ZM19.1667 15H15V19.1667H19.1667V15ZM18.3333 18.3333H15.8333V15.8333H18.3333V18.3333ZM19.1667 20.8333H15V25H19.1667V20.8333ZM18.3333 24.1667H15.8333V21.6667H18.3333V24.1667Z" fill="#4A2100"/>
  </g>
  <defs>
  <clipPath id="clip0_5232_17227">
  <rect width="20" height="20" fill="white" transform="translate(10 10)"/>
  </clipPath>
  </defs>
  </svg>
  