<svg width="40" height="40" viewBox="0 0 40 40" fill="none" xmlns="http://www.w3.org/2000/svg">
<rect width="40" height="40" rx="20" fill="#FDE4FD"/>
<g clip-path="url(#clip0_14408_41554)">
<path opacity="0.3" d="M15 15.325V19.2416C15 22.575 17.125 25.6583 20 26.6C22.875 25.6583 25 22.5833 25 19.2416V15.325L20 13.45L15 15.325Z" fill="#741A66"/>
<path d="M19.9987 11.6666L13.332 14.1666V19.2416C13.332 23.45 16.1737 27.375 19.9987 28.3333C23.8237 27.375 26.6654 23.45 26.6654 19.2416V14.1666L19.9987 11.6666ZM24.9987 19.2416C24.9987 22.575 22.8737 25.6583 19.9987 26.6C17.1237 25.6583 14.9987 22.5833 14.9987 19.2416V15.325L19.9987 13.45L24.9987 15.325V19.2416Z" fill="#741A66"/>
</g>
<defs>
<clipPath id="clip0_14408_41554">
<rect width="20" height="20" fill="white" transform="translate(10 10)"/>
</clipPath>
</defs>
</svg>
