<svg width="40" height="40" viewBox="0 0 40 40" fill="none" xmlns="http://www.w3.org/2000/svg">
  <rect width="40" height="40" rx="20" fill="#6100FF"/>
  <g clip-path="url(#clip0_5328_1102)">
  <path opacity="0.3" d="M14 14.3899V19.0899C14 23.0899 16.55 26.7899 20 27.9199C23.45 26.7899 26 23.0999 26 19.0899V14.3899L20 12.1399L14 14.3899Z" fill="white"/>
  <path d="M19.998 10L11.998 13V19.09C11.998 24.14 15.408 28.85 19.998 30C24.588 28.85 27.998 24.14 27.998 19.09V13L19.998 10ZM25.998 19.09C25.998 23.09 23.448 26.79 19.998 27.92C16.548 26.79 13.998 23.1 13.998 19.09V14.39L19.998 12.14L25.998 14.39V19.09Z" fill="white"/>
  </g>
  <defs>
  <clipPath id="clip0_5328_1102">
  <rect width="24" height="24" fill="white" transform="translate(8 8)"/>
  </clipPath>
  </defs>
  </svg>
  