<svg width="40" height="40" viewBox="0 0 40 40" fill="none" xmlns="http://www.w3.org/2000/svg">
<rect width="40" height="40" rx="20" fill="#6100FF"/>
<g clip-path="url(#clip0_399_895)">
<g clip-path="url(#clip1_399_895)">
<path opacity="0.3" d="M13 22.3886L11 27.3403L16.5 26.3499L24.5 17.9321L21 13.9707L13 22.3886Z" fill="white"/>
<path d="M10.8763 25.9122L11.6576 23.2627C11.7934 22.7872 12.0652 22.3456 12.4048 22.0059L22.7309 11.6799C23.5801 10.8307 24.9728 10.8307 25.822 11.6799L27.1467 13.0046C27.2486 13.1065 27.3505 13.2424 27.4184 13.3443C27.9959 14.1934 27.894 15.3483 27.1467 16.0956L16.8206 26.4217C16.7867 26.4557 16.7187 26.4896 16.6847 26.5576C16.3451 26.8293 15.9714 27.0331 15.5638 27.169L12.9144 27.9502L11.4538 28.3579C11.182 28.4597 10.8763 28.3918 10.6725 28.154C10.4347 27.9502 10.3668 27.6445 10.4687 27.3728L10.8763 25.9122ZM12.9823 24.5196L12.4388 26.3877L14.307 25.8442L15.0883 25.6065C15.326 25.5386 15.4959 25.4366 15.6657 25.2668L23.4443 17.4883L21.3383 15.3823L13.5597 23.1609C13.5258 23.1609 13.5258 23.1948 13.4918 23.2288C13.3559 23.3646 13.288 23.5345 13.2201 23.7383L12.9823 24.5196ZM18.8587 26.7614H29.1847C29.6263 26.7614 30 27.135 30 27.5766C30 28.0522 29.6263 28.3918 29.1847 28.3918H18.8587C18.3831 28.3918 18.0434 28.0522 18.0434 27.5766C18.0434 27.135 18.3831 26.7614 18.8587 26.7614Z" fill="white"/>
</g>
</g>
<defs>
<clipPath id="clip0_399_895">
<rect width="20" height="20" fill="white" transform="translate(10 10)"/>
</clipPath>
<clipPath id="clip1_399_895">
<rect width="20" height="17.8261" fill="white" transform="translate(10 11)"/>
</clipPath>
</defs>
</svg>
