<svg width="40" height="40" viewBox="0 0 40 40" fill="none" xmlns="http://www.w3.org/2000/svg">
<rect width="40" height="40" rx="20" fill="#BCF6FD"/>
<g clip-path="url(#clip0_14408_41631)">
<path opacity="0.3" d="M14.168 25.8334H25.8346V26.6667H14.168V25.8334Z" fill="#004774"/>
<path d="M25 20.8334H24.4333L22.7667 22.5H24.3583L25.8333 24.1667H14.1667L15.65 22.5H17.3583L15.6917 20.8334H15L12.5 23.3334V26.6667C12.5 27.5834 13.2417 28.3334 14.1583 28.3334H25.8333C26.75 28.3334 27.5 27.5917 27.5 26.6667V23.3334L25 20.8334ZM25.8333 26.6667H14.1667V25.8334H25.8333V26.6667Z" fill="#004774"/>
<path opacity="0.3" d="M20.0384 20.7541L17.0859 17.8016L21.2109 13.6766L24.1634 16.6291L20.0384 20.7541Z" fill="#004774"/>
<path d="M25.9258 16.0417L21.8008 11.9167C21.4841 11.5834 20.9591 11.5834 20.6341 11.9084L15.3258 17.2167C15.0008 17.5417 15.0008 18.0667 15.3258 18.3917L19.4508 22.5167C19.7758 22.8417 20.3008 22.8417 20.6258 22.5167L25.9258 17.2167C26.2508 16.8917 26.2508 16.3667 25.9258 16.0417ZM20.0424 20.75L17.0924 17.8L21.2174 13.675L24.1674 16.625L20.0424 20.75Z" fill="#004774"/>
</g>
<defs>
<clipPath id="clip0_14408_41631">
<rect width="20" height="20" fill="white" transform="translate(10 10)"/>
</clipPath>
</defs>
</svg>
