<svg width="40" height="40" viewBox="0 0 40 40" fill="none" xmlns="http://www.w3.org/2000/svg">
  <rect width="40" height="40" rx="20" fill="#95278520"/>
  <g clip-path="url(#clip0_5328_1113)">
    <path opacity="0.3" d="M17.75 17.75C18.5784 17.75 19.25 17.0784 19.25 16.25C19.25 15.4216 18.5784 14.75 17.75 14.75C16.9216 14.75 16.25 15.4216 16.25 16.25C16.25 17.0784 16.9216 17.75 17.75 17.75Z" fill="#952785"/>
    <path opacity="0.3" d="M13.75 23.5H21.75C21 23 19.25 22.45 17.5 22.45C15.75 22.45 14 23 13.75 23.5Z" fill="#952785"/>
    <path d="M17.75 19.5C19.5449 19.5 21 18.0449 21 16.25C21 14.4551 19.5449 13 17.75 13C15.9551 13 14.5 14.4551 14.5 16.25C14.5 18.0449 15.9551 19.5 17.75 19.5ZM17.75 15C18.1642 15 18.5 15.3358 18.5 15.75C18.5 16.1642 18.1642 16.5 17.75 16.5C17.3358 16.5 17 16.1642 17 15.75C17 15.3358 17.3358 15 17.75 15ZM17.75 20.75C15.5 20.75 11.25 21.85 11.25 24V25.75H24.25V24C24.25 21.85 20 20.75 17.75 20.75ZM13.75 23.5C14 23 15.75 22.45 17.5 22.45C19.25 22.45 21 23 21.75 23.5H13.75ZM24 20.95C25.15 21.7 26 22.7 26 24V25.75H29.5V24C29.5 22.25 26.35 21.2 24 20.95ZM23.25 19.5C25.0449 19.5 26.5 18.0449 26.5 16.25C26.5 14.4551 25.0449 13 23.25 13C22.7474 13 22.2671 13.1153 21.8296 13.3211C22.4299 14.1023 22.7833 15.0584 22.7833 16.0917C22.7833 17.125 22.4299 18.0811 21.8296 18.8623C22.2671 19.0681 22.7474 19.1833 23.25 19.1833Z" fill="#952785"/>
  </g>
  <defs>
    <clipPath id="clip0_5328_1113">
      <rect width="24" height="24" fill="white" transform="translate(8 8)"/>
    </clipPath>
  </defs>
</svg>