<svg width="40" height="40" viewBox="0 0 40 40" fill="none" xmlns="http://www.w3.org/2000/svg">
<rect width="40" height="40" rx="20" fill="#FEE1E4"/>
<g clip-path="url(#clip0_14408_41540)">
<path d="M25 19.1666C25 19.725 25 20.275 25 20.8333C26 20.8333 27.3 20.8333 28.3333 20.8333C28.3333 20.275 28.3333 19.725 28.3333 19.1666C27.3 19.1666 26 19.1666 25 19.1666Z" fill="#910510"/>
<path d="M23.332 24.675C24.132 25.2667 25.1737 26.05 25.9987 26.6667C26.332 26.225 26.6654 25.775 26.9987 25.3334C26.1737 24.7167 25.132 23.9334 24.332 23.3334C23.9987 23.7834 23.6654 24.2334 23.332 24.675Z" fill="#910510"/>
<path d="M26.9987 14.6667C26.6654 14.225 26.332 13.775 25.9987 13.3334C25.1737 13.95 24.132 14.7334 23.332 15.3334C23.6654 15.775 23.9987 16.225 24.332 16.6667C25.132 16.0667 26.1737 15.2917 26.9987 14.6667Z" fill="#910510"/>
<path d="M13.3346 17.5C12.418 17.5 11.668 18.25 11.668 19.1667V20.8333C11.668 21.75 12.418 22.5 13.3346 22.5H14.168V25.8333H15.8346V22.5H16.668L20.8346 25V15L16.668 17.5H13.3346ZM17.5263 18.925L19.168 17.9417V22.0583L17.5263 21.075L17.1263 20.8333H16.668H13.3346V19.1667H16.668H17.1263L17.5263 18.925Z" fill="#910510"/>
<path d="M22.918 20C22.918 18.8917 22.4346 17.8917 21.668 17.2084V22.7834C22.4346 22.1084 22.918 21.1084 22.918 20Z" fill="#910510"/>
<path opacity="0.3" d="M17.5237 18.925L19.1654 17.9417V22.0583L17.5237 21.075L17.1237 20.8333H16.6654H13.332V19.1667H16.6654H17.1237L17.5237 18.925Z" fill="#910510"/>
</g>
<defs>
<clipPath id="clip0_14408_41540">
<rect width="20" height="20" fill="white" transform="translate(10 10)"/>
</clipPath>
</defs>
</svg>
