<svg width="40" height="40" viewBox="0 0 40 40" fill="none" xmlns="http://www.w3.org/2000/svg">
<rect width="40" height="40" rx="20" fill="#003049"/>
<g clip-path="url(#clip0_5259_17615)">
<path opacity="0.3" d="M13 14.2999V18.9999C13 23.5199 15.98 27.6899 20 28.9299C21.74 28.3999 23.28 27.3099 24.47 25.8899L22.75 24.1699C20.81 25.4599 18.17 25.2399 16.46 23.5299C14.51 21.5799 14.51 18.4099 16.46 16.4599C18.41 14.5099 21.58 14.5099 23.53 16.4599C25.24 18.1699 25.45 20.8099 24.17 22.7499L25.62 24.1999C26.49 22.6499 27 20.8499 27 18.9999V14.2999L20 11.1899L13 14.2999Z" fill="white"/>
<path d="M20 9L11 13V19C11 24.55 14.84 29.74 20 31C20.65 30.84 21.27 30.62 21.87 30.35C23.67 29.53 25.23 28.22 26.44 26.61C28.04 24.46 29 21.77 29 19V13L20 9ZM27 19C27 20.85 26.49 22.65 25.62 24.21L24.17 22.76C25.46 20.82 25.24 18.18 23.53 16.47C21.58 14.52 18.41 14.52 16.46 16.47C14.51 18.42 14.51 21.59 16.46 23.54C18.17 25.25 20.81 25.46 22.75 24.18L24.47 25.9C23.28 27.32 21.74 28.41 20 28.94C15.98 27.69 13 23.52 13 19V14.3L20 11.19L27 14.3V19ZM23 20C23 21.66 21.66 23 20 23C18.34 23 17 21.66 17 20C17 18.34 18.34 17 20 17C21.66 17 23 18.34 23 20Z" fill="white"/>
</g>
<defs>
<clipPath id="clip0_5259_17615">
<rect width="24" height="24" fill="white" transform="translate(8 8)"/>
</clipPath>
</defs>
</svg>
