<svg width="40" height="40" viewBox="0 0 40 40" fill="none" xmlns="http://www.w3.org/2000/svg">
<rect width="40.0007" height="40" rx="20" fill="#D62828"/>
<g clip-path="url(#clip0_5259_17626)">
<path opacity="0.3" d="M20 11C16.69 11 14 13.69 14 17C14 20.54 17.82 25.86 20 28.47C21.75 26.36 26 20.84 26 17C26 13.69 23.31 11 20 11ZM18.47 22L15.29 18.82L16.71 17.4L18.48 19.17L23.08 14.57L24.49 15.98L18.47 22Z" fill="white"/>
<path d="M20 9C15.59 9 12 12.59 12 17C12 22.57 18.96 30.34 19.26 30.67L20 31.49L20.74 30.67C21.04 30.34 28 22.57 28 17C28 12.59 24.41 9 20 9ZM20 28.47C17.82 25.86 14 20.54 14 17C14 13.69 16.69 11 20 11C23.31 11 26 13.69 26 17C26 20.83 21.75 26.36 20 28.47ZM23.07 14.57L18.47 19.17L16.71 17.4L15.29 18.82L18.47 22L24.48 15.99L23.07 14.57Z" fill="white"/>
</g>
<defs>
<clipPath id="clip0_5259_17626">
<rect width="24" height="24" fill="white" transform="translate(8 8)"/>
</clipPath>
</defs>
</svg>
