<svg width="220" height="79" viewBox="0 0 220 79" fill="none" xmlns="http://www.w3.org/2000/svg">
<g clip-path="url(#clip0_138_611)">
<path d="M111.197 7.07496H106.288C106.288 7.07496 106.358 4.19936 101.939 4.19936C98.0817 4.19936 96.8544 8.09194 99.6598 8.93358C101.868 9.59603 111.493 9.31723 111.493 16.0864C111.493 22.8557 105.797 23.8376 101.939 23.8376C98.0817 23.8376 92.6111 21.9088 92.6111 16.5083H97.6434C97.6434 16.5083 97.3979 19.6995 102.237 19.6995C107.077 19.6995 108.164 15.5089 103.71 14.562C99.2565 13.6152 94.5574 13.7905 93.1897 9.26673C91.822 4.74292 94.9505 0.166504 102.185 0.166504C109.419 0.166504 111.197 5.6547 111.197 7.07496Z" fill="#201F1E"/>
<path d="M132.098 5.32123V0.62207H112.67V5.32123H119.859V23.4866H124.909V5.32123H132.098Z" fill="#201F1E"/>
<path d="M143.084 0.83252H136.996L128.744 23.4867H133.966L135.447 19.2434H144.539L145.978 23.4867H151.525L143.084 0.83252ZM137.014 14.7547L140.059 6.0328L143.017 14.7547H137.014Z" fill="#201F1E"/>
<path d="M168.397 0.83252V14.7564L159.293 0.842689V0.83252H158.577H153.528V23.4867H158.577V8.96592L168.09 23.4867L168.397 23.2878V23.4867H173.446V0.83252H168.397Z" fill="#201F1E"/>
<path d="M187.576 0.83252H177.266V23.4867H187.576C193.022 22.9144 197.273 18.0125 197.273 12.1421C197.273 6.27162 193.022 1.40483 187.576 0.83252ZM187.576 18.9278H182.316V5.07579H187.576C190.961 6.03841 191.837 8.53914 191.837 11.9843C191.837 15.4294 190.417 18.507 187.576 18.9278Z" fill="#201F1E"/>
<path d="M97.4231 27.5889H92.0527L98.7129 50.2532H103.272L107.69 35.3492L112.331 50.2532H116.991L123.596 27.5889H118.667L114.722 42.3453H114.406L110.294 27.5889H105.709L101.606 42.0998H101.326L97.4231 27.5889Z" fill="#201F1E"/>
<path d="M130.59 27.4697H125.54V50.1239H130.59V27.4697Z" fill="#201F1E"/>
<path d="M152.333 27.2593H132.905V31.9585H140.094V50.1239H145.144V31.9585H152.333V27.2593Z" fill="#201F1E"/>
<path d="M169.621 27.4697V36.2719H159.802V27.4697H154.752V36.2719V40.971V50.1239H159.802V40.971H169.621V50.1239H174.671V27.4697H169.621Z" fill="#201F1E"/>
<path d="M113.481 69.3C112.319 73.7239 108.365 77.0042 103.701 77.0042H102.772C97.2028 77.0042 92.646 72.3268 92.646 66.6099V64.1481C92.646 58.4313 97.2028 53.7539 102.772 53.7539H103.701C108.211 53.7539 112.057 56.8213 113.357 61.0239H108.179C107.92 60.4993 107.586 60.022 107.191 59.6082C106.212 58.5817 104.862 57.9445 103.377 57.9445C100.407 57.9445 97.9764 60.4929 97.9764 63.6081V67.15C97.9764 68.7077 98.5838 70.1234 99.5629 71.1499C100.542 72.1763 101.892 72.8135 103.377 72.8135C105.623 72.8135 107.56 71.3568 108.371 69.3H113.481Z" fill="#201F1E"/>
<path d="M127.733 68.1987H127.784V68.1812C131.716 68.1812 134.903 65.0843 134.903 61.264C134.903 57.4436 131.716 54.3467 127.784 54.3467H115.896V77.0009H120.946V68.1987L129.503 76.7554H136.289L127.733 68.1987ZM120.946 58.5549H127.455C127.567 58.5672 127.677 58.5854 127.784 58.611C129.03 58.9074 129.959 60.0611 129.959 61.4393C129.959 62.8175 129.03 63.9712 127.784 64.2676V64.3412H120.946V58.5549Z" fill="#201F1E"/>
<path d="M150.579 54.2065L145.449 63.4446L140.444 54.2065H135.009L142.854 68.1988H142.934V77.001H147.984V68.1988L155.891 54.2065H150.579Z" fill="#201F1E"/>
<path d="M169.691 54.3467C169.514 54.3467 169.339 54.353 169.165 54.3657V54.3467H157.873V77.0009H162.923V68.1636H169.691V68.1812C173.623 68.1812 176.81 65.0843 176.81 61.264C176.81 57.4436 173.623 54.3467 169.691 54.3467ZM169.691 64.2676V64.2711H162.923V58.5549H169.165V58.5398C169.346 58.5462 169.521 58.5707 169.691 58.611C170.937 58.9074 171.866 60.0611 171.866 61.4393C171.866 62.8175 170.937 63.9712 169.691 64.2676Z" fill="#201F1E"/>
<path d="M197.15 54.1367H177.722V58.8358H184.911V77.0012H189.961V58.8358H197.15V54.1367Z" fill="#201F1E"/>
<path d="M209.339 53.7539H208.385C202.668 53.7539 197.991 58.4313 197.991 64.1481V66.6103C197.991 72.3271 202.668 77.0045 208.385 77.0045H209.339C215.056 77.0045 219.733 72.3271 219.733 66.6103V64.1481C219.733 58.4313 215.056 53.7539 209.339 53.7539ZM214.543 67.15C214.543 70.2647 211.995 72.8135 208.88 72.8135C205.765 72.8135 203.216 70.2651 203.216 67.15V63.6081C203.216 60.4933 205.765 57.9445 208.88 57.9445C211.995 57.9445 214.543 60.4929 214.543 63.6081V67.15Z" fill="#201F1E"/>
<path d="M19.7488 0H0V35.412C1.30703 54.0427 13.5376 70.0693 31.0356 76.0879L39.5 79V0H19.7488Z" fill="url(#paint0_linear_138_611)"/>
<path d="M59.25 0H39.4988V79L47.9631 76.0832C65.4658 70.0646 77.6918 54.0355 78.9988 35.4051V0H59.25Z" fill="url(#paint1_linear_138_611)"/>
<path d="M19.7488 0H0V35.412C1.30703 54.0427 13.5376 70.0693 31.0356 76.0879L39.5 79V0H19.7488Z" fill="url(#paint2_linear_138_611)"/>
<path d="M59.25 0H39.4988V79L47.9631 76.0832C65.4658 70.0646 77.6918 54.0355 78.9988 35.4051V0H59.25Z" fill="url(#paint3_linear_138_611)"/>
<path d="M20.3343 31.4589L20.0109 25.2567C20.0062 25.1547 20.0245 25.053 20.0643 24.9589C20.1041 24.8649 20.1645 24.781 20.2411 24.7135C20.3176 24.6459 20.4083 24.5963 20.5066 24.5685C20.6048 24.5406 20.708 24.5351 20.8087 24.5524L26.9821 25.6376L26.1485 23.3378C26.1146 23.2463 26.1103 23.1465 26.1361 23.0524C26.1619 22.9583 26.2165 22.8747 26.2922 22.8132L33.055 17.3368L31.5314 16.6254C31.4285 16.5767 31.3469 16.4922 31.3019 16.3877C31.2569 16.2831 31.2516 16.1658 31.287 16.0576L32.6238 11.9467L28.7285 12.7732C28.623 12.7952 28.5131 12.7801 28.4175 12.7303C28.3219 12.6805 28.2464 12.5992 28.2039 12.5001L27.4493 10.725L24.4093 13.9878C24.3397 14.0611 24.2483 14.1099 24.1487 14.1269C24.0491 14.1439 23.9467 14.1281 23.8569 14.0819C23.767 14.0358 23.6945 13.9618 23.6503 13.8709C23.606 13.7801 23.5924 13.6774 23.6115 13.5781L25.0776 6.01763L22.7275 7.37593C22.6724 7.40827 22.6111 7.42894 22.5477 7.43665C22.4842 7.44436 22.4198 7.43895 22.3585 7.42076C22.2971 7.40256 22.2402 7.37198 22.1912 7.33089C22.1422 7.2898 22.1022 7.23909 22.0735 7.18189L19.6875 2.49609L17.3015 7.18189C17.2729 7.23909 17.2328 7.2898 17.1838 7.33089C17.1348 7.37198 17.0779 7.40256 17.0166 7.42076C16.9553 7.43895 16.8909 7.44436 16.8274 7.43665C16.7639 7.42894 16.7027 7.40827 16.6475 7.37593L14.2974 6.01763L15.7635 13.5781C15.7826 13.6774 15.769 13.7801 15.7248 13.8709C15.6806 13.9618 15.6081 14.0358 15.5182 14.0819C15.4283 14.1281 15.3259 14.1439 15.2263 14.1269C15.1267 14.1099 15.0353 14.0611 14.9658 13.9878L11.9258 10.725L11.1712 12.5001C11.1287 12.5992 11.0532 12.6805 10.9576 12.7303C10.8619 12.7801 10.7521 12.7952 10.6465 12.7732L6.75128 11.9467L8.08802 16.0576C8.12345 16.1658 8.11817 16.2831 8.07317 16.3877C8.02818 16.4922 7.94657 16.5767 7.84367 16.6254L6.32007 17.3368L13.0829 22.8132C13.1586 22.8747 13.2132 22.9583 13.239 23.0524C13.2647 23.1465 13.2604 23.2463 13.2266 23.3378L12.3929 25.6376L18.5664 24.5524C18.667 24.5351 18.7702 24.5406 18.8685 24.5685C18.9667 24.5963 19.0574 24.6459 19.134 24.7135C19.2105 24.781 19.2709 24.8649 19.3108 24.9589C19.3506 25.053 19.3688 25.1547 19.3641 25.2567L19.0407 31.4589H20.3343Z" fill="white"/>
</g>
<defs>
<linearGradient id="paint0_linear_138_611" x1="19.7488" y1="0" x2="19.7488" y2="79" gradientUnits="userSpaceOnUse">
<stop stop-color="#6100FF"/>
<stop offset="1" stop-color="#C09AFF"/>
</linearGradient>
<linearGradient id="paint1_linear_138_611" x1="59.25" y1="0" x2="59.25" y2="79" gradientUnits="userSpaceOnUse">
<stop stop-color="#C09AFF"/>
<stop offset="1" stop-color="#6100FF"/>
</linearGradient>
<linearGradient id="paint2_linear_138_611" x1="19.7488" y1="0" x2="19.7488" y2="79" gradientUnits="userSpaceOnUse">
<stop stop-color="#6100FF"/>
<stop offset="1" stop-color="#C09AFF"/>
</linearGradient>
<linearGradient id="paint3_linear_138_611" x1="59.25" y1="0" x2="59.25" y2="79" gradientUnits="userSpaceOnUse">
<stop stop-color="#C09AFF"/>
<stop offset="1" stop-color="#6100FF"/>
</linearGradient>
<clipPath id="clip0_138_611">
<rect width="220" height="79" fill="white"/>
</clipPath>
</defs>
</svg>
