<svg width="139" height="138" viewBox="0 0 139 138" fill="none" xmlns="http://www.w3.org/2000/svg">
<path d="M34.5052 0H0V61.8165C2.28365 94.339 23.6529 122.316 54.2255 132.822L69.0145 137.905V0H34.5052Z" fill="url(#paint0_linear_435_265)"/>
<path d="M103.522 0H69.0123V137.905L83.8012 132.814C114.382 122.307 135.743 94.3264 138.027 61.8045V0H103.522Z" fill="url(#paint1_linear_435_265)"/>
<path d="M34.5052 0H0V61.8165C2.28365 94.339 23.6529 122.316 54.2255 132.822L69.0145 137.905V0H34.5052Z" fill="url(#paint2_linear_435_265)"/>
<path d="M103.522 0H69.0123V137.905L83.8012 132.814C114.382 122.307 135.743 94.3264 138.027 61.8045V0H103.522Z" fill="url(#paint3_linear_435_265)"/>
<path d="M35.5278 54.9153L34.9628 44.0887C34.9546 43.9106 34.9865 43.7331 35.0561 43.5688C35.1256 43.4048 35.2311 43.2583 35.365 43.1405C35.4986 43.0225 35.6571 42.9359 35.8288 42.8874C36.0004 42.8386 36.1807 42.829 36.3567 42.8592L47.1427 44.7536L45.6863 40.739C45.627 40.5793 45.6195 40.4051 45.6646 40.2408C45.7097 40.0766 45.8051 39.9306 45.9373 39.8233L57.7532 30.2636L55.0912 29.0218C54.9114 28.9367 54.7688 28.7892 54.6902 28.6068C54.6116 28.4242 54.6023 28.2195 54.6642 28.0306L56.9998 20.8545L50.194 22.2973C50.0097 22.3357 49.8176 22.3093 49.6506 22.2224C49.4836 22.1355 49.3517 21.9936 49.2774 21.8206L47.959 18.7219L42.6476 24.4175C42.526 24.5455 42.3663 24.6307 42.1923 24.6603C42.0182 24.69 41.8393 24.6624 41.6824 24.5818C41.5254 24.5013 41.3987 24.3721 41.3215 24.2135C41.2441 24.055 41.2203 23.8757 41.2537 23.7023L43.8152 10.5047L39.7092 12.8757C39.6129 12.9322 39.5058 12.9683 39.395 12.9817C39.2841 12.9952 39.1716 12.9858 39.0644 12.954C38.9572 12.9222 38.8578 12.8688 38.7721 12.7971C38.6865 12.7254 38.6166 12.6369 38.5665 12.537L34.3977 4.35742L30.229 12.537C30.179 12.6369 30.1089 12.7254 30.0233 12.7971C29.9377 12.8688 29.8383 12.9222 29.7312 12.954C29.6241 12.9858 29.5116 12.9952 29.4006 12.9817C29.2897 12.9683 29.1827 12.9322 29.0863 12.8757L24.9803 10.5047L27.5418 23.7023C27.5752 23.8757 27.5514 24.055 27.4742 24.2135C27.397 24.3721 27.2703 24.5013 27.1132 24.5818C26.9561 24.6624 26.7772 24.69 26.6032 24.6603C26.4292 24.6307 26.2695 24.5455 26.1481 24.4175L20.8366 18.7219L19.5182 21.8206C19.444 21.9936 19.3121 22.1355 19.145 22.2224C18.9778 22.3093 18.786 22.3357 18.6015 22.2973L11.7958 20.8545L14.1313 28.0306C14.1933 28.2195 14.184 28.4242 14.1054 28.6068C14.0268 28.7892 13.8842 28.9367 13.7044 29.0218L11.0424 30.2636L22.8583 39.8233C22.9906 39.9306 23.086 40.0766 23.131 40.2408C23.1759 40.4051 23.1684 40.5793 23.1094 40.739L21.6528 44.7536L32.439 42.8592C32.6147 42.829 32.795 42.8386 32.9668 42.8874C33.1384 42.9359 33.2968 43.0225 33.4307 43.1405C33.5643 43.2583 33.6699 43.4048 33.7396 43.5688C33.8091 43.7331 33.8409 43.9106 33.8327 44.0887L33.2677 54.9153H35.5278Z" fill="white"/>
<path d="M34.5052 0H0V61.8165C2.28365 94.339 23.6529 122.316 54.2255 132.822L69.0145 137.905V0H34.5052Z" fill="url(#paint4_linear_435_265)"/>
<path d="M103.522 0H69.0123V137.905L83.8012 132.814C114.382 122.307 135.743 94.3264 138.027 61.8045V0H103.522Z" fill="url(#paint5_linear_435_265)"/>
<path d="M34.5052 0H0V61.8165C2.28365 94.339 23.6529 122.316 54.2255 132.822L69.0145 137.905V0H34.5052Z" fill="url(#paint6_linear_435_265)"/>
<path d="M103.522 0H69.0123V137.905L83.8012 132.814C114.382 122.307 135.743 94.3264 138.027 61.8045V0H103.522Z" fill="url(#paint7_linear_435_265)"/>
<path d="M35.5278 54.9153L34.9628 44.0887C34.9546 43.9106 34.9865 43.7331 35.0561 43.5688C35.1256 43.4048 35.2311 43.2583 35.365 43.1405C35.4986 43.0225 35.6571 42.9359 35.8288 42.8874C36.0004 42.8386 36.1807 42.829 36.3567 42.8592L47.1427 44.7536L45.6863 40.739C45.627 40.5793 45.6195 40.4051 45.6646 40.2408C45.7097 40.0766 45.8051 39.9306 45.9373 39.8233L57.7532 30.2636L55.0912 29.0218C54.9114 28.9367 54.7688 28.7892 54.6902 28.6068C54.6116 28.4242 54.6023 28.2195 54.6642 28.0306L56.9998 20.8545L50.194 22.2973C50.0097 22.3357 49.8176 22.3093 49.6506 22.2224C49.4836 22.1355 49.3517 21.9936 49.2774 21.8206L47.959 18.7219L42.6476 24.4175C42.526 24.5455 42.3663 24.6307 42.1923 24.6603C42.0182 24.69 41.8393 24.6624 41.6824 24.5818C41.5254 24.5013 41.3987 24.3721 41.3215 24.2135C41.2441 24.055 41.2203 23.8757 41.2537 23.7023L43.8152 10.5047L39.7092 12.8757C39.6129 12.9322 39.5058 12.9683 39.395 12.9817C39.2841 12.9952 39.1716 12.9858 39.0644 12.954C38.9572 12.9222 38.8578 12.8688 38.7721 12.7971C38.6865 12.7254 38.6166 12.6369 38.5665 12.537L34.3977 4.35742L30.229 12.537C30.179 12.6369 30.1089 12.7254 30.0233 12.7971C29.9377 12.8688 29.8383 12.9222 29.7312 12.954C29.6241 12.9858 29.5116 12.9952 29.4006 12.9817C29.2897 12.9683 29.1827 12.9322 29.0863 12.8757L24.9803 10.5047L27.5418 23.7023C27.5752 23.8757 27.5514 24.055 27.4742 24.2135C27.397 24.3721 27.2703 24.5013 27.1132 24.5818C26.9561 24.6624 26.7772 24.69 26.6032 24.6603C26.4292 24.6307 26.2695 24.5455 26.1481 24.4175L20.8366 18.7219L19.5182 21.8206C19.444 21.9936 19.3121 22.1355 19.145 22.2224C18.9778 22.3093 18.786 22.3357 18.6015 22.2973L11.7958 20.8545L14.1313 28.0306C14.1933 28.2195 14.184 28.4242 14.1054 28.6068C14.0268 28.7892 13.8842 28.9367 13.7044 29.0218L11.0424 30.2636L22.8583 39.8233C22.9906 39.9306 23.086 40.0766 23.131 40.2408C23.1759 40.4051 23.1684 40.5793 23.1094 40.739L21.6528 44.7536L32.439 42.8592C32.6147 42.829 32.795 42.8386 32.9668 42.8874C33.1384 42.9359 33.2968 43.0225 33.4307 43.1405C33.5643 43.2583 33.6699 43.4048 33.7396 43.5688C33.8091 43.7331 33.8409 43.9106 33.8327 44.0887L33.2677 54.9153H35.5278Z" fill="white"/>
<defs>
<linearGradient id="paint0_linear_435_265" x1="34.5052" y1="0" x2="34.5052" y2="137.905" gradientUnits="userSpaceOnUse">
<stop stop-color="#6100FF"/>
<stop offset="1" stop-color="#C09AFF"/>
</linearGradient>
<linearGradient id="paint1_linear_435_265" x1="103.522" y1="0" x2="103.522" y2="137.905" gradientUnits="userSpaceOnUse">
<stop stop-color="#C09AFF"/>
<stop offset="1" stop-color="#6100FF"/>
</linearGradient>
<linearGradient id="paint2_linear_435_265" x1="34.5052" y1="0" x2="34.5052" y2="137.905" gradientUnits="userSpaceOnUse">
<stop stop-color="#6100FF"/>
<stop offset="1" stop-color="#C09AFF"/>
</linearGradient>
<linearGradient id="paint3_linear_435_265" x1="103.522" y1="0" x2="103.522" y2="137.905" gradientUnits="userSpaceOnUse">
<stop stop-color="#C09AFF"/>
<stop offset="1" stop-color="#6100FF"/>
</linearGradient>
<linearGradient id="paint4_linear_435_265" x1="34.5052" y1="0" x2="34.5052" y2="137.905" gradientUnits="userSpaceOnUse">
<stop stop-color="#6100FF"/>
<stop offset="1" stop-color="#C09AFF"/>
</linearGradient>
<linearGradient id="paint5_linear_435_265" x1="103.522" y1="0" x2="103.522" y2="137.905" gradientUnits="userSpaceOnUse">
<stop stop-color="#C09AFF"/>
<stop offset="1" stop-color="#6100FF"/>
</linearGradient>
<linearGradient id="paint6_linear_435_265" x1="34.5052" y1="0" x2="34.5052" y2="137.905" gradientUnits="userSpaceOnUse">
<stop stop-color="#6100FF"/>
<stop offset="1" stop-color="#C09AFF"/>
</linearGradient>
<linearGradient id="paint7_linear_435_265" x1="103.522" y1="0" x2="103.522" y2="137.905" gradientUnits="userSpaceOnUse">
<stop stop-color="#C09AFF"/>
<stop offset="1" stop-color="#6100FF"/>
</linearGradient>
</defs>
</svg>
