<svg width="963" height="184" viewBox="0 0 963 184" fill="none" xmlns="http://www.w3.org/2000/svg">
<path d="M129.436 22.7955H113.849V0.867271H152.416V146.21H129.436V22.7955Z" fill="#2C2222"/>
<path d="M280.2 116.754L332.85 66.2587L332.801 60.5806H280.2V38.74H361.367V68.8536L308.696 119.033V124.643H361.75V146.182H280.2V116.754Z" fill="#2C2222"/>
<path d="M221.456 40.8025C219.123 40.8025 218.453 40.8271 217.336 40.9663L247.958 1H220.018L175.995 59.8764C167.958 71.1641 163.993 81.2947 163.993 95.2715C163.993 124.924 186.932 148.572 218.871 148.572C249.75 148.572 273.544 126.22 273.544 95.2715C273.544 64.3224 249.764 40.8025 221.458 40.8025H221.456ZM218.744 127.498C200.95 127.498 187.427 112.672 187.427 94.8322C187.427 76.9919 201.053 62.1793 218.844 62.1793C236.43 62.1793 250.303 76.9934 250.303 94.8322C250.303 112.671 236.33 127.498 218.744 127.498Z" fill="#2C2222"/>
<path d="M845.719 124.27V146.124H798.608V60.4303H783.1V38.5607H798.608V0.692482H821.766V38.5607H845.304V60.4303H821.766V124.27H845.719V124.27Z" fill="#2C2222"/>
<path d="M910.434 36.3249C909.984 36.2939 909.531 36.2743 909.07 36.2743C908.749 36.2648 908.438 36.2648 908.127 36.2548C907.908 36.2448 907.695 36.2448 907.475 36.2448H907.144C891.069 36.336 876.632 42.8735 866.6 53.8902C866.09 54.4532 865.577 55.0377 865.094 55.6202C864.813 55.9628 864.534 56.3048 864.261 56.6569C856.949 65.8726 852.501 77.7527 852.272 91.3543C852.252 91.737 852.252 92.1181 852.252 92.5108V92.7321C852.362 125.587 876.774 148.535 906.982 148.777C907.144 148.787 907.315 148.787 907.475 148.787C907.875 148.787 908.286 148.787 908.689 148.767C908.819 148.777 908.939 148.767 909.07 148.757C938.828 147.993 962.697 125.549 962.697 92.5128C962.697 60.532 939.55 37.7664 910.434 36.3284V36.3249H910.434ZM907.958 125.656C890.007 125.656 875.41 111.303 874.957 93.4053C874.947 93.1223 874.947 92.8328 874.947 92.5498C874.947 91.6944 874.979 90.8389 875.049 90.0055C875.089 89.4431 875.138 88.8886 875.209 88.3367C875.219 88.3046 875.219 88.2751 875.219 88.245C877.326 71.998 891.182 59.4542 907.956 59.4542C926.196 59.4542 940.975 74.2728 940.975 92.5523C940.975 110.83 926.197 125.659 907.956 125.659L907.958 125.656Z" fill="#2C2222"/>
<path d="M491.267 38.748H545.885V60.6647H514.412V146.182H491.269V38.748H491.267Z" fill="#2C2222"/>
<path d="M664.576 38.5677L615.3 184H568.95V161.953H598.406L603.792 146.002H588.921L586.187 138.128L583.262 129.695L551.715 38.5677H576.906L606.006 120.442H611.446L640.97 38.5677H664.576Z" fill="#2C2222"/>
<path d="M90.3914 38.7561V46.9024C90.3774 46.8889 90.3639 46.8748 90.3498 46.8748H84.7598C78.6089 40.1089 68.03 36.4867 59.5551 35.8171C59.4729 35.8171 59.3778 35.8036 59.2956 35.8036C57.7645 35.7349 56.275 35.7219 54.8536 35.7219C26.5736 35.7219 0.808411 58.0698 0.808411 92.4321C0.808411 126.576 27.4346 148.268 54.6207 148.268C56.8079 148.268 58.8449 148.24 60.7581 148.145H60.8127C70.7771 147.093 78.1852 144.605 84.7598 137.388H90.3774V137.415C90.3774 137.402 90.3914 137.402 90.3914 137.402V146.109H113.313V38.7561H90.3914ZM56.5069 125.141C38.56 125.141 23.9622 110.775 23.5109 92.8829C23.4974 92.5959 23.4974 92.3089 23.4974 92.0219C23.4974 91.1745 23.538 90.3135 23.6071 89.4796C23.6477 88.9192 23.6887 88.3727 23.7573 87.8123C23.7709 87.7847 23.7709 87.7577 23.7709 87.7166C25.8759 71.4781 39.736 58.9308 56.5069 58.9308C74.7544 58.9308 89.5294 73.7474 89.5294 92.0219C89.5294 110.31 74.7544 125.141 56.5069 125.141Z" fill="#2C2222"/>
<path d="M729.46 36.2573H729.323C718.251 36.2849 705.54 40.481 699.006 47.6707H693.388V38.5402H670.603V184H693.511V137.76H699.129C705.649 144.936 718.525 148.872 729.569 148.927C757.63 148.653 783.094 126.374 783.094 92.2163C783.094 58.2772 756.496 36.5032 729.46 36.2573ZM760.309 95.1683C760.268 95.7287 760.213 96.2892 760.145 96.8356C760.131 96.8767 760.131 96.9042 760.131 96.9313C758.026 113.183 744.166 125.717 727.395 125.717C709.162 125.717 694.373 110.9 694.373 92.6255C694.373 74.351 709.162 59.5203 727.395 59.5203C745.342 59.5203 759.94 73.8721 760.391 91.7645C760.405 92.0515 760.405 92.3385 760.405 92.6255C760.405 93.4874 760.377 94.3344 760.309 95.1683Z" fill="#2C2222"/>
<path d="M480.903 102.894C477.335 123.917 462.738 139.827 443.192 145.881C438.025 147.617 432.503 148.615 426.762 148.766C426.626 148.766 426.503 148.779 426.38 148.766C425.983 148.792 425.573 148.792 425.19 148.792C425.026 148.792 424.862 148.792 424.698 148.779C417.713 148.724 411.043 147.398 404.92 145.006C383.679 137.243 369.067 117.396 369.067 92.3961C369.067 63.8972 389.201 41.3169 415.936 36.9976L416.223 36.9565C416.866 36.8473 417.522 36.7652 418.164 36.6971C418.533 36.6425 418.889 36.6014 419.244 36.5603C419.722 36.5057 420.187 36.4787 420.665 36.4376C421.171 36.3966 421.663 36.3555 422.183 36.3279C422.647 36.3004 423.126 36.3004 423.604 36.2869C424.028 36.2734 424.438 36.2458 424.861 36.2458H425.285C454.563 36.2458 476.186 54.4657 480.833 81.0919H456.162C451.596 68.4625 439.665 59.4547 425.654 59.4547C409.143 59.4547 395.488 72.0025 393.41 88.2405C393.41 88.2821 393.41 88.3086 393.397 88.3367C393.328 88.8966 393.287 89.4431 393.246 90.004C393.178 90.8374 393.137 91.6994 393.137 92.5463C393.137 92.8333 393.137 93.1208 393.151 93.4078C393.41 103.55 398.14 112.557 405.411 118.448C411.179 122.822 418.369 125.31 425.928 125.31C429.454 125.31 432.803 124.846 435.933 123.957C445.679 120.663 453.36 112.817 456.559 102.894H480.903V102.894Z" fill="#2C2222"/>
</svg>
