<svg width="56" height="56" viewBox="0 0 56 56" fill="none" xmlns="http://www.w3.org/2000/svg">
<rect width="56" height="56" rx="28" fill="#098551"/>
<path d="M21.3074 38V17.6364H29.1028C30.5744 17.6364 31.7974 17.8684 32.7718 18.3324C33.7529 18.7898 34.4854 19.4162 34.9693 20.2116C35.4598 21.0071 35.7051 21.9086 35.7051 22.9162C35.7051 23.7448 35.546 24.4541 35.2278 25.044C34.9096 25.6274 34.4821 26.1013 33.9451 26.4659C33.4082 26.8305 32.8083 27.0923 32.1454 27.2514V27.4503C32.868 27.4901 33.5607 27.7121 34.2235 28.1165C34.8931 28.5142 35.4399 29.0777 35.8642 29.8068C36.2884 30.536 36.5005 31.4176 36.5005 32.4517C36.5005 33.5057 36.2453 34.4536 35.7349 35.2955C35.2245 36.1307 34.4556 36.7902 33.4281 37.2741C32.4006 37.758 31.108 38 29.5502 38H21.3074ZM24.9963 34.9176H28.9636C30.3026 34.9176 31.2671 34.6624 31.8571 34.152C32.4537 33.6349 32.752 32.9721 32.752 32.1634C32.752 31.5601 32.6028 31.0166 32.3045 30.5327C32.0062 30.0421 31.582 29.6577 31.0318 29.3793C30.4816 29.0942 29.8253 28.9517 29.063 28.9517H24.9963V34.9176ZM24.9963 26.2969H28.6454C29.2818 26.2969 29.8552 26.1809 30.3656 25.9489C30.876 25.7102 31.277 25.3755 31.5687 24.9446C31.867 24.5071 32.0162 23.9901 32.0162 23.3935C32.0162 22.6046 31.7377 21.955 31.1809 21.4446C30.6307 20.9342 29.8121 20.679 28.725 20.679H24.9963V26.2969Z" fill="white"/>
</svg>
