<svg fill="none" height="56" viewBox="0 0 56 56" width="56" xmlns="http://www.w3.org/2000/svg" xmlns:xlink="http://www.w3.org/1999/xlink"><clipPath id="a"><path d="m0 0h56v56h-56z"/></clipPath><g clip-path="url(#a)"><path d="m56 28c0-15.464-12.536-28-28-28s-28 12.536-28 28 12.536 28 28 28 28-12.536 28-28z" fill="#7b8509"/><path d="m21.3074 38v-20.3636h7.7954c1.4716 0 2.6946.232 3.669.696.9811.4574 1.7136 1.0838 2.1975 1.8792.4905.7955.7358 1.697.7358 2.7046 0 .8286-.1591 1.5379-.4773 2.1278-.3182.5834-.7457 1.0573-1.2827 1.4219-.5369.3646-1.1368.6264-1.7997.7855v.1989c.7226.0398 1.4153.2618 2.0781.6662.6696.3977 1.2164.9612 1.6407 1.6903.4242.7292.6363 1.6108.6363 2.6449 0 1.054-.2552 2.0019-.7656 2.8438-.5104.8352-1.2793 1.4947-2.3068 1.9786s-2.3201.7259-3.8779.7259zm3.6889-3.0824h3.9673c1.339 0 2.3035-.2552 2.8935-.7656.5966-.5171.8949-1.1799.8949-1.9886 0-.6033-.1492-1.1468-.4475-1.6307-.2983-.4906-.7225-.875-1.2727-1.1534-.5502-.2851-1.2065-.4276-1.9688-.4276h-4.0667zm0-8.6207h3.6491c.6364 0 1.2098-.116 1.7202-.348.5104-.2387.9114-.5734 1.2031-1.0043.2983-.4375.4475-.9545.4475-1.5511 0-.7889-.2785-1.4385-.8353-1.9489-.5502-.5104-1.3688-.7656-2.4559-.7656h-3.7287z" fill="#fff"/></g></svg>