<svg fill="none" height="56" viewBox="0 0 56 56" width="56" xmlns="http://www.w3.org/2000/svg"><rect fill="#bc8300" height="56" rx="28" width="56"/><path d="m37.0346 24.5071h-3.7187c-.1061-.6098-.3016-1.1501-.5867-1.6207-.285-.4773-.6397-.8817-1.0639-1.2131s-.9081-.58-1.4517-.7457c-.5369-.1724-1.1169-.2586-1.7401-.2586-1.107 0-2.088.2784-2.9431.8353-.8552.5501-1.5247 1.3589-2.0086 2.4261-.4839 1.0606-.7258 2.3565-.7258 3.8878 0 1.5577.2419 2.8702.7258 3.9375.4906 1.0606 1.1601 1.8627 2.0086 2.4062.8551.537 1.8328.8054 2.9332.8054.6098 0 1.1799-.0795 1.7102-.2386.537-.1657 1.0175-.4077 1.4418-.7259.4309-.3181.7921-.7092 1.0838-1.1733.2983-.464.5038-.9943.6165-1.5909l3.7187.0199c-.1392.9678-.4408 1.876-.9048 2.7245-.4574.8484-1.0573 1.5975-1.7997 2.2471-.7424.643-1.6108 1.1468-2.6051 1.5114-.9944.3579-2.098.5369-3.3111.5369-1.7898 0-3.3873-.4143-4.7926-1.2429s-2.5123-2.0251-3.3211-3.5895c-.8087-1.5644-1.213-3.4403-1.213-5.6278 0-2.1941.4077-4.0701 1.223-5.6279.8153-1.5644 1.9257-2.7608 3.331-3.5894s2.9962-1.2429 4.7727-1.2429c1.1335 0 2.1875.159 3.1619.4772s1.8428.7855 2.6051 1.402c.7623.6099 1.3888 1.3589 1.8793 2.2472.4972.8816.822 1.8892.9744 3.0227z" fill="#fff"/></svg>