<svg width="56" height="56" viewBox="0 0 56 56" fill="none" xmlns="http://www.w3.org/2000/svg">
<rect width="56" height="56" rx="28" fill="#CF202F"/>
<path d="M27.2646 38H20.364V17.6364H27.4038C29.4255 17.6364 31.1623 18.044 32.614 18.8594C34.0723 19.6681 35.1926 20.8314 35.9748 22.3494C36.757 23.8674 37.1481 25.6837 37.1481 27.7983C37.1481 29.9195 36.7537 31.7424 35.9648 33.267C35.1826 34.7917 34.0524 35.9616 32.5742 36.777C31.1026 37.5923 29.3327 38 27.2646 38ZM24.0529 34.8082H27.0856C28.5041 34.8082 29.6874 34.5497 30.6353 34.0327C31.5832 33.509 32.2958 32.7301 32.7731 31.696C33.2504 30.6553 33.489 29.3561 33.489 27.7983C33.489 26.2405 33.2504 24.9479 32.7731 23.9205C32.2958 22.8864 31.5898 22.1141 30.6552 21.6037C29.7272 21.0866 28.5737 20.8281 27.195 20.8281H24.0529V34.8082Z" fill="white"/>
</svg>
