<svg width="1080" height="1080" viewBox="0 0 1080 1080" fill="none" xmlns="http://www.w3.org/2000/svg">
<rect width="1080" height="1080" fill="url(#paint0_radial_2011_3775)"/>
<path d="M419.995 300H300V515.161C307.942 628.361 382.255 725.737 488.574 762.306L540.004 780V300H419.995Z" fill="url(#paint1_linear_2011_3775)"/>
<path d="M415.3 344.55L407.7 339H417.1L420 330L422.9 339H432.3L424.7 344.55L427.6 353.6L420 348L412.4 353.6L415.3 344.55ZM424.7 501L427.6 510L420 504.45L412.4 510L415.3 501L407.7 495.45H417.1L420 486.4L422.9 495.45H432.3L424.7 501ZM342.3 426L334.7 431.6L337.6 422.6L330 417.2H339.4L342.3 408.2L345.2 417.2H354.65L347 422.8L349.9 431.8L342.3 426.2V426ZM385.85 355L388.75 364L381.15 358.5L373.55 364.05L376.45 355.05L368.85 349.5H378.25L381.15 340.5L384.05 349.5H393.45L385.85 355ZM350 378.1L352.9 369.1L355.85 378.1H365L357.4 383.7L360.3 392.7L352.65 387.1L345 392.7L347.9 383.7L340.3 378.1H350ZM340.4 456.3H350L352.9 447.3L355.85 456.3H365L357.4 461.9L360.3 470.9L352.65 465.35L345 470.9L347.9 461.9L340.3 456.3H340.4ZM376.45 490.5L368.85 485H378.25L381.15 476L384.05 485H393.45L385.85 490.5L388.75 499.5L381.15 493.95L373.55 499.5L376.45 490.5ZM502.4 422.8L505.3 431.8L497.7 426.2L490 431.8L492.9 422.8L485.25 417.2H495L497.9 408.2L500.8 417.2H510L502.4 422.8ZM454.15 355L446.55 349.5H455.95L458.85 340.5L461.75 349.5H471.15L463.55 355L466.45 364L458.85 358.5L451.25 364.05L454.15 355.05V355ZM484.15 378.05L487.1 369.05L490 378.05H499.4L492 383.7L494.9 392.7L487.3 387.1L479.65 392.7L482.55 383.7L475 378.1L484.15 378.05ZM490 456.3H499.4L492 461.9L494.9 470.9L487.3 465.35L479.65 470.9L482.55 461.9L475 456.3H484.4L487.35 447.3L490.25 456.3H490ZM471.15 485L463.55 490.5L466.45 499.5L458.85 493.95L451.25 499.5L454.15 490.5L446.55 485H455.95L458.85 476L461.75 485H471.15Z" fill="white"/>
<path d="M660.006 300H539.997V780L591.426 762.278C697.773 725.709 772.059 628.317 780 515.12V300H660.006Z" fill="url(#paint2_linear_2011_3775)"/>
<defs>
<radialGradient id="paint0_radial_2011_3775" cx="0" cy="0" r="1" gradientTransform="matrix(-1.65135 802.623 -802.623 -5.27269 540 540)" gradientUnits="userSpaceOnUse">
<stop offset="0.085" stop-color="#F0E8FF"/>
<stop offset="0.89" stop-color="#6B28FF"/>
</radialGradient>
<linearGradient id="paint1_linear_2011_3775" x1="419.995" y1="300" x2="419.995" y2="780" gradientUnits="userSpaceOnUse">
<stop stop-color="#6100FF"/>
<stop offset="1" stop-color="#C09AFF"/>
</linearGradient>
<linearGradient id="paint2_linear_2011_3775" x1="660.006" y1="300" x2="660.006" y2="780" gradientUnits="userSpaceOnUse">
<stop stop-color="#C09AFF"/>
<stop offset="1" stop-color="#6100FF"/>
</linearGradient>
</defs>
</svg>
