<svg width="220" height="80" viewBox="0 0 220 80" fill="none" xmlns="http://www.w3.org/2000/svg">
<g clip-path="url(#clip0_138_633)">
<path d="M93.5239 27.9663H87.9922L94.8526 51.1774H99.5485L104.1 35.9138L108.88 51.1774H113.68L120.484 27.9663H115.406L111.342 43.0787H111.018L106.781 27.9663H102.059L97.8327 42.8274H97.5437L93.5239 27.9663Z" fill="#201F1E"/>
<path d="M127.689 27.9761H122.487V51.1769H127.689V27.9761Z" fill="#201F1E"/>
<path d="M150.083 27.7612H130.071V32.5738H137.477V51.1775H142.678V32.5738H150.083V27.7612Z" fill="#201F1E"/>
<path d="M167.893 27.9761V36.9906H157.779V27.9761H152.577V36.9906V41.8031V51.1769H157.779V41.8031H167.893V51.1769H173.094V27.9761H167.893Z" fill="#201F1E"/>
<path d="M166.629 0.682617V14.9425L157.252 0.693032V0.682617H156.515H151.313V23.8835H156.515V9.01229L166.313 23.8835L166.629 23.6798V23.8835H171.83V0.682617H166.629Z" fill="#201F1E"/>
<path d="M166.63 23.8846H166.314V23.4688H166.882L166.63 23.8846Z" fill="#201F1E"/>
<path d="M208.804 54.6489H207.822C201.934 54.6489 197.115 59.4392 197.115 65.294V67.8156C197.115 73.6704 201.934 78.4607 207.822 78.4607H208.804C214.694 78.4607 219.511 73.6704 219.511 67.8156V65.294C219.511 59.4392 214.694 54.6489 208.804 54.6489ZM214.165 68.3683C214.165 71.5583 211.54 74.1685 208.332 74.1685C205.123 74.1685 202.498 71.5586 202.498 68.3683V64.741C202.498 61.551 205.123 58.9408 208.332 58.9408C211.54 58.9408 214.165 61.5507 214.165 64.741V68.3683Z" fill="#201F1E"/>
<path d="M110.066 70.5702C108.869 75.1009 104.796 78.4603 99.9926 78.4603H99.0353C93.2987 78.4603 88.605 73.67 88.605 67.8152V65.294C88.605 59.4392 93.2987 54.6489 99.0353 54.6489H99.9926C104.637 54.6489 108.6 57.7904 109.939 62.0944H104.605C104.338 61.5571 103.994 61.0683 103.587 60.6446C102.579 59.5933 101.188 58.9408 99.6585 58.9408C96.5989 58.9408 94.0956 61.5507 94.0956 64.741V68.3683C94.0956 69.9637 94.7213 71.4135 95.7298 72.4647C96.738 73.516 98.1287 74.1685 99.6585 74.1685C101.972 74.1685 103.966 72.6767 104.803 70.5702H110.066Z" fill="#201F1E"/>
<path d="M107.75 7.07517H102.693C102.693 7.07517 102.765 4.13018 98.2136 4.13018C94.2402 4.13018 92.9759 8.11669 95.8656 8.97864C98.1403 9.65707 108.054 9.37155 108.054 16.3041C108.054 23.2368 102.187 24.2423 98.2136 24.2423C94.2402 24.2423 88.605 22.267 88.605 16.7362H93.7885C93.7885 16.7362 93.5358 20.0045 98.5206 20.0045C103.506 20.0045 104.625 15.7126 100.038 14.7429C95.4503 13.7733 90.6099 13.9528 89.201 9.31983C87.7922 4.68686 91.0147 0 98.4664 0C105.918 0 107.75 5.62063 107.75 7.07517Z" fill="#201F1E"/>
<path d="M186.421 0.682617H175.801V23.8835H186.421C192.03 23.2973 196.41 18.2772 196.41 12.265C196.41 6.25296 192.03 1.26874 186.421 0.682617ZM186.421 19.2145H181.004V5.02828H186.421C189.908 6.01414 190.81 8.5752 190.81 12.1034C190.81 15.6317 189.348 18.7835 186.421 19.2145Z" fill="#201F1E"/>
<path d="M140.595 0.681641H134.325L125.825 23.8824H131.204L132.729 19.5368H142.095L143.577 23.8824H149.29L140.595 0.681641ZM134.344 14.9397L137.48 6.00741L140.527 14.9397H134.344Z" fill="#201F1E"/>
<path d="M129.278 5.27935V0.466797H109.266V5.27935H116.67V23.8831H121.872V5.27935H129.278Z" fill="#201F1E"/>
<path d="M148.315 55.0972L143.031 64.5582L137.875 55.0972H132.276L140.357 69.4271H140.439V78.4417H145.641V69.4271L153.786 55.0972H148.315Z" fill="#201F1E"/>
<path d="M196.284 55.0273H176.272V59.8399H183.678V78.4437H188.879V59.8399H196.284V55.0273Z" fill="#201F1E"/>
<path d="M124.781 69.4289H124.834V69.411C128.884 69.411 132.167 66.2393 132.167 62.3268C132.167 58.4143 128.884 55.2427 124.834 55.2427H112.589V78.4435H117.791V69.4289L126.604 78.192H133.595L124.781 69.4289ZM117.791 59.5524H124.496C124.611 59.565 124.724 59.5836 124.834 59.6099C126.117 59.9134 127.074 61.0949 127.074 62.5064C127.074 63.9178 126.117 65.0994 124.834 65.4029V65.4783H117.791V59.5524Z" fill="#201F1E"/>
<path d="M168.001 55.2427C167.818 55.2427 167.638 55.2492 167.459 55.2621V55.2427H155.827V78.4435H161.029V69.3931H168.001V69.411C172.05 69.411 175.333 66.2393 175.333 62.3268C175.333 58.4143 172.05 55.2427 168.001 55.2427ZM168.001 65.4029V65.4065H161.029V59.5524H167.459V59.537C167.644 59.5434 167.825 59.5686 168.001 59.6099C169.284 59.9134 170.241 61.0949 170.241 62.5064C170.241 63.9178 169.284 65.0994 168.001 65.4029Z" fill="#201F1E"/>
<path d="M19.9915 0.489746H0V36.1305C1.32309 54.8815 13.7039 71.0116 31.4169 77.0691L39.9852 80.0001V0.489746H19.9915Z" fill="url(#paint0_linear_138_633)"/>
<path d="M59.979 0.489746H39.9852V80.0001L48.5535 77.0644C66.2712 71.007 78.6474 54.8743 79.9704 36.1235V0.489746H59.979Z" fill="url(#paint1_linear_138_633)"/>
<mask id="mask0_138_633" style="mask-type:alpha" maskUnits="userSpaceOnUse" x="0" y="0" width="40" height="35">
<path d="M39.9998 0.493652H0.00198929V34.8358H39.9998V0.493652Z" fill="#D9D9D9"/>
</mask>
<g mask="url(#mask0_138_633)">
<path d="M44.7259 0.493164L27.172 12.6847H24.9861V11.6941L41.0926 0.493164H39.1911L24.9861 10.3588V0.493164H22.9174V11.7961V12.6847V13.1327V14.742H24.2105H24.9861H29.7453H44.7259V12.6847H32.707L44.7259 4.33728V0.493164Z" fill="white"/>
<path d="M27.5302 20.4766H24.9861H24.052H22.9174V22.5648V23.5327V34.8351H24.9861V24.9694L39.1911 34.8351H44.7259L27.0585 22.5648H30.5394L44.7259 32.4091V30.991L32.5934 22.5648H44.7259V20.4766H29.5869H27.5302Z" fill="white"/>
<path d="M15.08 10.4012L0.814169 0.493164H-4.72072L12.8331 12.6847H9.209L-4.72072 2.99794V4.33728L7.29825 12.6847H-4.72072V14.742H10.2598H12.1669H15.08H15.7948H17.2114V12.6847V11.8817V0.493164H15.08V10.4012Z" fill="white"/>
<path d="M15.0799 20.4766H10.4181H-4.72084V22.5648H7.41169L-4.72084 30.991V34.8351L12.9461 22.5648H15.0799V23.6524L-1.088 34.8351H0.814048L15.0799 24.9271V34.8351H17.2113V23.4466V22.5648V22.1778V20.4766H15.9531H15.0799Z" fill="white"/>
</g>
</g>
<defs>
<linearGradient id="paint0_linear_138_633" x1="19.9915" y1="0.489746" x2="19.9915" y2="80.0001" gradientUnits="userSpaceOnUse">
<stop stop-color="#6100FF"/>
<stop offset="1" stop-color="#C09AFF"/>
</linearGradient>
<linearGradient id="paint1_linear_138_633" x1="59.979" y1="0.489746" x2="59.979" y2="80.0001" gradientUnits="userSpaceOnUse">
<stop stop-color="#C09AFF"/>
<stop offset="1" stop-color="#6100FF"/>
</linearGradient>
<clipPath id="clip0_138_633">
<rect width="220" height="80" fill="white"/>
</clipPath>
</defs>
</svg>
