<svg width="32" height="16" viewBox="0 0 32 16" fill="none" xmlns="http://www.w3.org/2000/svg">
<g clip-path="url(#clip0_2007_830)">
<path d="M0 0H32V16H0V0Z" fill="#003399"/>
<path d="M15.6867 2.97L15.18 2.6H15.8067L16 2L16.1933 2.6H16.82L16.3133 2.97L16.5067 3.57333L16 3.2L15.4933 3.57333L15.6867 2.97ZM16.3133 13.4L16.5067 14L16 13.63L15.4933 14L15.6867 13.4L15.18 13.03H15.8067L16 12.4267L16.1933 13.03H16.82L16.3133 13.4ZM10.82 8.4L10.3133 8.77333L10.5067 8.17333L10 7.81333H10.6267L10.82 7.21333L11.0133 7.81333H11.6433L11.1333 8.18667L11.3267 8.78667L10.82 8.41333V8.4ZM13.7233 3.66667L13.9167 4.26667L13.41 3.9L12.9033 4.27L13.0967 3.67L12.59 3.3H13.2167L13.41 2.7L13.6033 3.3H14.23L13.7233 3.66667ZM11.3333 5.20667L11.5267 4.60667L11.7233 5.20667H12.3333L11.8267 5.58L12.02 6.18L11.51 5.80667L11 6.18L11.1933 5.58L10.6867 5.20667H11.3333ZM10.6933 10.42H11.3333L11.5267 9.82L11.7233 10.42H12.3333L11.8267 10.7933L12.02 11.3933L11.51 11.0233L11 11.3933L11.1933 10.7933L10.6867 10.42H10.6933ZM13.0967 12.7L12.59 12.3333H13.2167L13.41 11.7333L13.6033 12.3333H14.23L13.7233 12.7L13.9167 13.3L13.41 12.93L12.9033 13.3L13.0967 12.7ZM21.4933 8.18667L21.6867 8.78667L21.18 8.41333L20.6667 8.78667L20.86 8.18667L20.35 7.81333H21L21.1933 7.21333L21.3867 7.81333H22L21.4933 8.18667ZM18.2767 3.66667L17.77 3.3H18.3967L18.59 2.7L18.7833 3.3H19.41L18.9033 3.66667L19.0967 4.26667L18.59 3.9L18.0833 4.27L18.2767 3.67V3.66667ZM20.2767 5.20333L20.4733 4.60333L20.6667 5.20333H21.2933L20.8 5.58L20.9933 6.18L20.4867 5.80667L19.9767 6.18L20.17 5.58L19.6667 5.20667L20.2767 5.20333ZM20.6667 10.42H21.2933L20.8 10.7933L20.9933 11.3933L20.4867 11.0233L19.9767 11.3933L20.17 10.7933L19.6667 10.42H20.2933L20.49 9.82L20.6833 10.42H20.6667ZM19.41 12.3333L18.9033 12.7L19.0967 13.3L18.59 12.93L18.0833 13.3L18.2767 12.7L17.77 12.3333H18.3967L18.59 11.7333L18.7833 12.3333H19.41Z" fill="#FFCC00"/>
</g>
<defs>
<clipPath id="clip0_2007_830">
<rect width="32" height="16" rx="3" fill="white"/>
</clipPath>
</defs>
</svg>
