<?xml version="1.0" standalone="no"?>
<!DOCTYPE svg PUBLIC "-//W3C//DTD SVG 20010904//EN"
 "http://www.w3.org/TR/2001/REC-SVG-20010904/DTD/svg10.dtd">
<svg version="1.0" xmlns="http://www.w3.org/2000/svg"
 width="2803.000000pt" height="635.000000pt" viewBox="0 0 2803.000000 635.000000"
 preserveAspectRatio="xMidYMid meet">

<g transform="translate(0.000000,635.000000) scale(0.100000,-0.100000)"
fill="#000000" stroke="none">
<path d="M3045 5848 c-429 -274 -783 -502 -787 -506 -5 -6 1530 -998 1563
-1010 5 -2 362 223 794 499 614 394 782 506 772 515 -9 9 -1495 962 -1552 996
-5 3 -361 -219 -790 -494z"/>
<path d="M16705 6274 l-170 -72 -3 -1226 -2 -1226 174 0 175 0 4 548 c4 581 4
580 54 692 31 69 98 147 164 190 86 56 164 74 296 68 95 -4 117 -8 174 -35 78
-36 141 -98 180 -175 59 -116 59 -121 59 -730 l0 -558 186 0 185 0 -4 593 c-4
636 -4 636 -60 789 -36 99 -73 155 -156 238 -88 88 -180 140 -297 170 -276 71
-538 6 -721 -177 l-63 -62 -2 523 -3 523 -170 -73z"/>
<path d="M11115 5563 c-254 -30 -445 -124 -625 -309 -81 -82 -84 -87 -65 -100
32 -24 297 -176 299 -172 87 141 223 239 373 268 94 19 284 8 354 -19 147 -56
232 -173 240 -331 l4 -65 -375 -6 c-430 -7 -469 -13 -640 -96 -205 -99 -310
-261 -310 -478 0 -307 191 -500 529 -534 248 -26 485 45 669 198 31 27 71 67
87 89 17 23 33 42 38 42 4 0 7 -67 7 -150 l0 -150 170 0 170 0 0 581 c0 376
-4 605 -11 652 -41 265 -200 451 -459 536 -121 40 -324 60 -455 44z m585
-1085 c0 -62 -5 -81 -29 -123 -84 -146 -249 -263 -432 -309 -95 -23 -259 -22
-342 4 -225 70 -222 375 5 458 90 34 162 39 491 41 l307 1 0 -72z"/>
<path d="M13255 5563 c-144 -20 -280 -88 -387 -194 l-77 -75 -3 132 -3 133
-170 -73 -170 -73 -3 -832 -2 -831 179 0 180 0 3 563 c3 553 4 563 26 621 12
33 33 78 46 100 37 63 128 143 203 179 66 31 72 32 203 32 162 0 219 -18 303
-95 65 -59 101 -124 127 -226 19 -72 20 -112 20 -626 l0 -548 180 0 180 0 0
564 c0 608 -4 662 -55 809 -65 188 -204 328 -395 397 -113 42 -269 59 -385 43z"/>
<path d="M15215 5560 c-131 -21 -290 -84 -402 -161 -145 -100 -277 -279 -339
-461 -55 -162 -59 -397 -10 -563 83 -276 288 -498 557 -599 209 -78 478 -78
691 1 184 68 373 244 472 441 15 30 26 56 24 58 -4 3 -229 98 -295 124 -20 8
-26 2 -59 -58 -46 -84 -160 -198 -234 -234 -116 -58 -267 -74 -399 -43 -205
49 -372 217 -426 430 -19 76 -19 212 0 294 47 196 209 367 404 425 71 21 237
21 316 1 134 -35 268 -141 333 -263 18 -34 36 -62 38 -62 11 0 314 132 314
137 0 3 -16 36 -36 74 -107 203 -334 379 -569 439 -92 24 -287 34 -380 20z"/>
<path d="M19278 5554 c-223 -40 -423 -160 -562 -335 -251 -318 -271 -747 -51
-1085 190 -291 528 -452 872 -413 395 44 710 320 805 705 32 131 30 313 -5
446 -123 469 -587 768 -1059 682z m333 -347 c151 -51 270 -157 338 -300 47
-98 61 -160 61 -267 0 -107 -14 -169 -62 -270 -72 -150 -215 -268 -369 -305
-293 -69 -567 82 -677 373 -23 59 -26 83 -26 197 -1 103 3 142 18 185 68 198
200 332 386 391 84 27 246 25 331 -4z"/>
<path d="M22720 5564 c-14 -2 -56 -9 -94 -15 -133 -22 -272 -81 -391 -167 -58
-42 -179 -155 -206 -194 l-19 -26 156 -91 c85 -50 156 -91 157 -91 2 0 22 27
47 61 107 148 259 219 467 219 168 0 260 -28 341 -104 73 -68 122 -188 122
-297 l0 -27 -377 -4 c-353 -4 -384 -6 -463 -27 -319 -85 -491 -280 -489 -556
1 -154 54 -281 157 -376 166 -152 481 -197 757 -108 145 46 304 154 376 254
l34 47 3 -156 3 -156 169 0 170 0 0 588 c0 361 -4 612 -11 652 -35 221 -159
390 -354 485 -124 61 -229 85 -395 90 -74 2 -146 2 -160 -1z m580 -1092 c0
-72 -3 -81 -36 -132 -93 -144 -256 -255 -432 -296 -101 -24 -290 -16 -357 14
-99 45 -140 109 -139 217 1 115 56 192 171 235 84 31 160 37 486 39 l307 1 0
-78z"/>
<path d="M24718 5554 c-240 -43 -451 -180 -583 -378 -63 -96 -98 -173 -128
-281 -19 -69 -22 -104 -21 -255 0 -204 15 -276 89 -425 151 -309 451 -498 790
-498 219 0 400 73 553 225 l62 62 0 -110 c0 -178 -45 -301 -149 -405 -126
-126 -313 -178 -541 -150 -193 24 -323 94 -436 234 l-31 38 -142 -116 c-116
-95 -140 -119 -132 -133 16 -29 133 -136 196 -179 159 -107 311 -155 553 -173
491 -38 872 196 1001 613 38 124 41 204 41 1069 l0 838 -180 0 -180 0 0 -124
0 -125 -52 55 c-172 182 -446 266 -710 218z m379 -339 c234 -79 386 -282 400
-535 10 -186 -47 -342 -172 -467 -227 -227 -591 -229 -816 -4 -204 204 -235
539 -73 783 72 108 179 186 314 229 88 29 252 26 347 -6z"/>
<path d="M26965 5559 c-193 -28 -379 -125 -522 -271 -118 -121 -197 -264 -240
-434 -26 -106 -24 -342 5 -457 112 -448 527 -724 1018 -677 246 23 406 93 567
248 66 64 154 169 146 176 -26 21 -282 167 -288 164 -5 -2 -27 -27 -50 -56
-105 -133 -240 -203 -422 -218 -310 -26 -570 144 -642 419 l-15 57 749 0 749
0 0 119 c0 201 -39 359 -127 511 -55 94 -209 246 -308 304 -176 102 -408 145
-620 115z m309 -324 c183 -48 318 -177 370 -354 9 -30 16 -58 16 -63 0 -4
-252 -8 -561 -8 l-561 0 6 28 c4 15 23 61 43 102 65 134 212 256 354 294 73
20 259 20 333 1z"/>
<path d="M20878 5487 l-168 -72 0 -832 0 -833 174 0 175 0 3 568 c4 548 4 569
25 630 39 117 103 181 221 225 83 30 264 30 341 -1 30 -12 55 -21 56 -19 1 1
31 76 68 167 75 189 77 177 -32 210 -150 47 -318 35 -449 -31 -91 -45 -149
-101 -197 -189 l-35 -65 0 158 c0 86 -3 157 -7 156 -5 0 -83 -33 -175 -72z"/>
<path d="M793 2967 c-431 -276 -783 -505 -783 -508 0 -11 1554 -1003 1570
-1003 16 1 1563 990 1567 1002 2 6 -1545 1002 -1566 1009 -3 1 -358 -224 -788
-500z"/>
<path d="M5300 2974 c-426 -273 -780 -501 -787 -507 -9 -9 168 -128 769 -512
429 -275 786 -500 792 -500 7 0 363 225 793 500 591 378 779 503 770 511 -7 7
-352 229 -767 494 -415 266 -764 489 -775 496 -19 12 -87 -29 -795 -482z"/>
<path d="M11860 3275 l-165 -72 -3 -458 -2 -458 -36 41 c-73 86 -237 182 -374
219 -49 14 -100 18 -210 17 -127 -1 -156 -4 -233 -28 -305 -92 -520 -306 -614
-613 -25 -82 -27 -101 -27 -273 -1 -164 2 -194 22 -265 90 -313 321 -548 622
-635 102 -30 297 -38 397 -17 149 32 268 95 380 202 l73 70 0 -127 0 -128 175
0 175 0 0 1300 c0 715 -3 1300 -7 1299 -5 0 -82 -33 -173 -74z m-589 -1051
c148 -44 279 -150 347 -282 54 -102 72 -179 72 -296 0 -197 -73 -358 -214
-472 -109 -89 -223 -128 -371 -127 -221 1 -404 111 -504 302 -55 105 -72 176
-72 296 -1 112 11 172 51 260 82 181 251 307 455 339 51 7 179 -3 236 -20z"/>
<path d="M19737 3273 l-177 -76 2 -1221 3 -1221 178 -3 177 -2 0 1300 c0 715
-1 1300 -2 1300 -2 -1 -83 -35 -181 -77z"/>
<path d="M12530 3274 c-131 -56 -177 -221 -97 -342 47 -69 101 -94 197 -90 62
3 82 8 116 31 116 78 130 262 27 359 -59 56 -167 75 -243 42z"/>
<path d="M15490 3274 c-159 -69 -182 -300 -41 -399 40 -28 49 -30 130 -30 80
0 91 2 129 29 143 99 124 326 -32 397 -50 23 -138 24 -186 3z"/>
<path d="M16553 3067 l-163 -70 0 -234 0 -233 -175 0 -175 0 0 -160 0 -160
174 0 175 0 4 -517 c3 -453 6 -527 21 -588 53 -207 174 -328 371 -370 90 -19
213 -19 311 0 83 16 224 76 224 96 0 11 -131 248 -152 276 -7 8 -24 4 -65 -18
-77 -41 -168 -41 -244 -1 -45 24 -59 37 -84 87 l-30 59 -3 488 -3 488 250 0
251 0 0 160 0 160 -247 2 -248 3 -3 303 c-2 232 -5 302 -15 301 -6 -1 -85 -33
-174 -72z"/>
<path d="M13887 2560 c-243 -41 -457 -179 -596 -383 -45 -67 -106 -200 -125
-273 -40 -155 -40 -363 0 -518 35 -138 132 -305 239 -412 161 -162 385 -254
618 -254 220 1 393 69 544 216 l73 71 0 -101 c0 -157 -32 -264 -108 -364 -44
-60 -125 -125 -188 -153 -161 -73 -439 -70 -609 6 -69 31 -163 103 -210 164
-22 27 -42 50 -45 50 -9 1 -275 -220 -279 -231 -6 -18 151 -162 232 -212 165
-103 322 -145 572 -153 135 -4 188 -2 259 11 369 70 637 325 711 677 13 59 15
210 15 950 l0 879 -175 0 -175 0 0 -126 0 -126 -47 52 c-163 181 -447 273
-706 230z m377 -345 c275 -95 437 -384 382 -683 -28 -156 -111 -292 -230 -377
-84 -60 -162 -91 -264 -105 -303 -41 -576 150 -648 455 -34 147 -6 329 71 461
135 231 431 338 689 249z"/>
<path d="M18157 2555 c-216 -41 -395 -141 -556 -310 -40 -42 -71 -78 -69 -80
7 -7 297 -175 306 -177 5 -2 30 25 56 58 111 148 260 217 466 218 164 0 271
-35 350 -114 65 -65 110 -178 110 -275 l0 -35 -259 0 c-440 0 -586 -20 -760
-106 -243 -120 -357 -354 -296 -613 48 -201 206 -342 434 -387 115 -23 325
-15 431 16 154 44 309 141 401 252 l49 59 0 -155 0 -156 170 0 170 0 0 600 c0
677 -1 692 -71 839 -32 68 -55 100 -122 166 -95 95 -197 151 -337 186 -113 28
-360 35 -473 14z m663 -1083 c0 -73 -2 -80 -41 -139 -116 -178 -323 -290 -554
-300 -221 -10 -333 49 -365 191 -22 101 27 213 115 263 93 53 156 60 528 62
l317 1 0 -78z"/>
<path d="M12440 1640 l0 -890 180 0 180 0 0 890 0 890 -180 0 -180 0 0 -890z"/>
<path d="M15392 1643 l3 -888 178 -3 177 -2 0 890 0 890 -180 0 -180 0 2 -887z"/>
<path d="M3045 1530 c-429 -274 -781 -503 -783 -508 -3 -10 1541 -1004 1562
-1006 12 -1 1576 995 1575 1004 0 4 -1549 999 -1568 1007 -3 2 -357 -222 -786
-497z"/>
</g>
</svg>
