<svg version="1.1" id="Layer_1" xmlns="http://www.w3.org/2000/svg" xmlns:xlink="http://www.w3.org/1999/xlink" x="0px" y="0px" viewBox="147.863 -150.91 370.02 271.446" style="enable-background:new 0 0 600 200;">
  <style type="text/css">
	.st0{fill:#3D89F5;}
	.st1{fill:#1656B9;}
	.st2{fill:#85B5F8;}
	.st3{fill-rule:evenodd;clip-rule:evenodd;}
	.st4{fill-rule:evenodd;clip-rule:evenodd;fill:#B1B8C7;}
</style>
  <g>
    <g>
      <path class="st0" d="M 255.811 -76.646 L 246.926 -67.585 C 244.504 -65.115 242.486 -62.233 241.272 -58.937 C 240.061 -55.644 239.255 -52.348 239.255 -49.055 C 239.255 -45.761 240.061 -42.054 241.272 -39.172 C 242.486 -35.876 244.504 -32.994 246.926 -30.524 L 317.996 42.777 C 319.612 44.424 321.629 46.069 323.649 47.306 L 323.649 -41.643 L 255.811 -76.646 Z" style=""></path>
      <path class="st1" d="M 416.523 -76.646 L 425.406 -67.585 C 427.829 -65.115 429.847 -62.233 431.059 -58.937 C 432.272 -55.644 433.079 -52.348 433.079 -49.055 C 433.079 -45.761 432.272 -42.054 431.059 -39.172 C 429.847 -35.876 427.829 -32.994 425.406 -30.524 L 354.338 42.777 C 352.723 44.424 350.703 46.069 348.684 47.306 L 348.684 -41.643 L 416.523 -76.646 Z" style=""></path>
      <path class="st2" d="M 399.564 -94.764 L 355.146 -140.48 C 352.723 -142.95 349.895 -145.01 346.666 -146.24 C 343.434 -147.48 340.206 -148.3 336.975 -148.3 C 333.743 -148.3 330.11 -147.48 327.283 -146.24 C 324.052 -145.01 321.225 -142.95 318.804 -140.48 L 273.578 -94.764 L 336.167 -63.056 L 399.564 -94.764 Z" style=""></path>
      <path class="st3" d="M363.8,83.8c0-0.8,0.1-1.6,0.6-2.3c0.4-0.7,1-1.3,1.8-1.6c0.7-0.3,1.6-0.5,2.4-0.3c0.8,0.1,1.5,0.5,2.1,1
			c0.6,0.6,1,1.3,1.2,2.1c0.2,0.8,0.1,1.6-0.2,2.4c-0.3,0.8-0.8,1.4-1.5,1.9c-0.7,0.5-1.5,0.7-2.3,0.7c-0.5,0-1-0.1-1.5-0.3
			c-0.5-0.2-0.9-0.5-1.3-0.8c-0.4-0.4-0.7-0.8-0.9-1.2C364,84.8,363.9,84.3,363.8,83.8z M364.1,91h7.5v27h-7.5V91z M164.4,82H150v36
			h15.4c8.1,0,12.4-4.2,12.4-10c0.1-2.2-0.7-4.4-2.2-6s-3.6-2.6-5.8-2.7V99c1.8-0.3,3.5-1.2,4.7-2.6s1.8-3.2,1.8-5.1
			C176.4,85.9,172.4,82,164.4,82z M168.7,92.5c0,2.9-2.4,4.6-5.4,4.6l-5.8,0.1v-9h5.9C166.8,88.1,168.7,89.6,168.7,92.5z
			 M169.8,107.3c0,2.7-1.7,4.5-6,4.5h-6.3v-9.5h6.3c0.7-0.1,1.5-0.1,2.2,0.1c0.7,0.2,1.4,0.6,1.9,1c0.6,0.5,1,1.1,1.3,1.7
			C169.6,105.8,169.8,106.5,169.8,107.3z M181.5,118h7.6L189,82h-7.5V118z M193,104.6c0-8.4,5.1-13.9,13.3-13.9s13.3,5.6,13.3,13.9
			c0,8.4-5.1,13.9-13.3,13.9S193,113,193,104.6z M212,104.6c0-4.7-2-8.2-5.6-8.2c-3.7,0-5.7,3.5-5.7,8.2c0,4.7,1.9,8.2,5.7,8.2
			C210.1,112.8,212,109.3,212,104.6z M235.7,90.7c-8.2,0-13.3,5.7-13.3,13.9c0,8.2,5,13.9,13.3,13.9c7.1,0,11.6-4.2,12-10.4h-7.1
			c-0.1,1.2-0.6,2.4-1.5,3.2c-0.9,0.8-2.1,1.3-3.3,1.3c-3.5,0-5.8-3.1-5.8-8.1c0-5,2.3-8,5.8-8c1.2,0,2.4,0.4,3.3,1.3
			c0.9,0.8,1.5,2,1.5,3.2h7.1C247.4,94.8,242.7,90.7,235.7,90.7z M251.6,82h7.5v19.2h0.4l8.7-10.2h8.6l-10,11.7l10.5,15.3h-8.8
			l-7.4-10.9l-2,2.3v8.6h-7.5V82z M290.5,90.7c-8.2,0-13.3,5.7-13.3,13.9c0,8.2,5,13.9,13.3,13.9c7.1,0,11.6-4.2,12-10.4h-7
			c-0.1,1.2-0.6,2.4-1.6,3.2c-0.9,0.8-2.1,1.3-3.4,1.3c-3.5,0-5.8-3.1-5.8-8.1c0-5,2.3-8,5.8-8c1.2,0,2.4,0.4,3.4,1.3
			c0.9,0.8,1.5,2,1.6,3.2h7C302.3,94.8,297.5,90.7,290.5,90.7z M313.9,118h-7.5V82h7.3v13.8h0.3c0.6-1.6,1.7-3,3.2-3.9
			c1.5-0.9,3.2-1.4,4.9-1.2c5.6,0,9.3,3.8,9.3,10.2V118h-7.5v-15.9c0.1-0.7,0-1.4-0.2-2c-0.2-0.7-0.5-1.2-1-1.8
			c-0.5-0.5-1-0.9-1.7-1.2c-0.6-0.3-1.3-0.4-2-0.3c-0.7,0-1.4,0.1-2.1,0.4c-0.7,0.3-1.3,0.7-1.8,1.2c-0.5,0.5-0.9,1.1-1.1,1.8
			c-0.2,0.7-0.3,1.4-0.2,2.1V118z M345.2,102.2c-5.3,0.5-10.1,2.3-10.1,8.3c0,5.3,3.8,8,9,8c1.6,0.1,3.2-0.2,4.6-1
			c1.4-0.8,2.6-1.9,3.3-3.3h0.2v3.8h7.1V99.8c0-6.4-5.5-9.2-11.5-9.2c-6.5,0-10.7,3.1-11.8,8l6.9,0.6c0.3-1,1-1.8,1.9-2.3
			c0.9-0.5,1.9-0.8,2.9-0.7c2.5,0,4,1.3,4,3.5C351.8,101.5,350,101.7,345.2,102.2z M351.8,105.4v3c0,0.7-0.2,1.4-0.5,2
			c-0.3,0.6-0.7,1.2-1.3,1.6c-0.5,0.5-1.1,0.8-1.8,1c-0.7,0.2-1.4,0.3-2,0.2c-2.3,0-4-1.1-4-3.2s1.7-3.2,4.4-3.5
			C348.4,106.4,350.2,106,351.8,105.4z M376.5,118h7.6l-0.1-15.6c-0.1-0.7,0-1.4,0.2-2.1c0.2-0.7,0.6-1.3,1.1-1.8
			c0.5-0.5,1.1-0.9,1.7-1.2c0.7-0.3,1.4-0.4,2.1-0.4c0.7,0,1.4,0.1,2,0.3c0.6,0.3,1.2,0.7,1.6,1.2c0.5,0.5,0.8,1.1,1,1.7
			c0.2,0.6,0.3,1.3,0.2,2V118h7.5v-17.2c0-6.3-3.7-10.2-9.3-10.2c-1.7-0.1-3.4,0.3-4.9,1.3c-1.5,0.9-2.6,2.3-3.2,3.9h-0.3V91h-7.1
			V118z"></path>
      <path class="st4" d="M483.9,91h-7.1l0,27h7.5v-16.2c-0.1-0.6,0-1.2,0.2-1.8c0.2-0.6,0.5-1.1,0.9-1.6c0.4-0.5,0.9-0.8,1.5-1.1
			c0.6-0.3,1.2-0.4,1.8-0.4c0.6,0,1.1,0.1,1.7,0.3c0.5,0.2,1,0.5,1.4,0.9c0.4,0.4,0.7,0.9,0.9,1.4c0.2,0.5,0.2,1.1,0.2,1.7V118h7.3
			v-16.5c-0.1-0.6,0-1.2,0.2-1.8c0.2-0.6,0.5-1.1,0.9-1.5c0.4-0.4,0.9-0.8,1.5-1c0.6-0.2,1.2-0.3,1.8-0.3c0.6,0,1.2,0.1,1.7,0.3
			c0.5,0.2,1,0.6,1.4,1c0.4,0.4,0.7,0.9,0.9,1.5c0.2,0.6,0.2,1.1,0.2,1.7V118h7.5v-18c0.1-2-0.6-3.9-1.8-5.5
			c-1.2-1.6-2.9-2.7-4.8-3.2c-1.9-0.5-4-0.3-5.8,0.5c-1.8,0.8-3.3,2.2-4.2,4h-0.4c-0.5-1.6-1.4-2.9-2.8-3.9c-1.3-0.9-3-1.4-4.6-1.3
			c-1.6-0.1-3.3,0.4-4.6,1.3c-1.4,0.9-2.4,2.3-2.9,3.8h-0.3V91z M431.4,90.7c-8.2,0-13.2,5.7-13.2,13.9c0,8.2,4.9,13.9,13.4,13.9
			c7.1,0,11.7-4.2,12-10.4h-7c-0.1,1.2-0.6,2.4-1.6,3.2c-0.9,0.8-2.1,1.3-3.4,1.3c-3.5,0-5.8-3.1-5.8-8.1c0-5,2.3-8,5.8-8
			c1.2,0,2.4,0.4,3.4,1.3c0.9,0.8,1.5,2,1.6,3.2h6.9C443.2,94.8,438.5,90.7,431.4,90.7z M407.7,111.3c-0.8,0.8-1.2,1.8-1.2,2.9
			c0,0.6,0.1,1.1,0.3,1.6c0.2,0.5,0.5,1,0.9,1.4c0.4,0.4,0.9,0.7,1.4,0.9c0.5,0.2,1.1,0.3,1.6,0.3c1.1,0,2.2-0.4,3-1.2
			c0.8-0.8,1.2-1.9,1.2-3c0-1.1-0.4-2.2-1.2-3c-0.8-0.8-1.9-1.2-3-1.2C409.6,110.1,408.5,110.5,407.7,111.3z M446.3,104.6
			c0-8.4,5.1-13.9,13.3-13.9s13.3,5.6,13.3,13.9c0,8.4-5.1,13.9-13.3,13.9S446.3,113,446.3,104.6z M465.2,104.6c0-4.7-2-8.2-5.6-8.2
			c-3.7,0-5.7,3.5-5.7,8.2c0,4.7,2,8.2,5.7,8.2C463.4,112.8,465.2,109.3,465.2,104.6z"></path>
    </g>
  </g>
</svg>