<?xml version="1.0" encoding="UTF-8" standalone="no"?>
<!DOCTYPE svg PUBLIC "-//W3C//DTD SVG 1.1//EN" "http://www.w3.org/Graphics/SVG/1.1/DTD/svg11.dtd">
<svg width="100%" height="100%" viewBox="0 0 1071 1071" version="1.1" xmlns="http://www.w3.org/2000/svg" xmlns:xlink="http://www.w3.org/1999/xlink" xml:space="preserve" xmlns:serif="http://www.serif.com/" style="fill-rule:evenodd;clip-rule:evenodd;stroke-linejoin:round;stroke-miterlimit:2;">
    <g transform="matrix(1,0,0,1,-1268.41,-239)">
        <g transform="matrix(1,0,0,1,1268.41,239)">
            <g id="new-B" transform="matrix(1,0,0,1,2500.31,-6175.69)">
                <g transform="matrix(0.604968,0,0,0.604968,15148.2,361.403)">
                    <path d="M-28286.2,9610.91C-28280,9610.92 -28273.9,9610.99 -28267.7,9611.12C-28255.4,9611.4 -28243.1,9611.92 -28230.9,9612.7C-28197.4,9614.82 -28164.1,9618.84 -28131.1,9624.74C-28096.4,9630.93 -28062.2,9639.21 -28028.5,9649.51C-27994.4,9659.94 -27961,9672.45 -27928.5,9686.93C-27883.7,9706.88 -27840.5,9730.58 -27799.6,9757.69C-27757.9,9785.35 -27718.5,9816.55 -27682,9850.84C-27645.2,9885.39 -27611.4,9923.07 -27581,9963.35C-27550.7,10003.4 -27523.8,10046.1 -27500.8,10090.8C-27481.4,10128.3 -27464.7,10167.2 -27450.9,10207.1C-27437.4,10246.2 -27426.6,10286.4 -27418.8,10327.1C-27408,10382.7 -27402.7,10439.3 -27402.7,10495.9C-27402.7,10536.3 -27405.4,10576.8 -27410.9,10616.8C-27416.9,10660.9 -27426.3,10704.6 -27438.9,10747.2C-27452.1,10791.7 -27468.8,10835.2 -27488.8,10877C-27511.5,10924.4 -27538.4,10969.8 -27569.1,11012.4C-27600.2,11055.5 -27635.1,11095.8 -27673.3,11132.7C-27713.2,11171.2 -27756.7,11205.9 -27803,11236.3C-27848.5,11266.2 -27896.8,11291.9 -27947,11312.9C-28002.3,11336 -28060,11353.4 -28118.9,11364.8C-28174,11375.5 -28230.1,11380.8 -28286.2,11380.9C-28342.4,11381 -28398.6,11375.8 -28453.7,11365.3C-28512.6,11354.1 -28570.4,11336.9 -28625.8,11313.9C-28676.1,11293.1 -28724.5,11267.5 -28770.1,11237.8C-28816.5,11207.5 -28860.1,11172.9 -28900,11134.6C-28938.4,11097.8 -28973.4,11057.6 -29004.6,11014.6C-29035.5,10972 -29062.5,10926.8 -29085.3,10879.4C-29105.5,10837.7 -29122.3,10794.3 -29135.6,10749.8C-29148.4,10707.2 -29157.9,10663.7 -29164.1,10619.6C-29169.8,10578.6 -29172.7,10537.3 -29172.7,10495.9C-29172.7,10440.2 -29167.5,10384.5 -29157.1,10329.8C-29149.3,10289.1 -29138.7,10248.9 -29125.2,10209.6C-29111.6,10169.7 -29095,10130.7 -29075.8,10093.2C-29052.9,10048.4 -29026.1,10005.7 -28995.9,9965.47C-28965.4,9924.75 -28931.3,9886.66 -28894.3,9851.75C-28857.8,9817.41 -28818.5,9786.15 -28776.8,9758.43C-28735.9,9731.26 -28692.8,9707.5 -28648,9687.48C-28615.5,9672.95 -28582.1,9660.39 -28548.1,9649.92C-28514.5,9639.56 -28480.2,9631.23 -28445.6,9624.98C-28412.6,9619.03 -28379.3,9614.97 -28345.9,9612.79C-28333.6,9611.99 -28321.3,9611.45 -28309.1,9611.16C-28302.9,9611.01 -28296.7,9610.93 -28290.5,9610.91C-28289.1,9610.91 -28287.7,9610.9 -28286.2,9610.91ZM-28288.9,9723.82C-28305.5,9723.86 -28322,9724.4 -28338.5,9725.47C-28367.7,9727.37 -28396.8,9730.91 -28425.5,9736.1C-28455.7,9741.55 -28485.6,9748.81 -28514.9,9757.83C-28544.5,9766.97 -28573.6,9777.91 -28602,9790.57C-28642.8,9808.82 -28682,9830.64 -28719.1,9855.69C-28752.8,9878.44 -28784.6,9903.83 -28814.3,9931.56C-28847.9,9962.95 -28878.8,9997.34 -28906.3,10034.2C-28930.5,10066.5 -28952.1,10100.7 -28971,10136.4C-28989.2,10171 -29004.9,10207 -29017.6,10243.9C-29028.9,10276.6 -29038,10310 -29044.8,10343.8C-29054.7,10393.5 -29059.7,10444.1 -29059.7,10494.6C-29059.8,10531.2 -29057.3,10567.7 -29052.2,10603.9C-29046.5,10644.7 -29037.5,10685 -29025.4,10724.3C-29014.2,10760.2 -29000.4,10795.4 -28984.1,10829.4C-28963.3,10872.8 -28938.3,10914.2 -28909.8,10953C-28883.4,10988.8 -28854,11022.3 -28821.9,11053.1C-28787,11086.6 -28749,11116.8 -28708.4,11143.2C-28668.6,11169.1 -28626.5,11191.4 -28582.6,11209.6C-28535,11229.3 -28485.5,11244.2 -28435,11253.9C-28386.1,11263.4 -28336.2,11268.1 -28286.4,11268C-28237.4,11267.9 -28188.4,11263.2 -28140.3,11253.9C-28089,11244 -28038.8,11228.8 -27990.6,11208.7C-27946,11190.1 -27903.3,11167.2 -27863,11140.6C-27823.3,11114.4 -27786,11084.5 -27751.8,11051.5C-27718.9,11019.8 -27688.9,10985.2 -27662.1,10948.3C-27634.5,10910.2 -27610.4,10869.7 -27590.2,10827.2C-27573.5,10792.2 -27559.4,10755.8 -27548.2,10718.6C-27536.7,10680.3 -27528.2,10641.1 -27522.7,10601.5C-27517.8,10565.7 -27515.5,10529.6 -27515.6,10493.4C-27515.7,10468.7 -27516.9,10443.9 -27519.3,10419.3C-27521.9,10393.2 -27525.8,10367.2 -27531,10341.5C-27538.3,10305.7 -27548.1,10270.5 -27560.4,10236.1C-27572.9,10201.2 -27588,10167.1 -27605.4,10134.3C-27625.5,10096.6 -27648.6,10060.6 -27674.6,10026.8C-27700.9,9992.41 -27730.2,9960.26 -27761.9,9930.76C-27793.3,9901.5 -27827.1,9874.84 -27863,9851.17C-27898.7,9827.58 -27936.3,9806.96 -27975.5,9789.62C-28003.9,9777.04 -28033,9766.18 -28062.7,9757.14C-28092,9748.2 -28121.9,9741.03 -28152.1,9735.68C-28181.4,9730.5 -28210.9,9727.02 -28240.5,9725.24C-28256.6,9724.27 -28272.7,9723.81 -28288.9,9723.82Z" style="fill:black;fill-rule:nonzero;"/>
                </g>
                <g transform="matrix(0.50309,0,0,0.50309,-421.267,5892.27)">
                    <path d="M-3563.04,1774.3L-3563.04,1684.96L-3456.61,1684.96C-3433.25,1684.96 -3411.95,1704.89 -3411.95,1729.63C-3411.95,1754.37 -3431.87,1774.3 -3456.61,1774.3L-3563.04,1774.3ZM-3563.04,1571.58L-3563.04,1482.25L-3487.99,1482.25C-3463.25,1482.25 -3443.32,1502.17 -3443.32,1526.91C-3443.32,1551.65 -3463.25,1571.58 -3487.99,1571.58L-3563.04,1571.58ZM-3426.65,1885.62C-3344.87,1885.62 -3277.26,1816.21 -3277.26,1734.44C-3277.26,1687.71 -3300.62,1644.42 -3335.67,1616.25C-3315.74,1590.82 -3308.64,1558.52 -3308.64,1523.48C-3308.64,1441.02 -3378.73,1370.24 -3461.19,1370.24L-3698.41,1370.24L-3698.41,1885.62L-3426.65,1885.62Z" style="fill:black;fill-rule:nonzero;"/>
                </g>
                <g transform="matrix(0.50309,0,0,0.50309,-403.025,5892.27)">
                    <path d="M-3277.8,1504.24L-3171.35,1504.24L-3171.35,1885.62L-3035.98,1885.62L-3035.98,1504.24L-2931.38,1504.24L-2931.38,1369.55L-3277.8,1369.55L-3277.8,1504.24Z" style="fill:black;fill-rule:nonzero;"/>
                </g>
                <g transform="matrix(0.50309,0,0,0.50309,11140.4,-152.375)">
                    <path d="M-25400.3,13825.1C-25447,13871.8 -25511.6,13900.7 -25582.8,13900.7C-25725.2,13900.7 -25840.8,13785 -25840.8,13642.6C-25840.8,13500.2 -25725.2,13384.6 -25582.8,13384.6C-25511.6,13384.6 -25447,13413.5 -25400.3,13460.2L-25497.1,13556.9C-25519,13535 -25549.3,13521.4 -25582.8,13521.4C-25649.7,13521.4 -25704,13575.7 -25704,13642.6C-25704,13709.5 -25649.7,13763.9 -25582.8,13763.9C-25549.3,13763.9 -25519,13750.3 -25497.1,13728.3L-25400.3,13825.1Z" style="fill:black;"/>
                </g>
            </g>
        </g>
    </g>
</svg>
