<?xml version="1.0" encoding="UTF-8"?>
<svg xmlns="http://www.w3.org/2000/svg" xmlns:xodm="http://www.corel.com/coreldraw/odm/2003" version="1.1" viewBox="0 0 555.1 561.3">
  <!-- Generator: Adobe Illustrator 28.6.0, SVG Export Plug-In . SVG Version: 1.2.0 Build 709)  -->
  <g>
    <g id="Layer_1">
      <path d="M443.6,229.6c-8.3,8-16.6,16.1-25.1,24.3-7.5-6.7-16.7-10.2-27.5-8.1-7.7,1.5-14,5.4-18.7,11.5-9.8,12.5-8.6,30.2,2.7,41.3,10.8,10.7,29.3,13.5,44.3-.2,8.1,8.3,16.3,16.6,24.5,24.8-15.1,16.4-42.1,24.4-67.1,16.5-27.6-8.7-47-35.3-46.2-65.6.7-26.9,19.3-52.3,46.4-61,25.4-8.2,52.3.7,66.8,16.5h0Z"/>
      <path d="M294.4,244.8v97.7h-35v-97.6h-27.3v-34.7h88.9v34.5h-26.7.1Z"/>
      <path d="M276,552.5c-73.3,0-142.3-28.6-194.1-80.4C30.1,420.3,1.5,351.3,1.5,278S30.1,135.7,81.9,83.9C133.7,32.1,202.7,3.5,276,3.5s142.3,28.6,194.1,80.4c51.8,51.8,80.4,120.8,80.4,194.1s-28.6,142.3-80.4,194.1c-51.8,51.8-120.8,80.4-194.1,80.4ZM276,40.5c-63.4,0-123.1,24.7-167.9,69.6s-69.6,104.5-69.6,167.9,24.7,123.1,69.6,167.9c44.9,44.9,104.5,69.6,167.9,69.6s123.1-24.7,167.9-69.6c44.9-44.9,69.6-104.5,69.6-167.9s-24.7-123.1-69.6-167.9c-44.9-44.9-104.5-69.6-167.9-69.6Z"/>
      <path d="M221.5,293c-2.4-7.8-7-14.2-13.3-19.7h0c6.3-8.8,7.6-21,6.1-30.9-2.7-17.5-19.8-32.5-37.5-32.5h-59.7c-.8,0-1.5,0-2.3,0v132.3h71.4c1.8,0,3.6-.2,5.4-.5,21.9-3.7,36.4-27.5,29.9-48.8ZM149.5,240.8c0-.6,0-1.1,0-2h0c7.2.1,14.1,0,21,.1,5.5.3,9.8,5.8,9.7,11.5,0,0,0,0,0,0,0,0,0,0,0,0,0,.1,0,.2,0,.3,0,1-.2,2-.5,2.9,0,.2-.1.4-.2.6,0,.1,0,.2-.1.3-1.6,4-5.5,6.9-10.2,7.1-6,.2-12,.1-18,0-.6,0-1.7-.9-1.7-1.4h0c-.1-6.6,0-13.1,0-19.6ZM179.7,313.6c-.7.2-1.3.3-2,.3h-27c-.3,0-.7-.1-1.1-.1h.1v-22.9h27.1c5.7,0,10.9,4.6,11.5,10.1.7,6-2.8,11.1-8.6,12.6Z"/>
    </g>
  </g>
</svg>