<svg fill="none" height="20" viewBox="0 0 94 20" width="94" xmlns="http://www.w3.org/2000/svg">
    <g fill="#121212">
        <path
            d="m27.5277.00057675c-2.4923 0-3.9142 1.41132325-3.9142 3.74775325l.0006.00057c0 2.26319 1.4218 3.72353 3.8652 3.72353 2.2491 0 3.5615-1.15582 3.7805-2.99336h-1.7019c-.1584 1.04681-.8025 1.67951-2.0665 1.67951-1.3977 0-2.2244-.81495-2.2244-2.42179s.7414-2.42179 2.2244-2.42179c1.2156 0 1.8476.6079 2.0175 1.66682h1.6898c-.2189-1.7764-1.3735-2.98124325-3.671-2.98124325z" />
        <path clip-rule="evenodd"
            d="m35.6106 7.47243c2.3823 0 3.841-1.44823 3.841-3.76044 0-2.4091-1.5924-3.71141325-3.841-3.71141325-2.3822 0-3.841 1.35133325-3.841 3.76043325 0 2.40911 1.5924 3.71142 3.841 3.71142zm0-6.15801c1.313 0 2.1881.76651 2.1881 2.44602 0 1.63048-.8025 2.39699-2.1881 2.39699-1.3129 0-2.1881-.81553-2.1881-2.44602 0-1.63048.8026-2.39699 2.1881-2.39699z"
            fill-rule="evenodd" />
        <path
            d="m41.9675.121695h-1.6287v7.229035h1.6287v-4.90414c.4258-.81553 1.0088-1.19273 1.945-1.19273 1.1667 0 1.7624.53581 1.7624 1.70374v4.39256h1.6287v-4.62442c0-1.727955-.9478-2.72574-2.6254-2.72574-1.4829 0-2.2976.767083-2.7107 2.04459z" />
        <path
            d="m49.6864 5.13542h-1.7019l.0006.00058c.1821 1.44823 1.264 2.33643 3.5979 2.33643 2.3338 0 3.3184-.96145 3.3184-2.25107 0-1.09468-.5225-1.84965-2.1028-2.03191l-2.176-.2555c-.6441-.07325-.8751-.32875-.8751-.7544 0-.511.3889-.90031 1.6287-.90031s1.6649.41353 1.7623 1.04623h1.6898c-.2069-1.374979-1.0947-2.32431649-3.4037-2.32431649-2.3091 0-3.2453.98567249-3.2453 2.27529649 0 1.13159.5957 1.81331 2.1881 1.99557l2.0907.24339c.6931.08536.8751.3772.8751.76651 0 .52311-.4741.91242-1.7139.91242s-1.7992-.34086-1.9329-1.05892z" />
        <path clip-rule="evenodd"
            d="m55.5208 3.76044c0 2.11726 1.3129 3.71141 3.7684 3.71141 2.0544 0 3.3184-.97356 3.6831-2.45812h-1.6656c-.2431.71805-.863 1.1437-1.9691 1.1437-1.2278 0-2.0176-.71806-2.1634-2.00768h5.8465c.0121-2.53138-1.082-4.14975-3.7194-4.14975-2.3708 0-3.7805 1.52148-3.7805 3.76044zm5.7859-.71806h-4.1083c.2069-1.15582.9604-1.76429 2.0908-1.76429 1.2882 0 1.9081.69326 2.0175 1.76429z"
            fill-rule="evenodd" />
        <path
            d="m65.4513.121695h-1.6286v7.229035h1.6286v-4.90414c.4258-.81553 1.0088-1.19273 1.945-1.19273 1.1667 0 1.7624.53581 1.7624 1.70374v4.39256h1.6287v-4.62442c0-1.727955-.9477-2.72574-2.6254-2.72574-1.4829 0-2.2976.767083-2.7107 2.04459z" />
        <path
            d="m73.1702 5.13542h-1.7019l.0006.00058c.1821 1.44823 1.264 2.33643 3.5979 2.33643s3.3184-.96145 3.3184-2.25107c0-1.09468-.5225-1.84965-2.1028-2.03191l-2.176-.2555c-.6441-.07325-.8751-.32875-.8751-.7544 0-.511.3889-.90031 1.6287-.90031s1.665.41353 1.7623 1.04623h1.6898c-.2068-1.374979-1.0946-2.32431649-3.4037-2.32431649s-3.2453.98567249-3.2453 2.27529649c0 1.13159.5957 1.81331 2.1881 1.99557l2.0907.24339c.6931.08536.8751.3772.8751.76651 0 .52311-.4741.91242-1.7139.91242s-1.7992-.34086-1.9329-1.05892z" />
        <path
            d="m83.1244 9.12714 3.0269-9.004868h-1.7024l-2.0907 6.327568-2.176-6.327568h-1.7987l2.3702 6.437158h1.5682l-.401 1.22906h-2.7469v1.33865z" />
        <path
            d="m87.8284 5.136h-1.7018l.0005.00057c.1821 1.44823 1.2641 2.33643 3.5979 2.33643 2.3339 0 3.3185-.96144 3.3185-2.25107 0-1.09468-.5226-1.84965-2.1029-2.0319l-2.176-.2555c-.6441-.07325-.8751-.32875-.8751-.7544 0-.511.3889-.90031 1.6287-.90031s1.665.41353 1.7623 1.04623h1.6898c-.2068-1.374982-1.0946-2.32431974-3.4037-2.32431974s-3.2453.98567274-3.2453 2.27529974c0 1.13159.5957 1.81331 2.1881 1.99557l2.0907.24339c.6931.08536.8752.37719.8752.7665 0 .52312-.4742.91243-1.714.91243s-1.7992-.34086-1.9329-1.05892z" />
        <path clip-rule="evenodd"
            d="m19.856 10.0614v-2.71078h-.0006l.0006-.00057v-7.227887h-7.2205-2.7078c-5.48293 0-9.9277 4.449657-9.9277 9.938637 0 5.489 4.44534 9.9392 9.92828 9.9392 5.48292 0 9.92772-4.4497 9.92772-9.9386zm-12.18438-4.96992 4.96388-4.969317v7.228457h7.2199l-4.9644 4.97158h-7.21938z"
            fill-rule="evenodd" />
    </g>
</svg>