<svg width="392" height="34" viewBox="0 0 392 34" fill="none" xmlns="http://www.w3.org/2000/svg">
<path fill-rule="evenodd" clip-rule="evenodd" d="M188.292 25.6795C189.571 24.9772 190.754 24.1131 191.812 23.1086L194.866 26.2031C194.194 26.9281 193.462 27.5956 192.678 28.1984C191.911 28.7806 191.088 29.2847 190.221 29.7034C189.304 30.143 188.337 30.4692 187.341 30.6748C186.203 30.9004 185.045 31.0092 183.885 30.9993C181.999 31.018 180.129 30.6489 178.391 29.9149C176.753 29.2251 175.267 28.217 174.022 26.9489C172.776 25.6808 171.794 24.178 171.133 22.5277C170.425 20.7982 170.067 18.9451 170.082 17.0762V16.9987C170.066 15.139 170.415 13.2942 171.112 11.5696C171.78 9.90398 172.771 8.38684 174.028 7.1054C175.285 5.82397 176.782 4.80351 178.434 4.10265C180.22 3.3509 182.142 2.97593 184.08 3.0012C185.213 2.99399 186.344 3.09776 187.457 3.31103C188.421 3.50054 189.362 3.79267 190.265 4.18244C191.093 4.54546 191.882 4.99158 192.619 5.51394C193.343 6.03211 194.029 6.60161 194.671 7.21803L191.619 10.7323C190.587 9.76882 189.429 8.95007 188.177 8.29858C186.891 7.66167 185.471 7.3429 184.036 7.36908C182.805 7.3572 181.586 7.61552 180.465 8.12584C179.391 8.61314 178.424 9.30813 177.62 10.1707C176.81 11.0537 176.178 12.0857 175.761 13.2094C175.319 14.3951 175.097 15.6518 175.106 16.9174V16.9948C175.097 18.2677 175.319 19.5317 175.761 20.7252C176.177 21.8605 176.808 22.9045 177.62 23.7996C178.417 24.6774 179.385 25.3831 180.465 25.8731C181.587 26.3776 182.806 26.6332 184.036 26.6221C185.511 26.6641 186.973 26.3402 188.292 25.6795ZM94.6425 25.6795C95.9225 24.9787 97.1059 24.1145 98.163 23.1086L101.216 26.2031C100.544 26.9285 99.8116 27.596 99.0275 28.1984C98.2612 28.7807 97.4386 29.2849 96.572 29.7034C95.6548 30.143 94.6875 30.4692 93.6914 30.6748C92.5534 30.9005 91.3953 31.0092 90.2352 30.9993C88.3488 31.0178 86.4788 30.6488 84.741 29.9149C83.1045 29.222 81.621 28.2127 80.3755 26.945C79.13 25.6773 78.1471 24.1762 77.4832 22.5277C76.7746 20.7983 76.4173 18.9451 76.4321 17.0762V16.9987C76.416 15.139 76.766 13.2942 77.4623 11.5697C78.1308 9.9041 79.1218 8.38704 80.3783 7.10562C81.6349 5.8242 83.1323 4.80367 84.7844 4.10267C86.5703 3.35092 88.4921 2.97594 90.4296 3.00121C91.5653 2.99431 92.6989 3.09808 93.8145 3.31104C94.7761 3.50154 95.7147 3.79365 96.6146 4.18245C97.4427 4.54513 98.2317 4.99127 98.9694 5.51396C99.6935 6.03213 100.379 6.60162 101.022 7.21804L97.9686 10.7323C96.9371 9.76846 95.779 8.94967 94.5264 8.29859C93.2409 7.6617 91.8213 7.34292 90.387 7.36909C89.1554 7.35714 87.9362 7.61546 86.8154 8.12585C85.7414 8.61276 84.7747 9.3078 83.9711 10.1708C83.1603 11.0535 82.5289 12.0856 82.1121 13.2095C81.6691 14.3951 81.447 15.6518 81.4568 16.9174V16.9948C81.4471 18.2678 81.6692 19.5318 82.1121 20.7252C82.527 21.8606 83.1584 22.9047 83.9711 23.7996C84.7675 24.6778 85.7355 25.3836 86.8154 25.8731C87.9378 26.3778 89.1563 26.6333 90.387 26.6221C91.8615 26.6639 93.3235 26.3401 94.6425 25.6795ZM6.71644 19.0041V26.241H22.2166V30.5322H2V3.46515L22.0245 3.46515V7.75712L6.71644 7.75712V14.7129L20.2895 14.7129V19.0041H6.71644ZM32.5812 3.46825L32.5812 26.241H46.8087L46.8087 30.5322H27.8647L27.8647 3.46825L32.5812 3.46825ZM56.4798 26.241V19.0041H70.0528V14.7129L56.4798 14.7129V7.75712L71.7879 7.75712V3.46515L51.7603 3.46515V30.5322H71.9769V26.241H56.4798ZM104.19 3.46515V7.87253L112.774 7.87253V30.5322H117.569V7.87253L126.152 7.87253V3.46515L104.19 3.46515ZM149.415 19.1846C148.598 19.6698 147.719 20.0405 146.801 20.286L154.115 30.5322L148.506 30.5322L141.829 21.0931L138.992 16.8809H142.837C144.294 16.9607 145.734 16.5277 146.905 15.6571C147.402 15.2625 147.799 14.7561 148.062 14.1791C148.326 13.6022 148.45 12.9711 148.424 12.3372V12.2598C148.464 11.6236 148.352 10.9872 148.096 10.4034C147.839 9.81973 147.448 9.30571 146.952 8.90427C145.733 8.07206 144.271 7.6693 142.798 7.75944L135.856 7.75944V30.5322H131.14V3.4667L143.208 3.4667C144.745 3.44064 146.276 3.68203 147.73 4.18009C148.955 4.60097 150.075 5.28131 151.014 6.17464C151.738 6.91382 152.304 7.79345 152.677 8.75943C153.075 9.79715 153.273 10.9011 153.26 12.0127V12.0847C153.272 13.1032 153.109 14.1163 152.777 15.0793C152.472 15.9389 152.019 16.7385 151.438 17.4417C150.866 18.1315 150.182 18.7206 149.415 19.1846ZM159.332 3.46515V30.5322H164.049V3.46515L159.332 3.46515Z" fill="#28292D"/>
<path fill-rule="evenodd" clip-rule="evenodd" d="M242.656 23.1086C241.599 24.1143 240.416 24.9785 239.136 25.6794C237.819 26.3408 236.359 26.6647 234.886 26.6221C233.654 26.6332 232.433 26.3777 231.308 25.8731C230.23 25.382 229.262 24.6765 228.464 23.7995C227.651 22.9048 227.02 21.8607 226.605 20.7252C226.166 19.5307 225.944 18.2673 225.95 16.9948V16.9173C225.944 15.6521 226.166 14.3961 226.605 13.2094C227.022 12.0854 227.653 11.0533 228.464 10.1707C229.269 9.30893 230.235 8.61408 231.308 8.12579C232.432 7.61537 233.653 7.35707 234.886 7.36902C236.319 7.34382 237.736 7.66257 239.02 8.29852C240.273 8.94828 241.431 9.76719 242.462 10.7323L245.514 7.21798C244.874 6.60164 244.191 6.03214 243.469 5.51389C242.729 4.99135 241.938 4.54524 241.108 4.18239C240.208 3.79359 239.269 3.50148 238.307 3.31098C237.192 3.09771 236.058 2.99393 234.923 3.00114C232.985 2.97645 231.064 3.35141 229.278 4.1026C227.625 4.80345 226.128 5.82392 224.871 7.10535C223.614 8.38678 222.623 9.90392 221.955 11.5696C221.264 13.2941 220.916 15.1365 220.929 16.994L220.929 17.0715C220.918 18.9401 221.275 20.7926 221.98 22.523C222.652 24.1726 223.637 25.6763 224.882 26.9505C226.128 28.2139 227.61 29.2196 229.245 29.9102C230.98 30.6449 232.848 31.014 234.732 30.9946C235.895 31.0048 237.055 30.896 238.195 30.6701C239.189 30.4625 240.153 30.1358 241.068 29.6972C241.933 29.2754 242.755 28.7715 243.524 28.1922C244.306 27.5894 245.036 26.9219 245.706 26.1968L242.656 23.1086ZM264.616 3.27117L260.208 3.27117L248.301 30.5326H253.177L255.955 23.9952L257.698 19.7822L262.335 8.95274L267.017 19.783L268.76 23.9959L271.502 30.5334H276.529L264.616 3.27117ZM299.324 5.93553C300.207 6.73051 300.905 7.70864 301.369 8.80149C301.862 9.97538 302.107 11.2387 302.087 12.5118V12.5892C302.117 13.9723 301.823 15.3432 301.23 16.593C300.681 17.7153 299.887 18.6997 298.906 19.4729C297.877 20.2706 296.707 20.8666 295.457 21.2297C294.086 21.6384 292.661 21.84 291.231 21.8277L285.844 21.8277V30.5324H281.128V3.46539L291.799 3.46539C293.25 3.44579 294.694 3.65973 296.076 4.099C297.272 4.48386 298.378 5.10878 299.324 5.93553ZM296.866 14.6122C297.138 14.0063 297.269 13.3468 297.25 12.6829L297.247 12.6109C297.294 11.9224 297.174 11.2327 296.897 10.6007C296.62 9.96861 296.194 9.41298 295.656 8.9812C294.414 8.1068 292.913 7.67574 291.396 7.75736H285.844V17.5349H291.396C292.941 17.6241 294.466 17.1425 295.68 16.1817C296.189 15.7546 296.594 15.218 296.866 14.6122ZM307.188 3.46538V30.5324H311.912V3.46538L307.188 3.46538ZM317.204 7.87277V3.46538L339.165 3.46538L339.165 7.87277L330.582 7.87277V30.5324H325.786V7.87277L317.204 7.87277ZM354.48 3.27117L350.073 3.27117L338.163 30.5326H343.031L345.819 23.9952L347.562 19.7822L352.199 8.95274L356.878 19.783L358.613 23.9959L361.364 30.5334H366.39L354.48 3.27117ZM375.901 3.46848V26.2413H390.13V30.5324H371.185V3.46848L375.901 3.46848Z" fill="#28292D"/>
<path d="M212 15.4349H206.999V3L202 18.5651H206.999V31L212 15.4349Z" fill="#00BBF2"/>
</svg>
