<svg width="1286" height="252" viewBox="0 0 1286 252" fill="none" xmlns="http://www.w3.org/2000/svg">
<path d="M563.41 245.108C540.1 245.108 520.09 239.858 503.36 229.358C486.63 218.858 473.77 204.728 464.77 186.958C455.77 169.198 451.27 149.468 451.27 127.778C451.27 106.088 455.88 86.3679 465.11 68.5979C474.34 50.8379 487.43 36.6979 504.39 26.1979C521.35 15.6979 541.25 10.4479 564.09 10.4479C588.78 10.4479 610.18 16.5079 628.29 28.6179C646.4 40.7279 659.73 56.3679 668.26 75.5179H639.88C632.96 63.2879 623.32 53.5979 610.98 46.4479C598.63 39.2979 583.69 35.7179 566.16 35.7179C547.7 35.7179 531.78 39.8179 518.4 48.0079C505.02 56.1979 494.8 67.2179 487.77 81.0579C480.73 94.8979 477.21 110.478 477.21 127.778C477.21 145.078 480.67 160.368 487.59 174.328C494.51 188.288 504.6 199.368 517.87 207.558C531.14 215.748 547 219.848 565.46 219.848C579.3 219.848 592.4 216.848 604.74 210.848C617.08 204.848 627.12 196.198 634.85 184.888C642.58 173.588 646.45 159.968 646.45 144.048H562.69V120.508H670.33V242.338H646.45V201.848C641.6 209.238 635.37 216.208 627.76 222.788C620.14 229.368 610.97 234.728 600.24 238.878C589.51 243.028 577.22 245.108 563.38 245.108H563.41ZM781.86 245.108C765.01 245.108 750.31 241.128 737.73 233.168C725.15 225.208 715.41 214.428 708.49 200.808C701.57 187.198 698.11 172.198 698.11 155.818C698.11 139.438 701.57 124.148 708.49 110.648C715.41 97.1479 725.16 86.4179 737.73 78.4579C750.3 70.4979 765.01 66.5179 781.86 66.5179C796.16 66.5179 808.45 69.2879 818.72 74.8279C828.98 80.3679 837.35 87.8679 843.81 97.3279V69.2979H869.77V242.348H843.81V214.658C837.35 223.888 828.98 231.268 818.72 236.808C808.45 242.348 796.16 245.118 781.86 245.118V245.108ZM785.32 221.568C798.24 221.568 809.14 218.568 818.03 212.568C826.91 206.568 833.66 198.548 838.28 188.518C842.89 178.478 845.2 167.578 845.2 155.808C845.2 144.038 842.89 132.848 838.28 122.928C833.66 113.008 826.91 105.048 818.03 99.0479C809.14 93.0479 798.24 90.0479 785.32 90.0479C772.4 90.0479 761.67 93.0479 752.44 99.0479C743.21 105.048 736.17 113.008 731.33 122.928C726.48 132.848 724.06 143.808 724.06 155.808C724.06 167.808 726.48 178.478 731.33 188.518C736.18 198.558 743.21 206.578 752.44 212.568C761.66 218.568 772.63 221.568 785.32 221.568ZM907.28 242.338V0.0678581H933.24V242.338H907.28ZM951.09 242.338L1017.89 153.048L955.25 69.2879H988.48L1033.13 134.698L1077.43 69.2879H1110.65L1048.01 153.048L1115.15 242.338H1081.92L1033.12 171.738L983.97 242.338H951.09ZM1201.15 245.108C1183.61 245.108 1168.27 241.128 1155.12 233.168C1141.97 225.208 1131.76 214.428 1124.49 200.808C1117.22 187.198 1113.59 172.198 1113.59 155.818C1113.59 139.438 1117.05 124.148 1123.97 110.648C1130.89 97.1479 1140.81 86.4179 1153.73 78.4579C1166.65 70.4979 1181.88 66.5179 1199.42 66.5179C1216.96 66.5179 1232.47 70.4979 1245.28 78.4579C1258.09 86.4179 1267.95 97.1479 1274.87 110.648C1281.79 124.148 1285.25 139.198 1285.25 155.818V166.198H1140.23C1141.61 176.358 1144.9 185.638 1150.1 194.058C1155.29 202.488 1162.27 209.178 1171.04 214.128C1179.81 219.088 1189.96 221.568 1201.5 221.568C1213.73 221.568 1224 218.858 1232.3 213.438C1240.61 208.018 1247.06 201.038 1251.68 192.498H1280.06C1274.06 207.958 1264.54 220.588 1251.51 230.398C1238.47 240.208 1221.69 245.108 1201.15 245.108ZM1140.58 141.968H1258.25C1255.94 127.208 1249.71 114.858 1239.56 104.938C1229.4 95.0179 1216.02 90.0579 1199.41 90.0579C1182.8 90.0579 1169.47 95.0179 1159.44 104.938C1149.4 114.858 1143.11 127.208 1140.58 141.968ZM272.39 29.7579L26.39 171.788L254.94 3.11786C262.6 -2.53214 273.47 -0.262142 278.22 7.97786C282.62 15.6079 280.01 25.3579 272.38 29.7679L272.39 29.7579ZM307.54 152.688C304.24 146.968 296.93 145.018 291.21 148.318L128.35 242.338L301.8 169.688C308.44 166.908 311.13 158.928 307.53 152.688H307.54ZM389.71 26.6479C382.82 14.7179 367.31 11.0279 355.79 18.5779L0 251.648L379.74 60.0579C392.04 53.8479 396.6 38.5779 389.71 26.6479Z" fill="black"/>
</svg>
