<svg fill="none" xmlns="http://www.w3.org/2000/svg" viewBox="0 0 422 439">
  <path d="M211.343 0c-27.626.00356483-54.981 5.44206-80.503 16.005-25.522 10.5629-48.7111 26.0433-68.2433 45.5574-19.5321 19.5142-35.0249 42.6796-45.5936 68.1746C6.43428 155.231.996432 182.555 1 210.149v90.048c0 7.963 3.16709 15.6 8.80455 21.231 5.63745 5.631 13.28355 8.794 21.25605 8.794 7.9726 0 15.6186-3.163 21.2561-8.794 5.6375-5.631 8.8045-13.268 8.8045-21.231v-90.048c0-7.956 3.1643-15.586 8.7966-21.212 5.6324-5.626 13.2715-8.786 21.2369-8.786 7.9654 0 15.6043 3.16 21.2373 8.786 5.632 5.626 8.796 13.256 8.796 21.212v90.048c0 7.963 3.167 15.6 8.805 21.231 5.637 5.631 13.283 8.794 21.256 8.794 7.972 0 15.618-3.163 21.256-8.794 5.637-5.631 8.804-13.268 8.804-21.231v-90.048c.235-7.811 3.507-15.222 9.121-20.664 5.615-5.442 13.13-8.485 20.954-8.485 7.823 0 15.338 3.043 20.953 8.485 5.614 5.442 8.886 12.853 9.121 20.664v90.048c0 7.953 3.163 15.579 8.792 21.202 5.63 5.624 13.266 8.783 21.228 8.783 7.961 0 15.597-3.159 21.227-8.783 5.63-5.623 8.793-13.249 8.793-21.202v-90.048c.235-7.811 3.506-15.222 9.121-20.664 5.614-5.442 13.13-8.485 20.953-8.485 7.823 0 15.339 3.043 20.953 8.485 5.614 5.442 8.886 12.853 9.121 20.664v90.048c0 7.963 3.167 15.6 8.805 21.231 5.637 5.631 13.283 8.794 21.256 8.794 7.972 0 15.618-3.163 21.256-8.794 5.637-5.631 8.804-13.268 8.804-21.231v-90.048c-.007-55.738-22.18-109.19-61.641-148.5995C320.664 22.1398 267.146-4.6e-7 211.343 0ZM76.5709 436.202V356.81h13.323v13.257c3.7849-9.403 10.5981-14.953 21.3471-14.953 2.271 0 4.542.462 5.753.771v14.182c-1.211-.308-3.785-.77-6.359-.77-13.3227 0-20.4383 10.637-20.4383 27.594v39.311H76.5709Zm68.9231 2.314c-15.292 0-27.101-8.633-27.101-23.432 0-15.262 10.447-21.891 22.71-24.203l19.379-3.7c6.207-1.233 9.992-3.238 9.992-9.404 0-6.629-5.602-11.099-16.654-11.099-9.992 0-18.167 4.162-18.924 13.874h-14.383c.303-16.341 14.837-26.053 33.459-26.053 21.498 0 30.128 11.099 30.128 23.741v41.314c0 3.546 1.665 5.396 4.693 5.396 2.574 0 4.088-.617 5.45-1.542v11.254c-2.119 1.85-5.753 3.083-10.143 3.083-6.51 0-11.809-3.546-13.172-10.329-3.482 4.933-10.749 11.1-25.434 11.1Zm-13.021-23.895c0 7.708 6.813 11.716 15.594 11.716 12.869 0 22.407-7.399 22.407-18.499v-12.795c-1.514 1.85-6.51 3.237-11.658 4.162l-12.868 2.467c-9.236 1.85-13.475 5.858-13.475 12.949Zm174.664 23.895c-22.256 0-39.364-14.645-39.364-42.394 0-25.899 16.503-41.623 38.152-41.623 24.678 0 38.152 17.574 38.152 37.461 0 3.237-.151 6.629-.605 9.095h-61.467c.908 15.416 10.9 24.974 25.283 24.974 11.355 0 17.259-3.7 21.196-12.949h14.231c-4.239 16.032-17.411 25.436-35.578 25.436Zm-25.132-49.023h47.69c-.606-14.799-10.447-22.815-23.77-22.815-14.08 0-22.709 8.633-23.92 22.815Zm72.957 46.71v-79.392h13.323v10.175c4.39-7.708 13.625-12.487 24.072-12.487 17.108 0 29.522 9.25 29.522 33.144v48.56h-13.626v-46.556c0-14.799-7.115-22.044-18.924-22.044-13.323 0-20.742 9.249-20.742 22.507v46.093h-13.625Z" fill="#7132F5"/>
  <path fill-rule="evenodd" clip-rule="evenodd" d="M.937988 356.813v79.39H14.5637v-25.745l13.0202-12.641 27.1001 38.386h15.8967l-33.7616-47.944 31.9448-31.448h-17.562l-36.6382 36.381v-36.379H.937988Zm200.355012 0v79.39h13.625v-25.745l13.021-12.641 27.1 38.386h15.896l-33.761-47.944 31.945-31.448h-17.562l-36.639 36.381v-36.379h-13.625Z" fill="#7132F5"/>
</svg>
