<svg width="410" height="186" viewBox="0 0 410 186" fill="none" xmlns="http://www.w3.org/2000/svg">
<path fill-rule="evenodd" clip-rule="evenodd" d="M372.319 46.4365V84.1896H379.761V46.4365H372.319ZM354.168 85.0969C363.607 85.0969 368.87 78.7443 368.87 70.032C368.87 61.3198 363.607 54.967 354.168 54.967C344.73 54.967 339.466 61.3198 339.466 70.032C339.466 78.7443 344.73 85.0969 354.168 85.0969ZM354.168 60.2307C358.524 60.2307 361.247 63.8608 361.247 70.032C361.247 76.0217 358.524 79.8333 354.168 79.8333C349.812 79.8333 347.09 76.2032 347.09 70.032C347.09 63.8608 349.812 60.2307 354.168 60.2307ZM205.153 58.7791C205.153 65.4948 200.615 69.3064 195.17 70.0324C193.355 70.2139 191.904 70.2139 189.726 70.2139H189.725H184.28V84.1898H176.838V47.1627H189.725C191.903 47.1627 193.173 47.1627 195.17 47.3442C200.797 48.2518 205.153 52.0634 205.153 58.7791ZM197.348 58.7791C197.348 55.3305 195.533 53.6969 192.992 53.3339C192.266 53.1524 190.995 53.1524 189.725 53.1524H184.461V64.5872H189.725C190.995 64.5872 192.266 64.5872 192.992 64.4057C195.533 63.8612 197.348 62.2277 197.348 58.7791ZM225.3 61.3201V55.3304L225.3 55.3304C224.755 55.1489 224.211 54.9674 223.122 55.1489C221.488 55.1489 219.673 55.8749 218.221 57.1455L216.043 61.1386V55.8749H208.601V84.3713H216.043V71.3029C216.043 63.6796 219.129 60.9571 225.3 61.3201ZM256.156 70.032C256.156 78.7443 250.892 85.0969 241.454 85.0969C232.016 85.0969 226.752 78.7443 226.752 70.032C226.752 61.3198 232.016 54.967 241.454 54.967C250.892 54.967 256.156 61.3198 256.156 70.032ZM248.533 70.032C248.533 63.8608 245.81 60.2307 241.454 60.2307C237.098 60.2307 234.375 63.8608 234.375 70.032C234.375 76.2032 237.098 79.8333 241.454 79.8333C245.81 79.8333 248.533 76.0217 248.533 70.032ZM269.587 76.5661V74.025V60.9566H275.395V56.056H269.587V46.6177H262.145V56.056H257.97V60.9566H262.145V74.9325V74.9329C262.145 76.5663 262.145 77.8367 262.327 79.1072C262.69 83.1003 264.686 84.9153 270.131 84.9153C271.765 84.9153 273.398 84.7338 275.032 84.5523V79.6517C270.857 80.0147 269.768 79.2886 269.587 76.5661ZM306.977 70.032C306.977 78.7443 301.714 85.0969 292.275 85.0969C282.837 85.0969 277.573 78.7443 277.573 70.032C277.573 61.3198 282.837 54.967 292.275 54.967C301.714 54.967 306.977 61.3198 306.977 70.032ZM299.354 70.032C299.354 63.8608 296.632 60.2307 292.275 60.2307C287.919 60.2307 285.197 63.8608 285.197 70.032C285.197 76.2032 287.919 79.8333 292.275 79.8333C296.632 79.8333 299.354 76.0217 299.354 70.032ZM329.666 66.0389H336.926C336.381 59.6862 331.481 54.967 324.039 54.967C316.234 54.967 309.881 60.4122 309.881 70.2135C309.881 80.0148 315.69 84.9154 323.494 84.9154C330.573 84.9154 335.837 81.4668 337.107 74.3881H329.666C328.94 78.0182 326.761 79.8333 323.857 79.8333C320.227 79.8333 317.505 76.9292 317.505 69.8505C317.505 63.3163 320.046 60.2307 323.857 60.2307C326.761 60.2307 328.94 61.8643 329.666 66.0389ZM203.882 133.741H177.201V95.9878H184.642V127.57H203.882V133.741ZM222.396 132.652L223.848 129.566L224.211 133.741H231.471C231.108 130.474 230.926 128.658 230.926 126.48V117.224V117.223C230.926 115.771 230.926 114.138 230.745 112.868C230.2 107.967 227.296 104.518 219.31 104.518C212.594 104.518 207.331 108.148 207.149 114.501H214.409C214.591 111.234 216.224 109.6 219.128 109.6C222.033 109.6 223.303 111.052 223.485 113.049C223.666 114.138 223.666 114.864 223.666 115.771V115.772V116.316H221.851C211.687 116.316 206.242 119.765 206.242 126.117C206.242 131.563 210.416 134.467 215.317 134.467C218.039 134.467 220.399 133.922 222.396 132.652ZM223.666 120.854V123.213C223.666 127.206 221.125 129.203 218.221 129.203C215.498 129.203 213.865 128.114 213.865 125.573C213.865 121.761 217.858 120.491 223.666 120.854ZM266.138 118.857C266.138 129.203 259.786 134.467 252.525 134.467C250.166 134.467 247.262 133.922 245.81 132.833L243.995 129.929V133.741H236.553V95.9878H243.995V109.601L246.173 106.515C247.806 105.245 250.71 104.519 253.614 104.519C261.419 104.337 266.138 110.508 266.138 118.857ZM258.515 119.402C258.515 113.594 255.793 109.601 251.255 109.601C247.262 109.601 243.813 112.142 243.813 119.039V120.31C243.813 126.844 247.443 129.022 250.892 129.022C255.43 129.203 258.515 125.936 258.515 119.402ZM284.834 113.413H292.275C291.549 108.149 287.738 104.337 281.022 104.337C274.306 104.337 269.769 107.604 269.769 113.05C269.769 117.95 273.399 120.31 278.662 121.58C283.563 122.851 285.378 124.121 285.378 126.299C285.378 128.296 283.563 129.385 281.203 129.385C278.662 129.385 276.484 127.933 275.94 124.847H268.498C269.224 131.2 274.125 134.286 281.022 134.286C287.556 134.286 292.82 131.563 292.82 125.755C292.82 120.491 289.371 118.132 283.563 116.68C278.844 115.591 277.029 114.502 277.029 112.324C277.029 110.508 278.299 109.238 280.477 109.238C282.837 109.238 284.289 110.871 284.834 113.413Z" fill="black"/>
<path fill-rule="evenodd" clip-rule="evenodd" d="M97.8829 49.8852L121.66 36.2723C122.386 35.9092 123.112 35.9092 123.657 36.2723L147.797 50.0667C148.523 50.4297 148.523 51.5187 147.797 51.8817L124.02 65.4946C123.475 65.8576 122.568 65.8576 122.023 65.4946L97.8829 51.7002C97.1569 51.3372 97.1569 50.2482 97.8829 49.8852ZM34.356 50.0663L58.1332 36.4534C58.8592 36.0904 59.5853 36.0904 60.1298 36.4534L116.033 68.3983C116.759 68.7613 116.759 69.8503 116.033 70.2134L92.2562 83.8263C91.7117 84.1893 90.8042 84.1893 90.2597 83.8263L34.356 51.8814C33.63 51.5184 33.63 50.4293 34.356 50.0663ZM93.7087 90.7238V118.131C93.7087 118.857 94.6163 119.402 95.1608 119.039L119.301 105.244C119.664 105.063 119.845 104.7 119.845 104.337V76.2034C119.845 75.4773 118.938 74.9328 118.393 75.2958L94.7978 88.9087C94.0717 89.2718 93.7087 89.9978 93.7087 90.7238ZM150.157 57.1453L126.38 70.7582C125.835 71.1212 125.472 71.8473 125.654 72.3918V106.696C125.654 107.422 125.109 108.148 124.565 108.511L94.7978 125.573C94.0717 125.936 93.7087 126.662 93.7087 127.388V154.795C93.7087 155.521 94.4348 156.066 95.1608 155.703L150.52 123.939C151.246 123.576 151.609 122.85 151.609 122.124V58.0529C151.609 57.3268 150.883 56.7823 150.157 57.1453ZM88.2632 90.5429L88.0817 118.676C88.0817 119.221 87.5372 119.584 86.9927 119.402L57.7703 102.704C57.0443 102.341 56.3183 102.885 56.3183 103.611V136.645C56.3183 137.371 55.4108 137.916 54.8662 137.553L31.089 123.94C30.5445 123.577 30 122.851 30 122.125V57.8719C30 57.1459 30.9075 56.6014 31.452 56.9644L87.3557 88.9094C87.9002 89.0909 88.2632 89.8169 88.2632 90.5429ZM87.1742 125.573L63.2155 111.779C62.671 111.416 61.7634 111.779 61.7634 112.686V140.275C61.7634 141.001 62.308 141.727 62.8525 142.09L86.8112 155.884C87.3557 156.247 88.2632 155.703 88.2632 154.977V127.388C88.2632 126.662 87.7187 125.936 87.1742 125.573Z" fill="black"/>
</svg>
