<?xml version="1.0" encoding="utf-8"?>
<!-- Generator: Adobe Illustrator 26.0.3, SVG Export Plug-In . SVG Version: 6.00 Build 0)  -->
<svg width="224" height="224" viewBox="50 70 700 450" xmlns="http://www.w3.org/2000/svg" xmlns:xlink="http://www.w3.org/1999/xlink">
<style type="text/css">
	.st0{fill-rule:evenodd;clip-rule:evenodd;fill:#1D1D1B;}
	.st1{clip-path:url(#SVGID_00000086667483069168041050000002361358558388038579_);}
	.st2{fill-rule:evenodd;clip-rule:evenodd;fill:url(#SVGID_00000062870726572721581730000015712129949163554734_);}
</style>
<path class="st0" d="M378.3,253c-5.7,0-10.4,4.6-10.4,10.5c0,5.8,4.7,10.4,10.4,10.4c5.7,0,10.4-4.6,10.4-10.4
	C388.7,257.6,384,253,378.3,253z M387.4,279.2h-18.1v62.2h18.1V279.2z M263.5,255.3h17.7v23.9h13.6v16.6h-13.6v21.9
	c0,3.2,2.5,5.8,5.6,5.8h7.9v17.7h-7.9c-12.8,0-23.3-10.5-23.3-23.6v-21.9h-8.2V279h8.2V255.3z M337.9,277.8
	c-8.2,0-14.7,3.5-17.2,8.9v-31.4h-18.1v86h18.1v-34.9c0-7.3,4.7-12.4,11.3-12.4c6.7,0,10.5,4.4,10.5,11.8v35.6h18.1v-37.9
	C360.6,287.4,352.4,277.8,337.9,277.8z M413.3,279v8.5c2.7-6.2,9.4-9.8,17.7-9.9c1.3,0,2.9,0.1,4.8,0.3v17.3c-1.8-0.3-3.9-0.6-6-0.6
	c-10.4,0-16.4,5.9-16.4,16.2v30.4h-18.1V279H413.3z M486.8,287.2c-1.8-5.4-9-9.2-18.2-9.2c-8.7,0-16,3.1-21.8,9.4
	c-5.7,6.1-8.7,13.9-8.7,22.9c0,9,3,16.6,8.7,23c5.8,6.1,13.1,9.2,21.8,9.2c9.2,0,16.4-3.8,18.2-9.2v8.2h18.1v-86.1h-18.1V287.2z
	 M483.1,321.3c-3.1,3-6.8,4.4-11.3,4.4c-4.3,0-8.1-1.5-11.1-4.4c-3.1-3.1-4.6-6.8-4.6-11.1c0-4.3,1.5-8,4.6-11
	c3.1-3.1,6.7-4.6,11.1-4.6c4.6,0,8.3,1.5,11.3,4.6c3.2,3,4.8,6.7,4.8,11C487.9,314.5,486.3,318.2,483.1,321.3z M557.3,279.4
	l16.4,29.6l11.1-29.8h17.8L577.2,345l-20-35.8l-20,35.8l-25.2-65.8h17.8l11,29.8L557.3,279.4z M632.4,277.7c-9.4,0-17.2,3-23.4,9
	c-6,5.9-9.1,13.7-9.1,23.4v0.6c0,9.7,3.1,17.6,9.1,23.4c6.3,5.8,14.3,8.8,24.3,8.8c9.4,0,17-1.8,22.8-5.7v-16.1c-5.7,4-13,6-21.8,6
	c-9.6,0-15.9-4.7-16.2-12.1h45.1c0.2-1.8,0.3-3.9,0.3-6c0-8.9-3-16.3-8.7-22.3C649.2,280.7,641.6,277.7,632.4,277.7z M618.2,303.2
	c0.1-2.9,1.6-5.3,4.3-7.3c2.9-2,6-3,9.9-3c7.2,0,12.8,4.7,12.8,10.3H618.2z M706.8,278c8.7,0,16,3.1,21.7,9.4
	c5.8,6.2,8.8,13.7,8.8,22.7s-3,16.6-8.8,23c-5.7,6.1-13,9.2-21.7,9.2c-9.2,0-16.4-3.8-18.2-9.2v8.2h-18.1v-86h18.1v32
	C690.4,281.8,697.6,278,706.8,278z M703.5,325.7c4.3,0,8-1.4,11.1-4.4c3.1-3.1,4.6-6.8,4.6-11.1c0-4.3-1.5-8-4.6-11
	c-3-3.1-6.7-4.6-11.1-4.6c-4.4,0-8.2,1.5-11.4,4.6c-3.1,3-4.7,6.7-4.7,11c0,4.3,1.6,8,4.7,11.1C695.2,324.2,698.9,325.7,703.5,325.7
	z"/>
<g>
	<defs>
		<rect id="SVGID_1_" x="63.8" y="249.5" width="158.6" height="98.6"/>
	</defs>
	<clipPath id="SVGID_00000055670500402312180990000000699977473301398718_">
		<use xlink:href="#SVGID_1_"  style="overflow:visible;"/>
	</clipPath>
	<g style="clip-path:url(#SVGID_00000055670500402312180990000000699977473301398718_);">

			<linearGradient id="SVGID_00000057839193954861663980000011971898509887572402_" gradientUnits="userSpaceOnUse" x1="133.6503" y1="355.4655" x2="243.2201" y2="207.9713" gradientTransform="matrix(1 0 0 -1 -20.9449 604.3622)">
			<stop  offset="0" style="stop-color:#F213A4"/>
			<stop  offset="1" style="stop-color:#5204BF"/>
		</linearGradient>
		<path style="fill-rule:evenodd;clip-rule:evenodd;fill:url(#SVGID_00000057839193954861663980000011971898509887572402_);" d="
			M64.2,257.8c-1.6-4,1.4-8.3,5.7-8.3h26.8c2.5,0,4.7,1.5,5.7,3.8l21.3,53.1c0.6,1.4,0.6,3,0,4.5l-13.4,33.4c-2,5.1-9.3,5.1-11.4,0
			L64.2,257.8z M115.9,257.6c-1.4-4,1.5-8.1,5.7-8.1H145c2.6,0,4.9,1.6,5.7,4l19.4,53.1c0.5,1.3,0.5,2.8,0,4.1l-11.6,31.9
			c-1.9,5.3-9.6,5.3-11.5,0L115.9,257.6z M168.3,249.5c-4.3,0-7.3,4.3-5.7,8.3l34.7,86.5c2,5.1,9.3,5.1,11.4,0l13.4-33.4
			c0.6-1.5,0.6-3.1,0-4.5l-21.3-53.1c-0.9-2.3-3.2-3.8-5.7-3.8H168.3z"/>
	</g>
</g>
</svg>
