<svg width="32" height="32" viewBox="0 0 32 32" fill="none" xmlns="http://www.w3.org/2000/svg">
<g clip-path="url(#clip0_2392_1808)">
<path d="M15.9985 0.498047H0V13.344C0 13.5242 0.0028502 13.7041 0.00833862 13.8836C0.00279959 14.0049 0 14.127 0 14.2497L0.0231468 14.2497C0.37438 21.3944 4.85783 27.7324 11.5754 30.4555L13.2652 31.1403C15.0535 31.7411 15.9985 32.0001 15.9985 32.0001V14.2497H16.0035C16.0035 14.1545 16.0018 14.0597 15.9985 13.9654L15.9985 0.498047Z" fill="url(#paint0_linear_2392_1808)"/>
<path d="M31.997 13.344V0.498047H15.9985V14.2497H15.9966C15.9966 14.3086 15.9972 14.3675 15.9985 14.4261V32.0001C15.9985 32.0001 16.9435 31.7411 18.7319 31.1403L20.4216 30.4555C26.5778 27.96 30.8576 22.4285 31.8003 16.0224C31.9311 15.4524 32.0001 14.859 32.0001 14.2497H31.9739C31.989 13.9488 31.997 13.6469 31.997 13.344Z" fill="url(#paint1_linear_2392_1808)"/>
</g>
<path d="M11.9767 20V18.336C11.9767 16.896 12.6487 15.984 14.2327 15.04L16.2327 13.808C17.3047 13.152 17.5447 12.592 17.5447 11.984V11.808C17.5447 10.928 17.0167 10.208 15.8327 10.208C14.7447 10.208 14.0407 10.816 14.0087 12.032H11.9447C12.0247 9.824 13.6087 8.496 15.8327 8.496C18.2327 8.496 19.6727 9.984 19.6727 11.84C19.6727 13.184 19.0327 14.256 17.3047 15.328L15.0647 16.72C14.3447 17.184 14.0727 17.568 14.0727 18.224H19.8327V20H11.9767Z" fill="white"/>
<defs>
<linearGradient id="paint0_linear_2392_1808" x1="16.1649" y1="0.498047" x2="16.1649" y2="32.0001" gradientUnits="userSpaceOnUse">
<stop stop-color="#8D939C"/>
<stop offset="1" stop-color="#E8EDF4"/>
</linearGradient>
<linearGradient id="paint1_linear_2392_1808" x1="32.1615" y1="0.498047" x2="32.1615" y2="32.0001" gradientUnits="userSpaceOnUse">
<stop stop-color="#E8EDF4"/>
<stop offset="1" stop-color="#8D939C"/>
</linearGradient>
<clipPath id="clip0_2392_1808">
<rect width="32" height="31.502" fill="white" transform="translate(0 0.498047)"/>
</clipPath>
</defs>
</svg>
