<svg width="32" height="32" viewBox="0 0 32 32" fill="none" xmlns="http://www.w3.org/2000/svg">
<g clip-path="url(#clip0_2392_836)">
<path d="M15.9985 0.498047H0V13.344C0 13.5242 0.0028502 13.7041 0.00833862 13.8836C0.00279959 14.0049 0 14.127 0 14.2497L0.0231468 14.2497C0.37438 21.3944 4.85783 27.7324 11.5754 30.4555L13.2652 31.1403C15.0535 31.7411 15.9985 32.0001 15.9985 32.0001V14.2497H16.0035C16.0035 14.1545 16.0018 14.0597 15.9985 13.9654L15.9985 0.498047Z" fill="url(#paint0_linear_2392_836)"/>
<path d="M31.997 13.344V0.498047H15.9985V14.2497H15.9966C15.9966 14.3086 15.9972 14.3675 15.9985 14.4261V32.0001C15.9985 32.0001 16.9435 31.7411 18.7319 31.1403L20.4216 30.4555C26.5778 27.96 30.8576 22.4285 31.8003 16.0224C31.9311 15.4524 32.0001 14.859 32.0001 14.2497H31.9739C31.989 13.9488 31.997 13.6469 31.997 13.344Z" fill="url(#paint1_linear_2392_836)"/>
</g>
<path d="M17.8666 16.8V16.624C17.8666 15.6 17.1306 14.88 15.8346 14.88H14.3146V13.376L17.1946 10.496H12.3306V8.736H19.5626V10.496L16.6986 13.36V13.376C18.7306 13.6 20.0266 14.816 20.0266 16.752C20.0266 18.768 18.4586 20.224 15.8826 20.224C13.3386 20.224 11.9146 18.736 11.8186 16.848H13.9306C13.9946 17.728 14.5226 18.544 15.9146 18.544C17.2426 18.544 17.8666 17.744 17.8666 16.8Z" fill="white"/>
<defs>
<linearGradient id="paint0_linear_2392_836" x1="16.1649" y1="0.498047" x2="16.1649" y2="32.0001" gradientUnits="userSpaceOnUse">
<stop stop-color="#DC6510"/>
<stop offset="1" stop-color="#E2B78E"/>
</linearGradient>
<linearGradient id="paint1_linear_2392_836" x1="32.1615" y1="0.498047" x2="32.1615" y2="32.0001" gradientUnits="userSpaceOnUse">
<stop stop-color="#E2B78E"/>
<stop offset="1" stop-color="#DC6510"/>
</linearGradient>
<clipPath id="clip0_2392_836">
<rect width="32" height="31.502" fill="white" transform="translate(0 0.498047)"/>
</clipPath>
</defs>
</svg>
