<svg width="36" height="36" viewBox="0 0 36 36" fill="none" xmlns="http://www.w3.org/2000/svg">
<circle cx="18.0008" cy="17.9998" r="16.2" fill="#0A0B0D"/>
<path d="M14.8847 16.5697C15.7545 18.6187 17.6398 21.4458 20.822 22.8164C21.4422 22.343 22.2193 21.7536 22.7102 21.3951C24.0532 21.5377 24.3414 21.5734 24.8854 21.6408C25.2549 21.6866 25.7425 21.7469 26.7588 21.8654V26.7726C24.6271 26.9008 22.4924 26.5754 20.4958 25.8179C18.4992 25.0605 16.6862 23.8881 15.1765 22.3784C13.6669 20.8687 12.4949 19.056 11.7382 17.06C10.9814 15.0641 10.6571 12.9303 10.7866 10.7998H15.7052C15.9677 13.1322 16.0002 13.3955 16.0496 13.7954C16.0754 14.004 16.1057 14.2498 16.1757 14.8462C15.7407 15.4427 15.2739 16.0608 14.8847 16.5697Z" fill="white"/>
<circle cx="18" cy="18" r="18" fill="#0A0B0D"/>
<g clip-path="url(#clip0_14330_41179)">
<path opacity="0.3" d="M13.833 11.3334H21.333V23H13.833V11.3334Z" fill="white"/>
<path d="M20.917 8.83337H14.2503C13.1003 8.83337 12.167 9.76671 12.167 10.9167V25.0834C12.167 26.2334 13.1003 27.1667 14.2503 27.1667H20.917C22.067 27.1667 23.0003 26.2334 23.0003 25.0834V10.9167C23.0003 9.76671 22.067 8.83337 20.917 8.83337ZM17.5837 26.3334C16.892 26.3334 16.3337 25.775 16.3337 25.0834C16.3337 24.3917 16.892 23.8334 17.5837 23.8334C18.2753 23.8334 18.8337 24.3917 18.8337 25.0834C18.8337 25.775 18.2753 26.3334 17.5837 26.3334ZM21.3337 23H13.8337V11.3334H21.3337V23Z" fill="white"/>
</g>
<defs>
<clipPath id="clip0_14330_41179">
<rect width="20" height="20" fill="white" transform="translate(8 8)"/>
</clipPath>
</defs>
</svg>
