<svg width="36" height="36" viewBox="0 0 36 36" fill="none" xmlns="http://www.w3.org/2000/svg">
<circle cx="18" cy="18" r="18" fill="#0A0B0D"/>
<path d="M14.0839 15.7699C14.9537 17.8189 16.839 20.646 20.0213 22.0166C20.6414 21.5432 21.4185 20.9538 21.9095 20.5953C23.2524 20.7379 23.5406 20.7736 24.0846 20.841C24.4541 20.8867 24.9417 20.9471 25.958 21.0656V25.9728C23.8263 26.101 21.6916 25.7756 19.695 25.0181C17.6984 24.2607 15.8854 23.0883 14.3758 21.5786C12.8661 20.0689 11.6942 18.2562 10.9374 16.2602C10.1807 14.2643 9.8563 12.1305 9.98578 10H14.9044C15.1669 12.3324 15.1995 12.5957 15.2488 12.9956C15.2746 13.2042 15.3049 13.45 15.375 14.0464C14.9399 14.6429 14.4731 15.261 14.0839 15.7699Z" fill="white"/>
</svg>
