<svg width="96" height="96" viewBox="0 0 96 96" fill="none" xmlns="http://www.w3.org/2000/svg">
<path d="M0.172633 38.0614C-0.664832 35.0083 1.65008 32 4.83695 32H77.8855C80.7437 32 83.2605 33.8689 84.0683 36.5912L96 76.8H10.7987L0.172633 38.0614Z" fill="#5DE2F8"/>
<path d="M96.0008 6.4V76.8H12.8008V12.8C12.8008 9.26538 15.6662 6.4 19.2008 6.4H67.2465L68.8273 3.40923C69.9358 1.31204 72.1134 0 74.4855 0H89.6008C93.1354 0 96.0008 2.86538 96.0008 6.4Z" fill="#CED2DB"/>
<path d="M96.0007 76.8L84.2124 36.5991C83.413 33.8729 80.9121 32 78.071 32H12.8008V76.8H96.0007Z" fill="#0052FF"/>
<path d="M64 80C64 88.8366 56.8366 96 48 96C39.1634 96 32 88.8366 32 80C32 71.1634 39.1634 64 48 64C56.8366 64 64 71.1634 64 80Z" fill="#FF3344"/>
<path d="M46.5859 80.0002L41.293 74.7072L42.7072 73.293L48.0002 78.5859L53.2931 73.293L54.7073 74.7072L49.4144 80.0002L54.7072 85.293L53.293 86.7072L48.0002 81.4144L42.7073 86.7072L41.2931 85.293L46.5859 80.0002Z" fill="#0A0B0D"/>
</svg>
