<svg width="372" height="372" viewBox="0 0 372 372" fill="none" xmlns="http://www.w3.org/2000/svg">
<rect x="0.333496" width="370" height="372" fill="url(#paint0_radial_151_837)"/>
<path d="M147.498 111H110V178.239C112.482 213.614 135.705 244.045 168.929 255.473L185.001 261.002V111H147.498Z" fill="url(#paint1_linear_151_837)"/>
<path d="M222.502 111H184.999V261.002L201.071 255.464C234.304 244.036 257.518 213.601 260 178.226V111H222.502Z" fill="url(#paint2_linear_151_837)"/>
<path d="M147.498 111H110V178.239C112.482 213.614 135.705 244.045 168.929 255.473L185.001 261.002V111H147.498Z" fill="url(#paint3_linear_151_837)"/>
<path d="M222.502 111H184.999V261.002L201.071 255.464C234.304 244.036 257.518 213.601 260 178.226V111H222.502Z" fill="url(#paint4_linear_151_837)"/>
<path d="M148.61 170.733L147.996 158.956C147.987 158.763 148.021 158.569 148.097 158.391C148.173 158.212 148.287 158.053 148.433 157.925C148.578 157.796 148.75 157.702 148.937 157.649C149.123 157.597 149.319 157.586 149.51 157.619L161.232 159.679L159.649 155.313C159.585 155.139 159.577 154.949 159.626 154.771C159.675 154.592 159.778 154.433 159.922 154.317L172.763 143.918L169.87 142.568C169.675 142.475 169.52 142.315 169.434 142.116C169.349 141.918 169.339 141.695 169.406 141.49L171.944 133.684L164.548 135.253C164.348 135.295 164.139 135.266 163.958 135.172C163.776 135.077 163.633 134.923 163.552 134.735L162.119 131.364L156.347 137.56C156.215 137.699 156.041 137.791 155.852 137.824C155.663 137.856 155.469 137.826 155.298 137.738C155.127 137.651 154.99 137.51 154.906 137.338C154.822 137.165 154.796 136.97 154.832 136.782L157.616 122.426L153.154 125.005C153.049 125.067 152.933 125.106 152.812 125.121C152.692 125.135 152.569 125.125 152.453 125.09C152.337 125.056 152.228 124.998 152.135 124.92C152.042 124.842 151.966 124.745 151.912 124.637L147.382 115.74L142.851 124.637C142.797 124.745 142.721 124.842 142.628 124.92C142.535 124.998 142.427 125.056 142.31 125.09C142.194 125.125 142.072 125.135 141.951 125.121C141.83 125.106 141.714 125.067 141.609 125.005L137.147 122.426L139.931 136.782C139.967 136.97 139.941 137.165 139.857 137.338C139.774 137.51 139.636 137.651 139.465 137.738C139.294 137.826 139.1 137.856 138.911 137.824C138.722 137.791 138.548 137.699 138.416 137.56L132.644 131.364L131.211 134.735C131.131 134.923 130.987 135.077 130.806 135.172C130.624 135.266 130.416 135.295 130.215 135.253L122.819 133.684L125.357 141.49C125.424 141.695 125.414 141.918 125.329 142.116C125.244 142.315 125.089 142.475 124.893 142.568L122 143.918L134.841 154.317C134.985 154.433 135.089 154.592 135.138 154.771C135.186 154.949 135.178 155.139 135.114 155.313L133.531 159.679L145.253 157.619C145.444 157.586 145.64 157.597 145.827 157.649C146.013 157.702 146.185 157.796 146.331 157.925C146.476 158.053 146.591 158.212 146.666 158.391C146.742 158.569 146.776 158.763 146.768 158.956L146.153 170.733H148.61Z" fill="white"/>
<path d="M147.498 111H110V178.239C112.482 213.614 135.705 244.045 168.929 255.473L185.001 261.002V111H147.498Z" fill="url(#paint5_linear_151_837)"/>
<path d="M222.502 111H184.999V261.002L201.071 255.464C234.304 244.036 257.518 213.601 260 178.226V111H222.502Z" fill="url(#paint6_linear_151_837)"/>
<path d="M147.498 111H110V178.239C112.482 213.614 135.705 244.045 168.929 255.473L185.001 261.002V111H147.498Z" fill="url(#paint7_linear_151_837)"/>
<path d="M222.502 111H184.999V261.002L201.071 255.464C234.304 244.036 257.518 213.601 260 178.226V111H222.502Z" fill="url(#paint8_linear_151_837)"/>
<path d="M148.61 170.733L147.996 158.956C147.987 158.763 148.021 158.569 148.097 158.391C148.173 158.212 148.287 158.053 148.433 157.925C148.578 157.796 148.75 157.702 148.937 157.649C149.123 157.597 149.319 157.586 149.51 157.619L161.232 159.679L159.649 155.313C159.585 155.139 159.577 154.949 159.626 154.771C159.675 154.592 159.778 154.433 159.922 154.317L172.763 143.918L169.87 142.568C169.675 142.475 169.52 142.315 169.434 142.116C169.349 141.918 169.339 141.695 169.406 141.49L171.944 133.684L164.548 135.253C164.348 135.295 164.139 135.266 163.958 135.172C163.776 135.077 163.633 134.923 163.552 134.735L162.119 131.364L156.347 137.56C156.215 137.699 156.041 137.791 155.852 137.824C155.663 137.856 155.469 137.826 155.298 137.738C155.127 137.651 154.99 137.51 154.906 137.338C154.822 137.165 154.796 136.97 154.832 136.782L157.616 122.426L153.154 125.005C153.049 125.067 152.933 125.106 152.812 125.121C152.692 125.135 152.569 125.125 152.453 125.09C152.337 125.056 152.228 124.998 152.135 124.92C152.042 124.842 151.966 124.745 151.912 124.637L147.382 115.74L142.851 124.637C142.797 124.745 142.721 124.842 142.628 124.92C142.535 124.998 142.427 125.056 142.31 125.09C142.194 125.125 142.072 125.135 141.951 125.121C141.83 125.106 141.714 125.067 141.609 125.005L137.147 122.426L139.931 136.782C139.967 136.97 139.941 137.165 139.857 137.338C139.774 137.51 139.636 137.651 139.465 137.738C139.294 137.826 139.1 137.856 138.911 137.824C138.722 137.791 138.548 137.699 138.416 137.56L132.644 131.364L131.211 134.735C131.131 134.923 130.987 135.077 130.806 135.172C130.624 135.266 130.416 135.295 130.215 135.253L122.819 133.684L125.357 141.49C125.424 141.695 125.414 141.918 125.329 142.116C125.244 142.315 125.089 142.475 124.893 142.568L122 143.918L134.841 154.317C134.985 154.433 135.089 154.592 135.138 154.771C135.186 154.949 135.178 155.139 135.114 155.313L133.531 159.679L145.253 157.619C145.444 157.586 145.64 157.597 145.827 157.649C146.013 157.702 146.185 157.796 146.331 157.925C146.476 158.053 146.591 158.212 146.666 158.391C146.742 158.569 146.776 158.763 146.768 158.956L146.153 170.733H148.61Z" fill="white"/>
<defs>
<radialGradient id="paint0_radial_151_837" cx="0" cy="0" r="1" gradientUnits="userSpaceOnUse" gradientTransform="translate(185.333 186) rotate(90.1172) scale(276.46 274.976)">
<stop offset="0.085" stop-color="#F0E8FF"/>
<stop offset="0.89" stop-color="#6B28FF"/>
</radialGradient>
<linearGradient id="paint1_linear_151_837" x1="147.498" y1="111" x2="147.498" y2="261.002" gradientUnits="userSpaceOnUse">
<stop stop-color="#6100FF"/>
<stop offset="1" stop-color="#C09AFF"/>
</linearGradient>
<linearGradient id="paint2_linear_151_837" x1="222.502" y1="111" x2="222.502" y2="261.002" gradientUnits="userSpaceOnUse">
<stop stop-color="#C09AFF"/>
<stop offset="1" stop-color="#6100FF"/>
</linearGradient>
<linearGradient id="paint3_linear_151_837" x1="147.498" y1="111" x2="147.498" y2="261.002" gradientUnits="userSpaceOnUse">
<stop stop-color="#6100FF"/>
<stop offset="1" stop-color="#C09AFF"/>
</linearGradient>
<linearGradient id="paint4_linear_151_837" x1="222.502" y1="111" x2="222.502" y2="261.002" gradientUnits="userSpaceOnUse">
<stop stop-color="#C09AFF"/>
<stop offset="1" stop-color="#6100FF"/>
</linearGradient>
<linearGradient id="paint5_linear_151_837" x1="147.498" y1="111" x2="147.498" y2="261.002" gradientUnits="userSpaceOnUse">
<stop stop-color="#6100FF"/>
<stop offset="1" stop-color="#C09AFF"/>
</linearGradient>
<linearGradient id="paint6_linear_151_837" x1="222.502" y1="111" x2="222.502" y2="261.002" gradientUnits="userSpaceOnUse">
<stop stop-color="#C09AFF"/>
<stop offset="1" stop-color="#6100FF"/>
</linearGradient>
<linearGradient id="paint7_linear_151_837" x1="147.498" y1="111" x2="147.498" y2="261.002" gradientUnits="userSpaceOnUse">
<stop stop-color="#6100FF"/>
<stop offset="1" stop-color="#C09AFF"/>
</linearGradient>
<linearGradient id="paint8_linear_151_837" x1="222.502" y1="111" x2="222.502" y2="261.002" gradientUnits="userSpaceOnUse">
<stop stop-color="#C09AFF"/>
<stop offset="1" stop-color="#6100FF"/>
</linearGradient>
</defs>
</svg>
