<svg aria-roledescription="er" role="graphics-document document" viewBox="-162.015625 0 1601.875 1165" style="max-width: 1601.88px; background-color: white;" xmlns:xlink="http://www.w3.org/1999/xlink" xmlns="http://www.w3.org/2000/svg" width="100%" id="my-svg"><style>#my-svg{font-family:"trebuchet ms",verdana,arial,sans-serif;font-size:16px;fill:#000000;}#my-svg .error-icon{fill:#552222;}#my-svg .error-text{fill:#552222;stroke:#552222;}#my-svg .edge-thickness-normal{stroke-width:2px;}#my-svg .edge-thickness-thick{stroke-width:3.5px;}#my-svg .edge-pattern-solid{stroke-dasharray:0;}#my-svg .edge-pattern-dashed{stroke-dasharray:3;}#my-svg .edge-pattern-dotted{stroke-dasharray:2;}#my-svg .marker{fill:#000000;stroke:#000000;}#my-svg .marker.cross{stroke:#000000;}#my-svg svg{font-family:"trebuchet ms",verdana,arial,sans-serif;font-size:16px;}#my-svg .entityBox{fill:#cde498;stroke:#13540c;}#my-svg .attributeBoxOdd{fill:#ffffff;stroke:#13540c;}#my-svg .attributeBoxEven{fill:#f2f2f2;stroke:#13540c;}#my-svg .relationshipLabelBox{fill:hsl(78.1578947368, 58.4615384615%, 84.5098039216%);opacity:0.7;background-color:hsl(78.1578947368, 58.4615384615%, 84.5098039216%);}#my-svg .relationshipLabelBox rect{opacity:0.5;}#my-svg .relationshipLine{stroke:#000000;}#my-svg .entityTitleText{text-anchor:middle;font-size:18px;fill:#000000;}#my-svg #MD_PARENT_START{fill:#f5f5f5!important;stroke:#000000!important;stroke-width:1;}#my-svg #MD_PARENT_END{fill:#f5f5f5!important;stroke:#000000!important;stroke-width:1;}#my-svg :root{--mermaid-font-family:"trebuchet ms",verdana,arial,sans-serif;}</style><g/><defs><marker orient="auto" markerHeight="240" markerWidth="190" refY="7" refX="0" id="MD_PARENT_START"><path d="M 18,7 L9,13 L1,7 L9,1 Z"/></marker></defs><defs><marker orient="auto" markerHeight="28" markerWidth="20" refY="7" refX="19" id="MD_PARENT_END"><path d="M 18,7 L9,13 L1,7 L9,1 Z"/></marker></defs><defs><marker orient="auto" markerHeight="18" markerWidth="18" refY="9" refX="0" id="ONLY_ONE_START"><path d="M9,0 L9,18 M15,0 L15,18" fill="none" stroke="gray"/></marker></defs><defs><marker orient="auto" markerHeight="18" markerWidth="18" refY="9" refX="18" id="ONLY_ONE_END"><path d="M3,0 L3,18 M9,0 L9,18" fill="none" stroke="gray"/></marker></defs><defs><marker orient="auto" markerHeight="18" markerWidth="30" refY="9" refX="0" id="ZERO_OR_ONE_START"><circle r="6" cy="9" cx="21" fill="white" stroke="gray"/><path d="M9,0 L9,18" fill="none" stroke="gray"/></marker></defs><defs><marker orient="auto" markerHeight="18" markerWidth="30" refY="9" refX="30" id="ZERO_OR_ONE_END"><circle r="6" cy="9" cx="9" fill="white" stroke="gray"/><path d="M21,0 L21,18" fill="none" stroke="gray"/></marker></defs><defs><marker orient="auto" markerHeight="36" markerWidth="45" refY="18" refX="18" id="ONE_OR_MORE_START"><path d="M0,18 Q 18,0 36,18 Q 18,36 0,18 M42,9 L42,27" fill="none" stroke="gray"/></marker></defs><defs><marker orient="auto" markerHeight="36" markerWidth="45" refY="18" refX="27" id="ONE_OR_MORE_END"><path d="M3,9 L3,27 M9,18 Q27,0 45,18 Q27,36 9,18" fill="none" stroke="gray"/></marker></defs><defs><marker orient="auto" markerHeight="36" markerWidth="57" refY="18" refX="18" id="ZERO_OR_MORE_START"><circle r="6" cy="18" cx="48" fill="white" stroke="gray"/><path d="M0,18 Q18,0 36,18 Q18,36 0,18" fill="none" stroke="gray"/></marker></defs><defs><marker orient="auto" markerHeight="36" markerWidth="57" refY="18" refX="39" id="ZERO_OR_MORE_END"><circle r="6" cy="18" cx="9" fill="white" stroke="gray"/><path d="M21,18 Q39,0 57,18 Q39,36 21,18" fill="none" stroke="gray"/></marker></defs><path style="stroke: gray; fill: none;" marker-start="url(#ZERO_OR_MORE_START)" marker-end="url(#ZERO_OR_MORE_END)" d="M753.08203125,94.38474521781063L764.7962239583334,102.82062101484219C776.5104166666666,111.25649681187376,799.9388020833334,128.1282484059369,806.4733072916666,144.89745753630177C813.0078125,161.66666666666666,802.6484375,178.33333333333334,797.46875,186.66666666666666L792.2890625,195" class="er relationshipLine"/><path style="stroke: gray; fill: none;" marker-start="url(#ZERO_OR_MORE_START)" marker-end="url(#ZERO_OR_MORE_END)" d="M753.08203125,65.70056466888245L835.6295572916666,78.91713722406871C918.1770833333334,92.13370977925497,1083.2721354166667,118.56685488962749,1165.8196614583333,146.36676077814707C1248.3671875,174.16666666666666,1248.3671875,203.33333333333334,1248.3671875,232.5C1248.3671875,261.6666666666667,1248.3671875,290.8333333333333,1248.3671875,320C1248.3671875,349.1666666666667,1248.3671875,378.3333333333333,1248.3671875,407.5C1248.3671875,436.6666666666667,1248.3671875,465.8333333333333,1238.735119047619,488.75C1229.103050595238,511.6666666666667,1209.8389136904761,528.3333333333334,1200.2068452380952,536.6666666666666L1190.5747767857142,545" class="er relationshipLine"/><path style="stroke: gray; fill: none;" marker-start="url(#ZERO_OR_MORE_START)" marker-end="url(#ZERO_OR_MORE_END)" d="M753.08203125,75.6808097615086L785.6295572916666,87.2340081345905C818.1770833333334,98.78720650767241,883.2721354166666,121.8936032538362,915.8196614583334,148.03013496025144C948.3671875,174.16666666666666,948.3671875,203.33333333333334,948.3671875,232.5C948.3671875,261.6666666666667,948.3671875,290.8333333333333,886.4498697916666,318.27008325224347C824.5325520833334,345.7068331711536,700.6979166666666,371.4136663423073,638.7805989583334,384.2670829278841L576.86328125,397.1204995134609" class="er relationshipLine"/><path style="stroke: gray; fill: none;" marker-start="url(#ZERO_OR_ONE_START)" marker-end="url(#ZERO_OR_ONE_END)" d="M749.4319196428571,195L745.0877976190476,186.66666666666666C740.7436755952381,178.33333333333334,732.0554315476189,161.66666666666666,725.6633184523808,145C719.2712053571428,128.33333333333334,715.1752232142857,111.66666666666667,713.1272321428572,103.33333333333333L711.0792410714286,95" class="er relationshipLine"/><path style="stroke: gray; fill: none;" marker-start="url(#ZERO_OR_MORE_START)" marker-end="url(#ZERO_OR_MORE_END)" d="M768.98046875,270L768.98046875,278.3333333333333C768.98046875,286.6666666666667,768.98046875,303.3333333333333,736.9609375,323.2383729684962C704.94140625,343.1434126036591,640.90234375,366.28682520731826,608.8828125,377.8585315091478L576.86328125,389.43023781097736" class="er relationshipLine"/><path style="stroke: gray; fill: none;" marker-start="url(#ZERO_OR_MORE_START)" marker-end="url(#ZERO_OR_MORE_END)" d="M1197.23046875,770.7822598816456L1243.794921875,783.1518832347047C1290.359375,795.5215065877637,1383.48828125,820.2607532938819,1306.9752604166667,846.0472306770392C1230.4622395833333,871.8337080601964,984.3072916666666,898.6674161203928,861.2298177083334,912.0842701504911L738.15234375,925.5011241805892" class="er relationshipLine"/><path style="stroke: gray; fill: none;" marker-start="url(#ZERO_OR_MORE_START)" marker-end="url(#ZERO_OR_MORE_END)" d="M1097.23046875,738.7968622146519L1066.5774739583333,727.33071851221C1035.9244791666667,715.8645748097679,974.6184895833334,692.9322874048839,971.2669270833334,671.2536947046741C967.9153645833334,649.5751020044643,1022.5182291666666,629.1502040089285,1049.8196614583333,618.9377550111607L1077.12109375,608.7253060133928" class="er relationshipLine"/><path style="stroke: gray; fill: none;" marker-start="url(#ZERO_OR_ONE_START)" marker-end="url(#ZERO_OR_ONE_END)" d="M1175.5513392857142,620L1181.8448660714284,628.3333333333334C1188.138392857143,636.6666666666666,1200.7254464285713,653.3333333333334,1200.7254464285713,670C1200.7254464285713,686.6666666666666,1188.138392857143,703.3333333333334,1181.8448660714284,711.6666666666666L1175.5513392857142,720" class="er relationshipLine"/><path style="stroke: gray; fill: none;" marker-start="url(#ZERO_OR_ONE_START)" marker-end="url(#ONLY_ONE_END)" d="M1104.8604910714287,545L1095.4449404761906,536.6666666666666C1086.0293898809525,528.3333333333334,1067.1982886904761,511.6666666666667,1057.782738095238,488.75C1048.3671875,465.8333333333333,1048.3671875,436.6666666666667,1048.3671875,407.5C1048.3671875,378.3333333333333,1048.3671875,349.1666666666667,1048.3671875,320C1048.3671875,290.8333333333333,1048.3671875,261.6666666666667,1048.3671875,232.5C1048.3671875,203.33333333333334,1048.3671875,174.16666666666666,999.1529947916666,147.15564699472034C949.9388020833334,120.144627322774,851.5104166666666,95.28925464554798,802.2962239583334,82.86156830693498L753.08203125,70.43388196832197" class="er relationshipLine"/><path style="stroke: gray; fill: none;" marker-start="url(#ZERO_OR_MORE_START)" marker-end="url(#ZERO_OR_MORE_END)" d="M1077.12109375,556.2746939866072L1049.8196614583333,546.0622449888393C1022.5182291666666,535.8497959910715,967.9153645833334,515.4248979955357,884.5390625,492.5159526181363C801.1627604166666,469.6070072407368,689.0130208333334,444.2140144814736,632.9381510416666,431.517518101842L576.86328125,418.82102172221045" class="er relationshipLine"/><path style="stroke: gray; fill: none;" marker-start="url(#ZERO_OR_ONE_START)" marker-end="url(#ZERO_OR_ONE_END)" d="M476.86328125,372.5L464.36328125,363.75C451.86328125,355,426.86328125,337.5,414.36328125,314.1666666666667C401.86328125,290.8333333333333,401.86328125,261.6666666666667,401.86328125,232.5C401.86328125,203.33333333333334,401.86328125,174.16666666666666,443.3268229166667,147.48980034722223C484.7903645833333,120.81293402777777,567.7174479166666,96.62586805555554,609.1809895833334,84.53233506944444L650.64453125,72.43880208333333" class="er relationshipLine"/><path style="stroke: gray; fill: none;" marker-start="url(#ZERO_OR_ONE_START)" marker-end="url(#ZERO_OR_ONE_END)" d="M576.86328125,414.53937651236606L672.1139322916666,427.9494804269718C767.3645833333334,441.3595843415774,957.8658854166666,468.1797921707887,1053.008277529762,489.9232294187277C1148.150669642857,511.6666666666667,1147.9341517857142,528.3333333333334,1147.825892857143,536.6666666666666L1147.7176339285713,545" class="er relationshipLine"/><path style="stroke: gray; fill: none;" marker-start="url(#ZERO_OR_ONE_START)" marker-end="url(#ZERO_OR_ONE_END)" d="M476.86328125,388.05555555555554L447.6966145833333,376.712962962963C418.5299479166667,365.3703703703704,360.1966145833333,342.6851851851852,400.5494791666667,318.3202522738155C440.90234375,293.95531936244583,579.94140625,267.9106387248917,649.4609375,254.88829840611461L718.98046875,241.86595808733756" class="er relationshipLine"/><path style="stroke: gray; fill: none;" marker-start="url(#ZERO_OR_ONE_START)" marker-end="url(#ZERO_OR_ONE_END)" d="M576.86328125,422.77321323860303L616.271484375,434.81101103216923C655.6796875,446.8488088257354,734.49609375,470.9244044128677,769.4519159226192,491.2955355397672C804.4077380952381,511.6666666666667,795.5029761904761,528.3333333333334,791.0505952380953,536.6666666666666L786.5982142857143,545" class="er relationshipLine"/><path style="stroke: gray; fill: none;" marker-start="url(#ZERO_OR_MORE_START)" marker-end="url(#ZERO_OR_MORE_END)" d="M576.86328125,412.64854944216387L710.1555989583334,426.3737912018032C843.4479166666666,440.09903296144256,1110.0325520833333,467.54951648072125,1243.3248697916667,495.858091573694C1376.6171875,524.1666666666666,1376.6171875,553.3333333333334,1376.6171875,582.5C1376.6171875,611.6666666666666,1376.6171875,640.8333333333334,1376.6171875,670C1376.6171875,699.1666666666666,1376.6171875,728.3333333333334,1376.6171875,757.5C1376.6171875,786.6666666666666,1376.6171875,815.8333333333334,1270.2063802083333,843.6675135134134C1163.7955729166667,871.5016936934934,950.9739583333334,898.0033873869867,844.5631510416666,911.2542342337334L738.15234375,924.5050810804801" class="er relationshipLine"/><path style="stroke: gray; fill: none;" marker-start="url(#ZERO_OR_MORE_START)" marker-end="url(#ZERO_OR_MORE_END)" d="M476.86328125,433.86472776064596L457.5397135416667,444.0539398005383C438.2161458333333,454.2431518404307,399.5690104166667,474.6215759202153,375.5653831845238,493.144121293441C351.56175595238096,511.6666666666667,342.2016369047619,528.3333333333334,337.52157738095235,536.6666666666666L332.84151785714283,545" class="er relationshipLine"/><path style="stroke: gray; fill: none;" marker-start="url(#ZERO_OR_MORE_START)" marker-end="url(#ZERO_OR_MORE_END)" d="M554.6969866071429,445L560.8822544642858,453.3333333333333C567.0675223214286,461.6666666666667,579.4380580357143,478.3333333333333,581.0381324404763,495C582.6382068452381,511.6666666666667,573.4678199404763,528.3333333333334,568.8826264880953,536.6666666666666L564.2974330357143,545" class="er relationshipLine"/><path style="stroke: gray; fill: none;" marker-start="url(#ZERO_OR_MORE_START)" marker-end="url(#ZERO_OR_MORE_END)" d="M476.86328125,418.5879013176783L419.4342447916667,431.3232510980652C362.0052083333333,444.0586008784522,247.14713541666666,469.52930043922606,185.34756324404762,490.59798355294635C123.54799107142857,511.6666666666667,114.80691964285715,528.3333333333334,110.43638392857144,536.6666666666666L106.06584821428572,545" class="er relationshipLine"/><path style="stroke: gray; fill: none;" marker-start="url(#ZERO_OR_ONE_START)" marker-end="url(#ONLY_ONE_END)" d="M57.76953125,545L51.407552083333336,536.6666666666666C45.045572916666664,528.3333333333334,32.321614583333336,511.6666666666667,102.17057291666667,490.1874454540787C172.01953125,468.7082242414908,324.44140625,442.41644848298165,400.65234375,429.27056060372706L476.86328125,416.12467272447253" class="er relationshipLine"/><path style="stroke: gray; fill: none;" marker-start="url(#ZERO_OR_ONE_START)" marker-end="url(#ONLY_ONE_END)" d="M609.74609375,925.3667794239459L489.1881510416667,911.9723161866217C368.6302083333333,898.5778529492973,127.51432291666667,871.7889264746486,6.956380208333333,843.8111299039911C-113.6015625,815.8333333333334,-113.6015625,786.6666666666666,-113.6015625,757.5C-113.6015625,728.3333333333334,-113.6015625,699.1666666666666,-113.6015625,670C-113.6015625,640.8333333333334,-113.6015625,611.6666666666666,-113.6015625,582.5C-113.6015625,553.3333333333334,-113.6015625,524.1666666666666,-15.190755208333334,496.1384960061153C83.22005208333333,468.11032534556404,280.0416666666667,441.2206506911281,378.4524739583333,427.7758133639101L476.86328125,414.3309760366921" class="er relationshipLine"/><path style="stroke: gray; fill: none;" marker-start="url(#ZERO_OR_ONE_START)" marker-end="url(#ONLY_ONE_END)" d="M609.74609375,926.1704766012508L472.521484375,912.6420638343757C335.296875,899.1136510675005,60.84765625,872.0568255337503,142.09505208333334,844.4809035837103C223.34244791666666,816.9049816336704,660.2864583333334,788.8099632673408,878.7584635416666,774.762454084176L1097.23046875,760.7149449010112" class="er relationshipLine"/><path style="stroke: gray; fill: none;" marker-start="url(#ZERO_OR_MORE_START)" marker-end="url(#ZERO_OR_MORE_END)" d="M695.3777901785714,970L700.1396949404761,978.3333333333334C704.9015997023811,986.6666666666666,714.4254092261905,1003.3333333333334,714.4254092261905,1020C714.4254092261905,1036.6666666666667,704.9015997023811,1053.3333333333333,700.1396949404761,1061.6666666666667L695.3777901785714,1070" class="er relationshipLine"/><path style="stroke: gray; fill: none;" marker-start="url(#ZERO_OR_ONE_START)" marker-end="url(#ONLY_ONE_END)" d="M652.5206473214286,1070L647.7587425595237,1061.6666666666667C642.996837797619,1053.3333333333333,633.4730282738095,1036.6666666666667,633.4730282738095,1020C633.4730282738095,1003.3333333333334,642.996837797619,986.6666666666666,647.7587425595237,978.3333333333334L652.5206473214286,970" class="er relationshipLine"/><path style="stroke: gray; fill: none;" marker-start="url(#ZERO_OR_ONE_START)" marker-end="url(#ONLY_ONE_END)" d="M277.71316964285717,545L270.14248511904765,536.6666666666666C262.57180059523813,528.3333333333334,247.43043154761904,511.6666666666667,280.6221168154762,491.225324112751C313.8138020833333,470.78398155883536,395.3385416666667,446.5679631176707,436.1009114583333,434.4599538970884L476.86328125,422.3519446765061" class="er relationshipLine"/><path style="stroke: gray; fill: none;" marker-start="url(#ZERO_OR_ONE_START)" marker-end="url(#ONLY_ONE_END)" d="M508.203125,545L500.3229166666667,536.6666666666666C492.4427083333333,528.3333333333334,476.6822916666667,511.6666666666667,475.08221726190476,495C473.48214285714283,478.3333333333333,486.0424107142857,461.6666666666667,492.3225446428571,453.3333333333333L498.60267857142856,445" class="er relationshipLine"/><path style="stroke: gray; fill: none;" marker-start="url(#ZERO_OR_MORE_START)" marker-end="url(#ZERO_OR_MORE_END)" d="M716.5625,746.6543281009422L657.6647135416666,733.878606750785C598.7669270833334,721.1028854006281,480.9713541666667,695.551442700314,480.9713541666667,670C480.9713541666667,644.448557299686,598.7669270833334,618.8971145993719,657.6647135416666,606.1213932492149L716.5625,593.3456718990578" class="er relationshipLine"/><path style="stroke: gray; fill: none;" marker-start="url(#ZERO_OR_ONE_START)" marker-end="url(#ONLY_ONE_END)" d="M786.5982142857143,620L791.0505952380953,628.3333333333334C795.5029761904761,636.6666666666666,804.4077380952381,653.3333333333334,804.4077380952381,670C804.4077380952381,686.6666666666666,795.5029761904761,703.3333333333334,791.0505952380953,711.6666666666666L786.5982142857143,720" class="er relationshipLine"/><path style="stroke: gray; fill: none;" marker-start="url(#ZERO_OR_MORE_START)" marker-end="url(#ZERO_OR_MORE_END)" d="M734.5251116071429,545L727.4056919642858,536.6666666666666C720.2862723214286,528.3333333333334,706.0474330357143,511.6666666666667,679.7704613095239,493.1706570991017C653.4934895833334,474.67464753153666,615.1783854166666,454.34929506307327,596.0208333333334,444.18661882884163L576.86328125,434.02394259460993" class="er relationshipLine"/><g transform="translate(403.42578125,20 )" id="entity-authenticationnonce-d60abb73-29b2-5e7f-af1f-02f253c5f89a"><rect height="75" width="147.21875" y="0" x="0" class="er entityBox"/><text style="dominant-baseline: middle; text-anchor: middle; font-size: 12px;" transform="translate(73.609375,37.5)" y="0" x="0" id="text-entity-authenticationnonce-d60abb73-29b2-5e7f-af1f-02f253c5f89a" class="er entityLabel">authentication_nonce</text></g><g transform="translate(650.64453125,20 )" id="entity-inferreduser-e6a44b54-67bb-5015-9428-189bf5c7217c"><rect height="75" width="102.4375" y="0" x="0" class="er entityBox"/><text style="dominant-baseline: middle; text-anchor: middle; font-size: 12px;" transform="translate(51.21875,37.5)" y="0" x="0" id="text-entity-inferreduser-e6a44b54-67bb-5015-9428-189bf5c7217c" class="er entityLabel">inferred_user</text></g><g transform="translate(718.98046875,195 )" id="entity-sessionuser-b94c7907-afa7-5bc7-a6ad-ea84e9522ebc"><rect height="75" width="100" y="0" x="0" class="er entityBox"/><text style="dominant-baseline: middle; text-anchor: middle; font-size: 12px;" transform="translate(50,37.5)" y="0" x="0" id="text-entity-sessionuser-b94c7907-afa7-5bc7-a6ad-ea84e9522ebc" class="er entityLabel">session_user</text></g><g transform="translate(1097.23046875,720 )" id="entity-address-30c0d688-dbdc-5f86-9bc6-9a2d2ce26984"><rect height="75" width="100" y="0" x="0" class="er entityBox"/><text style="dominant-baseline: middle; text-anchor: middle; font-size: 12px;" transform="translate(50,37.5)" y="0" x="0" id="text-entity-address-30c0d688-dbdc-5f86-9bc6-9a2d2ce26984" class="er entityLabel">address</text></g><g transform="translate(1077.12109375,545 )" id="entity-cryptoaddressuser-847c7563-e5da-5d37-ba13-3af374ca7eef"><rect height="75" width="140.21875" y="0" x="0" class="er entityBox"/><text style="dominant-baseline: middle; text-anchor: middle; font-size: 12px;" transform="translate(70.109375,37.5)" y="0" x="0" id="text-entity-cryptoaddressuser-847c7563-e5da-5d37-ba13-3af374ca7eef" class="er entityLabel">crypto_address_user</text></g><g transform="translate(476.86328125,370 )" id="entity-useraction-51dff6a4-df98-5d54-9d61-642e47e2c8e4"><rect height="75" width="100" y="0" x="0" class="er entityBox"/><text style="dominant-baseline: middle; text-anchor: middle; font-size: 12px;" transform="translate(50,37.5)" y="0" x="0" id="text-entity-useraction-51dff6a4-df98-5d54-9d61-642e47e2c8e4" class="er entityLabel">user_action</text></g><g transform="translate(20,545 )" id="entity-useractionoptin-66cb5eb2-4895-5d84-8316-3c91412fe581"><rect height="75" width="132.796875" y="0" x="0" class="er entityBox"/><text style="dominant-baseline: middle; text-anchor: middle; font-size: 12px;" transform="translate(66.3984375,37.5)" y="0" x="0" id="text-entity-useractionoptin-66cb5eb2-4895-5d84-8316-3c91412fe581" class="er entityLabel">user_action_opt_in</text></g><g transform="translate(609.74609375,895 )" id="entity-useractionemail-bcf04f9b-2e66-5548-bfd5-13b0518be475"><rect height="75" width="128.40625" y="0" x="0" class="er entityBox"/><text style="dominant-baseline: middle; text-anchor: middle; font-size: 12px;" transform="translate(64.203125,37.5)" y="0" x="0" id="text-entity-useractionemail-bcf04f9b-2e66-5548-bfd5-13b0518be475" class="er entityLabel">user_action_email</text></g><g transform="translate(582.33203125,1070 )" id="entity-useractionemailrecipient-63cc052e-b7ce-527e-bc70-e67ccd346adb"><rect height="75" width="183.234375" y="0" x="0" class="er entityBox"/><text style="dominant-baseline: middle; text-anchor: middle; font-size: 12px;" transform="translate(91.6171875,37.5)" y="0" x="0" id="text-entity-useractionemailrecipient-63cc052e-b7ce-527e-bc70-e67ccd346adb" class="er entityLabel">user_action_email_recipient</text></g><g transform="translate(252.796875,545 )" id="entity-useractioncall-86873653-0047-560d-ae1e-fda3eee3d98d"><rect height="75" width="117.96875" y="0" x="0" class="er entityBox"/><text style="dominant-baseline: middle; text-anchor: middle; font-size: 12px;" transform="translate(58.984375,37.5)" y="0" x="0" id="text-entity-useractioncall-86873653-0047-560d-ae1e-fda3eee3d98d" class="er entityLabel">user_action_call</text></g><g transform="translate(470.765625,545 )" id="entity-useractiondonation-9090b8f6-2505-5624-a357-bea35d6e9ff6"><rect height="75" width="145.796875" y="0" x="0" class="er entityBox"/><text style="dominant-baseline: middle; text-anchor: middle; font-size: 12px;" transform="translate(72.8984375,37.5)" y="0" x="0" id="text-entity-useractiondonation-9090b8f6-2505-5624-a357-bea35d6e9ff6" class="er entityLabel">user_action_donation</text></g><g transform="translate(716.5625,720 )" id="entity-nft-9a375a4d-ef26-5692-a993-1acfe986b6a1"><rect height="75" width="100" y="0" x="0" class="er entityBox"/><text style="dominant-baseline: middle; text-anchor: middle; font-size: 12px;" transform="translate(50,37.5)" y="0" x="0" id="text-entity-nft-9a375a4d-ef26-5692-a993-1acfe986b6a1" class="er entityLabel">nft</text></g><g transform="translate(716.5625,545 )" id="entity-nftmint-84e473cf-e6f7-5b84-8cdf-d14b3ded489e"><rect height="75" width="100" y="0" x="0" class="er entityBox"/><text style="dominant-baseline: middle; text-anchor: middle; font-size: 12px;" transform="translate(50,37.5)" y="0" x="0" id="text-entity-nftmint-84e473cf-e6f7-5b84-8cdf-d14b3ded489e" class="er entityLabel">nft_mint</text></g><rect height="14" width="66.25" y="129.10873413085938" x="768.50341796875" class="er relationshipLabelBox"/><text style="text-anchor: middle; dominant-baseline: middle; font-size: 12px;" y="136.10873413085938" x="801.62841796875" id="rel1" class="er relationshipLabel">sessionUsers</text><rect height="14" width="104.484375" y="146.63783264160156" x="1133.2642822265625" class="er relationshipLabelBox"/><text style="text-anchor: middle; dominant-baseline: middle; font-size: 12px;" y="153.63783264160156" x="1185.5064697265625" id="rel2" class="er relationshipLabel">cryptoAddressUsers</text><rect height="14" width="61.6875" y="294.9112548828125" x="885.39990234375" class="er relationshipLabelBox"/><text style="text-anchor: middle; dominant-baseline: middle; font-size: 12px;" y="301.9112548828125" x="916.24365234375" id="rel3" class="er relationshipLabel">userActions</text><rect height="14" width="67.375" y="139.52554321289062" x="692.5672607421875" class="er relationshipLabelBox"/><text style="text-anchor: middle; dominant-baseline: middle; font-size: 12px;" y="146.52554321289062" x="726.2547607421875" id="rel4" class="er relationshipLabel">inferredUser</text><rect height="14" width="61.6875" y="340.0002746582031" x="658.1364135742188" class="er relationshipLabelBox"/><text style="text-anchor: middle; dominant-baseline: middle; font-size: 12px;" y="347.0002746582031" x="688.9801635742188" id="rel5" class="er relationshipLabel">userActions</text><rect height="14" width="91.34375" y="874.4397583007812" x="1072.5380859375" class="er relationshipLabelBox"/><text style="text-anchor: middle; dominant-baseline: middle; font-size: 12px;" y="881.4397583007812" x="1118.2099609375" id="rel6" class="er relationshipLabel">userActionEmails</text><rect height="14" width="99.640625" y="672.3779907226562" x="925.2178344726562" class="er relationshipLabelBox"/><text style="text-anchor: middle; dominant-baseline: middle; font-size: 12px;" y="679.3779907226562" x="975.0381469726562" id="rel7" class="er relationshipLabel">cryptoAddressUser</text><rect height="14" width="40.609375" y="663" x="1180.4207763671875" class="er relationshipLabelBox"/><text style="text-anchor: middle; dominant-baseline: middle; font-size: 12px;" y="670" x="1200.7254638671875" id="rel8" class="er relationshipLabel">address</text><rect height="14" width="67.375" y="209.3328857421875" x="1014.3681640625" class="er relationshipLabelBox"/><text style="text-anchor: middle; dominant-baseline: middle; font-size: 12px;" y="216.3328857421875" x="1048.0556640625" id="rel9" class="er relationshipLabel">inferredUser</text><rect height="14" width="61.6875" y="471.0732727050781" x="798.8390502929688" class="er relationshipLabelBox"/><text style="text-anchor: middle; dominant-baseline: middle; font-size: 12px;" y="478.0732727050781" x="829.6828002929688" id="rel10" class="er relationshipLabel">userActions</text><rect height="14" width="67.375" y="155.6519317626953" x="390.505615234375" class="er relationshipLabelBox"/><text style="text-anchor: middle; dominant-baseline: middle; font-size: 12px;" y="162.6519317626953" x="424.193115234375" id="rel11" class="er relationshipLabel">inferredUser</text><rect height="14" width="99.640625" y="450.6822814941406" x="824.7487182617188" class="er relationshipLabelBox"/><text style="text-anchor: middle; dominant-baseline: middle; font-size: 12px;" y="457.6822814941406" x="874.5690307617188" id="rel12" class="er relationshipLabel">cryptoAddressUser</text><rect height="14" width="61.390625" y="280.12152099609375" x="463.2984313964844" class="er relationshipLabelBox"/><text style="text-anchor: middle; dominant-baseline: middle; font-size: 12px;" y="287.12152099609375" x="493.9937438964844" id="rel13" class="er relationshipLabel">sessionUser</text><rect height="14" width="39" y="457.0583190917969" x="686.7161865234375" class="er relationshipLabelBox"/><text style="text-anchor: middle; dominant-baseline: middle; font-size: 12px;" y="464.0583190917969" x="706.2161865234375" id="rel14" class="er relationshipLabel">nftMint</text><rect height="14" width="86.484375" y="584.52734375" x="1333.375" class="er relationshipLabelBox"/><text style="text-anchor: middle; dominant-baseline: middle; font-size: 12px;" y="591.52734375" x="1376.6171875" id="rel15" class="er relationshipLabel">userActionEmail</text><rect height="14" width="77.390625" y="471.9742431640625" x="357.27313232421875" class="er relationshipLabelBox"/><text style="text-anchor: middle; dominant-baseline: middle; font-size: 12px;" y="478.9742431640625" x="395.96844482421875" id="rel16" class="er relationshipLabel">userActionCall</text><rect height="14" width="104.65625" y="486.192626953125" x="528.4945678710938" class="er relationshipLabelBox"/><text style="text-anchor: middle; dominant-baseline: middle; font-size: 12px;" y="493.192626953125" x="580.8226928710938" id="rel17" class="er relationshipLabel">userActionDonation</text><rect height="14" width="86.25" y="456.2543640136719" x="238.936767578125" class="er relationshipLabelBox"/><text style="text-anchor: middle; dominant-baseline: middle; font-size: 12px;" y="463.2543640136719" x="282.061767578125" id="rel18" class="er relationshipLabel">userActionOptIn</text><rect height="14" width="56.828125" y="450.7162170410156" x="214.88441467285156" class="er relationshipLabelBox"/><text style="text-anchor: middle; dominant-baseline: middle; font-size: 12px;" y="457.7162170410156" x="243.29847717285156" id="rel19" class="er relationshipLabel">userAction</text><rect height="14" width="56.828125" y="727.146240234375" x="-142.015625" class="er relationshipLabelBox"/><text style="text-anchor: middle; dominant-baseline: middle; font-size: 12px;" y="734.146240234375" x="-113.6015625" id="rel20" class="er relationshipLabel">userAction</text><rect height="14" width="40.609375" y="805.948486328125" x="344.0130920410156" class="er relationshipLabelBox"/><text style="text-anchor: middle; dominant-baseline: middle; font-size: 12px;" y="812.948486328125" x="364.3177795410156" id="rel21" class="er relationshipLabel">address</text><rect height="14" width="141.703125" y="1013" x="643.5738525390625" class="er relationshipLabelBox"/><text style="text-anchor: middle; dominant-baseline: middle; font-size: 12px;" y="1020" x="714.4254150390625" id="rel22" class="er relationshipLabel">userActionEmailRecipients</text><rect height="14" width="86.484375" y="1013" x="590.2308349609375" class="er relationshipLabelBox"/><text style="text-anchor: middle; dominant-baseline: middle; font-size: 12px;" y="1020" x="633.4730224609375" id="rel23" class="er relationshipLabel">userActionEmail</text><rect height="14" width="56.828125" y="456.4453125" x="316.38623046875" class="er relationshipLabelBox"/><text style="text-anchor: middle; dominant-baseline: middle; font-size: 12px;" y="463.4453125" x="344.80029296875" id="rel24" class="er relationshipLabel">userAction</text><rect height="14" width="56.828125" y="490.21002197265625" x="446.9616394042969" class="er relationshipLabelBox"/><text style="text-anchor: middle; dominant-baseline: middle; font-size: 12px;" y="497.21002197265625" x="475.3757019042969" id="rel25" class="er relationshipLabel">userAction</text><rect height="14" width="39" y="663" x="461.4713439941406" class="er relationshipLabelBox"/><text style="text-anchor: middle; dominant-baseline: middle; font-size: 12px;" y="670" x="480.9713439941406" id="rel26" class="er relationshipLabel">nftMint</text><rect height="14" width="15.75" y="663" x="796.53271484375" class="er relationshipLabelBox"/><text style="text-anchor: middle; dominant-baseline: middle; font-size: 12px;" y="670" x="804.40771484375" id="rel27" class="er relationshipLabel">nft</text><rect height="14" width="61.6875" y="474.3035583496094" x="630.933349609375" class="er relationshipLabelBox"/><text style="text-anchor: middle; dominant-baseline: middle; font-size: 12px;" y="481.3035583496094" x="661.777099609375" id="rel28" class="er relationshipLabel">userActions</text></svg>