<svg aria-roledescription="er" role="graphics-document document" viewBox="0 0 2268.52978515625 815" style="max-width: 2268.53px; background-color: white;" xmlns:xlink="http://www.w3.org/1999/xlink" xmlns="http://www.w3.org/2000/svg" width="100%" id="my-svg"><style>#my-svg{font-family:"trebuchet ms",verdana,arial,sans-serif;font-size:16px;fill:#000000;}#my-svg .error-icon{fill:#552222;}#my-svg .error-text{fill:#552222;stroke:#552222;}#my-svg .edge-thickness-normal{stroke-width:2px;}#my-svg .edge-thickness-thick{stroke-width:3.5px;}#my-svg .edge-pattern-solid{stroke-dasharray:0;}#my-svg .edge-pattern-dashed{stroke-dasharray:3;}#my-svg .edge-pattern-dotted{stroke-dasharray:2;}#my-svg .marker{fill:#000000;stroke:#000000;}#my-svg .marker.cross{stroke:#000000;}#my-svg svg{font-family:"trebuchet ms",verdana,arial,sans-serif;font-size:16px;}#my-svg .entityBox{fill:#cde498;stroke:#13540c;}#my-svg .attributeBoxOdd{fill:#ffffff;stroke:#13540c;}#my-svg .attributeBoxEven{fill:#f2f2f2;stroke:#13540c;}#my-svg .relationshipLabelBox{fill:hsl(78.1578947368, 58.4615384615%, 84.5098039216%);opacity:0.7;background-color:hsl(78.1578947368, 58.4615384615%, 84.5098039216%);}#my-svg .relationshipLabelBox rect{opacity:0.5;}#my-svg .relationshipLine{stroke:#000000;}#my-svg .entityTitleText{text-anchor:middle;font-size:18px;fill:#000000;}#my-svg #MD_PARENT_START{fill:#f5f5f5!important;stroke:#000000!important;stroke-width:1;}#my-svg #MD_PARENT_END{fill:#f5f5f5!important;stroke:#000000!important;stroke-width:1;}#my-svg :root{--mermaid-font-family:"trebuchet ms",verdana,arial,sans-serif;}</style><g/><defs><marker orient="auto" markerHeight="240" markerWidth="190" refY="7" refX="0" id="MD_PARENT_START"><path d="M 18,7 L9,13 L1,7 L9,1 Z"/></marker></defs><defs><marker orient="auto" markerHeight="28" markerWidth="20" refY="7" refX="19" id="MD_PARENT_END"><path d="M 18,7 L9,13 L1,7 L9,1 Z"/></marker></defs><defs><marker orient="auto" markerHeight="18" markerWidth="18" refY="9" refX="0" id="ONLY_ONE_START"><path d="M9,0 L9,18 M15,0 L15,18" fill="none" stroke="gray"/></marker></defs><defs><marker orient="auto" markerHeight="18" markerWidth="18" refY="9" refX="18" id="ONLY_ONE_END"><path d="M3,0 L3,18 M9,0 L9,18" fill="none" stroke="gray"/></marker></defs><defs><marker orient="auto" markerHeight="18" markerWidth="30" refY="9" refX="0" id="ZERO_OR_ONE_START"><circle r="6" cy="9" cx="21" fill="white" stroke="gray"/><path d="M9,0 L9,18" fill="none" stroke="gray"/></marker></defs><defs><marker orient="auto" markerHeight="18" markerWidth="30" refY="9" refX="30" id="ZERO_OR_ONE_END"><circle r="6" cy="9" cx="9" fill="white" stroke="gray"/><path d="M21,0 L21,18" fill="none" stroke="gray"/></marker></defs><defs><marker orient="auto" markerHeight="36" markerWidth="45" refY="18" refX="18" id="ONE_OR_MORE_START"><path d="M0,18 Q 18,0 36,18 Q 18,36 0,18 M42,9 L42,27" fill="none" stroke="gray"/></marker></defs><defs><marker orient="auto" markerHeight="36" markerWidth="45" refY="18" refX="27" id="ONE_OR_MORE_END"><path d="M3,9 L3,27 M9,18 Q27,0 45,18 Q27,36 9,18" fill="none" stroke="gray"/></marker></defs><defs><marker orient="auto" markerHeight="36" markerWidth="57" refY="18" refX="18" id="ZERO_OR_MORE_START"><circle r="6" cy="18" cx="48" fill="white" stroke="gray"/><path d="M0,18 Q18,0 36,18 Q18,36 0,18" fill="none" stroke="gray"/></marker></defs><defs><marker orient="auto" markerHeight="36" markerWidth="57" refY="18" refX="39" id="ZERO_OR_MORE_END"><circle r="6" cy="18" cx="9" fill="white" stroke="gray"/><path d="M21,18 Q39,0 57,18 Q39,36 21,18" fill="none" stroke="gray"/></marker></defs><path style="stroke: gray; fill: none;" marker-start="url(#ZERO_OR_MORE_START)" marker-end="url(#ZERO_OR_MORE_END)" d="M1455.11328125,72.28996923158186L1414.1451822916667,84.40830769298488C1373.1770833333333,96.5266461543879,1291.2408854166667,120.76332307719395,1255.034691220238,141.21499487193032C1218.8284970238094,161.66666666666666,1228.352306547619,178.33333333333334,1233.1142113095239,186.66666666666666L1237.8761160714287,195" class="er relationshipLine"/><path style="stroke: gray; fill: none;" marker-start="url(#ZERO_OR_MORE_START)" marker-end="url(#ZERO_OR_MORE_END)" d="M1547.970424107143,95L1557.4942336309523,103.33333333333333C1567.0180431547622,111.66666666666667,1586.065662202381,128.33333333333334,1595.5894717261906,151.25C1605.11328125,174.16666666666666,1605.11328125,203.33333333333334,1605.11328125,232.5C1605.11328125,261.6666666666667,1605.11328125,290.8333333333333,1605.11328125,320C1605.11328125,349.1666666666667,1605.11328125,378.3333333333333,1605.11328125,407.5C1605.11328125,436.6666666666667,1605.11328125,465.8333333333333,1630.11328125,491.3541666666667C1655.11328125,516.875,1705.11328125,538.75,1730.11328125,549.6875L1755.11328125,560.625" class="er relationshipLine"/><path style="stroke: gray; fill: none;" marker-start="url(#ZERO_OR_ONE_START)" marker-end="url(#ZERO_OR_ONE_END)" d="M1805.11328125,545L1805.11328125,536.6666666666666C1805.11328125,528.3333333333334,1805.11328125,511.6666666666667,1805.11328125,488.75C1805.11328125,465.8333333333333,1805.11328125,436.6666666666667,1805.11328125,407.5C1805.11328125,378.3333333333333,1805.11328125,349.1666666666667,1805.11328125,320C1805.11328125,290.8333333333333,1805.11328125,261.6666666666667,1805.11328125,232.5C1805.11328125,203.33333333333334,1805.11328125,174.16666666666666,1763.4466145833333,147.43055555555557C1721.7799479166667,120.69444444444444,1638.4466145833333,96.38888888888887,1596.7799479166667,84.2361111111111L1555.11328125,72.08333333333333" class="er relationshipLine"/><path style="stroke: gray; fill: none;" marker-start="url(#ZERO_OR_ONE_START)" marker-end="url(#ZERO_OR_ONE_END)" d="M1805.11328125,620L1805.11328125,628.3333333333334C1805.11328125,636.6666666666666,1805.11328125,653.3333333333334,1849.9479166666667,673.3144576403547C1894.7825520833333,693.295581947376,1984.4518229166667,716.5911638947523,2029.2864583333333,728.2389548684404L2074.12109375,739.8867458421284" class="er relationshipLine"/><path style="stroke: gray; fill: none;" marker-start="url(#ZERO_OR_ONE_START)" marker-end="url(#ZERO_OR_ONE_END)" d="M1755.11328125,590.1086956521739L1667.61328125,603.4239130434783C1580.11328125,616.7391304347826,1405.11328125,643.3695652173914,1333.6953125,666.065967504529C1262.27734375,688.7623697916666,1294.44140625,707.5247395833334,1310.5234375,716.9059244791666L1326.60546875,726.287109375" class="er relationshipLine"/><path style="stroke: gray; fill: none;" marker-start="url(#ZERO_OR_MORE_START)" marker-end="url(#ZERO_OR_MORE_END)" d="M1755.11328125,585.8698399326032L1547.06640625,599.8915332771693C1339.01953125,613.9132266217355,922.92578125,641.9566133108677,785.42578125,669.0209775038987C647.92578125,696.0853416969297,789.01953125,722.1706833938593,859.56640625,735.2133542423243L930.11328125,748.2560250907891" class="er relationshipLine"/><path style="stroke: gray; fill: none;" marker-start="url(#ZERO_OR_MORE_START)" marker-end="url(#ZERO_OR_MORE_END)" d="M1847.970424107143,620L1857.4942336309523,628.3333333333334C1867.0180431547622,636.6666666666666,1886.065662202381,653.3333333333334,1923.7574404761906,672.0748105748188C1961.44921875,690.8162878163043,2017.78515625,711.6325756326087,2045.953125,722.0407195407607L2074.12109375,732.4488634489129" class="er relationshipLine"/><path style="stroke: gray; fill: none;" marker-start="url(#ZERO_OR_MORE_START)" marker-end="url(#ZERO_OR_MORE_END)" d="M1847.970424107143,545L1857.4942336309523,536.6666666666666C1867.0180431547622,528.3333333333334,1886.065662202381,511.6666666666667,1733.0894717261906,489.4613821138211C1580.11328125,467.2560975609756,1255.11328125,439.5121951219512,1092.61328125,425.64024390243895L930.11328125,411.7682926829268" class="er relationshipLine"/><path style="stroke: gray; fill: none;" marker-start="url(#ZERO_OR_ONE_START)" marker-end="url(#ZERO_OR_ONE_END)" d="M1001.5418526785714,720L1006.3037574404761,711.6666666666666C1011.0656622023811,703.3333333333334,1020.5894717261905,686.6666666666666,1146.1847098214287,664.6908602150537C1271.7799479166667,642.7150537634408,1513.4466145833333,615.4301075268817,1634.2799479166667,601.7876344086021L1755.11328125,588.1451612903226" class="er relationshipLine"/><path style="stroke: gray; fill: none;" marker-start="url(#ZERO_OR_MORE_START)" marker-end="url(#ZERO_OR_MORE_END)" d="M1030.11328125,728.3333333333334L1046.7799479166667,718.6111111111112C1063.4466145833333,708.888888888889,1096.7799479166667,689.4444444444445,1113.4466145833333,665.1388888888889C1130.11328125,640.8333333333334,1130.11328125,611.6666666666666,1130.11328125,582.5C1130.11328125,553.3333333333334,1130.11328125,524.1666666666666,1096.7799479166667,497.9166666666667C1063.4466145833333,471.6666666666667,996.7799479166666,448.3333333333333,963.4466145833334,436.6666666666667L930.11328125,425" class="er relationshipLine"/><path style="stroke: gray; fill: none;" marker-start="url(#ZERO_OR_ONE_START)" marker-end="url(#ONLY_ONE_END)" d="M2126.14453125,720L2122.6393229166665,711.6666666666666C2119.1341145833335,703.3333333333334,2112.1236979166665,686.6666666666666,2066.9518229166665,666.1805555555555C2021.7799479166667,645.6944444444445,1938.4466145833333,621.3888888888889,1896.7799479166667,609.2361111111112L1855.11328125,597.0833333333334" class="er relationshipLine"/><path style="stroke: gray; fill: none;" marker-start="url(#ZERO_OR_MORE_START)" marker-end="url(#ZERO_OR_MORE_END)" d="M2169.0016741071427,720L2175.020275297619,711.6666666666666C2181.038876488095,703.3333333333334,2193.0760788690477,686.6666666666666,2199.094680059524,663.75C2205.11328125,640.8333333333334,2205.11328125,611.6666666666666,2205.11328125,582.5C2205.11328125,553.3333333333334,2205.11328125,524.1666666666666,1992.61328125,495.5503144654088C1780.11328125,466.933962264151,1355.11328125,438.8679245283019,1142.61328125,424.8349056603774L930.11328125,410.8018867924528" class="er relationshipLine"/><path style="stroke: gray; fill: none;" marker-start="url(#ZERO_OR_MORE_START)" marker-end="url(#ZERO_OR_MORE_END)" d="M2209.71484375,721.149528459955L2225.6145833333335,712.6246070499625C2241.5143229166665,704.0996856399701,2273.3138020833335,687.049842819985,2214.2135416666665,665.3999214099925C2155.11328125,643.75,2005.11328125,617.5,1930.11328125,604.375L1855.11328125,591.25" class="er relationshipLine"/><path style="stroke: gray; fill: none;" marker-start="url(#ZERO_OR_MORE_START)" marker-end="url(#ZERO_OR_MORE_END)" d="M1401.5418526785713,720L1406.3037574404761,711.6666666666666C1411.065662202381,703.3333333333334,1420.5894717261906,686.6666666666666,1425.3513764880954,663.75C1430.11328125,640.8333333333334,1430.11328125,611.6666666666666,1430.11328125,582.5C1430.11328125,553.3333333333334,1430.11328125,524.1666666666666,1346.7799479166667,496.32575757575756C1263.4466145833333,468.4848484848485,1096.7799479166667,441.969696969697,1013.4466145833334,428.71212121212125L930.11328125,415.45454545454544" class="er relationshipLine"/><path style="stroke: gray; fill: none;" marker-start="url(#ZERO_OR_MORE_START)" marker-end="url(#ZERO_OR_MORE_END)" d="M1433.62109375,730.74609375L1453.8697916666667,720.6217447916666C1474.1184895833333,710.4973958333334,1514.6158854166667,690.2486979166666,1568.1979166666667,668.4576822916666C1621.7799479166667,646.6666666666666,1688.4466145833333,623.3333333333334,1721.7799479166667,611.6666666666666L1755.11328125,600" class="er relationshipLine"/><path style="stroke: gray; fill: none;" marker-start="url(#ZERO_OR_ONE_START)" marker-end="url(#ZERO_OR_ONE_END)" d="M930.11328125,412.8030303030303L1059.2799479166667,426.50252525252523C1188.4466145833333,440.20202020202015,1446.7799479166667,467.6010101010101,1585.470424107143,489.6338383838384C1724.160900297619,511.6666666666667,1743.2085193452378,528.3333333333334,1752.7323288690475,536.6666666666666L1762.256138392857,545" class="er relationshipLine"/><path style="stroke: gray; fill: none;" marker-start="url(#ZERO_OR_ONE_START)" marker-end="url(#ZERO_OR_ONE_END)" d="M930.11328125,417.22222222222223L996.7799479166666,430.1851851851852C1063.4466145833333,443.1481481481481,1196.7799479166667,469.0740740740741,1263.4466145833333,496.6203703703704C1330.11328125,524.1666666666666,1330.11328125,553.3333333333334,1330.11328125,582.5C1330.11328125,611.6666666666666,1330.11328125,640.8333333333334,1334.8751860119048,663.75C1339.6370907738094,686.6666666666666,1349.160900297619,703.3333333333334,1353.9228050595239,711.6666666666666L1358.6847098214287,720" class="er relationshipLine"/><path style="stroke: gray; fill: none;" marker-start="url(#ZERO_OR_ONE_START)" marker-end="url(#ZERO_OR_ONE_END)" d="M901.5418526785714,445L906.3037574404761,453.3333333333333C911.0656622023811,461.6666666666667,920.5894717261905,478.3333333333333,925.3513764880953,501.25C930.11328125,524.1666666666666,930.11328125,553.3333333333334,930.11328125,582.5C930.11328125,611.6666666666666,930.11328125,640.8333333333334,934.8751860119047,663.75C939.6370907738095,686.6666666666666,949.1609002976189,703.3333333333334,953.9228050595237,711.6666666666666L958.6847098214286,720" class="er relationshipLine"/><path style="stroke: gray; fill: none;" marker-start="url(#ZERO_OR_ONE_START)" marker-end="url(#ZERO_OR_ONE_END)" d="M930.11328125,411.3888888888889L1109.2799479166667,425.3240740740741C1288.4466145833333,439.2592592592593,1646.7799479166667,467.1296296296296,1825.9466145833333,495.6481481481481C2005.11328125,524.1666666666666,2005.11328125,553.3333333333334,2005.11328125,582.5C2005.11328125,611.6666666666666,2005.11328125,640.8333333333334,2018.142299107143,663.75C2031.1713169642856,686.6666666666666,2057.2293526785716,703.3333333333334,2070.258370535714,711.6666666666666L2083.2873883928573,720" class="er relationshipLine"/><path style="stroke: gray; fill: none;" marker-start="url(#ZERO_OR_ONE_START)" marker-end="url(#ZERO_OR_ONE_END)" d="M830.11328125,412.58653929124523L695.0944010416666,426.3221160760377C560.0755208333334,440.0576928608302,290.0377604166667,467.52884643041506,159.7807849702381,489.5977565485409C29.523809523809522,511.6666666666667,39.047619047619044,528.3333333333334,43.8095238095238,536.6666666666666L48.57142857142857,545" class="er relationshipLine"/><path style="stroke: gray; fill: none;" marker-start="url(#ZERO_OR_MORE_START)" marker-end="url(#ZERO_OR_MORE_END)" d="M930.11328125,395.2923833191638L981.5104166666666,382.7436527659698C1032.9075520833333,370.1949222127758,1135.7018229166667,345.0974611063879,1189.0807291666667,324.2153972198606C1242.4596354166667,303.3333333333333,1246.4231770833333,286.6666666666667,1248.4049479166667,278.3333333333333L1250.38671875,270" class="er relationshipLine"/><path style="stroke: gray; fill: none;" marker-start="url(#ZERO_OR_MORE_START)" marker-end="url(#ZERO_OR_MORE_END)" d="M830.11328125,417.6502601004151L766.609375,430.54188341701257C703.10546875,443.4335067336101,576.09765625,469.21675336680505,518.5643601190476,490.44171001673584C461.03106398809524,511.6666666666667,472.97228422619054,528.3333333333334,478.94289434523813,536.6666666666666L484.9135044642857,545" class="er relationshipLine"/><path style="stroke: gray; fill: none;" marker-start="url(#ZERO_OR_MORE_START)" marker-end="url(#ZERO_OR_MORE_END)" d="M830.11328125,429.1166139118351L804.71484375,440.0971782598626C779.31640625,451.07774260789006,728.51953125,473.038871303945,709.4012276785714,492.35276898530583C690.2829241071428,511.6666666666667,702.8431919642857,528.3333333333334,709.1233258928572,536.6666666666666L715.4034598214286,545" class="er relationshipLine"/><path style="stroke: gray; fill: none;" marker-start="url(#ZERO_OR_MORE_START)" marker-end="url(#ZERO_OR_MORE_END)" d="M830.11328125,414.21100725028464L729.7942708333334,427.6758393752372C629.4752604166666,441.14067150018974,428.8372395833333,468.0703357500949,334.0610119047619,489.8685012083808C239.28478422619048,511.6666666666667,250.37034970238096,528.3333333333334,255.91313244047623,536.6666666666666L261.45591517857144,545" class="er relationshipLine"/><path style="stroke: gray; fill: none;" marker-start="url(#ZERO_OR_ONE_START)" marker-end="url(#ONLY_ONE_END)" d="M313.2661830357143,545L319.23679315476187,536.6666666666666C325.2074032738095,528.3333333333334,337.14862351190476,511.6666666666667,423.28980654761904,490.12313462113747C509.4309895833333,468.57960257560825,669.7721354166666,442.15920515121644,749.9427083333334,428.9490064390206L830.11328125,415.7388077268247" class="er relationshipLine"/><path style="stroke: gray; fill: none;" marker-start="url(#ZERO_OR_ONE_START)" marker-end="url(#ONLY_ONE_END)" d="M1195.1015625,245.58920298890538L1134.2701822916667,257.9910024907545C1073.4388020833333,270.3928019926036,951.7760416666666,295.1964009963018,895.7065662202381,315.9315338314842C839.6370907738095,336.6666666666667,849.1609002976189,353.3333333333333,853.9228050595237,361.6666666666667L858.6847098214286,370" class="er relationshipLine"/><path style="stroke: gray; fill: none;" marker-start="url(#ZERO_OR_ONE_START)" marker-end="url(#ONLY_ONE_END)" d="M1323.5078125,204.4111328125L1346.140625,194.50927734375C1368.7734375,184.607421875,1414.0390625,164.8037109375,1441.0345982142856,146.56852213541666C1468.0301339285713,128.33333333333334,1476.755580357143,111.66666666666667,1481.1183035714284,103.33333333333333L1485.4810267857142,95" class="er relationshipLine"/><path style="stroke: gray; fill: none;" marker-start="url(#ZERO_OR_MORE_START)" marker-end="url(#ZERO_OR_MORE_END)" d="M1293.243861607143,270L1300.785900297619,278.3333333333333C1308.3279389880952,286.6666666666667,1323.4120163690477,303.3333333333333,1337.697730654762,320C1351.9834449404761,336.6666666666667,1365.4707961309523,353.3333333333333,1372.2144717261906,361.6666666666667L1378.9581473214287,370" class="er relationshipLine"/><path style="stroke: gray; fill: none;" marker-start="url(#ZERO_OR_ONE_START)" marker-end="url(#ONLY_ONE_END)" d="M1430.7332589285713,370L1435.4951636904761,361.6666666666667C1440.257068452381,353.3333333333333,1449.7808779761906,336.6666666666667,1431.9099702380954,318.4314778645833C1414.0390625,300.1962890625,1368.7734375,280.392578125,1346.140625,270.49072265625L1323.5078125,260.5888671875" class="er relationshipLine"/><path style="stroke: gray; fill: none;" marker-start="url(#ZERO_OR_ONE_START)" marker-end="url(#ONLY_ONE_END)" d="M540.0418526785714,545L546.3219866071429,536.6666666666666C552.6021205357143,528.3333333333334,565.1623883928572,511.6666666666667,613.5076264880953,491.161340188429C661.8528645833334,470.6560137101913,745.9830729166666,446.3120274203827,788.0481770833334,434.1400342754784L830.11328125,421.9680411305741" class="er relationshipLine"/><path style="stroke: gray; fill: none;" marker-start="url(#ZERO_OR_ONE_START)" marker-end="url(#ONLY_ONE_END)" d="M765.0926339285714,545L769.8545386904761,536.6666666666666C774.6164434523811,528.3333333333334,784.1402529761905,511.6666666666667,797.1354166666666,495C810.1305803571428,478.3333333333333,826.5970982142857,461.6666666666667,834.830357142857,453.3333333333333L843.0636160714286,445" class="er relationshipLine"/><path style="stroke: gray; fill: none;" marker-start="url(#ZERO_OR_MORE_START)" marker-end="url(#ZERO_OR_MORE_END)" d="M120,744.5113302949123L167.80533854166666,732.0927752457602C215.61067708333334,719.6742201966082,311.2213541666667,694.837110098304,311.2213541666667,670C311.2213541666667,645.1628899016958,215.61067708333334,620.3257798033918,167.80533854166666,607.9072247542398L120,595.4886697050877" class="er relationshipLine"/><path style="stroke: gray; fill: none;" marker-start="url(#ZERO_OR_ONE_START)" marker-end="url(#ONLY_ONE_END)" d="M48.57142857142857,620L43.8095238095238,628.3333333333334C39.047619047619044,636.6666666666666,29.523809523809522,653.3333333333334,29.52380952380952,670C29.523809523809522,686.6666666666666,39.047619047619044,703.3333333333334,43.8095238095238,711.6666666666666L48.57142857142857,720" class="er relationshipLine"/><path style="stroke: gray; fill: none;" marker-start="url(#ZERO_OR_MORE_START)" marker-end="url(#ZERO_OR_MORE_END)" d="M94.94252232142857,545L100.48530505952381,536.6666666666666C106.02808779761904,528.3333333333334,117.11365327380952,511.6666666666667,239.64211309523807,489.7197473461825C362.1705729166667,467.77282802569835,596.1419270833334,440.54565605139663,713.1276041666666,426.9320700642458L830.11328125,413.3184840770949" class="er relationshipLine"/><g transform="translate(1207.89453125,20 )" id="entity-authenticationnonce-d60abb73-29b2-5e7f-af1f-02f253c5f89a"><rect height="75" width="147.21875" y="0" x="0" class="er entityBox"/><text style="dominant-baseline: middle; text-anchor: middle; font-size: 12px;" transform="translate(73.609375,37.5)" y="0" x="0" id="text-entity-authenticationnonce-d60abb73-29b2-5e7f-af1f-02f253c5f89a" class="er entityLabel">authentication_nonce</text></g><g transform="translate(1455.11328125,20 )" id="entity-address-30c0d688-dbdc-5f86-9bc6-9a2d2ce26984"><rect height="75" width="100" y="0" x="0" class="er entityBox"/><text style="dominant-baseline: middle; text-anchor: middle; font-size: 12px;" transform="translate(50,37.5)" y="0" x="0" id="text-entity-address-30c0d688-dbdc-5f86-9bc6-9a2d2ce26984" class="er entityLabel">address</text></g><g transform="translate(1755.11328125,545 )" id="entity-user-dad033c9-7a45-5f6a-ab5a-b5def405b2a6"><rect height="75" width="100" y="0" x="0" class="er entityBox"/><text style="dominant-baseline: middle; text-anchor: middle; font-size: 12px;" transform="translate(50,37.5)" y="0" x="0" id="text-entity-user-dad033c9-7a45-5f6a-ab5a-b5def405b2a6" class="er entityLabel">user</text></g><g transform="translate(930.11328125,720 )" id="entity-usersession-7024031a-97b7-5f63-9dde-ba16d18b1588"><rect height="75" width="100" y="0" x="0" class="er entityBox"/><text style="dominant-baseline: middle; text-anchor: middle; font-size: 12px;" transform="translate(50,37.5)" y="0" x="0" id="text-entity-usersession-7024031a-97b7-5f63-9dde-ba16d18b1588" class="er entityLabel">user_session</text></g><g transform="translate(2074.12109375,720 )" id="entity-useremailaddress-6c33b9e6-526f-5ab1-abed-b260216fe3be"><rect height="75" width="135.59375" y="0" x="0" class="er entityBox"/><text style="dominant-baseline: middle; text-anchor: middle; font-size: 12px;" transform="translate(67.796875,37.5)" y="0" x="0" id="text-entity-useremailaddress-6c33b9e6-526f-5ab1-abed-b260216fe3be" class="er entityLabel">user_email_address</text></g><g transform="translate(1326.60546875,720 )" id="entity-CryptoAddress-173439d8-978d-5f7b-84b2-9b43d0259f25"><rect height="75" width="107.015625" y="0" x="0" class="er entityBox"/><text style="dominant-baseline: middle; text-anchor: middle; font-size: 12px;" transform="translate(53.5078125,37.5)" y="0" x="0" id="text-entity-CryptoAddress-173439d8-978d-5f7b-84b2-9b43d0259f25" class="er entityLabel">CryptoAddress</text></g><g transform="translate(830.11328125,370 )" id="entity-useraction-51dff6a4-df98-5d54-9d61-642e47e2c8e4"><rect height="75" width="100" y="0" x="0" class="er entityBox"/><text style="dominant-baseline: middle; text-anchor: middle; font-size: 12px;" transform="translate(50,37.5)" y="0" x="0" id="text-entity-useraction-51dff6a4-df98-5d54-9d61-642e47e2c8e4" class="er entityLabel">user_action</text></g><g transform="translate(220,545 )" id="entity-useractionoptin-66cb5eb2-4895-5d84-8316-3c91412fe581"><rect height="75" width="132.796875" y="0" x="0" class="er entityBox"/><text style="dominant-baseline: middle; text-anchor: middle; font-size: 12px;" transform="translate(66.3984375,37.5)" y="0" x="0" id="text-entity-useractionoptin-66cb5eb2-4895-5d84-8316-3c91412fe581" class="er entityLabel">user_action_opt_in</text></g><g transform="translate(1195.1015625,195 )" id="entity-useractionemail-bcf04f9b-2e66-5548-bfd5-13b0518be475"><rect height="75" width="128.40625" y="0" x="0" class="er entityBox"/><text style="dominant-baseline: middle; text-anchor: middle; font-size: 12px;" transform="translate(64.203125,37.5)" y="0" x="0" id="text-entity-useractionemail-bcf04f9b-2e66-5548-bfd5-13b0518be475" class="er entityLabel">user_action_email</text></g><g transform="translate(1317.6875,370 )" id="entity-useractionemailrecipient-63cc052e-b7ce-527e-bc70-e67ccd346adb"><rect height="75" width="183.234375" y="0" x="0" class="er entityBox"/><text style="dominant-baseline: middle; text-anchor: middle; font-size: 12px;" transform="translate(91.6171875,37.5)" y="0" x="0" id="text-entity-useractionemailrecipient-63cc052e-b7ce-527e-bc70-e67ccd346adb" class="er entityLabel">user_action_email_recipient</text></g><g transform="translate(452.796875,545 )" id="entity-useractioncall-86873653-0047-560d-ae1e-fda3eee3d98d"><rect height="75" width="117.96875" y="0" x="0" class="er entityBox"/><text style="dominant-baseline: middle; text-anchor: middle; font-size: 12px;" transform="translate(58.984375,37.5)" y="0" x="0" id="text-entity-useractioncall-86873653-0047-560d-ae1e-fda3eee3d98d" class="er entityLabel">user_action_call</text></g><g transform="translate(670.765625,545 )" id="entity-useractiondonation-9090b8f6-2505-5624-a357-bea35d6e9ff6"><rect height="75" width="145.796875" y="0" x="0" class="er entityBox"/><text style="dominant-baseline: middle; text-anchor: middle; font-size: 12px;" transform="translate(72.8984375,37.5)" y="0" x="0" id="text-entity-useractiondonation-9090b8f6-2505-5624-a357-bea35d6e9ff6" class="er entityLabel">user_action_donation</text></g><g transform="translate(20,720 )" id="entity-nft-9a375a4d-ef26-5692-a993-1acfe986b6a1"><rect height="75" width="100" y="0" x="0" class="er entityBox"/><text style="dominant-baseline: middle; text-anchor: middle; font-size: 12px;" transform="translate(50,37.5)" y="0" x="0" id="text-entity-nft-9a375a4d-ef26-5692-a993-1acfe986b6a1" class="er entityLabel">nft</text></g><g transform="translate(20,545 )" id="entity-nftmint-84e473cf-e6f7-5b84-8cdf-d14b3ded489e"><rect height="75" width="100" y="0" x="0" class="er entityBox"/><text style="dominant-baseline: middle; text-anchor: middle; font-size: 12px;" transform="translate(50,37.5)" y="0" x="0" id="text-entity-nftmint-84e473cf-e6f7-5b84-8cdf-d14b3ded489e" class="er entityLabel">nft_mint</text></g><rect height="14" width="91.34375" y="106.54774475097656" x="1275.8330078125" class="er relationshipLabelBox"/><text style="text-anchor: middle; dominant-baseline: middle; font-size: 12px;" y="113.54774475097656" x="1321.5048828125" id="rel1" class="er relationshipLabel">userActionEmails</text><rect height="14" width="27.484375" y="351.56512451171875" x="1591.37109375" class="er relationshipLabelBox"/><text style="text-anchor: middle; dominant-baseline: middle; font-size: 12px;" y="358.56512451171875" x="1605.11328125" id="rel2" class="er relationshipLabel">users</text><rect height="14" width="40.609375" y="220.49929809570312" x="1784.7999267578125" class="er relationshipLabelBox"/><text style="text-anchor: middle; dominant-baseline: middle; font-size: 12px;" y="227.49929809570312" x="1805.1046142578125" id="rel3" class="er relationshipLabel">address</text><rect height="14" width="136.5" y="692.4658203125" x="1856.3681640625" class="er relationshipLabelBox"/><text style="text-anchor: middle; dominant-baseline: middle; font-size: 12px;" y="699.4658203125" x="1924.6181640625" id="rel4" class="er relationshipLabel">primaryUserEmailAddress</text><rect height="14" width="75.78125" y="624.83251953125" x="1453.2957763671875" class="er relationshipLabelBox"/><text style="text-anchor: middle; dominant-baseline: middle; font-size: 12px;" y="631.83251953125" x="1491.1864013671875" id="rel5" class="er relationshipLabel">cryptoAddress</text><rect height="14" width="65.9375" y="623.3269653320312" x="1097.64697265625" class="er relationshipLabelBox"/><text style="text-anchor: middle; dominant-baseline: middle; font-size: 12px;" y="630.3269653320312" x="1130.61572265625" id="rel6" class="er relationshipLabel">userSessions</text><rect height="14" width="105.0625" y="679.6201782226562" x="1902.948974609375" class="er relationshipLabelBox"/><text style="text-anchor: middle; dominant-baseline: middle; font-size: 12px;" y="686.6201782226562" x="1955.480224609375" id="rel7" class="er relationshipLabel">userEmailAddresses</text><rect height="14" width="61.6875" y="447.14068603515625" x="1382.5540771484375" class="er relationshipLabelBox"/><text style="text-anchor: middle; dominant-baseline: middle; font-size: 12px;" y="454.14068603515625" x="1413.3978271484375" id="rel8" class="er relationshipLabel">userActions</text><rect height="14" width="22.625" y="625.75" x="1359.542236328125" class="er relationshipLabelBox"/><text style="text-anchor: middle; dominant-baseline: middle; font-size: 12px;" y="632.75" x="1370.854736328125" id="rel9" class="er relationshipLabel">user</text><rect height="14" width="61.6875" y="532.5656127929688" x="1095.23291015625" class="er relationshipLabelBox"/><text style="text-anchor: middle; dominant-baseline: middle; font-size: 12px;" y="539.5656127929688" x="1126.07666015625" id="rel10" class="er relationshipLabel">userActions</text><rect height="14" width="22.625" y="634.4022216796875" x="1990.0574951171875" class="er relationshipLabelBox"/><text style="text-anchor: middle; dominant-baseline: middle; font-size: 12px;" y="641.4022216796875" x="2001.3699951171875" id="rel11" class="er relationshipLabel">user</text><rect height="14" width="61.6875" y="454.8985290527344" x="1626.646484375" class="er relationshipLabelBox"/><text style="text-anchor: middle; dominant-baseline: middle; font-size: 12px;" y="461.8985290527344" x="1657.490234375" id="rel12" class="er relationshipLabel">userActions</text><rect height="14" width="147.109375" y="625.6234741210938" x="2009.17138671875" class="er relationshipLabelBox"/><text style="text-anchor: middle; dominant-baseline: middle; font-size: 12px;" y="632.6234741210938" x="2082.72607421875" id="rel13" class="er relationshipLabel">asPrimaryUserEmailAddress</text><rect height="14" width="61.6875" y="469.56488037109375" x="1243.359375" class="er relationshipLabelBox"/><text style="text-anchor: middle; dominant-baseline: middle; font-size: 12px;" y="476.56488037109375" x="1274.203125" id="rel14" class="er relationshipLabel">userActions</text><rect height="14" width="22.625" y="652.086181640625" x="1580.4600830078125" class="er relationshipLabelBox"/><text style="text-anchor: middle; dominant-baseline: middle; font-size: 12px;" y="659.086181640625" x="1591.7725830078125" id="rel15" class="er relationshipLabel">user</text><rect height="14" width="22.625" y="451.7562561035156" x="1340.211669921875" class="er relationshipLabelBox"/><text style="text-anchor: middle; dominant-baseline: middle; font-size: 12px;" y="458.7562561035156" x="1351.524169921875" id="rel16" class="er relationshipLabel">user</text><rect height="14" width="75.78125" y="475.93634033203125" x="1186.9674072265625" class="er relationshipLabelBox"/><text style="text-anchor: middle; dominant-baseline: middle; font-size: 12px;" y="482.93634033203125" x="1224.8580322265625" id="rel17" class="er relationshipLabel">cryptoAddress</text><rect height="14" width="61.078125" y="575.5" x="899.57421875" class="er relationshipLabelBox"/><text style="text-anchor: middle; dominant-baseline: middle; font-size: 12px;" y="582.5" x="930.11328125" id="rel18" class="er relationshipLabel">userSession</text><rect height="14" width="93.65625" y="457.8388671875" x="1523.8648681640625" class="er relationshipLabelBox"/><text style="text-anchor: middle; dominant-baseline: middle; font-size: 12px;" y="464.8388671875" x="1570.6929931640625" id="rel19" class="er relationshipLabel">userEmailAddress</text><rect height="14" width="39" y="448.2189025878906" x="402.7548522949219" class="er relationshipLabelBox"/><text style="text-anchor: middle; dominant-baseline: middle; font-size: 12px;" y="455.2189025878906" x="422.2548522949219" id="rel20" class="er relationshipLabel">nftMint</text><rect height="14" width="86.484375" y="344.7629089355469" x="1059.0087890625" class="er relationshipLabelBox"/><text style="text-anchor: middle; dominant-baseline: middle; font-size: 12px;" y="351.7629089355469" x="1102.2509765625" id="rel21" class="er relationshipLabel">userActionEmail</text><rect height="14" width="77.390625" y="452.078857421875" x="594.2077026367188" class="er relationshipLabelBox"/><text style="text-anchor: middle; dominant-baseline: middle; font-size: 12px;" y="459.078857421875" x="632.9030151367188" id="rel22" class="er relationshipLabel">userActionCall</text><rect height="14" width="104.65625" y="463.5085754394531" x="688.43017578125" class="er relationshipLabelBox"/><text style="text-anchor: middle; dominant-baseline: middle; font-size: 12px;" y="470.5085754394531" x="740.75830078125" id="rel23" class="er relationshipLabel">userActionDonation</text><rect height="14" width="86.25" y="449.30255126953125" x="482.352783203125" class="er relationshipLabelBox"/><text style="text-anchor: middle; dominant-baseline: middle; font-size: 12px;" y="456.30255126953125" x="525.477783203125" id="rel24" class="er relationshipLabel">userActionOptIn</text><rect height="14" width="56.828125" y="453.9307861328125" x="535.6140747070312" class="er relationshipLabelBox"/><text style="text-anchor: middle; dominant-baseline: middle; font-size: 12px;" y="460.9307861328125" x="564.0281372070312" id="rel25" class="er relationshipLabel">userAction</text><rect height="14" width="56.828125" y="278.80279541015625" x="976.2903442382812" class="er relationshipLabelBox"/><text style="text-anchor: middle; dominant-baseline: middle; font-size: 12px;" y="285.80279541015625" x="1004.7044067382812" id="rel26" class="er relationshipLabel">userAction</text><rect height="14" width="40.609375" y="155.35008239746094" x="1394.0037841796875" class="er relationshipLabelBox"/><text style="text-anchor: middle; dominant-baseline: middle; font-size: 12px;" y="162.35008239746094" x="1414.3084716796875" id="rel27" class="er relationshipLabel">address</text><rect height="14" width="141.703125" y="312.21234130859375" x="1266.1688232421875" class="er relationshipLabelBox"/><text style="text-anchor: middle; dominant-baseline: middle; font-size: 12px;" y="319.21234130859375" x="1337.0203857421875" id="rel28" class="er relationshipLabel">userActionEmailRecipients</text><rect height="14" width="86.484375" y="292.12860107421875" x="1361.855224609375" class="er relationshipLabelBox"/><text style="text-anchor: middle; dominant-baseline: middle; font-size: 12px;" y="299.12860107421875" x="1405.097412109375" id="rel29" class="er relationshipLabel">userActionEmail</text><rect height="14" width="56.828125" y="460.98828125" x="648.4417724609375" class="er relationshipLabelBox"/><text style="text-anchor: middle; dominant-baseline: middle; font-size: 12px;" y="467.98828125" x="676.8558349609375" id="rel30" class="er relationshipLabel">userAction</text><rect height="14" width="56.828125" y="484.67523193359375" x="771.3587646484375" class="er relationshipLabelBox"/><text style="text-anchor: middle; dominant-baseline: middle; font-size: 12px;" y="491.67523193359375" x="799.7728271484375" id="rel31" class="er relationshipLabel">userAction</text><rect height="14" width="39" y="663" x="291.7213439941406" class="er relationshipLabelBox"/><text style="text-anchor: middle; dominant-baseline: middle; font-size: 12px;" y="670" x="311.2213439941406" id="rel32" class="er relationshipLabel">nftMint</text><rect height="14" width="15.75" y="663" x="21.6488094329834" class="er relationshipLabelBox"/><text style="text-anchor: middle; dominant-baseline: middle; font-size: 12px;" y="670" x="29.5238094329834" id="rel33" class="er relationshipLabel">nft</text><rect height="14" width="61.6875" y="451.1575622558594" x="424.5624694824219" class="er relationshipLabelBox"/><text style="text-anchor: middle; dominant-baseline: middle; font-size: 12px;" y="458.1575622558594" x="455.4062194824219" id="rel34" class="er relationshipLabel">userActions</text></svg>