
<svg width="32" height="32" viewBox="0 0 32 32" fill="none" xmlns="http://www.w3.org/2000/svg">
<g clip-path="url(#clip0_10214_78583)">
<rect width="32" height="32" rx="16" fill="#F7CACA"/>
<path d="M21.8659 12.2671C21.8659 15.5071 19.2393 18.1337 15.9992 18.1337C12.7591 18.1337 10.1326 15.5071 10.1326 12.2671C10.1326 9.02699 12.7591 6.40039 15.9992 6.40039C19.2393 6.40039 21.8659 9.02699 21.8659 12.2671Z" fill="url(#paint0_linear_10214_78583)"/>
<path d="M20.2232 19.2217C22.8472 19.3497 25.1512 21.0564 25.9939 23.5737L28.7992 32.0004H3.19922L6.00455 23.5737C6.84722 21.0564 9.15122 19.3497 11.7752 19.2217C12.0099 19.3497 13.8019 20.2671 15.9992 20.2671C18.1966 20.2671 19.9886 19.3497 20.2232 19.2217Z" fill="url(#paint1_linear_10214_78583)"/>
<mask id="mask0_10214_78583" style="mask-type:alpha" maskUnits="userSpaceOnUse" x="3" y="6" width="13" height="28">
<rect x="3.19922" y="6.40039" width="12.8" height="27.2" fill="url(#paint2_linear_10214_78583)"/>
</mask>
<g mask="url(#mask0_10214_78583)">
<path d="M21.8659 12.2671C21.8659 15.5071 19.2393 18.1337 15.9992 18.1337C12.7591 18.1337 10.1326 15.5071 10.1326 12.2671C10.1326 9.02699 12.7591 6.40039 15.9992 6.40039C19.2393 6.40039 21.8659 9.02699 21.8659 12.2671Z" fill="url(#paint3_linear_10214_78583)"/>
<path d="M20.2232 19.2217C22.8472 19.3497 25.1512 21.0564 25.9939 23.5737L28.7992 32.0004H3.19922L6.00455 23.5737C6.84722 21.0564 9.15122 19.3497 11.7752 19.2217C12.0099 19.3497 13.8019 20.2671 15.9992 20.2671C18.1966 20.2671 19.9886 19.3497 20.2232 19.2217Z" fill="url(#paint4_linear_10214_78583)"/>
</g>
</g>
<defs>
<linearGradient id="paint0_linear_10214_78583" x1="15.9992" y1="6.40039" x2="15.9992" y2="32.0004" gradientUnits="userSpaceOnUse">
<stop stop-color="#E84A8C"/>
<stop offset="1" stop-color="#F2DDDD"/>
</linearGradient>
<linearGradient id="paint1_linear_10214_78583" x1="15.9992" y1="6.40039" x2="15.9992" y2="32.0004" gradientUnits="userSpaceOnUse">
<stop stop-color="#E84A8C"/>
<stop offset="1" stop-color="#F2DDDD"/>
</linearGradient>
<linearGradient id="paint2_linear_10214_78583" x1="9.59922" y1="6.40039" x2="9.59922" y2="33.6004" gradientUnits="userSpaceOnUse">
<stop stop-color="#DDE6F2"/>
<stop offset="1" stop-color="#4A89E8"/>
</linearGradient>
<linearGradient id="paint3_linear_10214_78583" x1="15.9992" y1="6.40039" x2="15.9992" y2="32.0004" gradientUnits="userSpaceOnUse">
<stop stop-color="#F2DDDD"/>
<stop offset="1" stop-color="#E84A8C"/>
</linearGradient>
<linearGradient id="paint4_linear_10214_78583" x1="15.9992" y1="6.40039" x2="15.9992" y2="32.0004" gradientUnits="userSpaceOnUse">
<stop stop-color="#F2DDDD"/>
<stop offset="1" stop-color="#E84A8C"/>
</linearGradient>
<clipPath id="clip0_10214_78583">
<rect width="32" height="32" rx="16" fill="white"/>
</clipPath>
</defs>
</svg>
