<svg
  width="122"
  height="121"
  viewBox="0 0 122 121"
  fill="none"
  xmlns="http://www.w3.org/2000/svg"
>
  <g clip-path="url(#clip0_1878_165239)">
    <path
      d="M60.9946 0.835938H0.40625V49.7697C0.40625 50.4562 0.417044 51.1414 0.437829 51.8252C0.416852 52.2875 0.40625 52.7524 0.40625 53.2198L0.49391 53.2198C1.82407 80.4361 18.8035 104.579 44.2439 114.952L50.6431 117.561C57.4158 119.85 60.9946 120.836 60.9946 120.836V53.2198H61.0136C61.0136 52.8573 61.0073 52.4962 60.9946 52.1368L60.9946 0.835938Z"
      fill="url(#paint0_linear_1878_165239)"
    />
    <path
      d="M121.584 49.7697V0.835938H60.9956V53.2197H60.9883C60.9883 53.4444 60.9907 53.6684 60.9956 53.8919V120.836C60.9956 120.836 64.5744 119.85 71.3471 117.561L77.7463 114.952C101.061 105.446 117.269 84.3753 120.839 59.9727C121.334 57.8012 121.596 55.541 121.596 53.2197H121.496C121.553 52.0735 121.584 50.9235 121.584 49.7697Z"
      fill="url(#paint1_linear_1878_165239)"
    />
  </g>
  <path d="M58.5889 71.4859H64.1301V65.9447H58.5889V71.4859Z" fill="white" />
  <path d="M58.5889 60.4034H64.1301V32.6973H58.5889V60.4034Z" fill="white" />
  <defs>
    <linearGradient
      id="paint0_linear_1878_165239"
      x1="30.7099"
      y1="0.835937"
      x2="30.7099"
      y2="120.836"
      gradientUnits="userSpaceOnUse"
    >
      <stop stop-color="#C2C2C2" />
      <stop offset="1" stop-color="#F2F2F2" />
    </linearGradient>
    <linearGradient
      id="paint1_linear_1878_165239"
      x1="91.292"
      y1="0.835937"
      x2="91.292"
      y2="120.836"
      gradientUnits="userSpaceOnUse"
    >
      <stop stop-color="#C2C2C2" />
      <stop offset="1" stop-color="#F2F2F2" />
    </linearGradient>
    <clipPath id="clip0_1878_165239">
      <rect
        width="121.188"
        height="120"
        fill="white"
        transform="translate(0.40625 0.835938)"
      />
    </clipPath>
  </defs>
</svg>