<svg width="101" height="100" viewBox="0 0 101 100" fill="none" xmlns="http://www.w3.org/2000/svg">
<g clip-path="url(#clip0_3830_2196)">
<rect x="0.5" width="100" height="100" rx="16" fill="black"/>
<rect x="0.5" width="100" height="100" fill="url(#paint0_radial_3830_2196)" fill-opacity="0.5"/>
<path d="M26.5 47.9993H74.5V73.9994H26.5V47.9993Z" fill="#6506FF"/>
<path fill-rule="evenodd" clip-rule="evenodd" d="M26.6913 47.8094L34.5 40.0007V47.8094H34.5V53.8094L26.755 48.0007H26.5L26.6093 47.8914L26.5 47.8094H26.6913ZM74.5001 48.0007L66.5001 40.0007V48.0007H74.5001ZM66.5001 48.0008V54.0008L74.5001 48.0008H66.5001Z" fill="url(#paint1_linear_3830_2196)"/>
<path d="M34.4988 26H66.4988V66H34.4988V26Z" fill="white"/>
<path fill-rule="evenodd" clip-rule="evenodd" d="M66.4988 65.9993V53.9993L50.4988 65.9993L34.4988 53.744V65.9993H50.4988H66.4988Z" fill="#6506FF"/>
<g clip-path="url(#clip1_3830_2196)">
<path d="M60 30H40V50H60V30Z" fill="#CC0000"/>
<path d="M43.1904 40.0023C43.1904 41.3181 44.2608 42.3887 45.5767 42.3887H47.829C47.9544 42.3887 48.0553 42.2652 48.0553 42.1631V37.7448C48.0553 37.4519 48.2934 37.2138 48.5863 37.2138C48.7739 37.2138 48.9489 37.3134 49.0427 37.4738C49.054 37.4931 49.7358 38.6687 50.4576 39.9134C51.1471 41.1022 51.86 42.3315 51.8719 42.3518C51.9037 42.406 51.9658 42.4409 52.0304 42.4409C52.1328 42.4409 52.216 42.3576 52.216 42.2552V37.7448C52.216 37.4519 52.4543 37.2138 52.747 37.2138C52.9346 37.2138 53.1095 37.3134 53.2035 37.4738C53.2147 37.4931 53.8959 38.6688 54.6173 39.9134C55.3062 41.102 56.0184 42.331 56.0307 42.3518C56.0621 42.406 56.1245 42.4409 56.1891 42.4409C56.2915 42.4409 56.3746 42.3576 56.3746 42.2552V36.4075H55.5117V39.8884C55.5117 39.8884 53.9033 37.1198 53.8511 37.0309C53.6164 36.6295 53.171 36.376 52.6973 36.376C51.955 36.376 51.353 36.9781 51.353 37.7205V39.8884C51.353 39.8884 49.7446 37.1198 49.6924 37.0309C49.4577 36.6295 49.0123 36.376 48.5385 36.376C47.7963 36.376 47.1944 36.9781 47.1944 37.7205V41.2827C47.1947 41.4124 47.0972 41.5253 46.9555 41.5257H45.5864C44.7451 41.5257 44.063 40.8436 44.063 40.0022C44.063 39.1608 44.7451 38.4789 45.5864 38.4789H46.733V37.6157H45.5767C44.2608 37.6157 43.1904 38.6863 43.1904 40.0023Z" fill="white"/>
<path d="M56.7199 36.4075V42.2552C56.7199 42.548 56.4816 42.7862 56.1889 42.7862C56.0012 42.7862 55.8264 42.6865 55.7324 42.5261C55.7211 42.5069 55.0398 41.3313 54.3186 40.0865C53.6297 38.8981 52.9175 37.669 52.9052 37.6482C52.8738 37.5941 52.8114 37.559 52.7467 37.559C52.6443 37.559 52.5613 37.6424 52.5613 37.7447V42.2552C52.5613 42.548 52.3229 42.7862 52.0302 42.7862C51.8426 42.7862 51.6677 42.6865 51.5737 42.5261C51.5624 42.507 50.8807 41.3313 50.1589 40.0866C49.4695 38.8978 48.7566 37.6685 48.7446 37.6482C48.7128 37.5941 48.6507 37.559 48.5861 37.559C48.4837 37.559 48.4003 37.6424 48.4003 37.7447V42.1632C48.4003 42.4672 48.1332 42.7339 47.8288 42.7339H45.5766C44.0705 42.7339 42.8451 41.5085 42.8451 40.0023C42.8451 38.4959 44.0705 37.2705 45.5766 37.2705H46.7329V36.4075H45.5776C43.5922 36.4075 41.9829 38.0169 41.9829 40.0023C41.9829 41.9876 43.5922 43.597 45.5776 43.597H47.8514C48.7127 43.5976 49.2665 43.0928 49.2654 42.162V40.1117C49.2654 40.1117 50.8854 42.8997 50.9259 42.9691C51.1609 43.3704 51.6062 43.6241 52.0799 43.6241C52.8222 43.6241 53.4242 43.0218 53.4242 42.2796V40.1117C53.4242 40.1117 55.0325 42.8801 55.0847 42.9691C55.3195 43.3704 55.7649 43.6241 56.2386 43.6241C56.9809 43.6241 57.5829 43.0218 57.5829 42.2796V36.4075H56.7199Z" fill="white"/>
</g>
</g>
<defs>
<radialGradient id="paint0_radial_3830_2196" cx="0" cy="0" r="1" gradientUnits="userSpaceOnUse" gradientTransform="translate(50.5 50) rotate(-90) scale(57 32.1546)">
<stop stop-color="#6A0EFF"/>
<stop offset="0.833333"/>
</radialGradient>
<linearGradient id="paint1_linear_3830_2196" x1="74.9842" y1="40.0007" x2="74.9842" y2="54.0008" gradientUnits="userSpaceOnUse">
<stop stop-color="#6C11FF"/>
<stop offset="1" stop-color="#B486FE"/>
</linearGradient>
<clipPath id="clip0_3830_2196">
<rect x="0.5" width="100" height="100" rx="16" fill="white"/>
</clipPath>
<clipPath id="clip1_3830_2196">
<rect x="40" y="30" width="20" height="20" rx="10" fill="white"/>
</clipPath>
</defs>
</svg>
