<svg width="101" height="100" viewBox="0 0 101 100" fill="none" xmlns="http://www.w3.org/2000/svg">
<g clip-path="url(#clip0_1_2)">
<rect x="0.5" width="100" height="100" rx="16" fill="black"/>
<rect x="0.5" width="100" height="100" fill="url(#paint0_radial_1_2)" fill-opacity="0.5"/>
<path d="M26.5 47.9993H74.5V73.9994H26.5V47.9993Z" fill="#6506FF"/>
<path d="M34.4987 25.7603H66.4987V54L51 65.2603L34.4987 53.7603V25.7603Z" fill="white"/>
<path fill-rule="evenodd" clip-rule="evenodd" d="M26.6913 47.8094L34.5 40.0007V47.8094H34.5V53.8094L26.755 48.0007H26.5L26.6093 47.8914L26.5 47.8094H26.6913ZM74.5001 48.0007L66.5001 40.0007V48.0007H74.5001ZM66.5001 48.0007V54.0008L74.5001 48.0007H66.5001Z" fill="url(#paint1_linear_1_2)"/>
<path fill-rule="evenodd" clip-rule="evenodd" d="M66.4987 65.9993V53.9993L50.4987 65.9993L34.4987 53.744V65.9993H50.4987H66.4987Z" fill="#6506FF"/>
<g clip-path="url(#clip1_1_2)">
<path d="M60 30H40V50H60V30Z" fill="#CC0000"/>
<path d="M43.1904 40.0023C43.1904 41.3181 44.2607 42.3887 45.5767 42.3887H47.829C47.9544 42.3887 48.0552 42.2652 48.0552 42.1631V37.7448C48.0552 37.452 48.2934 37.2139 48.5863 37.2139C48.7738 37.2139 48.9488 37.3134 49.0426 37.4738C49.054 37.4931 49.7358 38.6688 50.4575 39.9135C51.147 41.1022 51.8599 42.3315 51.8719 42.3518C51.9036 42.406 51.9657 42.4409 52.0303 42.4409C52.1327 42.4409 52.2159 42.3576 52.2159 42.2552V37.7448C52.2159 37.452 52.4542 37.2139 52.7469 37.2139C52.9346 37.2139 53.1094 37.3134 53.2034 37.4738C53.2146 37.4931 53.8959 38.6689 54.6172 39.9135C55.3061 41.102 56.0184 42.3311 56.0306 42.3518C56.062 42.406 56.1244 42.4409 56.1891 42.4409C56.2914 42.4409 56.3746 42.3576 56.3746 42.2552V36.4075H55.5116V39.8884C55.5116 39.8884 53.9032 37.1199 53.851 37.0309C53.6163 36.6295 53.1709 36.376 52.6972 36.376C51.9549 36.376 51.353 36.9782 51.353 37.7205V39.8884C51.353 39.8884 49.7445 37.1199 49.6923 37.0309C49.4576 36.6295 49.0123 36.376 48.5385 36.376C47.7962 36.376 47.1943 36.9782 47.1943 37.7205V41.2828C47.1946 41.4124 47.0971 41.5254 46.9554 41.5257H45.5863C44.7451 41.5257 44.0629 40.8437 44.0629 40.0022C44.0629 39.1608 44.7451 38.4789 45.5863 38.4789H46.733V37.6158H45.5767C44.2607 37.6158 43.1904 38.6864 43.1904 40.0023Z" fill="white"/>
<path d="M56.72 36.4075V42.2552C56.72 42.548 56.4817 42.7862 56.189 42.7862C56.0013 42.7862 55.8265 42.6865 55.7325 42.5261C55.7212 42.5068 55.0399 41.3313 54.3187 40.0865C53.6298 38.8981 52.9176 37.669 52.9053 37.6482C52.8739 37.5941 52.8115 37.559 52.7468 37.559C52.6444 37.559 52.5614 37.6424 52.5614 37.7447V42.2552C52.5614 42.548 52.323 42.7862 52.0303 42.7862C51.8427 42.7862 51.6678 42.6865 51.5738 42.5261C51.5625 42.5069 50.8808 41.3313 50.159 40.0866C49.4696 38.8978 48.7567 37.6685 48.7447 37.6482C48.7129 37.5941 48.6508 37.559 48.5862 37.559C48.4838 37.559 48.4004 37.6424 48.4004 37.7447V42.1631C48.4004 42.4672 48.1333 42.7339 47.8289 42.7339H45.5767C44.0706 42.7339 42.8452 41.5085 42.8452 40.0022C42.8452 38.4959 44.0706 37.2705 45.5767 37.2705H46.733V36.4075H45.5777C43.5923 36.4075 41.983 38.0169 41.983 40.0022C41.983 41.9876 43.5923 43.597 45.5777 43.597H47.8515C48.7128 43.5976 49.2666 43.0928 49.2655 42.1619V40.1117C49.2655 40.1117 50.8855 42.8997 50.926 42.969C51.161 43.3704 51.6063 43.6241 52.08 43.6241C52.8223 43.6241 53.4243 43.0218 53.4243 42.2796V40.1117C53.4243 40.1117 55.0326 42.8801 55.0848 42.969C55.3196 43.3704 55.765 43.6241 56.2387 43.6241C56.981 43.6241 57.583 43.0218 57.583 42.2796V36.4075H56.72Z" fill="white"/>
</g>
</g>
<defs>
<radialGradient id="paint0_radial_1_2" cx="0" cy="0" r="1" gradientUnits="userSpaceOnUse" gradientTransform="translate(50.5 50) rotate(-90) scale(57 32.1546)">
<stop stop-color="#6A0EFF"/>
<stop offset="0.833333"/>
</radialGradient>
<linearGradient id="paint1_linear_1_2" x1="74.9842" y1="40.0007" x2="74.9842" y2="54.0008" gradientUnits="userSpaceOnUse">
<stop stop-color="#6C11FF"/>
<stop offset="1" stop-color="#B486FE"/>
</linearGradient>
<clipPath id="clip0_1_2">
<rect x="0.5" width="100" height="100" rx="16" fill="white"/>
</clipPath>
<clipPath id="clip1_1_2">
<rect x="40" y="30" width="20" height="20" rx="10" fill="white"/>
</clipPath>
</defs>
</svg>
