<?xml version="1.0" standalone="no"?>
<!DOCTYPE svg PUBLIC "-//W3C//DTD SVG 20010904//EN"
 "http://www.w3.org/TR/2001/REC-SVG-20010904/DTD/svg10.dtd">
<svg version="1.0" xmlns="http://www.w3.org/2000/svg"
 width="656.000000pt" height="656.000000pt" viewBox="0 0 656.000000 656.000000"
 preserveAspectRatio="xMidYMid meet">
<metadata>
Created by potrace 1.14, written by Peter Selinger 2001-2017
</metadata>
<g transform="translate(0.000000,656.000000) scale(0.100000,-0.100000)"
fill="#000000" stroke="none">
<path d="M3 5038 c3 -1212 7 -1573 17 -1573 1 0 3 -16 6 -35 11 -101 23 -177
34 -230 5 -25 12 -56 14 -70 11 -56 36 -170 42 -190 3 -8 6 -17 6 -20 8 -67
138 -432 205 -580 77 -170 193 -386 239 -448 14 -17 23 -32 20 -32 -5 0 80
-126 111 -165 4 -6 24 -33 43 -60 19 -28 39 -55 45 -61 5 -6 21 -26 35 -44 14
-18 30 -38 35 -44 6 -6 32 -38 60 -71 93 -112 340 -350 475 -458 74 -59 140
-111 146 -116 31 -25 231 -156 304 -199 168 -98 479 -249 553 -267 15 -4 27
-11 27 -16 0 -5 3 -8 8 -7 6 2 117 -41 222 -85 14 -6 27 -11 30 -12 3 -1 100
-32 215 -70 116 -38 215 -69 220 -70 6 0 33 -8 62 -17 41 -13 88 -17 88 -8 0
1 7 3 15 5 93 21 492 153 607 201 48 20 135 55 193 79 234 96 570 265 592 299
4 6 8 8 8 4 0 -7 240 151 260 172 3 3 23 18 45 35 22 16 45 34 51 40 7 5 25
19 40 30 16 11 38 29 50 40 11 11 49 45 85 76 112 98 281 272 369 379 25 30
48 57 51 60 28 24 309 427 309 444 0 2 19 37 43 78 102 172 226 454 300 683
34 103 99 353 111 420 3 17 7 41 10 54 3 12 8 42 10 65 5 39 9 56 21 116 3 14
8 40 10 58 3 17 8 49 11 70 4 20 8 700 8 1510 l2 1472 -3233 0 -3234 0 4
-1442z"/>
</g>
</svg>
