<?xml version="1.0" standalone="no"?>
<!DOCTYPE svg PUBLIC "-//W3C//DTD SVG 20010904//EN"
 "http://www.w3.org/TR/2001/REC-SVG-20010904/DTD/svg10.dtd">
<svg version="1.0" xmlns="http://www.w3.org/2000/svg"
 width="700.000000pt" height="700.000000pt" viewBox="0 0 700.000000 700.000000"
 preserveAspectRatio="xMidYMid meet">
<metadata>
Created by potrace 1.14, written by Peter Selinger 2001-2017
</metadata>
<g transform="translate(0.000000,700.000000) scale(0.100000,-0.100000)"
fill="#000000" stroke="none">
<path d="M3 5368 c2 -898 6 -1649 10 -1668 4 -19 9 -59 13 -88 3 -29 7 -63 10
-75 4 -23 11 -63 19 -112 9 -60 16 -90 61 -283 29 -125 106 -364 165 -515 265
-671 712 -1272 1279 -1719 82 -64 255 -188 316 -225 10 -6 57 -35 104 -64 103
-64 395 -213 505 -258 44 -18 94 -38 110 -45 42 -19 474 -169 695 -243 41 -13
84 -28 95 -33 11 -5 43 -16 70 -24 45 -14 54 -14 95 0 51 18 186 65 540 187
427 147 671 257 932 416 14 9 48 29 75 45 44 27 265 180 295 205 286 234 437
376 588 551 36 41 67 77 70 80 39 39 216 279 291 395 205 315 403 743 496
1070 19 68 74 284 79 315 3 14 9 44 15 68 5 23 12 59 14 80 3 20 8 48 11 60 3
13 7 40 10 60 32 238 32 249 33 1855 l1 1597 -3500 0 -3501 0 4 -1632z"/>
</g>
</svg>
