<svg width="1293" height="337" viewBox="0 0 1293 337" fill="none" xmlns="http://www.w3.org/2000/svg">
<g clip-path="url(#clip0_138_660)">
<g clip-path="url(#clip1_138_660)">
<mask id="mask0_138_660" style="mask-type:luminance" maskUnits="userSpaceOnUse" x="0" y="34" width="151" height="303">
<path d="M151 34H0V337H151V34Z" fill="white"/>
</mask>
<g mask="url(#mask0_138_660)">
<path d="M37.9149 337H0V117.592C2.51148 81.8619 25.9884 51.1256 59.584 39.5873L75.8297 34V337H37.9149Z" fill="url(#paint0_linear_138_660)"/>
<path d="M113.415 337H75.8297V34L91.9342 39.5994C125.249 51.1377 148.511 81.874 151 117.604V337H113.415Z" fill="url(#paint1_linear_138_660)"/>
</g>
</g>
<g clip-path="url(#clip2_138_660)">
<mask id="mask1_138_660" style="mask-type:luminance" maskUnits="userSpaceOnUse" x="151" y="71" width="135" height="271">
<path d="M286 71H151V342H286V71Z" fill="white"/>
</mask>
<g mask="url(#mask1_138_660)">
<path d="M218.5 71L286 342H151L218.5 71Z" fill="#D9D9D9"/>
<path d="M218.5 71L286 342H151L218.5 71Z" fill="url(#paint2_linear_138_660)"/>
</g>
</g>
<g clip-path="url(#clip3_138_660)">
<mask id="mask2_138_660" style="mask-type:luminance" maskUnits="userSpaceOnUse" x="286" y="88" width="249" height="249">
<path d="M535 88H286V337H535V88Z" fill="white"/>
</mask>
<g mask="url(#mask2_138_660)">
<path d="M472.752 337H534.998V225.385C530.878 166.663 492.33 116.149 437.177 97.1788L410.498 88V337H472.752Z" fill="url(#paint3_linear_138_660)"/>
<path d="M348.247 337H410.501V88L383.822 97.1935C328.655 116.163 290.12 166.685 286 225.407L286 337H348.247Z" fill="url(#paint4_linear_138_660)"/>
<mask id="mask3_138_660" style="mask-type:alpha" maskUnits="userSpaceOnUse" x="410" y="229" width="125" height="108">
<path d="M534.997 229.452H410.458V337H534.997V229.452Z" fill="#D9D9D9"/>
</mask>
<g mask="url(#mask3_138_660)">
<path d="M549.714 229.451L495.057 267.631H488.251V264.528L538.401 229.451H532.48L488.251 260.346V229.451H481.81V264.848V267.631V269.033V274.073H485.836H488.251H503.07H549.714V267.631H512.291L549.714 241.489V229.451Z" fill="white"/>
<path d="M496.173 292.031H488.251H485.343H481.81V298.571V301.602V336.997H488.251V306.101L532.48 336.997H549.714L494.704 298.571H505.542L549.714 329.399V324.959L511.938 298.571H549.714V292.031H502.577H496.173Z" fill="white"/>
<path d="M457.408 260.479L412.989 229.451H395.755L450.412 267.63H439.128L395.755 237.295V241.489L433.178 267.63H395.755V274.073H442.4H448.338H457.408H459.633H464.045V267.63V265.115V229.451H457.408V260.479Z" fill="white"/>
<path d="M457.408 292.031H442.893H395.755V298.569H433.532L395.755 324.959V336.997L450.764 298.569H457.408V301.976L407.067 336.997H412.989L457.408 305.968V336.997H464.045V301.332V298.569V297.358V292.031H460.127H457.408Z" fill="white"/>
</g>
</g>
</g>
<g clip-path="url(#clip4_138_660)">
<mask id="mask4_138_660" style="mask-type:luminance" maskUnits="userSpaceOnUse" x="535" y="146" width="383" height="191">
<path d="M918 146H535V337H918V146Z" fill="white"/>
</mask>
<g mask="url(#mask4_138_660)">
<path fill-rule="evenodd" clip-rule="evenodd" d="M640.444 241.428C640.444 299.007 593.026 337 535 337V325.172V313.344C580.11 313.344 616.707 285.749 616.707 241.428H640.444Z" fill="url(#paint5_linear_138_660)"/>
<path d="M616.707 209.619L648.623 146L680.54 209.619H616.707Z" fill="url(#paint6_linear_138_660)"/>
<path d="M680.54 209.619H616.707V336.857H680.54V209.619Z" fill="#D9D9D9"/>
<path d="M680.54 209.619H616.707V336.857H680.54V209.619Z" fill="url(#paint7_linear_138_660)"/>
<path d="M726.5 243.337H680.54V267.512H726.5V243.337Z" fill="#D9D9D9"/>
<path d="M726.5 243.337H680.54V267.512H726.5V243.337Z" fill="url(#paint8_linear_138_660)"/>
<path fill-rule="evenodd" clip-rule="evenodd" d="M812.556 241.428C812.556 299.007 859.974 337 918 337V325.172V313.344C872.89 313.344 836.293 285.749 836.293 241.428H812.556Z" fill="url(#paint9_linear_138_660)"/>
<path d="M836.293 209.619L804.377 146L772.46 209.619H836.293Z" fill="url(#paint10_linear_138_660)"/>
<path d="M772.46 209.619H836.293V336.857H772.46V209.619Z" fill="#D9D9D9"/>
<path d="M772.46 209.619H836.293V336.857H772.46V209.619Z" fill="url(#paint11_linear_138_660)"/>
<path d="M726.5 243.337H772.46V267.512H726.5V243.337Z" fill="#D9D9D9"/>
<path d="M726.5 243.337H772.46V267.512H726.5V243.337Z" fill="url(#paint12_linear_138_660)"/>
</g>
</g>
<g clip-path="url(#clip5_138_660)">
<mask id="mask5_138_660" style="mask-type:luminance" maskUnits="userSpaceOnUse" x="918" y="76" width="261" height="261">
<path d="M1179 76H918V337H1179V76Z" fill="white"/>
</mask>
<g mask="url(#mask5_138_660)">
<path d="M1179 206.501C1179 134.433 1120.58 76 1048.5 76C976.422 76 918 134.423 918 206.501H1179Z" fill="url(#paint13_linear_138_660)"/>
<path d="M918 206.5C918 278.578 976.422 337 1048.5 337C1120.58 337 1179 278.578 1179 206.5H918Z" fill="url(#paint14_linear_138_660)"/>
</g>
</g>
<g clip-path="url(#clip6_138_660)">
<mask id="mask6_138_660" style="mask-type:luminance" maskUnits="userSpaceOnUse" x="1179" y="0" width="115" height="337">
<path d="M1294 0H1179V337H1294V0Z" fill="white"/>
</mask>
<g mask="url(#mask6_138_660)">
<path d="M1236.45 337H1293.95V224.667H1236.45V337Z" fill="url(#paint15_linear_138_660)"/>
<path d="M1236.5 224.667H1179V337H1236.5V224.667Z" fill="url(#paint16_linear_138_660)"/>
<path d="M1179 112.333V224.667H1294V112.333H1179ZM1285.11 169.263C1285.11 195.133 1263.36 216.099 1236.53 216.099H1236.48C1209.65 216.099 1187.9 195.133 1187.9 169.263V169.218C1187.9 143.348 1209.65 122.382 1236.48 122.382H1236.53C1263.36 122.382 1285.11 143.348 1285.11 169.218V169.263Z" fill="url(#paint17_linear_138_660)"/>
<path d="M1179 112.333L1236.5 0L1294 112.333H1179Z" fill="url(#paint18_linear_138_660)"/>
</g>
</g>
</g>
<defs>
<linearGradient id="paint0_linear_138_660" x1="37.9149" y1="337" x2="37.9149" y2="34" gradientUnits="userSpaceOnUse">
<stop stop-color="#C09AFF"/>
<stop offset="1" stop-color="#6100FF"/>
</linearGradient>
<linearGradient id="paint1_linear_138_660" x1="113.415" y1="337" x2="113.415" y2="34" gradientUnits="userSpaceOnUse">
<stop stop-color="#6100FF"/>
<stop offset="1" stop-color="#C09AFF"/>
</linearGradient>
<linearGradient id="paint2_linear_138_660" x1="218.5" y1="71" x2="218.5" y2="342" gradientUnits="userSpaceOnUse">
<stop stop-color="#B498FB"/>
<stop offset="1" stop-color="#5300F9"/>
</linearGradient>
<linearGradient id="paint3_linear_138_660" x1="472.752" y1="337" x2="472.752" y2="88" gradientUnits="userSpaceOnUse">
<stop stop-color="#6100FF"/>
<stop offset="1" stop-color="#C09AFF"/>
</linearGradient>
<linearGradient id="paint4_linear_138_660" x1="348.247" y1="337" x2="348.247" y2="88" gradientUnits="userSpaceOnUse">
<stop stop-color="#C09AFF"/>
<stop offset="1" stop-color="#6100FF"/>
</linearGradient>
<linearGradient id="paint5_linear_138_660" x1="585.233" y1="239.52" x2="585.233" y2="337.982" gradientUnits="userSpaceOnUse">
<stop stop-color="#B498FB"/>
<stop offset="1" stop-color="#5300F9"/>
</linearGradient>
<linearGradient id="paint6_linear_138_660" x1="648.623" y1="146" x2="648.623" y2="209.619" gradientUnits="userSpaceOnUse">
<stop stop-color="#B498FB"/>
<stop offset="1" stop-color="#5300F9"/>
</linearGradient>
<linearGradient id="paint7_linear_138_660" x1="648.623" y1="209.619" x2="648.623" y2="336.858" gradientUnits="userSpaceOnUse">
<stop stop-color="#B498FB"/>
<stop offset="1" stop-color="#5300F9"/>
</linearGradient>
<linearGradient id="paint8_linear_138_660" x1="768.311" y1="267.512" x2="680.54" y2="267.512" gradientUnits="userSpaceOnUse">
<stop stop-color="#B498FB"/>
<stop offset="1" stop-color="#5300F9"/>
</linearGradient>
<linearGradient id="paint9_linear_138_660" x1="867.767" y1="239.52" x2="867.767" y2="337.982" gradientUnits="userSpaceOnUse">
<stop stop-color="#B498FB"/>
<stop offset="1" stop-color="#5300F9"/>
</linearGradient>
<linearGradient id="paint10_linear_138_660" x1="804.377" y1="146" x2="804.377" y2="209.619" gradientUnits="userSpaceOnUse">
<stop stop-color="#B498FB"/>
<stop offset="1" stop-color="#5300F9"/>
</linearGradient>
<linearGradient id="paint11_linear_138_660" x1="804.377" y1="209.619" x2="804.377" y2="336.857" gradientUnits="userSpaceOnUse">
<stop stop-color="#B498FB"/>
<stop offset="1" stop-color="#5300F9"/>
</linearGradient>
<linearGradient id="paint12_linear_138_660" x1="684.689" y1="267.512" x2="772.46" y2="267.512" gradientUnits="userSpaceOnUse">
<stop stop-color="#B498FB"/>
<stop offset="1" stop-color="#5300F9"/>
</linearGradient>
<linearGradient id="paint13_linear_138_660" x1="918" y1="141.25" x2="1179" y2="141.25" gradientUnits="userSpaceOnUse">
<stop stop-color="#B498FB"/>
<stop offset="1" stop-color="#5300F9"/>
</linearGradient>
<linearGradient id="paint14_linear_138_660" x1="1179" y1="271.75" x2="918" y2="271.75" gradientUnits="userSpaceOnUse">
<stop stop-color="#B498FB"/>
<stop offset="1" stop-color="#5300F9"/>
</linearGradient>
<linearGradient id="paint15_linear_138_660" x1="1265.2" y1="337" x2="1265.2" y2="224.667" gradientUnits="userSpaceOnUse">
<stop stop-color="#B498FB"/>
<stop offset="1" stop-color="#5300F9"/>
</linearGradient>
<linearGradient id="paint16_linear_138_660" x1="1207.75" y1="224.667" x2="1207.75" y2="337" gradientUnits="userSpaceOnUse">
<stop stop-color="#B498FB"/>
<stop offset="1" stop-color="#5300F9"/>
</linearGradient>
<linearGradient id="paint17_linear_138_660" x1="1236.5" y1="113.805" x2="1236.5" y2="224.667" gradientUnits="userSpaceOnUse">
<stop stop-color="#B498FB"/>
<stop offset="1" stop-color="#5300F9"/>
</linearGradient>
<linearGradient id="paint18_linear_138_660" x1="1236.5" y1="0" x2="1236.5" y2="112.333" gradientUnits="userSpaceOnUse">
<stop stop-color="#B498FB"/>
<stop offset="1" stop-color="#5300F9"/>
</linearGradient>
<clipPath id="clip0_138_660">
<rect width="1293" height="337" fill="white"/>
</clipPath>
<clipPath id="clip1_138_660">
<rect width="151" height="303" fill="white" transform="translate(0 34)"/>
</clipPath>
<clipPath id="clip2_138_660">
<rect width="135" height="271" fill="white" transform="translate(151 71)"/>
</clipPath>
<clipPath id="clip3_138_660">
<rect width="249" height="249" fill="white" transform="translate(286 88)"/>
</clipPath>
<clipPath id="clip4_138_660">
<rect width="383" height="191" fill="white" transform="translate(535 146)"/>
</clipPath>
<clipPath id="clip5_138_660">
<rect width="261" height="261" fill="white" transform="translate(918 76)"/>
</clipPath>
<clipPath id="clip6_138_660">
<rect width="115" height="337" fill="white" transform="translate(1179)"/>
</clipPath>
</defs>
</svg>
