<svg width="32" height="16" viewBox="0 0 32 16" fill="none" xmlns="http://www.w3.org/2000/svg">
<g clip-path="url(#clip0_285_473)">
<mask id="mask0_285_473" style="mask-type:luminance" maskUnits="userSpaceOnUse" x="0" y="0" width="32" height="16">
<path d="M0 0V16H32V0H0Z" fill="white"/>
</mask>
<g mask="url(#mask0_285_473)">
<path d="M0 0V16H32V0H0Z" fill="#012169"/>
<path d="M0 0L32 16L0 0ZM32 0L0 16L32 0Z" fill="black"/>
<path d="M0 0L32 16M32 0L0 16" stroke="white" stroke-width="3.2"/>
<mask id="mask1_285_473" style="mask-type:luminance" maskUnits="userSpaceOnUse" x="0" y="0" width="32" height="16">
<path d="M16 8H32V16L16 8ZM16 8V16H0L16 8ZM16 8H0V0L16 8ZM16 8V0H32L16 8Z" fill="white"/>
</mask>
<g mask="url(#mask1_285_473)">
<path d="M0 0L32 16L0 0ZM32 0L0 16L32 0Z" fill="black"/>
<path d="M0 0L32 16M32 0L0 16" stroke="#C8102E" stroke-width="2.13333"/>
</g>
<path d="M16 0V16V0ZM0 8H32H0Z" fill="black"/>
<path d="M16 0V16M0 8H32" stroke="white" stroke-width="5.33333"/>
<path d="M16 0V16V0ZM0 8H32H0Z" fill="black"/>
<path d="M16 0V16M0 8H32" stroke="#C8102E" stroke-width="3.2"/>
</g>
</g>
<defs>
<clipPath id="clip0_285_473">
<rect width="32" height="16" rx="3" fill="white"/>
</clipPath>
</defs>
</svg>
