<svg width="150" height="150" viewBox="0 0 150 150" fill="none" xmlns="http://www.w3.org/2000/svg">
<g clip-path="url(#clip0_435_196)">
<path d="M112.479 72.4922L113.45 75.3813L116.37 74.285L114.629 76.8251L117.341 78.3655L114.219 78.6129L114.629 81.6496L112.479 79.4569L110.328 81.6496L110.738 78.6129L107.616 78.3655L110.328 76.8251L108.588 74.285L111.507 75.3813L112.479 72.4922Z" fill="white"/>
<path d="M112.479 27.4014L113.45 30.2898L116.37 29.1942L114.629 31.7341L117.341 33.2748L114.219 33.5226L114.629 36.5581L112.479 34.3664L110.328 36.5581L110.738 33.5226L107.616 33.2748L110.328 31.7341L108.588 29.1942L111.507 30.2898L112.479 27.4014Z" fill="white"/>
<path d="M127.935 41.189L128.907 44.0773L131.826 42.9816L130.086 45.5215L132.798 47.0624L129.676 47.3102L130.086 50.3455L127.935 48.1538L125.785 50.3455L126.195 47.3102L123.072 47.0624L125.785 45.5215L124.044 42.9816L126.963 44.0773L127.935 41.189Z" fill="white"/>
<path d="M119.44 54.7744L120.209 56.5671L122.204 56.7183L120.667 57.961L121.129 59.8503L119.44 58.8048L117.752 59.8503L118.214 57.961L116.676 56.7183L118.672 56.5671L119.44 54.7744Z" fill="white"/>
<path d="M37.3277 0.527832H-1.06415V67.4629C1.49675 102.649 25.2487 132.957 59.2917 144.352L75.7238 149.876V0.527832H37.3319H37.3277Z" fill="url(#paint0_linear_435_196)"/>
<path d="M37.3277 0.527832H-1.06415V67.4629C1.49675 102.649 25.2487 132.957 59.2917 144.352L75.7238 149.876V0.527832H37.3319H37.3277Z" fill="url(#paint1_linear_435_196)"/>
<path d="M114.116 0.527832H75.7236V149.83L92.1557 144.306C126.199 132.907 149.951 102.649 152.512 67.417V0.527832H114.12H114.116Z" fill="url(#paint2_linear_435_196)"/>
<path d="M114.116 0.527832H75.7236V149.83L92.1557 144.306C126.199 132.907 149.951 102.649 152.512 67.417V0.527832H114.12H114.116Z" fill="url(#paint3_linear_435_196)"/>
<path d="M49.0522 30.8862H41.8835V52.6842H45.1094V37.7044L67.1729 52.6842H75.7712L48.331 34.073H53.7596L75.7712 49.0022V46.8612L56.9335 34.073H75.7712V30.8862H49.048H49.0522Z" fill="white"/>
<path d="M29.7011 15.6083L7.53403 0.527832H-1.06415L26.2203 19.0427H20.589L-1.06415 4.36105V6.40131L17.6223 19.093H-1.06415V22.2291H32.9789V0.532089H29.6493V15.5621L29.7011 15.6126V15.6083Z" fill="white"/>
<path d="M29.7012 30.8862H-1.06415V34.073H17.7733L-1.06415 46.8612V52.6842L26.3758 34.073H29.7055V35.7143L4.62334 52.6842H7.59444L29.7616 37.6541V52.6842H33.0911V30.8862H29.7141H29.7012Z" fill="white"/>
<path d="M75.7238 0.527532L48.4393 19.0424H45.062V17.5477L70.0967 0.527532H67.1255L45.062 15.5072V0.527532H41.8362V22.1742H75.7238V19.0383H57.0373L75.7238 6.3466V0.523438V0.527532Z" fill="white"/>
<path d="M37.889 60.2998L40.1433 67.0677L46.9537 64.5784L42.9114 70.5025L49.156 74.134L41.8881 74.7289L42.9114 81.7444L37.8934 76.6184L32.8752 81.7444L33.8987 74.7289L26.6306 74.134L32.8752 70.5025L28.8331 64.5784L35.6434 67.0677L37.8978 60.2998H37.889Z" fill="white"/>
<path d="M112.527 72.4922L113.498 75.3813L116.418 74.285L114.677 76.8251L117.389 78.3655L114.267 78.6129L114.677 81.6496L112.527 79.4569L110.376 81.6496L110.786 78.6129L107.664 78.3655L110.376 76.8251L108.636 74.285L111.555 75.3813L112.527 72.4922Z" fill="white"/>
<path d="M95.1223 45.7192L96.0939 48.6077L99.0133 47.5119L97.2729 50.0518L99.9849 51.5929L96.8626 51.8405L97.2729 54.8758L95.1223 52.6843L92.9717 54.8758L93.3818 51.8405L90.2596 51.5929L92.9717 50.0518L91.2313 47.5119L94.1507 48.6077L95.1223 45.7192Z" fill="white"/>
<path d="M112.527 27.4014L113.498 30.2898L116.418 29.1942L114.677 31.7341L117.389 33.2748L114.267 33.5226L114.677 36.5581L112.527 34.3664L110.376 36.5581L110.786 33.5226L107.664 33.2748L110.376 31.7341L108.636 29.1942L111.555 30.2898L112.527 27.4014Z" fill="white"/>
<path d="M127.987 41.2397L128.958 44.1281L131.878 43.0324L130.137 45.5723L132.849 47.1131L129.727 47.361L130.137 50.3963L127.987 48.2046L125.836 50.3963L126.246 47.361L123.124 47.1131L125.836 45.5723L124.096 43.0324L127.015 44.1281L127.987 41.2397Z" fill="white"/>
<path d="M119.493 54.7744L120.261 56.5671L122.257 56.7183L120.719 57.961L121.181 59.8503L119.493 58.8048L117.804 59.8503L118.266 57.961L116.729 56.7183L118.724 56.5671L119.493 54.7744Z" fill="white"/>
</g>
<defs>
<linearGradient id="paint0_linear_435_196" x1="37.3277" y1="0.527832" x2="37.3277" y2="149.876" gradientUnits="userSpaceOnUse">
<stop stop-color="#5B53A3"/>
<stop offset="1" stop-color="#B09ACA"/>
</linearGradient>
<linearGradient id="paint1_linear_435_196" x1="37.3299" y1="0.527832" x2="37.3299" y2="149.827" gradientUnits="userSpaceOnUse">
<stop stop-color="#6100FF"/>
<stop offset="1" stop-color="#C09AFF"/>
</linearGradient>
<linearGradient id="paint2_linear_435_196" x1="114.116" y1="0.527832" x2="114.116" y2="149.83" gradientUnits="userSpaceOnUse">
<stop stop-color="#B09ACA"/>
<stop offset="1" stop-color="#5B53A3"/>
</linearGradient>
<linearGradient id="paint3_linear_435_196" x1="114.118" y1="0.527832" x2="114.118" y2="149.781" gradientUnits="userSpaceOnUse">
<stop stop-color="#C09AFF"/>
<stop offset="1" stop-color="#6100FF"/>
</linearGradient>
<clipPath id="clip0_435_196">
<rect width="150" height="150" fill="white"/>
</clipPath>
</defs>
</svg>
