<svg width="64" height="64" viewBox="0 0 64 64" fill="none" xmlns="http://www.w3.org/2000/svg">
<rect width="64" height="64" rx="32" fill="#CBF5E3"/>
<g clip-path="url(#clip0_65_3762)">
<path opacity="0.3" d="M21.334 40.0001H42.6673V26.6667H21.334V40.0001ZM32.0007 36.0001H40.0007V38.6667H32.0007V36.0001ZM24.1207 29.8801L26.0007 28.0001L31.334 33.3334L26.0007 38.6667L24.1207 36.7867L27.5607 33.3334L24.1207 29.8801Z" fill="#098551"/>
<path d="M40 36H32V38.6667H40V36Z" fill="#098551"/>
<path d="M42.667 21.3334H21.3337C19.8537 21.3334 18.667 22.5334 18.667 24V40C18.667 41.4667 19.8537 42.6667 21.3337 42.6667H42.667C44.1337 42.6667 45.3337 41.4667 45.3337 40V24C45.3337 22.5334 44.147 21.3334 42.667 21.3334ZM42.667 40H21.3337V26.6667H42.667V40Z" fill="#098551"/>
<path d="M26.0001 38.6667L31.3335 33.3333L26.0001 28L24.1201 29.88L27.5601 33.3333L24.1201 36.7867L26.0001 38.6667Z" fill="#098551"/>
</g>
<defs>
<clipPath id="clip0_65_3762">
<rect width="32" height="32" fill="white" transform="translate(16 16)"/>
</clipPath>
</defs>
</svg>
