<svg width="64" height="64" viewBox="0 0 64 64" fill="none" xmlns="http://www.w3.org/2000/svg">
<rect width="64" height="64" rx="32" fill="#FEE8D2"/>
<g clip-path="url(#clip0_65_3536)">
<g opacity="0.3">
<path d="M26.7598 37.3334C26.8798 37.0267 26.9331 36.8134 27.9731 36.4134C29.2664 35.9067 30.6264 35.6667 31.9998 35.6667C33.3731 35.6667 34.7331 35.9067 36.0264 36.4134C37.0531 36.8134 37.1064 37.0267 37.2398 37.3334H26.7598ZM31.9998 26.6667C32.7331 26.6667 33.3331 27.2667 33.3331 28C33.3331 28.7334 32.7331 29.3334 31.9998 29.3334C31.2664 29.3334 30.6664 28.7334 30.6664 28C30.6664 27.2667 31.2664 26.6667 31.9998 26.6667Z" fill="#912702"/>
</g>
<path d="M21.3333 33.3333C22.8 33.3333 24 32.1333 24 30.6667C24 29.2 22.8 28 21.3333 28C19.8667 28 18.6667 29.2 18.6667 30.6667C18.6667 32.1333 19.8667 33.3333 21.3333 33.3333ZM22.84 34.8C22.3467 34.72 21.8533 34.6667 21.3333 34.6667C20.0133 34.6667 18.76 34.9467 17.6267 35.44C16.64 35.8667 16 36.8267 16 37.9067V40H22V37.8533C22 36.7467 22.3067 35.7067 22.84 34.8ZM42.6667 33.3333C44.1333 33.3333 45.3333 32.1333 45.3333 30.6667C45.3333 29.2 44.1333 28 42.6667 28C41.2 28 40 29.2 40 30.6667C40 32.1333 41.2 33.3333 42.6667 33.3333ZM48 37.9067C48 36.8267 47.36 35.8667 46.3733 35.44C45.24 34.9467 43.9867 34.6667 42.6667 34.6667C42.1467 34.6667 41.6533 34.72 41.16 34.8C41.6933 35.7067 42 36.7467 42 37.8533V40H48V37.9067ZM37.6533 34.2C36.0933 33.5067 34.1733 33 32 33C29.8267 33 27.9067 33.52 26.3467 34.2C24.9067 34.84 24 36.28 24 37.8533V40H40V37.8533C40 36.28 39.0933 34.84 37.6533 34.2ZM26.76 37.3333C26.88 37.0267 26.9333 36.8133 27.9733 36.4133C29.2667 35.9067 30.6267 35.6667 32 35.6667C33.3733 35.6667 34.7333 35.9067 36.0267 36.4133C37.0533 36.8133 37.1067 37.0267 37.24 37.3333H26.76ZM32 26.6667C32.7333 26.6667 33.3333 27.2667 33.3333 28C33.3333 28.7333 32.7333 29.3333 32 29.3333C31.2667 29.3333 30.6667 28.7333 30.6667 28C30.6667 27.2667 31.2667 26.6667 32 26.6667ZM32 24C29.7867 24 28 25.7867 28 28C28 30.2133 29.7867 32 32 32C34.2133 32 36 30.2133 36 28C36 25.7867 34.2133 24 32 24Z" fill="#912702"/>
</g>
<defs>
<clipPath id="clip0_65_3536">
<rect width="32" height="32" fill="white" transform="translate(16 16)"/>
</clipPath>
</defs>
</svg>
