<svg width="64" height="64" viewBox="0 0 64 64" fill="none" xmlns="http://www.w3.org/2000/svg">
<rect width="64" height="64" rx="32" fill="#CBF5E3"/>
<g clip-path="url(#clip0_14408_41692)">
<path opacity="0.3" d="M21.3359 41.3334H42.6693V22.6667H21.3359V41.3334ZM33.8826 30.3334L35.7626 32.2267L39.9893 28L41.8826 29.8934L35.7626 36L32.0026 32.2134L33.8826 30.3334ZM22.6693 25.3334H29.3359V28H22.6693V25.3334ZM22.6693 30.6667H29.3359V33.3334H22.6693V30.6667ZM22.6693 36H29.3359V38.6667H22.6693V36Z" fill="#015C36"/>
<path d="M42.668 20H21.3346C19.868 20 18.668 21.2 18.668 22.6667V41.3333C18.668 42.8 19.868 44 21.3346 44H42.668C44.1346 44 45.3346 42.8 45.3346 41.3333V22.6667C45.3346 21.2 44.1346 20 42.668 20ZM42.668 41.3333H21.3346V22.6667H42.668V41.3333Z" fill="#015C36"/>
<path d="M41.88 29.8933L39.9867 28L35.76 32.2267L33.88 30.3333L32 32.2133L35.76 36L41.88 29.8933Z" fill="#015C36"/>
<path d="M29.3346 25.3333H22.668V28H29.3346V25.3333Z" fill="#015C36"/>
<path d="M29.3346 30.6667H22.668V33.3334H29.3346V30.6667Z" fill="#015C36"/>
<path d="M29.3346 36H22.668V38.6667H29.3346V36Z" fill="#015C36"/>
</g>
<defs>
<clipPath id="clip0_14408_41692">
<rect width="32" height="32" fill="white" transform="translate(16 16)"/>
</clipPath>
</defs>
</svg>
