<svg width="64" height="64" viewBox="0 0 64 64" fill="none" xmlns="http://www.w3.org/2000/svg">
<rect width="64" height="64" rx="32" fill="#F4E9FF"/>
<g clip-path="url(#clip0_65_3772)">
<path opacity="0.3" d="M21.334 41.3334H42.6673V22.6667H21.334V41.3334ZM33.8807 30.3334L35.7607 32.2267L39.9873 28L41.8807 29.8934L35.7607 36L32.0007 32.2134L33.8807 30.3334ZM22.6673 25.3334H29.334V28H22.6673V25.3334ZM22.6673 30.6667H29.334V33.3334H22.6673V30.6667ZM22.6673 36H29.334V38.6667H22.6673V36Z" fill="#5A30AD"/>
<path d="M42.667 20H21.3337C19.867 20 18.667 21.2 18.667 22.6667V41.3333C18.667 42.8 19.867 44 21.3337 44H42.667C44.1337 44 45.3337 42.8 45.3337 41.3333V22.6667C45.3337 21.2 44.1337 20 42.667 20ZM42.667 41.3333H21.3337V22.6667H42.667V41.3333Z" fill="#5A30AD"/>
<path d="M41.88 29.8933L39.9867 28L35.76 32.2267L33.88 30.3333L32 32.2133L35.76 36L41.88 29.8933Z" fill="#5A30AD"/>
<path d="M29.3337 25.3333H22.667V28H29.3337V25.3333Z" fill="#5A30AD"/>
<path d="M29.3337 30.6667H22.667V33.3334H29.3337V30.6667Z" fill="#5A30AD"/>
<path d="M29.3337 36H22.667V38.6667H29.3337V36Z" fill="#5A30AD"/>
</g>
<defs>
<clipPath id="clip0_65_3772">
<rect width="32" height="32" fill="white" transform="translate(16 16)"/>
</clipPath>
</defs>
</svg>
