<svg width="163" height="163" viewBox="0 0 163 163" fill="none" xmlns="http://www.w3.org/2000/svg">
<rect x="2" y="2" width="159" height="159" rx="22" fill="#FFFAF5" stroke="#912702" stroke-width="4" stroke-dasharray="8 8"/>
<path d="M120.929 89.2802C117.429 89.2802 115.669 86.7002 115.669 83.7602C115.669 80.8202 117.449 78.2402 120.929 78.2402C124.389 78.2402 126.169 80.8402 126.169 83.7602C126.169 86.7002 124.409 89.2802 120.929 89.2802ZM123.569 84.2202V83.3202C123.569 81.4402 122.409 80.3802 120.929 80.3802C119.429 80.3802 118.269 81.4802 118.269 83.3202V84.2202C118.269 86.0402 119.429 87.1402 120.929 87.1402C122.409 87.1402 123.569 86.0802 123.569 84.2202Z" fill="#912702"/>
<path d="M103.429 89.6602H105.989C106.129 90.4602 106.869 91.1402 108.249 91.1402C110.029 91.1402 110.949 90.1802 110.949 88.2402V86.8002H110.929C110.309 87.8802 109.269 88.5602 107.669 88.5602C104.729 88.5602 103.149 86.1402 103.149 83.3602C103.149 80.6602 104.689 78.2402 107.669 78.2402C109.409 78.2402 110.489 79.0202 111.069 80.1802H111.089V78.5202H113.549V88.0402C113.549 91.2402 111.649 93.1202 108.249 93.1202C105.289 93.1202 103.629 91.5802 103.429 89.6602ZM105.749 83.1802V83.6602C105.749 85.4202 106.909 86.4402 108.349 86.4402C109.789 86.4402 110.949 85.3802 110.949 83.6602V83.1802C110.949 81.4202 109.789 80.3802 108.349 80.3802C106.909 80.3802 105.749 81.3802 105.749 83.1802Z" fill="#912702"/>
<path d="M96.3586 89.2802C92.8586 89.2802 91.0986 86.7002 91.0986 83.7602C91.0986 80.8202 92.8786 78.2402 96.3586 78.2402C99.8186 78.2402 101.599 80.8402 101.599 83.7602C101.599 86.7002 99.8386 89.2802 96.3586 89.2802ZM98.9986 84.2202V83.3202C98.9986 81.4402 97.8386 80.3802 96.3586 80.3802C94.8586 80.3802 93.6986 81.4802 93.6986 83.3202V84.2202C93.6986 86.0402 94.8586 87.1402 96.3586 87.1402C97.8386 87.1402 98.9986 86.0802 98.9986 84.2202Z" fill="#912702"/>
<path d="M85.0161 86.2402V74.1602H87.6161V85.8402C87.6161 86.5402 87.9361 86.8602 88.6361 86.8602H90.3761V89.0002H87.8761C85.9361 89.0002 85.0161 88.0402 85.0161 86.2402Z" fill="#912702"/>
<path d="M72.3032 89V78.52H74.7832V80.36H74.8032C75.0632 79.48 75.9232 78.5 77.7832 78.5H79.0632V80.88H77.3032C75.5232 80.88 74.9032 81.74 74.9032 83.14V89H72.3032Z" fill="#912702"/>
<path d="M66.9766 84.68V78.52H69.5766V89H67.1366V87.32H67.1166C66.5566 88.62 65.3366 89.28 63.8566 89.28C61.6166 89.28 59.9766 87.72 59.9766 85.08V78.52H62.5766V84.8C62.5766 86.34 63.5966 87.08 64.7166 87.08C65.8966 87.08 66.9766 86.3 66.9766 84.68Z" fill="#912702"/>
<path d="M52.7258 89.2802C49.2258 89.2802 47.4658 86.7002 47.4658 83.7602C47.4658 80.8202 49.2458 78.2402 52.7258 78.2402C56.1858 78.2402 57.9658 80.8402 57.9658 83.7602C57.9658 86.7002 56.2058 89.2802 52.7258 89.2802ZM55.3658 84.2202V83.3202C55.3658 81.4402 54.2058 80.3802 52.7258 80.3802C51.2258 80.3802 50.0658 81.4802 50.0658 83.3202V84.2202C50.0658 86.0402 51.2258 87.1402 52.7258 87.1402C54.2058 87.1402 55.3658 86.0802 55.3658 84.2202Z" fill="#912702"/>
<path d="M41.1206 88.9999V83.6199L36.1406 74.9199H39.0606L42.4806 80.9999H42.5206L45.9206 74.9199H48.8006L43.8006 83.6199V88.9999H41.1206Z" fill="#912702"/>
</svg>
