<svg width="150" height="150" viewBox="0 0 150 150" fill="none" xmlns="http://www.w3.org/2000/svg">
<path d="M37.4979 0H0V67.238C2.4817 102.613 25.7042 133.043 58.9285 144.471L75 150V0H37.4979Z" fill="url(#paint0_linear_435_252)"/>
<path d="M112.502 0H75.0001V150L91.0715 144.462C124.305 133.034 147.518 102.599 150 67.2248V0H112.502Z" fill="url(#paint1_linear_435_252)"/>
<mask id="mask0_435_252" style="mask-type:alpha" maskUnits="userSpaceOnUse" x="0" y="0" width="76" height="65">
<path d="M75.0273 0.0078125H0.00366211V64.7959H75.0273V0.0078125Z" fill="#D9D9D9"/>
</mask>
<g mask="url(#mask0_435_252)">
<path d="M83.8921 0.00683594L50.9664 23.0067H46.8662V21.138L77.0772 0.00683594H73.5104L46.8662 18.6189V0.00683594H42.986V21.3303V23.0067V23.8519V26.888H45.4114H46.8662H55.7931H83.8921V23.0067H61.3482L83.8921 7.25895V0.00683594Z" fill="white"/>
<path d="M51.6381 37.707H46.8662H45.1142H42.986V41.6465V43.4725V64.7952H46.8662V46.183L73.5104 64.7952H83.8921L50.7534 41.6465H57.2825L83.8921 60.2184V57.543L61.1352 41.6465H83.8921V37.707H55.496H51.6381Z" fill="white"/>
<path d="M28.2853 18.6987L1.52703 0.00683594H-8.85474L24.0709 23.0067H17.2732L-8.85474 4.73222V7.25895L13.6892 23.0067H-8.85474V26.888H19.2442H22.8213H28.2853H29.6261H32.2833V23.0067V21.4918V0.00683594H28.2853V18.6987Z" fill="white"/>
<path d="M28.2852 37.707H19.5412H-8.85486V41.6465H13.9021L-8.85486 57.543V64.7952L24.2829 41.6465H28.2852V43.6983L-2.04076 64.7952H1.5269L28.2852 46.1032V64.7952H32.2832V43.3101V41.6465V40.9165V37.707H29.923H28.2852Z" fill="white"/>
</g>
<defs>
<linearGradient id="paint0_linear_435_252" x1="37.4979" y1="0" x2="37.4979" y2="150" gradientUnits="userSpaceOnUse">
<stop stop-color="#6100FF"/>
<stop offset="1" stop-color="#C09AFF"/>
</linearGradient>
<linearGradient id="paint1_linear_435_252" x1="112.502" y1="0" x2="112.502" y2="150" gradientUnits="userSpaceOnUse">
<stop stop-color="#C09AFF"/>
<stop offset="1" stop-color="#6100FF"/>
</linearGradient>
</defs>
</svg>
