<svg width="1382" height="456" viewBox="0 0 1382 456" fill="none" xmlns="http://www.w3.org/2000/svg">
<g clip-path="url(#clip0_138_397)">
<g clip-path="url(#clip1_138_397)">
<path d="M122.461 94L244.922 456.79H0L122.461 94Z" fill="#D9D9D9"/>
<path d="M122.461 94L244.922 456.79H0L122.461 94Z" fill="url(#paint0_linear_138_397)"/>
<path d="M285.742 214.93L408.203 456.79H163.281L285.742 214.93Z" fill="#D9D9D9"/>
<path d="M285.742 214.93L408.203 456.79H163.281L285.742 214.93Z" fill="url(#paint1_linear_138_397)"/>
</g>
<g clip-path="url(#clip2_138_397)">
<path d="M464.025 410.667H446.613V456.681H464.025V410.667Z" fill="url(#paint2_linear_138_397)"/>
<path d="M648.224 410.667H630.812V456.681H648.224V410.667Z" fill="url(#paint3_linear_138_397)"/>
<path d="M555.666 410.667H538.254V456.681H555.666V410.667Z" fill="url(#paint4_linear_138_397)"/>
<path d="M500.681 272.627C500.681 247.216 480.168 226.613 454.861 226.613C429.553 226.613 409.04 247.212 409.04 272.627H500.681Z" fill="url(#paint5_linear_138_397)"/>
<path d="M684.88 272.627C684.88 247.216 664.368 226.613 639.06 226.613C613.753 226.613 593.239 247.212 593.239 272.627H684.88Z" fill="url(#paint6_linear_138_397)"/>
<path d="M592.322 272.627C592.322 247.216 571.81 226.613 546.502 226.613C521.194 226.613 500.681 247.212 500.681 272.627H592.322Z" fill="url(#paint7_linear_138_397)"/>
<path d="M592.322 226.613C592.322 201.202 571.81 180.599 546.502 180.599C521.194 180.599 500.681 201.198 500.681 226.613H592.322Z" fill="url(#paint8_linear_138_397)"/>
<path d="M500.681 318.64C500.681 293.229 480.168 272.626 454.861 272.626C429.553 272.626 409.04 293.225 409.04 318.64H500.681Z" fill="url(#paint9_linear_138_397)"/>
<path d="M684.88 318.64C684.88 293.229 664.368 272.626 639.06 272.626C613.753 272.626 593.239 293.225 593.239 318.64H684.88Z" fill="url(#paint10_linear_138_397)"/>
<path d="M592.322 318.64C592.322 293.229 571.81 272.626 546.502 272.626C521.194 272.626 500.681 293.225 500.681 318.64H592.322Z" fill="url(#paint11_linear_138_397)"/>
<path d="M500.681 364.654C500.681 339.243 480.168 318.64 454.861 318.64C429.553 318.64 409.04 339.239 409.04 364.654H500.681Z" fill="url(#paint12_linear_138_397)"/>
<path d="M684.88 364.654C684.88 339.243 664.368 318.64 639.06 318.64C613.753 318.64 593.239 339.239 593.239 364.654H684.88Z" fill="url(#paint13_linear_138_397)"/>
<path d="M592.322 364.654C592.322 339.243 571.81 318.64 546.502 318.64C521.194 318.64 500.681 339.239 500.681 364.654H592.322Z" fill="url(#paint14_linear_138_397)"/>
<path d="M500.681 410.667C500.681 385.256 480.168 364.653 454.861 364.653C429.553 364.653 409.04 385.252 409.04 410.667H500.681Z" fill="url(#paint15_linear_138_397)"/>
<path d="M684.88 410.667C684.88 385.256 664.368 364.653 639.06 364.653C613.753 364.653 593.239 385.252 593.239 410.667H684.88Z" fill="url(#paint16_linear_138_397)"/>
<path d="M592.322 410.667C592.322 385.256 571.81 364.653 546.502 364.653C521.194 364.653 500.681 385.252 500.681 410.667H592.322Z" fill="url(#paint17_linear_138_397)"/>
</g>
<g clip-path="url(#clip3_138_397)">
<path d="M821 456.506C896.116 456.506 865.86 456.506 957 456.506C957 381.303 896.116 320.349 821 320.349V456.506Z" fill="url(#paint18_linear_138_397)"/>
<path d="M821 456.506C745.884 456.506 776.14 456.506 685 456.506C685 381.303 745.884 320.349 821 320.349V456.506Z" fill="url(#paint19_linear_138_397)"/>
</g>
<g clip-path="url(#clip4_138_397)">
<path d="M991.607 456.688H957.665V261.102C959.913 229.252 980.93 201.853 1011.01 191.567L1025.55 186.586V456.688H991.607Z" fill="url(#paint20_linear_138_397)"/>
<path d="M1059.2 456.688H1025.55V186.586L1039.97 191.578C1069.79 201.863 1090.62 229.262 1092.84 261.113V456.688H1059.2Z" fill="url(#paint21_linear_138_397)"/>
</g>
<g clip-path="url(#clip5_138_397)">
<path d="M1169.53 0L1215.16 456.736H1123.91L1169.53 0Z" fill="#D9D9D9"/>
<path d="M1169.53 0L1215.16 456.736H1123.91L1169.53 0Z" fill="url(#paint22_linear_138_397)"/>
<path d="M1245.57 152.246C1245.57 110.207 1211.53 76.1226 1169.53 76.1226C1127.54 76.1226 1093.5 110.201 1093.5 152.246H1245.57Z" fill="url(#paint23_linear_138_397)"/>
<path d="M1093.5 152.245C1093.5 194.289 1127.54 228.368 1169.53 228.368C1211.53 228.368 1245.57 194.289 1245.57 152.245H1093.5Z" fill="url(#paint24_linear_138_397)"/>
</g>
<g clip-path="url(#clip6_138_397)">
<path d="M1314.1 455.71H1382V320.245H1314.1V455.71Z" fill="url(#paint25_linear_138_397)"/>
<path d="M1314.16 320.246H1246.27V455.711H1314.16V320.246Z" fill="url(#paint26_linear_138_397)"/>
<path d="M1246.27 184.843V320.245H1382V184.843H1246.27ZM1371.51 253.462C1371.51 284.647 1345.84 309.918 1314.17 309.918H1314.11C1282.44 309.918 1256.77 284.647 1256.77 253.462V253.41C1256.77 222.226 1282.44 196.954 1314.11 196.954H1314.17C1345.84 196.954 1371.51 222.226 1371.51 253.41V253.462Z" fill="url(#paint27_linear_138_397)"/>
<path d="M1246.27 184.843L1314.13 49.4409L1382 184.843H1246.27Z" fill="url(#paint28_linear_138_397)"/>
</g>
</g>
<defs>
<linearGradient id="paint0_linear_138_397" x1="102.051" y1="94" x2="102.051" y2="456.79" gradientUnits="userSpaceOnUse">
<stop stop-color="#B498FB"/>
<stop offset="1" stop-color="#5300F9"/>
</linearGradient>
<linearGradient id="paint1_linear_138_397" x1="102.05" y1="93.9999" x2="102.05" y2="456.79" gradientUnits="userSpaceOnUse">
<stop stop-color="#5300F9"/>
<stop offset="1" stop-color="#B498FB"/>
</linearGradient>
<linearGradient id="paint2_linear_138_397" x1="463.81" y1="457.362" x2="433.052" y2="445.086" gradientUnits="userSpaceOnUse">
<stop stop-color="#B98AFB"/>
<stop offset="1" stop-color="#700CF9"/>
</linearGradient>
<linearGradient id="paint3_linear_138_397" x1="648.009" y1="457.362" x2="617.251" y2="445.086" gradientUnits="userSpaceOnUse">
<stop stop-color="#B98AFB"/>
<stop offset="1" stop-color="#700CF9"/>
</linearGradient>
<linearGradient id="paint4_linear_138_397" x1="555.451" y1="457.362" x2="524.693" y2="445.086" gradientUnits="userSpaceOnUse">
<stop stop-color="#B98AFB"/>
<stop offset="1" stop-color="#700CF9"/>
</linearGradient>
<linearGradient id="paint5_linear_138_397" x1="409.04" y1="249.62" x2="500.681" y2="249.62" gradientUnits="userSpaceOnUse">
<stop stop-color="#B498FB"/>
<stop offset="1" stop-color="#5300F9"/>
</linearGradient>
<linearGradient id="paint6_linear_138_397" x1="593.239" y1="249.62" x2="684.88" y2="249.62" gradientUnits="userSpaceOnUse">
<stop stop-color="#B498FB"/>
<stop offset="1" stop-color="#5300F9"/>
</linearGradient>
<linearGradient id="paint7_linear_138_397" x1="500.681" y1="249.62" x2="592.322" y2="249.62" gradientUnits="userSpaceOnUse">
<stop stop-color="#B498FB"/>
<stop offset="1" stop-color="#5300F9"/>
</linearGradient>
<linearGradient id="paint8_linear_138_397" x1="500.681" y1="203.606" x2="592.322" y2="203.606" gradientUnits="userSpaceOnUse">
<stop stop-color="#B498FB"/>
<stop offset="1" stop-color="#5300F9"/>
</linearGradient>
<linearGradient id="paint9_linear_138_397" x1="409.04" y1="295.633" x2="500.681" y2="295.633" gradientUnits="userSpaceOnUse">
<stop stop-color="#B498FB"/>
<stop offset="1" stop-color="#5300F9"/>
</linearGradient>
<linearGradient id="paint10_linear_138_397" x1="593.239" y1="295.633" x2="684.88" y2="295.633" gradientUnits="userSpaceOnUse">
<stop stop-color="#B498FB"/>
<stop offset="1" stop-color="#5300F9"/>
</linearGradient>
<linearGradient id="paint11_linear_138_397" x1="500.681" y1="295.633" x2="592.322" y2="295.633" gradientUnits="userSpaceOnUse">
<stop stop-color="#B498FB"/>
<stop offset="1" stop-color="#5300F9"/>
</linearGradient>
<linearGradient id="paint12_linear_138_397" x1="409.04" y1="341.647" x2="500.681" y2="341.647" gradientUnits="userSpaceOnUse">
<stop stop-color="#B498FB"/>
<stop offset="1" stop-color="#5300F9"/>
</linearGradient>
<linearGradient id="paint13_linear_138_397" x1="593.239" y1="341.647" x2="684.88" y2="341.647" gradientUnits="userSpaceOnUse">
<stop stop-color="#B498FB"/>
<stop offset="1" stop-color="#5300F9"/>
</linearGradient>
<linearGradient id="paint14_linear_138_397" x1="500.681" y1="341.647" x2="592.322" y2="341.647" gradientUnits="userSpaceOnUse">
<stop stop-color="#B498FB"/>
<stop offset="1" stop-color="#5300F9"/>
</linearGradient>
<linearGradient id="paint15_linear_138_397" x1="409.04" y1="387.66" x2="500.681" y2="387.66" gradientUnits="userSpaceOnUse">
<stop stop-color="#B498FB"/>
<stop offset="1" stop-color="#5300F9"/>
</linearGradient>
<linearGradient id="paint16_linear_138_397" x1="593.239" y1="387.66" x2="684.88" y2="387.66" gradientUnits="userSpaceOnUse">
<stop stop-color="#B498FB"/>
<stop offset="1" stop-color="#5300F9"/>
</linearGradient>
<linearGradient id="paint17_linear_138_397" x1="500.681" y1="387.66" x2="592.322" y2="387.66" gradientUnits="userSpaceOnUse">
<stop stop-color="#B498FB"/>
<stop offset="1" stop-color="#5300F9"/>
</linearGradient>
<linearGradient id="paint18_linear_138_397" x1="889.004" y1="456.506" x2="889.004" y2="320.349" gradientUnits="userSpaceOnUse">
<stop stop-color="#6100FF"/>
<stop offset="1" stop-color="#C09AFF"/>
</linearGradient>
<linearGradient id="paint19_linear_138_397" x1="819.32" y1="318.333" x2="687.314" y2="457.397" gradientUnits="userSpaceOnUse">
<stop stop-color="#700CF9"/>
<stop offset="1" stop-color="#B98AFB"/>
</linearGradient>
<linearGradient id="paint20_linear_138_397" x1="991.607" y1="456.688" x2="991.607" y2="186.586" gradientUnits="userSpaceOnUse">
<stop stop-color="#C09AFF"/>
<stop offset="1" stop-color="#6100FF"/>
</linearGradient>
<linearGradient id="paint21_linear_138_397" x1="1059.2" y1="456.688" x2="1059.2" y2="186.586" gradientUnits="userSpaceOnUse">
<stop stop-color="#6100FF"/>
<stop offset="1" stop-color="#C09AFF"/>
</linearGradient>
<linearGradient id="paint22_linear_138_397" x1="1169.53" y1="0" x2="1169.53" y2="456.736" gradientUnits="userSpaceOnUse">
<stop stop-color="#B498FB"/>
<stop offset="1" stop-color="#5300F9"/>
</linearGradient>
<linearGradient id="paint23_linear_138_397" x1="1093.5" y1="114.184" x2="1245.57" y2="114.184" gradientUnits="userSpaceOnUse">
<stop stop-color="#B498FB"/>
<stop offset="1" stop-color="#5300F9"/>
</linearGradient>
<linearGradient id="paint24_linear_138_397" x1="1245.57" y1="190.307" x2="1093.5" y2="190.307" gradientUnits="userSpaceOnUse">
<stop stop-color="#B498FB"/>
<stop offset="1" stop-color="#5300F9"/>
</linearGradient>
<linearGradient id="paint25_linear_138_397" x1="1348.05" y1="455.71" x2="1348.05" y2="320.245" gradientUnits="userSpaceOnUse">
<stop stop-color="#B498FB"/>
<stop offset="1" stop-color="#5300F9"/>
</linearGradient>
<linearGradient id="paint26_linear_138_397" x1="1280.21" y1="320.246" x2="1280.21" y2="455.711" gradientUnits="userSpaceOnUse">
<stop stop-color="#B498FB"/>
<stop offset="1" stop-color="#5300F9"/>
</linearGradient>
<linearGradient id="paint27_linear_138_397" x1="1314.13" y1="186.616" x2="1314.13" y2="320.245" gradientUnits="userSpaceOnUse">
<stop stop-color="#B498FB"/>
<stop offset="1" stop-color="#5300F9"/>
</linearGradient>
<linearGradient id="paint28_linear_138_397" x1="1314.13" y1="49.4409" x2="1314.13" y2="184.843" gradientUnits="userSpaceOnUse">
<stop stop-color="#B498FB"/>
<stop offset="1" stop-color="#5300F9"/>
</linearGradient>
<clipPath id="clip0_138_397">
<rect width="1382" height="456" fill="white"/>
</clipPath>
<clipPath id="clip1_138_397">
<rect width="409" height="363" fill="white" transform="translate(0 94)"/>
</clipPath>
<clipPath id="clip2_138_397">
<rect width="276" height="277" fill="white" transform="translate(409 180)"/>
</clipPath>
<clipPath id="clip3_138_397">
<rect width="272" height="137" fill="white" transform="translate(685 320)"/>
</clipPath>
<clipPath id="clip4_138_397">
<rect width="136" height="271" fill="white" transform="translate(957 186)"/>
</clipPath>
<clipPath id="clip5_138_397">
<rect width="153" height="457" fill="white" transform="translate(1093)"/>
</clipPath>
<clipPath id="clip6_138_397">
<rect width="136" height="407" fill="white" transform="translate(1246 49)"/>
</clipPath>
</defs>
</svg>
