
<svg width="1433" height="613" viewBox="0 0 1433 613" fill="none" xmlns="http://www.w3.org/2000/svg">
<g clip-path="url(#clip0_138_397)">
<g clip-path="url(#clip1_138_397)">
<path d="M122.461 1L244.922 613.645H0L122.461 1Z" fill="#D9D9D9"/>
<path d="M122.461 1L244.922 613.645H0L122.461 1Z" fill="url(#paint0_linear_138_397)"/>
<path d="M285.742 205.215L408.203 613.645H163.281L285.742 205.215Z" fill="#D9D9D9"/>
<path d="M285.742 205.215L408.203 613.645H163.281L285.742 205.215Z" fill="url(#paint1_linear_138_397)"/>
</g>
<g clip-path="url(#clip2_138_397)">
<path d="M464.025 567.667H446.613V613.681H464.025V567.667Z" fill="url(#paint2_linear_138_397)"/>
<path d="M648.224 567.667H630.812V613.681H648.224V567.667Z" fill="url(#paint3_linear_138_397)"/>
<path d="M555.666 567.667H538.254V613.681H555.666V567.667Z" fill="url(#paint4_linear_138_397)"/>
<path d="M500.681 429.627C500.681 404.216 480.168 383.613 454.861 383.613C429.553 383.613 409.04 404.212 409.04 429.627H500.681Z" fill="url(#paint5_linear_138_397)"/>
<path d="M684.88 429.627C684.88 404.216 664.368 383.613 639.06 383.613C613.753 383.613 593.239 404.212 593.239 429.627H684.88Z" fill="url(#paint6_linear_138_397)"/>
<path d="M592.322 429.627C592.322 404.216 571.81 383.613 546.502 383.613C521.194 383.613 500.681 404.212 500.681 429.627H592.322Z" fill="url(#paint7_linear_138_397)"/>
<path d="M592.322 383.613C592.322 358.202 571.81 337.599 546.502 337.599C521.194 337.599 500.681 358.198 500.681 383.613H592.322Z" fill="url(#paint8_linear_138_397)"/>
<path d="M500.681 475.64C500.681 450.229 480.168 429.626 454.861 429.626C429.553 429.626 409.04 450.225 409.04 475.64H500.681Z" fill="url(#paint9_linear_138_397)"/>
<path d="M684.88 475.64C684.88 450.229 664.368 429.626 639.06 429.626C613.753 429.626 593.239 450.225 593.239 475.64H684.88Z" fill="url(#paint10_linear_138_397)"/>
<path d="M592.322 475.64C592.322 450.229 571.81 429.626 546.502 429.626C521.194 429.626 500.681 450.225 500.681 475.64H592.322Z" fill="url(#paint11_linear_138_397)"/>
<path d="M500.681 521.654C500.681 496.243 480.168 475.64 454.861 475.64C429.553 475.64 409.04 496.239 409.04 521.654H500.681Z" fill="url(#paint12_linear_138_397)"/>
<path d="M684.88 521.654C684.88 496.243 664.368 475.64 639.06 475.64C613.753 475.64 593.239 496.239 593.239 521.654H684.88Z" fill="url(#paint13_linear_138_397)"/>
<path d="M592.322 521.654C592.322 496.243 571.81 475.64 546.502 475.64C521.194 475.64 500.681 496.239 500.681 521.654H592.322Z" fill="url(#paint14_linear_138_397)"/>
<path d="M500.681 567.667C500.681 542.256 480.168 521.653 454.861 521.653C429.553 521.653 409.04 542.252 409.04 567.667H500.681Z" fill="url(#paint15_linear_138_397)"/>
<path d="M684.88 567.667C684.88 542.256 664.368 521.653 639.06 521.653C613.753 521.653 593.239 542.252 593.239 567.667H684.88Z" fill="url(#paint16_linear_138_397)"/>
<path d="M592.322 567.667C592.322 542.256 571.81 521.653 546.502 521.653C521.194 521.653 500.681 542.252 500.681 567.667H592.322Z" fill="url(#paint17_linear_138_397)"/>
</g>
<g clip-path="url(#clip3_138_397)">
<path d="M821 613.506C896.116 613.506 865.86 613.506 957 613.506C957 538.303 896.116 477.349 821 477.349V613.506Z" fill="url(#paint18_linear_138_397)"/>
<path d="M821 613.506C745.884 613.506 776.14 613.506 685 613.506C685 538.303 745.884 477.349 821 477.349V613.506Z" fill="url(#paint19_linear_138_397)"/>
</g>
<g clip-path="url(#clip4_138_397)">
<path d="M991.607 613.688H957.665V418.102C959.913 386.252 980.93 358.853 1011.01 348.567L1025.55 343.586V613.688H991.607Z" fill="url(#paint20_linear_138_397)"/>
<path d="M1059.2 613.688H1025.55V343.586L1039.97 348.578C1069.79 358.863 1090.62 386.262 1092.84 418.113V613.688H1059.2Z" fill="url(#paint21_linear_138_397)"/>
</g>
<g clip-path="url(#clip5_138_397)">
<path d="M1195.04 5L1255.87 613.648H1134.21L1195.04 5Z" fill="#D9D9D9"/>
<path d="M1195.04 5L1255.87 613.648H1134.21L1195.04 5Z" fill="url(#paint22_linear_138_397)"/>
<path d="M1296.43 207.883C1296.43 151.863 1251.04 106.441 1195.04 106.441C1139.05 106.441 1093.66 151.855 1093.66 207.883H1296.43Z" fill="url(#paint23_linear_138_397)"/>
<path d="M1093.66 207.882C1093.66 263.91 1139.05 309.324 1195.04 309.324C1251.04 309.324 1296.43 263.91 1296.43 207.882H1093.66Z" fill="url(#paint24_linear_138_397)"/>
</g>
<g clip-path="url(#clip6_138_397)">
<path d="M1365.1 613.71H1433V478.245H1365.1V613.71Z" fill="url(#paint25_linear_138_397)"/>
<path d="M1365.16 478.246H1297.27V613.711H1365.16V478.246Z" fill="url(#paint26_linear_138_397)"/>
<path d="M1297.27 342.843V478.245H1433V342.843H1297.27ZM1422.51 411.462C1422.51 442.647 1396.84 467.918 1365.17 467.918H1365.11C1333.44 467.918 1307.77 442.647 1307.77 411.462V411.41C1307.77 380.226 1333.44 354.954 1365.11 354.954H1365.17C1396.84 354.954 1422.51 380.226 1422.51 411.41V411.462Z" fill="url(#paint27_linear_138_397)"/>
<path d="M1297.27 342.843L1365.13 207.441L1433 342.843H1297.27Z" fill="url(#paint28_linear_138_397)"/>
</g>
</g>
<defs>
<linearGradient id="paint0_linear_138_397" x1="102.051" y1="1" x2="102.051" y2="613.646" gradientUnits="userSpaceOnUse">
<stop stop-color="#B498FB"/>
<stop offset="1" stop-color="#5300F9"/>
</linearGradient>
<linearGradient id="paint1_linear_138_397" x1="102.05" y1="1.00011" x2="102.05" y2="613.645" gradientUnits="userSpaceOnUse">
<stop stop-color="#5300F9"/>
<stop offset="1" stop-color="#B498FB"/>
</linearGradient>
<linearGradient id="paint2_linear_138_397" x1="463.81" y1="614.362" x2="433.052" y2="602.086" gradientUnits="userSpaceOnUse">
<stop stop-color="#B98AFB"/>
<stop offset="1" stop-color="#700CF9"/>
</linearGradient>
<linearGradient id="paint3_linear_138_397" x1="648.009" y1="614.362" x2="617.251" y2="602.086" gradientUnits="userSpaceOnUse">
<stop stop-color="#B98AFB"/>
<stop offset="1" stop-color="#700CF9"/>
</linearGradient>
<linearGradient id="paint4_linear_138_397" x1="555.451" y1="614.362" x2="524.693" y2="602.086" gradientUnits="userSpaceOnUse">
<stop stop-color="#B98AFB"/>
<stop offset="1" stop-color="#700CF9"/>
</linearGradient>
<linearGradient id="paint5_linear_138_397" x1="409.04" y1="406.62" x2="500.681" y2="406.62" gradientUnits="userSpaceOnUse">
<stop stop-color="#B498FB"/>
<stop offset="1" stop-color="#5300F9"/>
</linearGradient>
<linearGradient id="paint6_linear_138_397" x1="593.239" y1="406.62" x2="684.88" y2="406.62" gradientUnits="userSpaceOnUse">
<stop stop-color="#B498FB"/>
<stop offset="1" stop-color="#5300F9"/>
</linearGradient>
<linearGradient id="paint7_linear_138_397" x1="500.681" y1="406.62" x2="592.322" y2="406.62" gradientUnits="userSpaceOnUse">
<stop stop-color="#B498FB"/>
<stop offset="1" stop-color="#5300F9"/>
</linearGradient>
<linearGradient id="paint8_linear_138_397" x1="500.681" y1="360.606" x2="592.322" y2="360.606" gradientUnits="userSpaceOnUse">
<stop stop-color="#B498FB"/>
<stop offset="1" stop-color="#5300F9"/>
</linearGradient>
<linearGradient id="paint9_linear_138_397" x1="409.04" y1="452.633" x2="500.681" y2="452.633" gradientUnits="userSpaceOnUse">
<stop stop-color="#B498FB"/>
<stop offset="1" stop-color="#5300F9"/>
</linearGradient>
<linearGradient id="paint10_linear_138_397" x1="593.239" y1="452.633" x2="684.88" y2="452.633" gradientUnits="userSpaceOnUse">
<stop stop-color="#B498FB"/>
<stop offset="1" stop-color="#5300F9"/>
</linearGradient>
<linearGradient id="paint11_linear_138_397" x1="500.681" y1="452.633" x2="592.322" y2="452.633" gradientUnits="userSpaceOnUse">
<stop stop-color="#B498FB"/>
<stop offset="1" stop-color="#5300F9"/>
</linearGradient>
<linearGradient id="paint12_linear_138_397" x1="409.04" y1="498.647" x2="500.681" y2="498.647" gradientUnits="userSpaceOnUse">
<stop stop-color="#B498FB"/>
<stop offset="1" stop-color="#5300F9"/>
</linearGradient>
<linearGradient id="paint13_linear_138_397" x1="593.239" y1="498.647" x2="684.88" y2="498.647" gradientUnits="userSpaceOnUse">
<stop stop-color="#B498FB"/>
<stop offset="1" stop-color="#5300F9"/>
</linearGradient>
<linearGradient id="paint14_linear_138_397" x1="500.681" y1="498.647" x2="592.322" y2="498.647" gradientUnits="userSpaceOnUse">
<stop stop-color="#B498FB"/>
<stop offset="1" stop-color="#5300F9"/>
</linearGradient>
<linearGradient id="paint15_linear_138_397" x1="409.04" y1="544.66" x2="500.681" y2="544.66" gradientUnits="userSpaceOnUse">
<stop stop-color="#B498FB"/>
<stop offset="1" stop-color="#5300F9"/>
</linearGradient>
<linearGradient id="paint16_linear_138_397" x1="593.239" y1="544.66" x2="684.88" y2="544.66" gradientUnits="userSpaceOnUse">
<stop stop-color="#B498FB"/>
<stop offset="1" stop-color="#5300F9"/>
</linearGradient>
<linearGradient id="paint17_linear_138_397" x1="500.681" y1="544.66" x2="592.322" y2="544.66" gradientUnits="userSpaceOnUse">
<stop stop-color="#B498FB"/>
<stop offset="1" stop-color="#5300F9"/>
</linearGradient>
<linearGradient id="paint18_linear_138_397" x1="889.004" y1="613.506" x2="889.004" y2="477.349" gradientUnits="userSpaceOnUse">
<stop stop-color="#6100FF"/>
<stop offset="1" stop-color="#C09AFF"/>
</linearGradient>
<linearGradient id="paint19_linear_138_397" x1="819.32" y1="475.333" x2="687.314" y2="614.397" gradientUnits="userSpaceOnUse">
<stop stop-color="#700CF9"/>
<stop offset="1" stop-color="#B98AFB"/>
</linearGradient>
<linearGradient id="paint20_linear_138_397" x1="991.607" y1="613.688" x2="991.607" y2="343.586" gradientUnits="userSpaceOnUse">
<stop stop-color="#C09AFF"/>
<stop offset="1" stop-color="#6100FF"/>
</linearGradient>
<linearGradient id="paint21_linear_138_397" x1="1059.2" y1="613.688" x2="1059.2" y2="343.586" gradientUnits="userSpaceOnUse">
<stop stop-color="#6100FF"/>
<stop offset="1" stop-color="#C09AFF"/>
</linearGradient>
<linearGradient id="paint22_linear_138_397" x1="1195.04" y1="5" x2="1195.04" y2="613.648" gradientUnits="userSpaceOnUse">
<stop stop-color="#B498FB"/>
<stop offset="1" stop-color="#5300F9"/>
</linearGradient>
<linearGradient id="paint23_linear_138_397" x1="1093.66" y1="157.162" x2="1296.43" y2="157.162" gradientUnits="userSpaceOnUse">
<stop stop-color="#B498FB"/>
<stop offset="1" stop-color="#5300F9"/>
</linearGradient>
<linearGradient id="paint24_linear_138_397" x1="1296.43" y1="258.603" x2="1093.66" y2="258.603" gradientUnits="userSpaceOnUse">
<stop stop-color="#B498FB"/>
<stop offset="1" stop-color="#5300F9"/>
</linearGradient>
<linearGradient id="paint25_linear_138_397" x1="1399.05" y1="613.71" x2="1399.05" y2="478.245" gradientUnits="userSpaceOnUse">
<stop stop-color="#B498FB"/>
<stop offset="1" stop-color="#5300F9"/>
</linearGradient>
<linearGradient id="paint26_linear_138_397" x1="1331.21" y1="478.246" x2="1331.21" y2="613.711" gradientUnits="userSpaceOnUse">
<stop stop-color="#B498FB"/>
<stop offset="1" stop-color="#5300F9"/>
</linearGradient>
<linearGradient id="paint27_linear_138_397" x1="1365.13" y1="344.616" x2="1365.13" y2="478.245" gradientUnits="userSpaceOnUse">
<stop stop-color="#B498FB"/>
<stop offset="1" stop-color="#5300F9"/>
</linearGradient>
<linearGradient id="paint28_linear_138_397" x1="1365.13" y1="207.441" x2="1365.13" y2="342.843" gradientUnits="userSpaceOnUse">
<stop stop-color="#B498FB"/>
<stop offset="1" stop-color="#5300F9"/>
</linearGradient>
<clipPath id="clip0_138_397">
<rect width="1433" height="613" fill="white"/>
</clipPath>
<clipPath id="clip1_138_397">
<rect width="409" height="613" fill="white" transform="translate(0 1)"/>
</clipPath>
<clipPath id="clip2_138_397">
<rect width="276" height="277" fill="white" transform="translate(409 337)"/>
</clipPath>
<clipPath id="clip3_138_397">
<rect width="272" height="137" fill="white" transform="translate(685 477)"/>
</clipPath>
<clipPath id="clip4_138_397">
<rect width="136" height="271" fill="white" transform="translate(957 343)"/>
</clipPath>
<clipPath id="clip5_138_397">
<rect width="204" height="609" fill="white" transform="translate(1093 5)"/>
</clipPath>
<clipPath id="clip6_138_397">
<rect width="136" height="407" fill="white" transform="translate(1297 207)"/>
</clipPath>
</defs>
</svg>
