<svg width="120" height="48" viewBox="0 0 120 48" fill="none" xmlns="http://www.w3.org/2000/svg">
<g clip-path="url(#clip0_2023_12337)">
<path d="M12.1996 0H0.200195V21.5161C0.994351 32.8361 8.42568 42.5737 19.0575 46.2306L24.2005 48V0H12.1996Z" fill="url(#paint0_linear_2023_12337)"/>
<path d="M36.2011 0H24.2002V48L29.3431 46.2278C39.9778 42.5709 47.4064 32.8317 48.2005 21.512V0H36.2011Z" fill="url(#paint1_linear_2023_12337)"/>
<path d="M11.7302 4.455L10.9702 3.9H11.9102L12.2002 3L12.4902 3.9H13.4302L12.6702 4.455L12.9602 5.36L12.2002 4.8L11.4402 5.36L11.7302 4.455ZM12.6702 20.1L12.9602 21L12.2002 20.445L11.4402 21L11.7302 20.1L10.9702 19.545H11.9102L12.2002 18.64L12.4902 19.545H13.4302L12.6702 20.1ZM4.43019 12.6L3.6702 13.16L3.9602 12.26L3.2002 11.72H4.14019L4.43019 10.82L4.7202 11.72H5.6652L4.9002 12.28L5.1902 13.18L4.43019 12.62V12.6ZM8.7852 5.5L9.0752 6.4L8.3152 5.85L7.55519 6.405L7.8452 5.505L7.0852 4.95H8.0252L8.3152 4.05L8.6052 4.95H9.5452L8.7852 5.5ZM5.2002 7.81L5.4902 6.91L5.7852 7.81H6.7002L5.9402 8.37L6.2302 9.27L5.4652 8.71L4.7002 9.27L4.9902 8.37L4.2302 7.81H5.2002ZM4.2402 15.63H5.2002L5.4902 14.73L5.7852 15.63H6.7002L5.9402 16.19L6.2302 17.09L5.4652 16.535L4.7002 17.09L4.9902 16.19L4.2302 15.63H4.2402ZM7.8452 19.05L7.0852 18.5H8.0252L8.3152 17.6L8.6052 18.5H9.5452L8.7852 19.05L9.0752 19.95L8.3152 19.395L7.55519 19.95L7.8452 19.05ZM20.4402 12.28L20.7302 13.18L19.9702 12.62L19.2002 13.18L19.4902 12.28L18.7252 11.72H19.7002L19.9902 10.82L20.2802 11.72H21.2002L20.4402 12.28ZM15.6152 5.5L14.8552 4.95H15.7952L16.0852 4.05L16.3752 4.95H17.3152L16.5552 5.5L16.8452 6.4L16.0852 5.85L15.3252 6.405L15.6152 5.505V5.5ZM18.6152 7.805L18.9102 6.905L19.2002 7.805H20.1402L19.4002 8.37L19.6902 9.27L18.9302 8.71L18.1652 9.27L18.4552 8.37L17.7002 7.81L18.6152 7.805ZM19.2002 15.63H20.1402L19.4002 16.19L19.6902 17.09L18.9302 16.535L18.1652 17.09L18.4552 16.19L17.7002 15.63H18.6402L18.9352 14.73L19.2252 15.63H19.2002ZM17.3152 18.5L16.5552 19.05L16.8452 19.95L16.0852 19.395L15.3252 19.95L15.6152 19.05L14.8552 18.5H15.7952L16.0852 17.6L16.3752 18.5H17.3152Z" fill="white"/>
<path d="M62.735 16.8866C59.9336 16.8866 58.0659 15.4389 58.0659 13.2917H60.6187C60.6187 14.3659 61.4277 14.8952 62.766 14.8952C64.1042 14.8952 64.7739 14.3195 64.7739 13.5724C64.7739 12.7479 64.2291 12.5767 63.0931 12.4054L61.7238 12.2031C59.7158 11.907 58.3002 10.9731 58.3002 8.87233C58.3002 6.97378 59.9347 5.44873 62.7206 5.44873C65.5066 5.44873 67.1566 6.98925 67.1875 8.82593H64.6347C64.6347 8.017 64.0744 7.44124 62.7052 7.44124C61.336 7.44124 60.853 8.03247 60.853 8.65577C60.853 9.48017 61.4288 9.71441 62.4875 9.87025L63.8103 10.0571C65.7553 10.3377 67.3434 11.1312 67.3434 13.3569C67.3434 15.5826 65.4757 16.8899 62.7362 16.8899L62.735 16.8866Z" fill="#201F1E"/>
<path d="M71.2454 7.87556H67.8682V5.69629H77.1444V7.87556H73.7672V16.6535H71.2465V7.87556H71.2454Z" fill="#201F1E"/>
<path d="M83.8643 16.6535L83.1795 14.6764H78.7743L78.1047 16.6535H75.5054L79.5678 5.69629H82.4939L86.5563 16.6535H83.8643ZM80.9379 8.34303L79.5214 12.4983H82.4171L80.9691 8.34303H80.9379Z" fill="#201F1E"/>
<path d="M87.4258 16.6535V5.69629H90.305L94.6946 12.8397H94.7098V5.69629H97.1066V16.6535H94.3978L89.885 9.16747H89.869V16.6535H87.4258Z" fill="#201F1E"/>
<path d="M103.184 5.69642C106.546 5.69642 108.491 8.10886 108.491 11.1745C108.491 14.24 106.561 16.6525 103.184 16.6525H98.7954V5.69531H103.184V5.69642ZM103.184 7.87569H101.316V14.4743H103.184C104.678 14.4743 105.908 13.4465 105.908 11.6109V10.7236C105.908 8.9023 104.678 7.87569 103.184 7.87569Z" fill="#201F1E"/>
<path d="M57.8003 18.5367H60.4614L62.36 25.5719H62.3909L64.3834 18.5059H66.671L68.6945 25.6338H68.7254L70.6085 18.5367H73.0519L69.9233 29.5094H67.5418L65.4256 22.3505H65.3946L63.2938 29.5094H61.0372L57.8003 18.5367Z" fill="#201F1E"/>
<path d="M73.9448 18.5366H76.4667V29.4938H73.9448V18.5366Z" fill="#201F1E"/>
<path d="M80.9571 20.7149H77.5796V18.5356H86.8555V20.7149H83.4787V29.4928H80.9571V20.7149Z" fill="#201F1E"/>
<path d="M87.9731 18.5366H90.4947V22.8013H95.0707V18.5366H97.5931V29.4938H95.0707V24.9805H90.4947V29.4938H87.9731V18.5366Z" fill="#201F1E"/>
<path d="M63.3562 40.357C64.7574 40.357 65.395 39.5635 65.5354 38.7225H68.1656C67.7921 41.0255 66.0018 42.5517 63.4501 42.5517C60.011 42.5517 58.1743 40.0774 58.1743 36.8549C58.1743 33.6324 60.0265 31.1426 63.4501 31.1426C65.9874 31.1426 67.7921 32.6986 68.1346 34.8315H65.4735C65.3022 33.9595 64.6016 33.3374 63.3573 33.3374C61.925 33.3374 60.7581 34.4424 60.7581 36.435V37.2594C60.7581 39.2519 61.925 40.357 63.3573 40.357H63.3562Z" fill="#201F1E"/>
<path d="M69.3239 42.3331V31.376H74.5068C77.0906 31.376 78.4598 32.8856 78.4598 34.8626C78.4598 36.7148 77.2928 38.0066 75.098 38.1625L79.2533 42.3331H75.7667L71.8446 38.2553V42.3331H69.3228H69.3239ZM75.907 34.9875V34.8317C75.907 33.9442 75.3776 33.4933 74.4284 33.4933H71.8446V36.3103H74.4284C75.3776 36.3103 75.907 35.8428 75.907 34.9875Z" fill="#201F1E"/>
<path d="M82.3136 42.3331V38.2553L78.4688 31.376H81.1928L83.5896 35.8119H83.6208L86.0176 31.376H88.7096L84.8344 38.2553V42.3331H82.312H82.3136Z" fill="#201F1E"/>
<path d="M89.5547 42.3331V31.376H94.7227C97.3059 31.376 98.6755 32.901 98.6755 34.8935C98.6755 36.8861 97.3059 38.4111 94.7227 38.4111H92.0771V42.3331H89.5547ZM96.1227 34.972V34.8161C96.1227 33.9597 95.5931 33.5243 94.6443 33.5243H92.0755V36.2639H94.6443C95.5931 36.2639 96.1227 35.813 96.1227 34.972Z" fill="#201F1E"/>
<path d="M102.585 33.5553H99.2075V31.376H108.484V33.5553H105.107V42.3331H102.585V33.5553Z" fill="#201F1E"/>
<path d="M114.094 42.5508C110.716 42.5508 108.786 40.061 108.786 36.8539C108.786 33.6469 110.73 31.1416 114.094 31.1416C117.456 31.1416 119.4 33.6624 119.4 36.8539C119.4 40.0455 117.47 42.5508 114.094 42.5508ZM114.094 40.356C115.587 40.356 116.818 39.2509 116.818 37.2584V36.434C116.818 34.4415 115.587 33.3364 114.094 33.3364C112.599 33.3364 111.37 34.4415 111.37 36.434V37.2584C111.37 39.2509 112.599 40.356 114.094 40.356Z" fill="#201F1E"/>
</g>
<defs>
<linearGradient id="paint0_linear_2023_12337" x1="12.1996" y1="0" x2="12.1996" y2="48" gradientUnits="userSpaceOnUse">
<stop stop-color="#6100FF"/>
<stop offset="1" stop-color="#E5D6FF"/>
</linearGradient>
<linearGradient id="paint1_linear_2023_12337" x1="36.2011" y1="0" x2="36.2011" y2="48" gradientUnits="userSpaceOnUse">
<stop stop-color="#E5D6FF"/>
<stop offset="1" stop-color="#6100FF"/>
</linearGradient>
<clipPath id="clip0_2023_12337">
<rect width="119.2" height="48" fill="white" transform="translate(0.200195)"/>
</clipPath>
</defs>
</svg>
