<svg width="149" height="60" viewBox="0 0 149 60" fill="none" xmlns="http://www.w3.org/2000/svg">
<path d="M78.1684 20.2973C74.6666 20.2973 72.332 18.4877 72.332 15.8037H75.523C75.523 17.1464 76.5342 17.8081 78.2071 17.8081C79.8799 17.8081 80.717 17.0884 80.717 16.1546C80.717 15.124 80.036 14.9099 78.616 14.6958L76.9044 14.443C74.3944 14.0728 72.6249 12.9055 72.6249 10.2795C72.6249 7.90631 74.668 6 78.1504 6C81.6329 6 83.6953 7.92565 83.734 10.2215H80.543C80.543 9.21034 79.8426 8.49064 78.1311 8.49064C76.4196 8.49064 75.8159 9.22968 75.8159 10.0088C75.8159 11.0393 76.5356 11.3321 77.859 11.5269L79.5125 11.7604C81.9437 12.1112 83.9288 13.1031 83.9288 15.8852C83.9288 18.6673 81.5942 20.3015 78.1698 20.3015L78.1684 20.2973Z" fill="#201F1E"/>
<path d="M88.8065 9.03352H84.585V6.30943H96.1803V9.03352H91.9588V20.0059H88.8079V9.03352H88.8065Z" fill="#201F1E"/>
<path d="M104.58 20.0059L103.724 17.5346H98.2175L97.3804 20.0059H94.1313L99.2093 6.30943H102.867L107.945 20.0059H104.58ZM100.922 9.61785L99.1513 14.8119H102.771L100.961 9.61785H100.922Z" fill="#201F1E"/>
<path d="M109.032 20.0059V6.30943H112.631L118.118 15.2387H118.137V6.30943H121.133V20.0059H117.747L112.106 10.6484H112.086V20.0059H109.032Z" fill="#201F1E"/>
<path d="M128.73 6.30944C132.932 6.30944 135.363 9.325 135.363 13.157C135.363 16.9889 132.951 20.0045 128.73 20.0045H123.244V6.30806H128.73V6.30944ZM128.73 9.03353H126.395V17.2818H128.73C130.597 17.2818 132.135 15.9971 132.135 13.7026V12.5934C132.135 10.3168 130.597 9.03353 128.73 9.03353Z" fill="#201F1E"/>
<path d="M72 22.3597H75.3264L77.6996 31.1536H77.7383L80.2289 22.3211H83.0884L85.6177 31.231H85.6564L88.0103 22.3597H91.0645L87.1538 36.0755H84.1769L81.5316 27.1269H81.4929L78.8669 36.0755H76.0461L72 22.3597Z" fill="#201F1E"/>
<path d="M92.1807 22.3597H95.333V36.0562H92.1807V22.3597Z" fill="#201F1E"/>
<path d="M100.946 25.0825H96.7241V22.3584H108.319V25.0825H104.098V36.0548H100.946V25.0825Z" fill="#201F1E"/>
<path d="M109.716 22.3597H112.868V27.6905H118.588V22.3597H121.741V36.0562H118.588V30.4146H112.868V36.0562H109.716V22.3597Z" fill="#201F1E"/>
<path d="M78.9451 49.6352C80.6967 49.6352 81.4937 48.6434 81.6692 47.5921H84.9569C84.49 50.4709 82.2521 52.3786 79.0625 52.3786C74.7636 52.3786 72.4678 49.2857 72.4678 45.2576C72.4678 41.2295 74.783 38.1172 79.0625 38.1172C82.2342 38.1172 84.49 40.0622 84.9182 42.7283H81.5918C81.3777 41.6384 80.5019 40.8607 78.9465 40.8607C77.1562 40.8607 75.6975 42.242 75.6975 44.7327V45.7632C75.6975 48.2538 77.1562 49.6352 78.9465 49.6352H78.9451Z" fill="#201F1E"/>
<path d="M86.4047 52.1051V38.4087H92.8834C96.1131 38.4087 97.8246 40.2957 97.8246 42.767C97.8246 45.0822 96.3659 46.697 93.6224 46.8918L98.8165 52.1051H94.4582L89.5556 47.0078V52.1051H86.4033H86.4047ZM94.6336 42.9231V42.7283C94.6336 41.619 93.9719 41.0554 92.7853 41.0554H89.5556V44.5766H92.7853C93.9719 44.5766 94.6336 43.9922 94.6336 42.9231Z" fill="#201F1E"/>
<path d="M102.642 52.1051V47.0078L97.8359 38.4087H101.241L104.237 43.9536H104.276L107.272 38.4087H110.637L105.793 47.0078V52.1051H102.64H102.642Z" fill="#201F1E"/>
<path d="M111.693 52.1051V38.4087H118.153C121.382 38.4087 123.094 40.315 123.094 42.8056C123.094 45.2963 121.382 47.2026 118.153 47.2026H114.846V52.1051H111.693ZM119.903 42.9037V42.7089C119.903 41.6384 119.241 41.0941 118.055 41.0941H114.844V44.5186H118.055C119.241 44.5186 119.903 43.955 119.903 42.9037Z" fill="#201F1E"/>
<path d="M127.981 41.1328H123.759V38.4087H135.355V41.1328H131.133V52.1051H127.981V41.1328Z" fill="#201F1E"/>
<path d="M142.367 52.3773C138.145 52.3773 135.732 49.265 135.732 45.2562C135.732 41.2474 138.163 38.1158 142.367 38.1158C146.57 38.1158 149 41.2668 149 45.2562C149 49.2457 146.588 52.3773 142.367 52.3773ZM142.367 49.6338C144.234 49.6338 145.772 48.2524 145.772 45.7618V44.7313C145.772 42.2407 144.234 40.8593 142.367 40.8593C140.499 40.8593 138.962 42.2407 138.962 44.7313V45.7618C138.962 48.2524 140.499 49.6338 142.367 49.6338Z" fill="#201F1E"/>
<path d="M14.9991 0H0V26.8953C0.992679 41.045 10.2817 53.2172 23.5713 57.7882L30 60V0H14.9991Z" fill="url(#paint0_linear_134_1245)"/>
<path d="M45.0009 0H30V60L36.4287 57.7846C49.7218 53.2136 59.0073 41.0396 60 26.8899V0H45.0009Z" fill="url(#paint1_linear_134_1245)"/>
<g clip-path="url(#clip0_134_1245)">
<rect width="30" height="15" fill="#670AFF"/>
<mask id="mask0_134_1245" style="mask-type:luminance" maskUnits="userSpaceOnUse" x="0" y="0" width="30" height="15">
<path d="M0 0V15H30V0H0Z" fill="white"/>
</mask>
<g mask="url(#mask0_134_1245)">
<path d="M0 0L30 15L0 0ZM30 0L0 15L30 0Z" fill="black"/>
<path d="M0 0L30 15M30 0L0 15" stroke="white" stroke-width="4"/>
<mask id="mask1_134_1245" style="mask-type:luminance" maskUnits="userSpaceOnUse" x="0" y="0" width="30" height="15">
<path d="M15 7.5H30V15L15 7.5ZM15 7.5V15H0L15 7.5ZM15 7.5H0V0L15 7.5ZM15 7.5V0H30L15 7.5Z" fill="white"/>
</mask>
<g mask="url(#mask1_134_1245)">
<path d="M0 0L30 15L0 0ZM30 0L0 15L30 0Z" fill="black"/>
<path d="M0 0L30 15M30 0L0 15" stroke="#721CFF" stroke-width="2.66667"/>
</g>
<path d="M15 0V15V0ZM0 7.5H30H0Z" fill="black"/>
<path d="M15 0V15M0 7.5H30" stroke="white" stroke-width="6.66667"/>
<path d="M15 0V15V0ZM0 7.5H30H0Z" fill="black"/>
<path d="M15 0V15M0 7.5H30" stroke="#721CFF" stroke-width="4"/>
</g>
</g>
<path d="M14.9991 0H0V26.8953C0.992679 41.045 10.2817 53.2172 23.5713 57.7882L30 60V0H14.9991Z" fill="url(#paint2_linear_134_1245)"/>
<path d="M45.0009 0H30V60L36.4287 57.7846C49.7218 53.2136 59.0073 41.0396 60 26.8899V0H45.0009Z" fill="url(#paint3_linear_134_1245)"/>
<g clip-path="url(#clip1_134_1245)">
<path d="M0 0H30V15H0V0Z" fill="#6F17FF"/>
<mask id="mask2_134_1245" style="mask-type:luminance" maskUnits="userSpaceOnUse" x="0" y="0" width="30" height="15">
<path d="M0 0H30V15H0V0Z" fill="white"/>
</mask>
<g mask="url(#mask2_134_1245)">
<path d="M0 0L30 15L0 0ZM30 0L0 15L30 0Z" fill="black"/>
<path d="M0 0L30 15M30 0L0 15" stroke="white" stroke-width="3"/>
</g>
<mask id="mask3_134_1245" style="mask-type:luminance" maskUnits="userSpaceOnUse" x="0" y="0" width="30" height="15">
<path d="M0 0V7.5H30V15L0 0ZM30 0H15V15H0L30 0Z" fill="white"/>
</mask>
<g mask="url(#mask3_134_1245)">
<path d="M0 0L30 15L0 0ZM30 0L0 15L30 0Z" fill="black"/>
<path d="M0 0L30 15M30 0L0 15" stroke="#721CFF" stroke-width="2"/>
</g>
<path d="M15 0V15V0ZM0 7.5H30H0Z" fill="black"/>
<path d="M15 0V15M0 7.5H30" stroke="white" stroke-width="5"/>
<path d="M15 0V15V0ZM0 7.5H30H0Z" fill="black"/>
<path d="M15 0V15M0 7.5H30" stroke="#721CFF" stroke-width="3"/>
</g>
<path d="M14.6414 17L15.7573 20.4694L19.1655 19.1787L17.1488 22.2142L20.2829 24.0741L16.6522 24.39L17.1521 28L14.6414 25.3583L12.1308 28L12.6307 24.39L9 24.0741L12.1341 22.2142L10.1174 19.1787L13.5256 20.4694L14.6414 17Z" fill="white"/>
<path d="M45.6537 33.3059L46.1558 34.8673L47.6897 34.2864L46.7821 35.6526L48.1926 36.4896L46.5586 36.6317L46.7836 38.2564L45.6537 37.0675L44.5237 38.2564L44.7487 36.6318L43.1147 36.4896L44.5253 35.6526L43.6176 34.2864L45.1515 34.8673L45.6537 33.3059Z" fill="white"/>
<path d="M36.5389 18.8743L37.0411 20.4357L38.575 19.8548L37.6673 21.2209L39.0778 22.058L37.4438 22.2001L37.6688 23.8248L36.5389 22.6359L35.409 23.8248L35.634 22.2001L34 22.058L35.4105 21.2209L34.5029 19.8548L36.0367 20.4357L36.5389 18.8743Z" fill="white"/>
<path d="M45.6537 9L46.1558 10.5614L47.6897 9.98051L46.7821 11.3467L48.1926 12.1837L46.5586 12.3258L46.7836 13.9505L45.6537 12.7616L44.5237 13.9505L44.7487 12.3259L43.1147 12.1837L44.5253 11.3467L43.6176 9.98051L45.1515 10.5614L45.6537 9Z" fill="white"/>
<path d="M53.7562 16.4437L54.2584 18.0051L55.7922 17.4242L54.8846 18.7903L56.2951 19.6274L54.6611 19.7695L54.8861 21.3942L53.7562 20.2053L52.6263 21.3942L52.8513 19.7695L51.2173 19.6274L52.6278 18.7903L51.7201 17.4242L53.254 18.0051L53.7562 16.4437Z" fill="white"/>
<path d="M49.3007 23.7572L49.6976 24.7301L50.7455 24.8068L49.9428 25.4849L50.1936 26.5053L49.3007 25.9515L48.4078 26.5053L48.6586 25.4849L47.856 24.8068L48.9039 24.7301L49.3007 23.7572Z" fill="white"/>
<defs>
<linearGradient id="paint0_linear_134_1245" x1="14.9991" y1="0" x2="14.9991" y2="60" gradientUnits="userSpaceOnUse">
<stop stop-color="#6100FF"/>
<stop offset="1" stop-color="#E5D6FF"/>
</linearGradient>
<linearGradient id="paint1_linear_134_1245" x1="45.0009" y1="0" x2="45.0009" y2="60" gradientUnits="userSpaceOnUse">
<stop stop-color="#E5D6FF"/>
<stop offset="1" stop-color="#6100FF"/>
<stop offset="1" stop-color="#6100FF"/>
</linearGradient>
<linearGradient id="paint2_linear_134_1245" x1="14.9991" y1="0" x2="14.9991" y2="60" gradientUnits="userSpaceOnUse">
<stop stop-color="#6100FF"/>
<stop offset="1" stop-color="#E5D6FF"/>
</linearGradient>
<linearGradient id="paint3_linear_134_1245" x1="45.0009" y1="0" x2="45.0009" y2="60" gradientUnits="userSpaceOnUse">
<stop stop-color="#E5D6FF"/>
<stop offset="1" stop-color="#6100FF"/>
<stop offset="1" stop-color="#6100FF"/>
</linearGradient>
<clipPath id="clip0_134_1245">
<rect width="30" height="15" fill="white"/>
</clipPath>
<clipPath id="clip1_134_1245">
<rect width="30" height="15" fill="white"/>
</clipPath>
</defs>
</svg>
