<svg width="337" height="120" viewBox="0 0 337 120" fill="none" xmlns="http://www.w3.org/2000/svg">
<g clip-path="url(#clip0_21_610)">
<path d="M170.394 10.4939H162.857C162.857 10.4939 162.964 6.12586 156.179 6.12586C150.257 6.12586 148.372 12.0386 152.68 13.3171C156.07 14.3233 170.848 13.8998 170.848 24.1821C170.848 34.4646 162.103 35.9561 156.179 35.9561C150.257 35.9561 141.857 33.0263 141.857 24.823H149.584C149.584 24.823 149.207 29.6704 156.637 29.6704C164.068 29.6704 165.737 23.3049 158.898 21.8666C152.061 20.4284 144.846 20.6947 142.746 13.8231C140.646 6.95152 145.449 0 156.557 0C167.664 0 170.394 8.3365 170.394 10.4939Z" fill="#201F1E"/>
<path d="M202.485 7.82998V0.692017H172.655V7.82998H183.693V35.423H191.447V7.82998H202.485Z" fill="#201F1E"/>
<path d="M219.352 1.01172H210.005L197.335 35.4231H205.353L207.627 28.9776H221.586L223.796 35.4231H232.312L219.352 1.01172ZM210.032 22.1593L214.708 8.91088L219.249 22.1593H210.032Z" fill="#201F1E"/>
<path d="M258.217 1.01172V22.1619L244.239 1.02717V1.01172H243.14H235.388V35.4231H243.14V13.3663L257.746 35.4231L258.217 35.121V35.4231H265.969V1.01172H258.217Z" fill="#201F1E"/>
<path d="M287.664 1.01172H271.834V35.4231H287.664C296.026 34.5538 302.553 27.1079 302.553 18.1908C302.553 9.27364 296.026 1.88105 287.664 1.01172ZM287.664 28.4982H279.588V7.45719H287.664C292.861 8.9194 294.206 12.718 294.206 17.9511C294.206 23.1842 292.026 27.859 287.664 28.4982Z" fill="#201F1E"/>
<path d="M149.246 41.6543H141L151.226 76.0811H158.226L165.009 53.4421L172.135 76.0811H179.29L189.431 41.6543H181.863L175.806 64.0691H175.321L169.007 41.6543H161.968L155.668 63.6962H155.238L149.246 41.6543Z" fill="#201F1E"/>
<path d="M200.169 41.4731H192.416V75.8846H200.169V41.4731Z" fill="#201F1E"/>
<path d="M233.553 41.1536H203.724V48.2916H214.761V75.8846H222.515V48.2916H233.553V41.1536Z" fill="#201F1E"/>
<path d="M260.096 41.4731V54.8436H245.021V41.4731H237.267V54.8436V61.9814V75.8846H245.021V61.9814H260.096V75.8846H267.85V41.4731H260.096Z" fill="#201F1E"/>
<path d="M173.9 105.013C172.116 111.733 166.045 116.715 158.885 116.715H157.458C148.907 116.715 141.911 109.611 141.911 100.927V97.1872C141.911 88.5035 148.907 81.3986 157.458 81.3986H158.885C165.809 81.3986 171.714 86.0579 173.71 92.4416H165.76C165.362 91.6447 164.849 90.9197 164.243 90.2912C162.74 88.7319 160.667 87.764 158.387 87.764C153.827 87.764 150.095 91.635 150.095 96.367V101.747C150.095 104.113 151.028 106.264 152.531 107.823C154.034 109.382 156.107 110.35 158.387 110.35C161.835 110.35 164.81 108.137 166.055 105.013H173.9Z" fill="#201F1E"/>
<path d="M195.783 103.34H195.861V103.314C201.898 103.314 206.791 98.6094 206.791 92.8064C206.791 87.0032 201.898 82.2991 195.861 82.2991H177.608V116.711H185.362V103.34L198.5 116.338H208.919L195.783 103.34ZM185.362 88.6913H195.356C195.528 88.71 195.697 88.7376 195.861 88.7765C197.774 89.2267 199.2 90.9792 199.2 93.0726C199.2 95.1661 197.774 96.9186 195.861 97.3688V97.4806H185.362V88.6913Z" fill="#201F1E"/>
<path d="M230.86 82.0861L222.983 96.1186L215.299 82.0861H206.954L218.999 103.34H219.122V116.711H226.875V103.34L239.016 82.0861H230.86Z" fill="#201F1E"/>
<path d="M260.204 82.2991C259.932 82.2991 259.663 82.3086 259.396 82.3279V82.2991H242.059V116.711H249.812V103.287H260.204V103.314C266.241 103.314 271.134 98.6094 271.134 92.8064C271.134 87.0032 266.241 82.2991 260.204 82.2991ZM260.204 97.3688V97.3741H249.812V88.6913H259.396V88.6683C259.674 88.6781 259.943 88.7153 260.204 88.7765C262.117 89.2267 263.543 90.9792 263.543 93.0726C263.543 95.1661 262.117 96.9186 260.204 97.3688Z" fill="#201F1E"/>
<path d="M302.364 81.98H272.534V89.1179H283.572V116.711H291.326V89.1179H302.364V81.98Z" fill="#201F1E"/>
<path d="M321.078 81.3986H319.614C310.836 81.3986 303.655 88.5035 303.655 97.1872V100.927C303.655 109.611 310.836 116.716 319.614 116.716H321.078C329.856 116.716 337.037 109.611 337.037 100.927V97.1872C337.037 88.5035 329.856 81.3986 321.078 81.3986ZM329.068 101.747C329.068 106.478 325.156 110.35 320.374 110.35C315.591 110.35 311.677 106.479 311.677 101.747V96.367C311.677 91.6356 315.591 87.764 320.374 87.764C325.156 87.764 329.068 91.635 329.068 96.367V101.747Z" fill="#201F1E"/>
<g clip-path="url(#clip1_21_610)">
<mask id="mask0_21_610" style="mask-type:luminance" maskUnits="userSpaceOnUse" x="0" y="0" width="120" height="120">
<path d="M120 0H0V120H120V0Z" fill="white"/>
</mask>
<g mask="url(#mask0_21_610)">
<path d="M89.9832 57.9937L90.76 60.3049L93.096 59.4279L91.7032 61.46L93.8728 62.6923L91.3752 62.8902L91.7032 65.3196L89.9832 63.5654L88.2624 65.3196L88.5904 62.8902L86.0928 62.6923L88.2624 61.46L86.8704 59.4279L89.2056 60.3049L89.9832 57.9937Z" fill="white"/>
<path d="M89.9832 21.921L90.76 24.2317L93.096 23.3553L91.7032 25.3872L93.8728 26.6197L91.3752 26.818L91.7032 29.2464L89.9832 27.493L88.2624 29.2464L88.5904 26.818L86.0928 26.6197L88.2624 25.3872L86.8704 23.3553L89.2056 24.2317L89.9832 21.921Z" fill="white"/>
<path d="M102.348 32.9512L103.126 35.2618L105.461 34.3853L104.069 36.4172L106.238 37.6499L103.741 37.8481L104.069 40.2764L102.348 38.523L100.628 40.2764L100.956 37.8481L98.4576 37.6499L100.628 36.4172L99.2352 34.3853L101.57 35.2618L102.348 32.9512Z" fill="white"/>
<path d="M95.552 43.8195L96.1672 45.2536L97.7632 45.3746L96.5336 46.3687L96.9032 47.8802L95.552 47.0438L94.2016 47.8802L94.5712 46.3687L93.3408 45.3746L94.9376 45.2536L95.552 43.8195Z" fill="white"/>
<path d="M29.8622 0.422241H-0.85132V53.9703C1.1974 82.1192 20.199 106.366 47.4334 115.482L60.579 119.901V0.422241H29.8655H29.8622Z" fill="url(#paint0_linear_21_610)"/>
<path d="M29.8622 0.422241H-0.85132V53.9703C1.1974 82.1192 20.199 106.366 47.4334 115.482L60.579 119.901V0.422241H29.8655H29.8622Z" fill="url(#paint1_linear_21_610)"/>
<path d="M91.2928 0.422241H60.5789V119.864L73.7246 115.445C100.959 106.326 119.961 82.1192 122.01 53.9336V0.422241H91.296H91.2928Z" fill="url(#paint2_linear_21_610)"/>
<path d="M91.2928 0.422241H60.5789V119.864L73.7246 115.445C100.959 106.326 119.961 82.1192 122.01 53.9336V0.422241H91.296H91.2928Z" fill="url(#paint3_linear_21_610)"/>
<path d="M39.2418 24.7089H33.5068V42.1473H36.0875V30.1634L53.7383 42.1473H60.617L38.6648 27.2583H43.0077L60.617 39.2017V37.4889L45.5468 27.2583H60.617V24.7089H39.2384H39.2418Z" fill="white"/>
<path d="M23.7609 12.4866L6.02722 0.422241H-0.85132L20.9762 15.2341H16.4712L-0.85132 3.48882V5.12102L14.0978 15.2744H-0.85132V17.7833H26.3831V0.425647H23.7194V12.4497L23.7609 12.4901V12.4866Z" fill="white"/>
<path d="M23.761 24.7089H-0.85132V27.2583H14.2186L-0.85132 37.4889V42.1473L21.1006 27.2583H23.7644V28.5713L3.69867 42.1473H6.07555L23.8093 30.1232V42.1473H26.4729V24.7089H23.7713H23.761Z" fill="white"/>
<path d="M60.579 0.421976L38.7514 15.2339H36.0496V14.0381L56.0774 0.421976H53.7004L36.0496 12.4057V0.421976H33.469V17.7393H60.579V15.2306H45.6298L60.579 5.07723V0.418701V0.421976Z" fill="white"/>
<path d="M30.3112 48.2397L32.1146 53.6541L37.563 51.6626L34.3291 56.4019L39.3248 59.3071L33.5105 59.783L34.3291 65.3954L30.3147 61.2946L26.3002 65.3954L27.119 59.783L21.3045 59.3071L26.3002 56.4019L23.0665 51.6626L28.5147 53.6541L30.3182 48.2397H30.3112Z" fill="white"/>
<path d="M90.0216 57.9937L90.7984 60.3049L93.1344 59.4279L91.7416 61.46L93.9112 62.6923L91.4136 62.8902L91.7416 65.3196L90.0216 63.5654L88.3008 65.3196L88.6288 62.8902L86.1312 62.6923L88.3008 61.46L86.9088 59.4279L89.244 60.3049L90.0216 57.9937Z" fill="white"/>
<path d="M76.0978 36.5753L76.8751 38.8861L79.2106 38.0095L77.8183 40.0414L79.9879 41.2743L77.4901 41.4724L77.8183 43.9006L76.0978 42.1474L74.3774 43.9006L74.7054 41.4724L72.2077 41.2743L74.3774 40.0414L72.985 38.0095L75.3206 38.8861L76.0978 36.5753Z" fill="white"/>
<path d="M90.0216 21.921L90.7984 24.2317L93.1344 23.3553L91.7416 25.3872L93.9112 26.6197L91.4136 26.818L91.7416 29.2464L90.0216 27.493L88.3008 29.2464L88.6288 26.818L86.1312 26.6197L88.3008 25.3872L86.9088 23.3553L89.244 24.2317L90.0216 21.921Z" fill="white"/>
<path d="M102.39 32.9917L103.166 35.3024L105.502 34.4259L104.11 36.4578L106.279 37.6904L103.782 37.8887L104.11 40.317L102.39 38.5636L100.669 40.317L100.997 37.8887L98.4992 37.6904L100.669 36.4578L99.2768 34.4259L101.612 35.3024L102.39 32.9917Z" fill="white"/>
<path d="M95.5944 43.8195L96.2088 45.2536L97.8056 45.3746L96.5752 46.3687L96.9448 47.8802L95.5944 47.0438L94.2432 47.8802L94.6128 46.3687L93.3832 45.3746L94.9792 45.2536L95.5944 43.8195Z" fill="white"/>
</g>
</g>
</g>
<defs>
<linearGradient id="paint0_linear_21_610" x1="29.8622" y1="0.422241" x2="29.8622" y2="119.901" gradientUnits="userSpaceOnUse">
<stop stop-color="#5B53A3"/>
<stop offset="1" stop-color="#B09ACA"/>
</linearGradient>
<linearGradient id="paint1_linear_21_610" x1="29.8639" y1="0.422241" x2="29.8639" y2="119.862" gradientUnits="userSpaceOnUse">
<stop stop-color="#6100FF"/>
<stop offset="1" stop-color="#C09AFF"/>
</linearGradient>
<linearGradient id="paint2_linear_21_610" x1="91.2928" y1="0.422241" x2="91.2928" y2="119.864" gradientUnits="userSpaceOnUse">
<stop stop-color="#B09ACA"/>
<stop offset="1" stop-color="#5B53A3"/>
</linearGradient>
<linearGradient id="paint3_linear_21_610" x1="91.2944" y1="0.422241" x2="91.2944" y2="119.825" gradientUnits="userSpaceOnUse">
<stop stop-color="#C09AFF"/>
<stop offset="1" stop-color="#6100FF"/>
</linearGradient>
<clipPath id="clip0_21_610">
<rect width="336.89" height="120" fill="white"/>
</clipPath>
<clipPath id="clip1_21_610">
<rect width="120" height="120" fill="white"/>
</clipPath>
</defs>
</svg>
