<svg width="1438" height="326" viewBox="0 0 1438 326" fill="none" xmlns="http://www.w3.org/2000/svg">
<g clip-path="url(#clip0_137_177)">
<path d="M1402.29 255.807L1403.15 258.445L1405.74 257.444L1404.2 259.764L1406.6 261.171L1403.83 261.397L1404.2 264.17L1402.29 262.168L1400.38 264.17L1400.75 261.397L1397.98 261.171L1400.38 259.764L1398.84 257.444L1401.43 258.445L1402.29 255.807Z" fill="white"/>
<path d="M1402.29 214.624L1403.15 217.262L1405.74 216.261L1404.2 218.581L1406.6 219.988L1403.83 220.214L1404.2 222.987L1402.29 220.985L1400.38 222.987L1400.75 220.214L1397.98 219.988L1400.38 218.581L1398.84 216.261L1401.43 217.262L1402.29 214.624Z" fill="white"/>
<path d="M1416 227.216L1416.86 229.854L1419.45 228.854L1417.9 231.173L1420.31 232.581L1417.54 232.807L1417.9 235.579L1416 233.578L1414.09 235.579L1414.45 232.807L1411.68 232.581L1414.09 231.173L1412.55 228.854L1415.13 229.854L1416 227.216Z" fill="white"/>
<path d="M1408.46 239.625L1409.15 241.262L1410.91 241.4L1409.55 242.535L1409.96 244.26L1408.46 243.306L1406.97 244.26L1407.38 242.535L1406.01 241.4L1407.78 241.262L1408.46 239.625Z" fill="white"/>
<path d="M1335.66 190.079H1301.62V251.213C1303.89 283.349 1324.95 311.031 1355.13 321.438L1369.7 326.484V190.079H1335.66H1335.66Z" fill="url(#paint0_linear_137_177)"/>
<path d="M1335.66 190.079H1301.62V251.213C1303.89 283.349 1324.95 311.031 1355.13 321.438L1369.7 326.484V190.079H1335.66H1335.66Z" fill="url(#paint1_linear_137_177)"/>
<path d="M1403.74 190.079H1369.7V326.442L1384.27 321.396C1414.46 310.985 1435.52 283.349 1437.79 251.171V190.079H1403.75H1403.74Z" fill="url(#paint2_linear_137_177)"/>
<path d="M1403.74 190.079H1369.7V326.442L1384.27 321.396C1414.46 310.985 1435.52 283.349 1437.79 251.171V190.079H1403.75H1403.74Z" fill="url(#paint3_linear_137_177)"/>
<path d="M1346.05 217.807H1339.7V237.715H1342.56V224.034L1362.12 237.715H1369.74L1345.41 220.717H1350.23L1369.74 234.353V232.397L1353.04 220.717H1369.74V217.807H1346.05H1346.05Z" fill="white"/>
<path d="M1328.89 203.853L1309.24 190.079H1301.62L1325.81 206.989H1320.82L1301.62 193.58V195.444L1318.18 207.035H1301.62V209.9H1331.8V190.083H1328.85V203.81L1328.89 203.857V203.853Z" fill="white"/>
<path d="M1328.89 217.807H1301.62V220.717H1318.32L1301.62 232.397V237.715L1325.95 220.717H1328.9V222.216L1306.66 237.715H1309.29L1328.95 223.988V237.715H1331.9V217.807H1328.91H1328.89Z" fill="white"/>
<path d="M1369.7 190.079L1345.51 206.989H1342.51V205.624L1364.71 190.079H1362.08L1342.51 203.76V190.079H1339.65V209.85H1369.7V206.985H1353.13L1369.7 195.394V190.075V190.079Z" fill="white"/>
<path d="M1336.15 244.671L1338.15 250.852L1344.19 248.579L1340.61 253.989L1346.14 257.306L1339.7 257.849L1340.61 264.257L1336.16 259.575L1331.71 264.257L1332.62 257.849L1326.17 257.306L1331.71 253.989L1328.13 248.579L1334.16 250.852L1336.16 244.671H1336.15Z" fill="white"/>
<path d="M1402.33 255.807L1403.19 258.445L1405.78 257.444L1404.24 259.764L1406.64 261.171L1403.88 261.397L1404.24 264.17L1402.33 262.168L1400.43 264.17L1400.79 261.397L1398.02 261.171L1400.43 259.764L1398.88 257.444L1401.47 258.445L1402.33 255.807Z" fill="white"/>
<path d="M1386.9 231.354L1387.76 233.992L1390.35 232.991L1388.81 235.311L1391.21 236.719L1388.44 236.945L1388.81 239.717L1386.9 237.715L1384.99 239.717L1385.36 236.945L1382.59 236.719L1384.99 235.311L1383.45 232.991L1386.04 233.992L1386.9 231.354Z" fill="white"/>
<path d="M1402.33 214.624L1403.19 217.262L1405.78 216.261L1404.24 218.581L1406.64 219.988L1403.88 220.214L1404.24 222.987L1402.33 220.985L1400.43 222.987L1400.79 220.214L1398.02 219.988L1400.43 218.581L1398.88 216.261L1401.47 217.262L1402.33 214.624Z" fill="white"/>
<path d="M1416.04 227.263L1416.9 229.901L1419.49 228.9L1417.95 231.22L1420.35 232.627L1417.58 232.853L1417.95 235.626L1416.04 233.624L1414.13 235.626L1414.5 232.853L1411.73 232.627L1414.13 231.22L1412.59 228.9L1415.18 229.901L1416.04 227.263Z" fill="white"/>
<path d="M1408.51 239.625L1409.19 241.262L1410.96 241.4L1409.6 242.535L1410.01 244.26L1408.51 243.306L1407.01 244.26L1407.42 242.535L1406.06 241.4L1407.83 241.262L1408.51 239.625Z" fill="white"/>
<path d="M1323.91 144.494C1336.48 144.494 1346.67 134.29 1346.67 121.702C1346.67 109.114 1336.48 98.9097 1323.91 98.9097C1311.34 98.9097 1301.15 109.114 1301.15 121.702C1301.15 134.29 1311.34 144.494 1323.91 144.494Z" fill="white"/>
<path d="M1323.91 144.494C1336.48 144.494 1346.67 134.29 1346.67 121.702C1346.67 109.114 1336.48 98.9097 1323.91 98.9097C1311.34 98.9097 1301.15 109.114 1301.15 121.702C1301.15 134.29 1311.34 144.494 1323.91 144.494Z" fill="url(#paint4_linear_137_177)"/>
<path d="M1323.91 144.494C1336.48 144.494 1346.67 134.29 1346.67 121.702C1346.67 109.114 1336.48 98.9097 1323.91 98.9097C1311.34 98.9097 1301.15 109.114 1301.15 121.702C1301.15 134.29 1311.34 144.494 1323.91 144.494Z" fill="url(#paint5_linear_137_177)"/>
<path d="M1414.95 144.494C1427.52 144.494 1437.71 134.29 1437.71 121.702C1437.71 109.114 1427.52 98.9097 1414.95 98.9097C1402.38 98.9097 1392.19 109.114 1392.19 121.702C1392.19 134.29 1402.38 144.494 1414.95 144.494Z" fill="white"/>
<path d="M1414.95 144.494C1427.52 144.494 1437.71 134.29 1437.71 121.702C1437.71 109.114 1427.52 98.9097 1414.95 98.9097C1402.38 98.9097 1392.19 109.114 1392.19 121.702C1392.19 134.29 1402.38 144.494 1414.95 144.494Z" fill="url(#paint6_linear_137_177)"/>
<path d="M1414.95 144.494C1427.52 144.494 1437.71 134.29 1437.71 121.702C1437.71 109.114 1427.52 98.9097 1414.95 98.9097C1402.38 98.9097 1392.19 109.114 1392.19 121.702C1392.19 134.29 1402.38 144.494 1414.95 144.494Z" fill="url(#paint7_linear_137_177)"/>
<path d="M1369.43 190.079C1394.57 190.079 1414.95 169.672 1414.95 144.494C1414.95 119.317 1394.58 98.9097 1369.43 98.9097V190.083V190.079Z" fill="url(#paint8_linear_137_177)"/>
<path d="M1369.43 98.9097C1344.29 98.9097 1323.91 119.317 1323.91 144.494C1323.91 169.672 1344.29 190.079 1369.43 190.079V98.9058V98.9097Z" fill="url(#paint9_linear_137_177)"/>
<path d="M1369.43 190.079C1394.57 190.079 1414.95 169.67 1414.95 144.494C1414.95 119.319 1394.57 98.9097 1369.43 98.9097C1344.29 98.9097 1323.91 119.319 1323.91 144.494C1323.91 169.67 1344.29 190.079 1369.43 190.079Z" fill="white"/>
<path d="M1369.43 190.079C1394.57 190.079 1414.95 169.67 1414.95 144.494C1414.95 119.319 1394.57 98.9097 1369.43 98.9097C1344.29 98.9097 1323.91 119.319 1323.91 144.494C1323.91 169.67 1344.29 190.079 1369.43 190.079Z" fill="#D9D9D9"/>
<path d="M1369.43 190.079C1394.57 190.079 1414.95 169.67 1414.95 144.494C1414.95 119.319 1394.57 98.9097 1369.43 98.9097C1344.29 98.9097 1323.91 119.319 1323.91 144.494C1323.91 169.67 1344.29 190.079 1369.43 190.079Z" fill="url(#paint10_linear_137_177)"/>
<path d="M1346.9 143.126C1350.04 143.126 1352.59 140.575 1352.59 137.428C1352.59 134.281 1350.04 131.729 1346.9 131.729C1343.76 131.729 1341.21 134.281 1341.21 137.428C1341.21 140.575 1343.76 143.126 1346.9 143.126Z" fill="white"/>
<path d="M1390.6 143.126C1393.74 143.126 1396.29 140.575 1396.29 137.428C1396.29 134.281 1393.74 131.729 1390.6 131.729C1387.46 131.729 1384.91 134.281 1384.91 137.428C1384.91 140.575 1387.46 143.126 1390.6 143.126Z" fill="white"/>
<path d="M1360.78 165.918C1360.78 170.7 1364.65 174.58 1369.43 174.58C1374.22 174.58 1378.08 170.703 1378.08 165.918H1360.78Z" fill="white"/>
<path d="M1378.08 145.863C1378.08 141.082 1374.22 137.201 1369.43 137.201C1364.65 137.201 1360.78 141.078 1360.78 145.863H1378.08Z" fill="white"/>
<path d="M1360.78 145.863H1378.08V160.45H1360.78V145.863Z" fill="white"/>
<path d="M1003.18 270.674V326.732H947.893V270.671H1003.18V270.674Z" fill="#D9D9D8"/>
<path d="M1003.18 270.674V326.732H947.893V270.671H1003.18V270.674Z" fill="url(#paint11_linear_137_177)"/>
<path d="M890.31 270.674V326.732H835.027V270.671H890.31V270.674Z" fill="#D9D9D8"/>
<path d="M890.31 270.674V326.732H835.027V270.671H890.31V270.674Z" fill="url(#paint12_linear_137_177)"/>
<path d="M890.31 326.736V270.679H947.896V326.736H890.31Z" fill="#D9D9D8"/>
<path d="M890.31 326.736V270.679H947.896V326.736H890.31Z" fill="url(#paint13_linear_137_177)"/>
<path d="M878.024 253.781H1003.18V270.674H878.024V253.781Z" fill="#D9D9D8"/>
<path d="M878.024 253.781H1003.18V270.674H878.024V253.781Z" fill="url(#paint14_linear_137_177)"/>
<path d="M835.027 253.781H1003.18V270.674H835.027V253.781Z" fill="#D9D9D8"/>
<path d="M835.027 253.781H1003.18V270.674H835.027V253.781Z" fill="url(#paint15_linear_137_177)"/>
<path d="M1298.79 270.674V326.732H1243.5V270.671H1298.79V270.674Z" fill="#D9D9D8"/>
<path d="M1298.79 270.674V326.732H1243.5V270.671H1298.79V270.674Z" fill="url(#paint16_linear_137_177)"/>
<path d="M1185.92 270.674V326.732H1130.63V270.671H1185.92V270.674Z" fill="#D9D9D8"/>
<path d="M1185.92 270.674V326.732H1130.63V270.671H1185.92V270.674Z" fill="url(#paint17_linear_137_177)"/>
<path d="M1185.92 326.736V270.679H1243.5V326.736H1185.92Z" fill="#D9D9D8"/>
<path d="M1185.92 326.736V270.679H1243.5V326.736H1185.92Z" fill="url(#paint18_linear_137_177)"/>
<path d="M1130.63 253.016H1298.79V271.448H1130.63V253.016Z" fill="#D9D9D8"/>
<path d="M1130.63 253.016H1298.79V271.448H1130.63V253.016Z" fill="url(#paint19_linear_137_177)"/>
<path d="M1130.63 209.243V235.353H1105.3V209.243H1130.63Z" fill="#D9D9D8"/>
<path d="M1130.63 209.243V235.353H1105.3V209.243H1130.63Z" fill="url(#paint20_linear_137_177)"/>
<path d="M1130.63 209.243C1130.63 202.455 1124.96 196.955 1117.97 196.955C1110.97 196.955 1105.3 202.455 1105.3 209.243H1130.63Z" fill="url(#paint21_linear_137_177)"/>
<path d="M1028.52 158.557C1028.52 139.045 1045.7 123.231 1066.91 123.231C1088.11 123.231 1105.3 139.045 1105.3 158.557H1028.52H1028.52Z" fill="url(#paint22_linear_137_177)"/>
<path d="M1003.18 209.243C1003.18 202.455 1008.85 196.955 1015.85 196.955C1022.84 196.955 1028.52 202.455 1028.52 209.243H1003.18H1003.18Z" fill="url(#paint23_linear_137_177)"/>
<path d="M1066.9 158.557V184.667H1028.51V158.557H1066.9Z" fill="#D9D9D8"/>
<path d="M1066.9 158.557V184.667H1028.51V158.557H1066.9Z" fill="url(#paint24_linear_137_177)"/>
<path d="M1003.17 326.736V235.353H1130.62V326.736H1003.17Z" fill="url(#paint25_linear_137_177)"/>
<path d="M1003.18 235.353V209.243H1028.51V235.353H1003.18Z" fill="#D9D9D8"/>
<path d="M1003.18 235.353V209.243H1028.51V235.353H1003.18Z" fill="url(#paint26_linear_137_177)"/>
<path d="M1066.9 184.667V158.557H1105.3V184.667H1066.9Z" fill="#D9D9D8"/>
<path d="M1066.9 184.667V158.557H1105.3V184.667H1066.9Z" fill="url(#paint27_linear_137_177)"/>
<path d="M1066.14 200.027V235.353H1028.52V200.027H1066.14Z" fill="#D9D9D8"/>
<path d="M1066.14 200.027V235.353H1028.52V200.027H1066.14Z" fill="url(#paint28_linear_137_177)"/>
<path fill-rule="evenodd" clip-rule="evenodd" d="M1022 297.646C1027.3 297.646 1031.6 301.812 1031.6 306.954V326.736H1012.41V306.954C1012.41 301.812 1016.7 297.646 1022 297.646H1022Z" fill="white"/>
<path fill-rule="evenodd" clip-rule="evenodd" d="M1114.89 297.646C1120.19 297.646 1124.49 301.812 1124.49 306.954V326.736H1105.29V306.954C1105.29 301.812 1109.59 297.646 1114.89 297.646H1114.89Z" fill="white"/>
<path fill-rule="evenodd" clip-rule="evenodd" d="M1068.06 253.729C1082.27 253.729 1093.78 264.187 1093.78 277.092V326.74H1042.34V277.092C1042.34 264.191 1053.85 253.729 1068.06 253.729Z" fill="white"/>
<path d="M1086.87 112.48V123.231H1066.9V112.48H1086.87Z" fill="#D9D9D8"/>
<path d="M1086.87 112.48V123.231H1066.9V112.48H1086.87Z" fill="url(#paint29_linear_137_177)"/>
<path d="M1066.14 235.353V200.027H1105.3V235.353H1066.14Z" fill="#D9D9D8"/>
<path d="M1066.14 235.353V200.027H1105.3V235.353H1066.14Z" fill="url(#paint30_linear_137_177)"/>
<path d="M1028.52 184.667H1105.3V200.026H1028.52V184.667Z" fill="#D9D9D8"/>
<path d="M1028.52 184.667H1105.3V200.026H1028.52V184.667Z" fill="url(#paint31_linear_137_177)"/>
<path d="M1051.55 310.689C1051.55 319.593 1058.94 326.814 1068.06 326.814C1077.18 326.814 1084.57 319.593 1084.57 310.689H1051.55H1051.55Z" fill="url(#paint32_linear_137_177)"/>
<path d="M1054.62 294.56C1054.62 301.769 1060.64 307.613 1068.06 307.613C1075.48 307.613 1081.49 301.769 1081.49 294.56H1054.62H1054.62Z" fill="url(#paint33_linear_137_177)"/>
<path d="M1076.89 288.42C1076.89 283.753 1072.94 279.973 1068.06 279.973C1063.18 279.973 1059.23 283.753 1059.23 288.42H1076.89Z" fill="url(#paint34_linear_137_177)"/>
<path d="M1060.76 273.829C1060.76 277.222 1064.03 279.973 1068.05 279.973C1072.08 279.973 1075.35 277.222 1075.35 273.829H1060.76H1060.76Z" fill="url(#paint35_linear_137_177)"/>
<path d="M711.144 311.776L709.989 311.404C694.74 306.461 687.958 288.736 696.024 274.911L726.947 221.911C748.551 197.439 784.005 189.07 816.918 200.67L832.84 206.282L758.881 301.79L711.136 311.776H711.144Z" fill="url(#paint36_linear_137_177)"/>
<path d="M628.745 308.7H664.169L778.625 156.261L762.676 150.654C729.715 139.036 694.22 147.431 672.581 171.943L612.34 271.6C603.453 286.298 611.874 305.34 628.741 308.705L628.745 308.7Z" fill="url(#paint37_linear_137_177)"/>
<path d="M714.225 307.167H724.147C743.934 307.167 755.976 285.43 745.445 268.719L670.803 150.26C649.43 119.081 609.851 104.463 570.362 113.159L551.259 117.366L661.862 307.167H714.228H714.225Z" fill="url(#paint38_linear_137_177)"/>
<path d="M537.107 300.252C552.779 300.252 562.27 282.987 553.845 269.805L526.033 226.278C506.589 197.909 470.578 184.612 434.644 192.524L417.261 196.349L477.035 300.252H537.102H537.107Z" fill="url(#paint39_linear_137_177)"/>
<path d="M634.135 313.309L584.079 320.991L480.434 150.991L497.839 147.17C533.818 139.249 569.873 152.582 589.344 180.994L648.132 280.549C655.712 293.386 648.665 309.875 634.13 313.309H634.135Z" fill="url(#paint40_linear_137_177)"/>
<path d="M440.367 236.8H585.141V261.383H440.367V236.8Z" fill="white"/>
<path d="M440.367 236.8H585.141V261.383H440.367V236.8Z" fill="url(#paint41_linear_137_177)" stroke="url(#paint42_linear_137_177)" stroke-width="0.102477" stroke-miterlimit="10"/>
<path d="M428.783 261.135H832.524V326.377H428.783V261.135Z" fill="white"/>
<path d="M428.783 261.135H832.524V326.377H428.783V261.135Z" fill="url(#paint43_linear_137_177)"/>
<mask id="mask0_137_177" style="mask-type:luminance" maskUnits="userSpaceOnUse" x="-1" y="-66" width="417" height="392">
<path d="M415.992 -65.853H-0.415283V325.975H415.992V-65.853Z" fill="white"/>
</mask>
<g mask="url(#mask0_137_177)">
<path d="M69.6373 40.9619V111.934H86.5055V40.9619H69.6373Z" fill="#D9D9D8"/>
<path d="M69.6373 40.9619V111.934H86.5055V40.9619H69.6373Z" fill="url(#paint44_linear_137_177)"/>
<path d="M77.509 20.6924V40.9698H106.747V20.6924H77.509Z" fill="#D9D9D8"/>
<path d="M77.509 20.6924V40.9698H106.747V20.6924H77.509Z" fill="url(#paint45_linear_137_177)"/>
<path d="M69.6376 110.808L24.6556 176.71H35.3388L78.6341 110.808H69.6376Z" fill="#D9D9D8"/>
<path d="M69.6376 110.808L24.6556 176.71H35.3388L78.6341 110.808H69.6376Z" fill="url(#paint46_linear_137_177)"/>
<path d="M86.133 110.808L129.238 177.273H118.998L77.509 110.808H86.133Z" fill="#D9D9D8"/>
<path d="M86.133 110.808L129.238 177.273H118.998L77.509 110.808H86.133Z" fill="url(#paint47_linear_137_177)"/>
<path d="M273.174 181.405L78.6341 174.97L-115.906 181.405V325.975H273.181V181.405H273.174ZM-67.5571 322.595H-90.0482V202.056H-67.5571V322.595ZM-14.7034 322.595H-37.1943V202.056H-14.7034V322.595ZM37.026 322.595H14.5349V227.967H37.026V322.595ZM89.8796 322.595H67.3888V227.967H89.8796V322.595ZM142.734 322.595H120.242V227.967H142.734V322.595ZM194.463 322.595H171.972V202.056H194.463V322.595ZM247.316 322.595H224.825V202.056H247.316V322.595Z" fill="#D9D9D8"/>
<path d="M273.174 181.405L78.6341 174.97L-115.906 181.405V325.975H273.181V181.405H273.174ZM-67.5571 322.595H-90.0482V202.056H-67.5571V322.595ZM-14.7034 322.595H-37.1943V202.056H-14.7034V322.595ZM37.026 322.595H14.5349V227.967H37.026V322.595ZM89.8796 322.595H67.3888V227.967H89.8796V322.595ZM142.734 322.595H120.242V227.967H142.734V322.595ZM194.463 322.595H171.972V202.056H194.463V322.595ZM247.316 322.595H224.825V202.056H247.316V322.595Z" fill="url(#paint48_linear_137_177)"/>
<path d="M273.174 213.321V325.975H299.04V231.347H321.53V325.975H351.892V231.347H374.382V325.975H415.992V213.321H273.174Z" fill="#D9D9D8"/>
<path d="M273.174 213.321V325.975H299.04V231.347H321.53V325.975H351.892V231.347H374.382V325.975H415.992V213.321H273.174Z" fill="url(#paint49_linear_137_177)"/>
</g>
</g>
<defs>
<linearGradient id="paint0_linear_137_177" x1="1335.66" y1="190.079" x2="1335.66" y2="326.484" gradientUnits="userSpaceOnUse">
<stop stop-color="#5B53A3"/>
<stop offset="1" stop-color="#B09ACA"/>
</linearGradient>
<linearGradient id="paint1_linear_137_177" x1="1335.66" y1="190.079" x2="1335.66" y2="326.439" gradientUnits="userSpaceOnUse">
<stop stop-color="#6100FF"/>
<stop offset="1" stop-color="#C09AFF"/>
</linearGradient>
<linearGradient id="paint2_linear_137_177" x1="1403.74" y1="190.079" x2="1403.74" y2="326.442" gradientUnits="userSpaceOnUse">
<stop stop-color="#B09ACA"/>
<stop offset="1" stop-color="#5B53A3"/>
</linearGradient>
<linearGradient id="paint3_linear_137_177" x1="1403.74" y1="190.079" x2="1403.74" y2="326.397" gradientUnits="userSpaceOnUse">
<stop stop-color="#C09AFF"/>
<stop offset="1" stop-color="#6100FF"/>
</linearGradient>
<linearGradient id="paint4_linear_137_177" x1="1323.91" y1="144.494" x2="1323.91" y2="98.9058" gradientUnits="userSpaceOnUse">
<stop stop-color="#A897C8"/>
<stop offset="1" stop-color="#5552A3"/>
</linearGradient>
<linearGradient id="paint5_linear_137_177" x1="1323.91" y1="98.9097" x2="1323.91" y2="144.479" gradientUnits="userSpaceOnUse">
<stop stop-color="#6100FF"/>
<stop offset="1" stop-color="#C09AFF"/>
</linearGradient>
<linearGradient id="paint6_linear_137_177" x1="1414.95" y1="144.494" x2="1414.95" y2="98.9058" gradientUnits="userSpaceOnUse">
<stop stop-color="#A897C8"/>
<stop offset="1" stop-color="#5552A3"/>
</linearGradient>
<linearGradient id="paint7_linear_137_177" x1="1414.95" y1="98.9097" x2="1414.95" y2="144.479" gradientUnits="userSpaceOnUse">
<stop stop-color="#6100FF"/>
<stop offset="1" stop-color="#C09AFF"/>
</linearGradient>
<linearGradient id="paint8_linear_137_177" x1="1392.19" y1="98.9058" x2="1392.19" y2="190.079" gradientUnits="userSpaceOnUse">
<stop stop-color="#A897C8"/>
<stop offset="1" stop-color="#5552A3"/>
</linearGradient>
<linearGradient id="paint9_linear_137_177" x1="1346.67" y1="190.079" x2="1346.67" y2="98.9058" gradientUnits="userSpaceOnUse">
<stop stop-color="#A897C8"/>
<stop offset="1" stop-color="#5552A3"/>
</linearGradient>
<linearGradient id="paint10_linear_137_177" x1="1369.43" y1="98.9097" x2="1369.43" y2="190.048" gradientUnits="userSpaceOnUse">
<stop stop-color="#6100FF"/>
<stop offset="1" stop-color="#C09AFF"/>
</linearGradient>
<linearGradient id="paint11_linear_137_177" x1="975.534" y1="270.671" x2="975.534" y2="326.713" gradientUnits="userSpaceOnUse">
<stop stop-color="#C09AFF"/>
<stop offset="1" stop-color="#6100FF"/>
</linearGradient>
<linearGradient id="paint12_linear_137_177" x1="862.669" y1="270.671" x2="862.669" y2="326.713" gradientUnits="userSpaceOnUse">
<stop stop-color="#C09AFF"/>
<stop offset="1" stop-color="#6100FF"/>
</linearGradient>
<linearGradient id="paint13_linear_137_177" x1="919.103" y1="270.679" x2="919.103" y2="326.717" gradientUnits="userSpaceOnUse">
<stop stop-color="#6100FF"/>
<stop offset="1" stop-color="#C09AFF"/>
</linearGradient>
<linearGradient id="paint14_linear_137_177" x1="940.602" y1="253.781" x2="940.602" y2="270.67" gradientUnits="userSpaceOnUse">
<stop stop-color="#6100FF"/>
<stop offset="1" stop-color="#C09AFF"/>
</linearGradient>
<linearGradient id="paint15_linear_137_177" x1="919.103" y1="253.781" x2="919.103" y2="270.67" gradientUnits="userSpaceOnUse">
<stop stop-color="#6100FF"/>
<stop offset="1" stop-color="#C09AFF"/>
</linearGradient>
<linearGradient id="paint16_linear_137_177" x1="1271.14" y1="270.671" x2="1271.14" y2="326.713" gradientUnits="userSpaceOnUse">
<stop stop-color="#C09AFF"/>
<stop offset="1" stop-color="#6100FF"/>
</linearGradient>
<linearGradient id="paint17_linear_137_177" x1="1158.28" y1="270.671" x2="1158.28" y2="326.713" gradientUnits="userSpaceOnUse">
<stop stop-color="#C09AFF"/>
<stop offset="1" stop-color="#6100FF"/>
</linearGradient>
<linearGradient id="paint18_linear_137_177" x1="1214.71" y1="270.679" x2="1214.71" y2="326.717" gradientUnits="userSpaceOnUse">
<stop stop-color="#6100FF"/>
<stop offset="1" stop-color="#C09AFF"/>
</linearGradient>
<linearGradient id="paint19_linear_137_177" x1="1214.71" y1="253.016" x2="1214.71" y2="271.442" gradientUnits="userSpaceOnUse">
<stop stop-color="#6100FF"/>
<stop offset="1" stop-color="#C09AFF"/>
</linearGradient>
<linearGradient id="paint20_linear_137_177" x1="1117.97" y1="209.243" x2="1117.97" y2="235.344" gradientUnits="userSpaceOnUse">
<stop stop-color="#6100FF"/>
<stop offset="1" stop-color="#C09AFF"/>
</linearGradient>
<linearGradient id="paint21_linear_137_177" x1="1117.97" y1="196.955" x2="1117.97" y2="209.239" gradientUnits="userSpaceOnUse">
<stop stop-color="#6100FF"/>
<stop offset="1" stop-color="#C09AFF"/>
</linearGradient>
<linearGradient id="paint22_linear_137_177" x1="1066.91" y1="123.231" x2="1066.91" y2="158.545" gradientUnits="userSpaceOnUse">
<stop stop-color="#6100FF"/>
<stop offset="1" stop-color="#C09AFF"/>
</linearGradient>
<linearGradient id="paint23_linear_137_177" x1="1015.85" y1="196.955" x2="1015.85" y2="209.239" gradientUnits="userSpaceOnUse">
<stop stop-color="#6100FF"/>
<stop offset="1" stop-color="#C09AFF"/>
</linearGradient>
<linearGradient id="paint24_linear_137_177" x1="1047.71" y1="158.557" x2="1047.71" y2="184.658" gradientUnits="userSpaceOnUse">
<stop stop-color="#C09AFF"/>
<stop offset="1" stop-color="#6100FF"/>
</linearGradient>
<linearGradient id="paint25_linear_137_177" x1="1066.9" y1="235.353" x2="1066.9" y2="326.706" gradientUnits="userSpaceOnUse">
<stop stop-color="#6100FF"/>
<stop offset="1" stop-color="#C09AFF"/>
</linearGradient>
<linearGradient id="paint26_linear_137_177" x1="1015.84" y1="209.243" x2="1015.84" y2="235.344" gradientUnits="userSpaceOnUse">
<stop stop-color="#C09AFF"/>
<stop offset="1" stop-color="#6100FF"/>
</linearGradient>
<linearGradient id="paint27_linear_137_177" x1="1086.1" y1="158.557" x2="1086.1" y2="184.658" gradientUnits="userSpaceOnUse">
<stop stop-color="#6100FF"/>
<stop offset="1" stop-color="#C09AFF"/>
</linearGradient>
<linearGradient id="paint28_linear_137_177" x1="1047.33" y1="200.027" x2="1047.33" y2="235.341" gradientUnits="userSpaceOnUse">
<stop stop-color="#6100FF"/>
<stop offset="1" stop-color="#C09AFF"/>
</linearGradient>
<linearGradient id="paint29_linear_137_177" x1="1076.89" y1="112.48" x2="1076.89" y2="123.227" gradientUnits="userSpaceOnUse">
<stop stop-color="#6100FF"/>
<stop offset="1" stop-color="#C09AFF"/>
</linearGradient>
<linearGradient id="paint30_linear_137_177" x1="1085.72" y1="200.027" x2="1085.72" y2="235.341" gradientUnits="userSpaceOnUse">
<stop stop-color="#C09AFF"/>
<stop offset="1" stop-color="#6100FF"/>
</linearGradient>
<linearGradient id="paint31_linear_137_177" x1="1066.91" y1="184.667" x2="1066.91" y2="200.021" gradientUnits="userSpaceOnUse">
<stop stop-color="#C09AFF"/>
<stop offset="1" stop-color="#6100FF"/>
</linearGradient>
<linearGradient id="paint32_linear_137_177" x1="1068.06" y1="310.689" x2="1068.06" y2="326.808" gradientUnits="userSpaceOnUse">
<stop stop-color="#6100FF"/>
<stop offset="1" stop-color="#C09AFF"/>
</linearGradient>
<linearGradient id="paint33_linear_137_177" x1="1068.06" y1="294.56" x2="1068.06" y2="307.608" gradientUnits="userSpaceOnUse">
<stop stop-color="#6100FF"/>
<stop offset="1" stop-color="#C09AFF"/>
</linearGradient>
<linearGradient id="paint34_linear_137_177" x1="1068.06" y1="279.973" x2="1068.06" y2="288.417" gradientUnits="userSpaceOnUse">
<stop stop-color="#6100FF"/>
<stop offset="1" stop-color="#C09AFF"/>
</linearGradient>
<linearGradient id="paint35_linear_137_177" x1="1068.05" y1="273.829" x2="1068.05" y2="279.97" gradientUnits="userSpaceOnUse">
<stop stop-color="#6100FF"/>
<stop offset="1" stop-color="#C09AFF"/>
</linearGradient>
<linearGradient id="paint36_linear_137_177" x1="762.718" y1="195.518" x2="762.718" y2="311.738" gradientUnits="userSpaceOnUse">
<stop stop-color="#C09AFF"/>
<stop offset="1" stop-color="#6100FF"/>
</linearGradient>
<linearGradient id="paint37_linear_137_177" x1="693.687" y1="145.496" x2="693.687" y2="308.65" gradientUnits="userSpaceOnUse">
<stop stop-color="#6100FF"/>
<stop offset="1" stop-color="#C09AFF"/>
</linearGradient>
<linearGradient id="paint38_linear_137_177" x1="650.302" y1="110.681" x2="650.302" y2="307.102" gradientUnits="userSpaceOnUse">
<stop stop-color="#C09AFF"/>
<stop offset="1" stop-color="#6100FF"/>
</linearGradient>
<linearGradient id="paint39_linear_137_177" x1="487.125" y1="190.269" x2="487.125" y2="300.216" gradientUnits="userSpaceOnUse">
<stop stop-color="#C09AFF"/>
<stop offset="1" stop-color="#6100FF"/>
</linearGradient>
<linearGradient id="paint40_linear_137_177" x1="565.825" y1="144.914" x2="565.825" y2="320.932" gradientUnits="userSpaceOnUse">
<stop stop-color="#6100FF"/>
<stop offset="1" stop-color="#C09AFF"/>
</linearGradient>
<linearGradient id="paint41_linear_137_177" x1="512.754" y1="236.8" x2="512.754" y2="261.374" gradientUnits="userSpaceOnUse">
<stop stop-color="#6100FF"/>
<stop offset="1" stop-color="#C09AFF"/>
</linearGradient>
<linearGradient id="paint42_linear_137_177" x1="512.754" y1="236.8" x2="512.754" y2="261.374" gradientUnits="userSpaceOnUse">
<stop stop-color="#6100FF"/>
<stop offset="1" stop-color="#C09AFF"/>
</linearGradient>
<linearGradient id="paint43_linear_137_177" x1="630.653" y1="261.135" x2="630.653" y2="326.355" gradientUnits="userSpaceOnUse">
<stop stop-color="#6100FF"/>
<stop offset="1" stop-color="#C09AFF"/>
</linearGradient>
<linearGradient id="paint44_linear_137_177" x1="78.0714" y1="40.9619" x2="78.0714" y2="111.91" gradientUnits="userSpaceOnUse">
<stop stop-color="#C09AFF"/>
<stop offset="1" stop-color="#6100FF"/>
</linearGradient>
<linearGradient id="paint45_linear_137_177" x1="92.1282" y1="20.6924" x2="92.1282" y2="40.9629" gradientUnits="userSpaceOnUse">
<stop stop-color="#6100FF"/>
<stop offset="1" stop-color="#C09AFF"/>
</linearGradient>
<linearGradient id="paint46_linear_137_177" x1="51.6449" y1="110.808" x2="51.6449" y2="176.688" gradientUnits="userSpaceOnUse">
<stop stop-color="#6100FF"/>
<stop offset="1" stop-color="#C09AFF"/>
</linearGradient>
<linearGradient id="paint47_linear_137_177" x1="103.374" y1="110.808" x2="103.374" y2="177.25" gradientUnits="userSpaceOnUse">
<stop stop-color="#C09AFF"/>
<stop offset="1" stop-color="#6100FF"/>
</linearGradient>
<linearGradient id="paint48_linear_137_177" x1="78.6376" y1="174.97" x2="78.6376" y2="325.923" gradientUnits="userSpaceOnUse">
<stop stop-color="#C09AFF"/>
<stop offset="1" stop-color="#6100FF"/>
</linearGradient>
<linearGradient id="paint49_linear_137_177" x1="344.583" y1="213.321" x2="344.583" y2="325.936" gradientUnits="userSpaceOnUse">
<stop stop-color="#6100FF"/>
<stop offset="1" stop-color="#C09AFF"/>
</linearGradient>
<clipPath id="clip0_137_177">
<rect width="1438" height="326" fill="white"/>
</clipPath>
</defs>
</svg>
