<svg width="32" height="16" viewBox="0 0 32 16" fill="none" xmlns="http://www.w3.org/2000/svg">
<g clip-path="url(#clip0_285_396)">
<path d="M0 0H32V16H0V0Z" fill="#012169"/>
<mask id="mask0_285_396" style="mask-type:luminance" maskUnits="userSpaceOnUse" x="0" y="0" width="16" height="8">
<path d="M0 0H16V8H0V0Z" fill="white"/>
</mask>
<g mask="url(#mask0_285_396)">
<path d="M0 0L16 8L0 0ZM16 0L0 8L16 0Z" fill="black"/>
<path d="M0 0L16 8M16 0L0 8" stroke="white" stroke-width="1.6"/>
</g>
<mask id="mask1_285_396" style="mask-type:luminance" maskUnits="userSpaceOnUse" x="0" y="0" width="16" height="8">
<path d="M0 0V4H16V8L0 0ZM16 0H8V8H0L16 0Z" fill="white"/>
</mask>
<g mask="url(#mask1_285_396)">
<path d="M0 0L16 8L0 0ZM16 0L0 8L16 0Z" fill="black"/>
<path d="M0 0L16 8M16 0L0 8" stroke="#E4002B" stroke-width="1.06667"/>
</g>
<path d="M8 0V8V0ZM0 4H16H0Z" fill="black"/>
<path d="M8 0V8M0 4H16" stroke="white" stroke-width="2.66667"/>
<path d="M8 0V8V0ZM0 4H16H0Z" fill="black"/>
<path d="M8 0V8M0 4H16" stroke="#E4002B" stroke-width="1.6"/>
<path d="M7.99998 9.6001L8.46279 11.0391L9.87638 10.5037L9.03992 11.7627L10.3398 12.5341L8.83394 12.6652L9.04131 14.1624L7.99998 13.0668L6.95866 14.1624L7.16603 12.6652L5.66016 12.5342L6.96006 11.7627L6.12359 10.5037L7.53718 11.0391L7.99998 9.6001Z" fill="white"/>
<path d="M24.0009 12.1904L24.2213 12.8757L24.8944 12.6207L24.4961 13.2203L25.1151 13.5876L24.398 13.65L24.4968 14.363L24.0009 13.8412L23.5051 14.363L23.6038 13.65L22.8867 13.5876L23.5057 13.2203L23.1074 12.6207L23.7805 12.8757L24.0009 12.1904Z" fill="white"/>
<path d="M20.0009 5.85742L20.2213 6.54264L20.8944 6.28772L20.4961 6.88725L21.1151 7.25459L20.398 7.31697L20.4968 8.02996L20.0009 7.50822L19.5051 8.02996L19.6038 7.31697L18.8867 7.25459L19.5057 6.88725L19.1074 6.28772L19.7805 6.54264L20.0009 5.85742Z" fill="white"/>
<path d="M24.0009 1.52393L24.2213 2.20915L24.8944 1.95422L24.4961 2.55376L25.1151 2.92109L24.398 2.98347L24.4968 3.69646L24.0009 3.17472L23.5051 3.69646L23.6038 2.98348L22.8867 2.92109L23.5057 2.55376L23.1074 1.95422L23.7805 2.20915L24.0009 1.52393Z" fill="white"/>
<path d="M27.5556 4.79053L27.776 5.47575L28.4491 5.22083L28.0508 5.82036L28.6698 6.18769L27.9527 6.25008L28.0515 6.96306L27.5556 6.44132L27.0597 6.96306L27.1585 6.25008L26.4414 6.1877L27.0604 5.82036L26.6621 5.22083L27.3352 5.47575L27.5556 4.79053Z" fill="white"/>
<path d="M25.6008 8L25.775 8.42696L26.2349 8.46065L25.8826 8.75823L25.9927 9.20601L25.6008 8.96296L25.209 9.20601L25.319 8.75823L24.9668 8.46065L25.4267 8.42696L25.6008 8Z" fill="white"/>
</g>
<defs>
<clipPath id="clip0_285_396">
<rect width="32" height="16" rx="3" fill="white"/>
</clipPath>
</defs>
</svg>
