<svg width="887" height="463" viewBox="0 0 887 463" fill="none" xmlns="http://www.w3.org/2000/svg">
<rect width="887" height="463" rx="24" fill="#EEF0F3"/>
<g clip-path="url(#clip0_431_6100)">
<path fill-rule="evenodd" clip-rule="evenodd" d="M740.14 126.968L739.902 126.81V127.047L740.14 126.968ZM737.763 124.829L738.317 124.591V124.275L737.763 124.829ZM747.587 118.649L747.508 117.54L747.349 116.906L747.587 118.649ZM712.965 110.489L712.41 110.727L707.895 112.074L706.31 112.628L704.488 113.183L703.854 113.421V113.658L704.092 117.778L704.329 121.581L704.567 125.067L704.963 125.304L706.389 124.908L712.807 123.007L712.965 123.403L724.374 119.046L724.453 119.204L725.483 118.808L729.127 117.382L732.613 121.581L733.089 121.185L733.326 119.996L733.247 121.898H734.039L734.277 122.848L734.99 124.195L738.714 119.679L741.803 120.709L742.516 119.125L747.587 116.431L745.448 112.232L746.002 114.926L743.388 116.906L740.457 117.144L734.594 110.885L731.979 106.924L734.594 104.151L731.9 103.993L730.791 101.378L730.712 101.22L726.196 106.132L716.213 109.459L712.965 110.489Z" fill="#F9F9F9" stroke="black" stroke-width="0.792263" stroke-linejoin="round"/>
<path fill-rule="evenodd" clip-rule="evenodd" d="M415.47 62.3196L417.055 67.9447L420.382 88.2266L421.967 96.3077L422.442 103.438L424.264 107.716L424.661 111.361L424.977 112.549L424.898 112.787L421.729 118.016L423.789 121.502L427.75 149.389L427.909 153.034L431.87 152.796L447.478 151.925L486.457 148.676L490.339 148.28V147.884L489.23 141.784L484.397 139.328L480.594 135.366L474.573 131.722L472.672 131.563L469.74 129.345L470.532 118.412L467.76 115.877L468.71 111.44L473.781 106.845L472.909 97.3376L474.731 95.2777L480.911 88.7812L487.962 79.7494L490.656 77.848L495.41 75.5504L500.401 71.8268L497.073 72.4606L495.093 70.9553L487.487 71.9852L486.299 70.5591L479.485 73.3321L474.018 71.0345L472.513 69.2123L468.156 69.5292L465.224 68.0239L466.175 66.9147L462.451 65.7263H459.124L453.816 68.0239L452.786 66.4394L444.388 65.251L441.536 58.1206L441.219 55.9815L437.574 54.9516L437.891 61.052L428.226 61.765L416.262 62.2404L415.47 62.3196Z" fill="#F9F9F9" stroke="black" stroke-width="0.792263" stroke-linejoin="round"/>
<path fill-rule="evenodd" clip-rule="evenodd" d="M339.651 61.6066L313.427 59.8636L294.333 58.0414L275.319 55.823L263.514 54.2385L244.658 51.3071L235.23 49.7226L214.156 45.6821L211.938 45.2067L208.531 61.3689L210.037 64.3003L211.225 68.8162L210.512 69.45L212.017 73.5697L214.077 75.3127L219.94 85.1368L220.494 86.8005L222.871 86.6421L220.098 99.6352L218.989 99.9521L217.484 104.31L225.327 104.864L225.961 108.509L230.398 119.363L231.19 119.996L234.28 126.334L235.072 125.701L241.648 125.621L249.967 126.493L252.026 123.799L254.482 128.236L254.958 128.474L255.037 127.998L256.146 120.234L283.242 123.561L304.87 125.621L316.279 126.572L336.64 127.76L337.67 127.84H337.908L337.987 126.731L338.225 121.264L338.542 114.054L338.621 112.232L338.779 109.063L340.047 84.1861L341.077 64.8548L341.156 61.6858L339.651 61.6066Z" fill="#F9F9F9" stroke="black" stroke-width="0.792263" stroke-linejoin="round"/>
<path fill-rule="evenodd" clip-rule="evenodd" d="M413.806 62.3196L389.88 62.795L373.163 62.7157L358.823 62.3988L342.027 61.765L341.156 61.6858L341.077 64.8548L340.047 84.1861L338.779 109.063L338.621 112.232L341.71 112.391L376.649 113.341L408.894 113.104L422.284 112.708L424.977 112.549L424.66 111.361L424.264 107.716L422.442 103.438L421.967 96.3077L420.382 88.2266L417.055 67.9447L415.47 62.3196L413.806 62.3196Z" fill="#F9F9F9" stroke="black" stroke-width="0.792263" stroke-linejoin="round"/>
<path fill-rule="evenodd" clip-rule="evenodd" d="M211.859 45.2067L204.808 43.7806L202.51 43.226L201.481 42.9884L192.29 84.3445L192.686 87.7512L192.369 91.3164L192.528 92.1087V92.1879L192.607 93.6932L195.301 96.6246L191.419 106.369L183.179 117.144L182.942 119.125L185.081 124.195L177.554 155.41L177.237 157.074L179.456 157.55L201.877 161.986L210.829 163.65L213.127 164.046L215.345 164.442L226.754 166.264L247.194 169.354L249.492 169.671L249.809 167.057L250.522 161.907L253.215 141.308L254.641 131.088L254.958 128.474L254.483 128.236L252.027 123.799L249.967 126.493L241.648 125.621L235.072 125.701L234.28 126.334L231.19 119.996L230.398 119.363L225.961 108.509L225.328 104.864L217.484 104.31L218.99 99.9521L220.099 99.6352L222.872 86.6421L220.495 86.8005L219.94 85.1368L214.078 75.3127L212.018 73.5698L210.512 69.45L211.225 68.8162L210.037 64.3003L208.532 61.3689L211.938 45.2068L211.859 45.2067Z" fill="#F9F9F9" stroke="black" stroke-width="0.792263" stroke-linejoin="round"/>
<path fill-rule="evenodd" clip-rule="evenodd" d="M116.391 64.9341L116.47 63.5872L116.312 63.6664L116.391 64.9341ZM133.266 57.7245L133.742 56.9322L133.187 56.853L133.266 57.7245ZM131.761 56.2984L132.236 54.7139L131.761 54.5554V56.2984ZM137.545 54.0008L137.465 52.4163L136.118 54.4762L137.545 54.0008ZM137.703 50.6733L137.941 49.0888L137.782 48.6927L137.703 50.6733ZM137.941 42.9092L137.861 42.0377L137.545 41.9584L137.941 42.9092ZM140.476 37.6802L139.763 37.601L138.337 39.8193L140.476 37.6802ZM138.495 35.5411L138.891 35.2242L138.971 34.9865L138.495 35.5411ZM138.099 35.7788L137.861 34.1943L137.148 35.5411L138.099 35.7788ZM137.703 33.5605L136.99 33.2436L137.545 34.0358L137.703 33.5605ZM140.08 34.9073V33.8774L139.842 34.2735L140.08 34.9073ZM140.793 33.8774L140.476 33.6397H140.397L140.793 33.8774ZM136.277 32.1344L135.881 31.8175L135.722 31.7383L136.277 32.1344ZM139.208 31.8175L137.069 32.3721L137.624 32.5305L139.208 31.8175ZM137.465 31.659L137.069 31.1837L136.99 31.2629L137.465 31.659ZM139.129 30.7083H138.812L139.208 30.8668L139.129 30.7083ZM123.601 71.3514L126.453 74.4412L125.978 80.3832L126.532 81.8885L130.81 84.186L142.853 85.2952L143.328 86.7213L149.032 86.8005L154.42 87.5136L163.214 86.5629L167.571 87.2759L168.76 86.7213L191.022 91.7918L192.528 92.1087L192.369 91.3164L192.686 87.7513L192.29 84.3445L201.48 42.9884L200.213 42.7507L181.674 38.3933L165.511 34.2735L147.21 29.203L141.744 27.8562L143.011 34.7489L141.823 36.9672L139.684 35.8581L141.744 45.4444L139.525 48.6135L138.495 51.5449V54.5555L133.821 57.8037L131.84 56.5361L129.939 57.4868L133.425 52.9709L132.553 56.0608L134.534 53.9216L136.119 54.2385L135.643 50.2772L136.673 50.4357L138.812 45.6821L138.099 44.9691L135.326 48.5343L133.504 48.6135L135.485 46.3951L137.703 45.8406L136.911 41.8L134.692 41.2454L133.583 39.344L132.236 40.057L124.948 36.888L118.53 31.8967L116.787 36.7295L116.629 38.7894L117.976 42.4338L117.104 54.2385L116.47 56.0607L120.036 56.3777L116.47 58.9129L118.372 59.8636L116.867 64.9341L116.153 60.9728L114.807 65.5679L116.629 67.7862L118.609 67.6278L120.986 69.0539L122.175 71.3514L123.601 71.3514Z" fill="#F9F9F9" stroke="black" stroke-width="0.792263" stroke-linejoin="round"/>
<path fill-rule="evenodd" clip-rule="evenodd" d="M263.356 254.998L236.657 251.67L222.317 249.61L201.876 246.362L199.816 246.045V246.204L196.33 261.574L194.508 261.494L191.735 259.038L188.249 261.97L188.17 274.567L186.903 277.26V277.498V277.577L186.744 279.558L189.517 287.005L191.973 290.333L187.536 292.947L185.793 296.196L182.941 303.167L181.515 303.484L181.436 309.268L183.892 311.09L182.624 314.576L179.772 314.734L178.108 317.824L183.813 321.389L194.587 327.411L227.862 345.078L256.067 348.564H256.384L258.602 325.192L259.157 319.409L265.099 258.088L265.416 255.236L263.356 254.998Z" fill="#F9F9F9" stroke="black" stroke-width="0.792263" stroke-linejoin="round"/>
<path fill-rule="evenodd" clip-rule="evenodd" d="M127.721 298.968L128.037 300.711V301.028L127.721 298.968ZM116.074 292.155L116.629 293.343L116.946 293.264L116.074 292.155ZM129.939 291.917L130.177 293.977L131.603 295.007L129.939 291.917ZM120.352 280.667L119.481 280.43L120.194 280.746L120.352 280.667ZM111.558 278.29L109.419 279.558L109.974 280.113L111.558 278.29ZM107.439 276.785L107.28 277.419L107.993 277.577L107.439 276.785ZM114.41 278.37L117.896 280.35L118.53 279.796L114.41 278.37ZM95.8715 208.967L95.7923 208.73V209.047L95.8715 208.967ZM141.585 148.835L138.495 148.042L104.586 138.694L91.9895 134.891V135.208L91.2764 143.051L87.9489 152.321L82.4031 159.213L82.2446 162.699L84.9383 167.532L86.2852 173.87L84.3837 179.02L84.7006 184.17L83.7499 186.309L86.9982 193.36L89.0581 196.054L88.8996 203.739L93.8117 208.413L96.6638 203.659L99.7536 206.115L100.942 205.006L96.6638 205.798L96.5846 209.839L97.456 214.909L95.0792 212.612L93.7324 209.522L93.3363 213.8L94.4454 222.277L98.8821 227.744L95.9507 231.547L96.4261 236.38L99.5952 241.292L105.141 256.503L106.884 257.454L106.329 267.991L107.201 269.259L119.085 273.537L122.729 277.419L123.997 279.954L127.483 281.935L131.286 282.648L132.87 287.005L136.039 288.511L140.793 294.136L145.229 301.504L144.913 308.317L147.369 311.565L179.772 314.734L182.624 314.576L183.892 311.09L181.436 309.268L181.515 303.484L182.941 303.167L185.793 296.196L187.536 292.947L191.973 290.333L189.517 287.005L186.744 279.558L186.903 277.577V277.498L184.843 274.725L178.505 266.248L166.224 248.977L149.112 224.417L139.446 211.027L130.097 197.559L140.872 151.845L141.585 148.835Z" fill="#CF202F"/>
<path d="M87.3943 208.571L87.3151 208.651M127.721 298.968L128.037 300.711V301.028L127.721 298.968ZM116.074 292.155L116.629 293.343L116.946 293.264L116.074 292.155ZM129.939 291.917L130.177 293.977L131.603 295.007L129.939 291.917ZM120.352 280.667L119.481 280.43L120.194 280.746L120.352 280.667ZM111.558 278.29L109.419 279.558L109.974 280.113L111.558 278.29ZM107.439 276.785L107.28 277.419L107.993 277.577L107.439 276.785ZM114.41 278.37L117.896 280.35L118.53 279.796L114.41 278.37ZM95.8715 208.967L95.7923 208.73V209.047L95.8715 208.967ZM141.585 148.835L138.495 148.042L104.586 138.694L91.9895 134.891V135.208L91.2764 143.051L87.9489 152.321L82.4031 159.213L82.2446 162.699L84.9383 167.532L86.2852 173.87L84.3837 179.02L84.7006 184.17L83.7499 186.309L86.9982 193.36L89.0581 196.054L88.8996 203.739L93.8117 208.413L96.6638 203.659L99.7536 206.115L100.942 205.006L96.6638 205.798L96.5846 209.839L97.456 214.909L95.0792 212.612L93.7324 209.522L93.3363 213.8L94.4454 222.277L98.8821 227.744L95.9507 231.547L96.4261 236.38L99.5952 241.292L105.141 256.503L106.884 257.454L106.329 267.991L107.201 269.259L119.085 273.537L122.729 277.419L123.997 279.954L127.483 281.935L131.286 282.648L132.87 287.005L136.039 288.511L140.793 294.136L145.229 301.504L144.913 308.317L147.369 311.565L179.772 314.735L182.624 314.576L183.892 311.09L181.436 309.268L181.515 303.484L182.941 303.167L185.793 296.196L187.536 292.947L191.973 290.333L189.517 287.005L186.744 279.558L186.903 277.577V277.498L184.843 274.725L178.505 266.248L166.224 248.977L149.112 224.417L139.446 211.027L130.097 197.559L140.872 151.845L141.585 148.835Z" stroke="black" stroke-width="0.792263" stroke-linejoin="round"/>
<path fill-rule="evenodd" clip-rule="evenodd" d="M359.219 210.631L359.536 195.103L355.733 194.944L336.402 194.231L334.501 194.152L332.916 194.073L309.386 192.568L293.699 191.3L274.13 189.398L272.229 189.161L271.991 191.221L267.713 232.498L266.208 246.917L265.574 253.176L265.416 255.235L267.872 255.473L307.802 258.959L325.39 260.068L342.899 260.861L345.434 260.94L347.019 261.019L350.346 261.098L351.931 261.178L356.922 261.336H358.189V259.751L359.061 217.841L359.14 213.166V211.661L359.219 210.631Z" fill="#F9F9F9" stroke="black" stroke-width="0.792263" stroke-linejoin="round"/>
<path fill-rule="evenodd" clip-rule="evenodd" d="M200.212 243.51L208.452 192.251L212.651 166.581L213.126 164.046L210.829 163.65L201.876 161.986L179.455 157.55L177.237 157.074L175.018 156.599L163.848 154.143L143.803 149.389L141.585 148.835L140.872 151.845L130.097 197.559L139.446 211.027L149.111 224.416L166.224 248.977L178.504 266.248L184.843 274.725L186.902 277.498V277.26L188.17 274.567L188.249 261.97L191.735 259.038L194.508 261.494L196.33 261.574L199.816 246.204V246.045L200.212 243.51Z" fill="#F9F9F9" stroke="black" stroke-width="0.792263" stroke-linejoin="round"/>
<path fill-rule="evenodd" clip-rule="evenodd" d="M345.196 267.12L345.276 265.06L345.355 263L345.434 260.94L342.899 260.861L325.39 260.068L307.802 258.959L267.872 255.473L265.416 255.236L265.099 258.088L259.157 319.409L258.602 325.192L256.384 348.564L256.701 348.643L267.634 349.673L268.664 344.127L270.645 342.543L292.828 344.524H292.986L291.006 340.641L301.067 341.355L326.182 342.781L341.869 343.494L344.563 269.179L345.117 269.259L345.196 267.12Z" fill="#F9F9F9" stroke="black" stroke-width="0.792263" stroke-linejoin="round"/>
<path fill-rule="evenodd" clip-rule="evenodd" d="M91.9894 134.891L104.586 138.694L138.495 148.042L141.585 148.835L143.803 149.389L163.848 154.143L175.019 156.599L177.237 157.074L177.554 155.41L185.08 124.195L182.941 119.125L183.179 117.144L191.418 106.369L195.3 96.6246L192.607 93.6932L192.528 92.1879V92.1086L191.022 91.7917L168.76 86.7213L167.571 87.2758L163.214 86.5628L154.42 87.5135L149.032 86.8005L143.328 86.7212L142.853 85.2952L130.81 84.186L126.532 81.8884L125.977 80.3831L126.453 74.4412L123.601 71.3513L123.363 71.4306L122.808 71.8267L118.847 69.7668L116.47 70.4798L114.886 69.6876L113.222 76.501L112.113 78.4025L107.201 90.3656L105.775 96.9414L104.903 97.0207L100.308 107.954L97.2183 112.628L96.1092 113.421L93.257 118.966L92.7024 124.829L90.9595 130.058L91.9894 134.812L91.9894 134.891ZM120.986 69.8461L120.749 69.1331L120.669 69.6876L120.986 69.8461Z" fill="#F9F9F9" stroke="black" stroke-width="0.792263" stroke-linejoin="round"/>
<path fill-rule="evenodd" clip-rule="evenodd" d="M247.194 169.354L226.753 166.264L215.345 164.442L213.126 164.046L212.651 166.581L208.452 192.251L200.213 243.51L199.816 246.045L201.876 246.362L222.317 249.611L236.657 251.67L263.356 254.998L265.416 255.236L265.574 253.176L266.208 246.917L267.713 232.498L271.992 191.221L272.229 189.161L270.645 189.002L250.442 186.546L247.352 186.15L249.333 170.701L249.491 169.671L247.194 169.354Z" fill="#F9F9F9" stroke="black" stroke-width="0.792263" stroke-linejoin="round"/>
<path fill-rule="evenodd" clip-rule="evenodd" d="M336.165 158.896L336.799 146.537L337.591 129.9L337.67 127.84L336.64 127.76L316.279 126.572L304.87 125.621L283.242 123.561L256.146 120.234L255.037 127.998L254.958 128.473L254.641 131.088L253.215 141.308L250.521 161.907L249.808 167.057L249.491 169.671L249.333 170.701L247.352 186.15L250.442 186.546L270.645 189.002L272.229 189.161L274.131 189.398L293.699 191.3L309.386 192.568L332.916 194.073L334.501 194.152L334.58 192.092L334.976 183.773L335.689 169.275L336.006 163.095L336.086 161.036L336.165 158.896Z" fill="#F9F9F9" stroke="black" stroke-width="0.792263" stroke-linejoin="round"/>
<path fill-rule="evenodd" clip-rule="evenodd" d="M523.139 269.813L514.583 271.081L518.069 265.535L516.563 262.445L486.378 265.377L460.867 267.436L457.144 267.674L457.619 269.892L460.709 285.896L460.788 289.461L461.659 311.011L461.739 314.576L461.976 314.655L463.165 315.923L467.918 315.764L468.394 322.736L468.552 324.717L471.008 324.479L478.535 323.925L508.403 321.152H508.561L508.482 319.409L509.275 318.854L507.848 316.161L510.859 303.484L509.671 302.058L514.187 297.067L513.87 292.789L517.197 287.243V287.164L517.039 287.005L519.891 284.391L519.099 281.222L521.317 277.736L520.842 274.488L523.218 269.892V269.813L523.139 269.813Z" fill="#F9F9F9" stroke="black" stroke-width="0.792263" stroke-linejoin="round"/>
<path fill-rule="evenodd" clip-rule="evenodd" d="M499.529 163.412L495.172 161.115L492.795 157.866L492.003 153.192L492.637 151.053L490.339 148.28L486.457 148.676L447.478 151.924L431.87 152.796L427.909 153.034L426.245 153.113L427.592 161.907L426.483 166.106L428.226 168.721V169.275L428.78 169.354L431.316 176.802L433.772 180.684L433.93 185.12L436.624 188.844L436.148 190.429L438.604 200.411V200.649L454.846 200.173L472.196 198.668L489.23 196.529L493.112 199.936L493.271 200.094L493.984 199.777L493.429 196.687L496.36 194.865L497.549 186.784L496.36 186.23L497.073 182.11L500.639 181.397L504.6 178.545L506.343 173.553L506.422 171.018L503.253 168.008L502.302 166.106L499.292 164.205L499.45 163.809L499.529 163.412Z" fill="#F9F9F9" stroke="black" stroke-width="0.792263" stroke-linejoin="round"/>
<path fill-rule="evenodd" clip-rule="evenodd" d="M456.588 257.295L454.608 223.783L451.043 221.723L450.726 220.138L447.874 217.603L450.647 214.196L449.537 212.216L447.477 212.295L445.576 210.948L444.784 210.314L442.09 210.473L412.856 211.582L399.466 211.899H372.846L362.151 211.74L359.14 211.661V213.166L359.061 217.841L358.189 259.751V261.336L361.596 261.415L379.977 261.653L422.997 261.019L453.657 259.593L456.668 259.355L456.588 257.295Z" fill="#F9F9F9" stroke="black" stroke-width="0.792263" stroke-linejoin="round"/>
<path fill-rule="evenodd" clip-rule="evenodd" d="M493.112 199.936L489.23 196.529L472.196 198.668L454.846 200.173L438.604 200.649L438.525 201.124L440.506 204.927L442.328 206.195L444.467 209.997L444.784 210.314L445.576 210.948L447.477 212.295L449.537 212.216L450.647 214.196L447.874 217.603L450.726 220.138L451.043 221.723L454.608 223.783L456.588 257.295L456.668 259.355L456.826 261.415L456.905 263.475L457.064 265.614L457.143 267.674L460.867 267.436L486.378 265.377L516.563 262.445L518.068 265.535L514.582 271.081L523.139 269.813H523.218V269.179L523.376 265.535L524.961 263.554L524.485 261.336L524.406 261.257L524.327 261.177L524.644 260.148L525.119 260.306L525.357 260.94L525.278 261.177V261.257V261.891L525.595 261.97L526.228 261.178V261.098L526.308 260.861L528.368 259.593L528.684 259.435L529.397 252.938L529.239 252.621L529.001 252.542L523.376 247.947L524.248 246.283L522.663 241.767L519.811 239.549L514.424 237.172L511.017 234.399L511.413 228.695L512.443 223.387L506.739 223.703L504.996 221.881L504.204 218.237L495.172 210.631L492.637 203.58L493.27 200.094L493.112 199.936Z" fill="#F9F9F9" stroke="black" stroke-width="0.792263" stroke-linejoin="round"/>
<path fill-rule="evenodd" clip-rule="evenodd" d="M426.72 169.117L424.264 166.661L415.629 164.125L412.856 164.046L408.657 165.234L403.666 162.065L388.058 162.224L365.32 161.986L338.462 161.115L336.086 161.035L336.006 163.095L335.689 169.275L334.976 183.773L334.58 192.092L334.501 194.152L336.402 194.231L355.734 194.944L359.536 195.103L359.22 210.631L359.14 211.661L362.151 211.74L372.846 211.899H399.466L412.856 211.582L442.09 210.473L444.784 210.314L444.467 209.997L442.328 206.194L440.506 204.927L438.525 201.124L438.604 200.649V200.411L436.148 190.428L436.624 188.844L433.93 185.12L433.771 180.684L431.315 176.802L428.78 169.354L428.226 169.275L426.72 169.117Z" fill="#F9F9F9" stroke="black" stroke-width="0.792263" stroke-linejoin="round"/>
<path fill-rule="evenodd" clip-rule="evenodd" d="M457.064 265.614L456.906 263.475L456.826 261.415L456.668 259.355L453.657 259.593L422.997 261.019L379.977 261.653L361.596 261.415L358.19 261.336H356.922L351.931 261.177L350.346 261.098L347.019 261.019L345.434 260.94L345.355 263L345.276 265.059L345.196 267.119L345.117 269.258H345.593L364.765 269.734L385.047 269.971L385.285 297.067L386.711 301.82L389.88 304.831L393.287 304.99L394 303.563L398.674 307.842L404.775 308.475L405.884 309.743L408.102 308.713L413.648 311.328V312.833L415.708 312.754L417.847 310.931L421.808 313.467L425.532 314.814L428.067 311.328L436.148 315.13L439.159 312.674L441.615 311.724L443.595 312.199L451.043 310.06L455.004 311.724L458.569 314.021L461.659 314.576H461.738L461.659 311.011L460.788 289.461L460.708 285.896L457.618 269.892L457.143 267.674L457.064 265.614Z" fill="#F9F9F9" stroke="black" stroke-width="0.792263" stroke-linejoin="round"/>
<path fill-rule="evenodd" clip-rule="evenodd" d="M422.284 112.708L408.895 113.104L376.649 113.341L341.711 112.391L338.621 112.232L338.542 114.054L338.225 121.264L337.987 126.731L337.908 127.84H337.67L337.591 129.9L336.799 146.537L336.165 158.896L336.085 161.036L338.462 161.115L365.32 161.986L388.058 162.224L403.665 162.066L408.657 165.235L412.856 164.046L415.629 164.125L424.264 166.661L426.72 169.117L428.226 169.275V168.721L426.483 166.106L427.592 161.907L426.245 153.113L427.909 153.034L427.75 149.389L423.789 121.502L421.729 118.016L424.898 112.787L424.977 112.549L422.284 112.708Z" fill="#F9F9F9" stroke="black" stroke-width="0.792263" stroke-linejoin="round"/>
<path fill-rule="evenodd" clip-rule="evenodd" d="M521.95 385.087L520.92 385.325L520.445 385.8L521.95 385.087ZM525.278 385.087L524.723 384.85L524.565 385.087H525.278ZM527.179 384.454H526.625L526.308 384.85L527.179 384.454ZM526.228 383.899L526.07 383.661L525.991 383.899H526.228ZM532.567 379.7L532.329 379.858H532.725L532.567 379.7ZM543.658 375.026L544.134 374.392L543.579 375.105L543.658 375.026ZM545.243 372.966L545.084 373.045V373.124L545.243 372.966ZM504.52 379.938L505.709 378.432L502.461 377.561L501.035 378.749L504.52 379.938ZM537.399 373.045L537.082 372.728L537.003 372.886L537.399 373.045ZM538.271 371.619L537.479 371.381L537.716 372.173L538.271 371.619ZM544.767 370.272V370.034V370.114V370.272ZM546.352 369.242L546.273 369.163L546.352 369.321V369.242ZM545.718 369.084L545.56 369.004L545.48 369.242L545.718 369.084ZM540.172 368.846L540.885 368.608V368.371L540.172 368.846ZM540.568 368.45L540.965 368.054L540.885 367.974L540.568 368.45ZM537.796 365.518L537.637 365.677H537.716L537.796 365.518ZM508.561 321.152H508.403L478.534 323.925L471.008 324.479L468.552 324.717L468.631 326.618L470.216 341.909L472.83 345.553L472.909 347.693L475.445 352.129L477.504 358.626L476.791 362.27L476.237 371.302L475.048 374.233H475.207L475.445 376.293L474.098 378.195L483.922 377.085L491.607 379.225L497.073 379.938L499.846 377.957L498.341 375.976L503.411 374.392L503.253 376.135L505.867 375.501L508.007 378.828L509.829 378.195L514.582 381.443L511.651 382.473L518.385 384.454H520.92L522.426 382.631L525.674 380.888L527.972 384.216L529.556 381.205L529.081 376.452L533.359 378.115L533.834 379.541L538.905 380.175L541.44 382.235L541.123 383.899L544.688 380.571L543.341 378.828L537.399 377.323L535.181 376.056L535.102 373.679L537.558 373.996L539.459 370.114L537.003 366.707L535.656 369.955L532.567 369.401L534.706 365.915L533.28 365.518L529.794 367.974L524.802 368.291L523.376 367.182L525.674 363.142L528.368 363.062L532.963 364.568L536.29 364.885L534.468 362.587L530.982 355.774L531.933 351.971L504.6 354.981L505.63 353.951L504.521 351.099L506.184 348.643L507.135 342.464L513.156 332.164L510.225 328.599L510.383 325.985L508.561 321.706L508.561 321.152Z" fill="#F9F9F9" stroke="black" stroke-width="0.792263" stroke-linejoin="round"/>
<path fill-rule="evenodd" clip-rule="evenodd" d="M428.067 440.308L424.264 425.968V428.662L428.067 440.308ZM427.196 415.114L424.502 420.185L424.185 421.848L427.196 415.114ZM429.335 411.39L431.87 408.063L430.048 409.172L429.335 411.39ZM438.287 403.309L432.345 406.399L434.009 406.082L438.287 403.309ZM439.08 402.2L440.743 400.853L440.11 401.012L439.08 402.2ZM345.117 269.259L344.563 269.179L341.869 343.494L326.182 342.781L301.068 341.354L291.006 340.641L292.987 344.524L293.066 344.603L301.622 353.159L306.534 358.943L313.031 363.776L317.626 372.174L319.369 380.968L323.093 383.424L326.024 386.672L330.223 388.177L336.323 392.059L339.096 393.089L342.899 389.286L344.087 385.246L346.068 381.364L352.248 378.908L354.625 380.096L361.517 380.651L367.776 384.533L372.054 385.325L370.866 387.543L373.322 389.128L375.62 391.901L376.095 394.832L377.6 396.813L381.086 405.211L384.572 408.142L387.266 412.579L390.673 416.065L392.178 416.54L393.445 425.572L397.169 427.632L397.328 430.484L398.278 430.246L404.775 438.169L408.023 438.882L412.143 441.338H418.481L423.076 443.873L428.543 442.685L426.087 440.387L423.868 433.732L422.997 427.949L421.729 426.047L422.284 422.165L420.62 422.007L418.402 418.362L420.937 421.056L423.868 420.026L425.453 415.827L422.284 411.549L427.037 412.104L429.256 408.697L428.939 407.508L430.919 404.894L430.444 407.191L432.662 405.449L431.791 402.359L434.643 403.864L438.288 401.804L434.722 398.08L436.941 398.952L441.06 399.19L446.448 398.001L452.469 393.961L456.113 390.95L456.668 388.732L458.886 386.434L457.698 382.631L457.936 380.255L461.897 378.512L461.58 382.711H463.957L461.342 384.929L471.879 379.383L473.622 379.304L474.732 374.233H475.048L476.237 371.302L476.791 362.27L477.505 358.626L475.445 352.129L472.909 347.693L472.83 345.553L470.216 341.909L468.631 326.618L468.552 324.717L468.393 322.736L467.918 315.764L463.164 315.923L461.976 314.655L461.738 314.576H461.659L458.569 314.021L455.004 311.724L451.043 310.06L443.596 312.199L441.615 311.724L439.159 312.675L436.148 315.131L428.067 311.328L425.532 314.814L421.808 313.467L417.847 310.932L415.708 312.754L413.648 312.833V311.328L408.102 308.713L405.884 309.743L404.775 308.476L398.674 307.842L394 303.564L393.287 304.99L389.88 304.831L386.711 301.821L385.285 297.067L385.047 269.972L364.765 269.734L345.593 269.259L345.117 269.259Z" fill="#F9F9F9" stroke="black" stroke-width="0.792263" stroke-linejoin="round"/>
<path fill-rule="evenodd" clip-rule="evenodd" d="M724.373 119.046L712.965 123.403L712.806 123.007L706.389 124.908L704.963 125.304L705.121 126.097L708.132 137.743L709.083 138.931L707.023 141.467L708.449 142.813L713.044 138.377L715.5 134.97L715.975 135.921L727.542 130.771L727.78 130.533L727.701 128.632L727.225 126.968L724.769 120.076L724.453 119.204L724.373 119.046Z" fill="#F9F9F9" stroke="black" stroke-width="0.792263" stroke-linejoin="round"/>
<path fill-rule="evenodd" clip-rule="evenodd" d="M713.678 64.0626L712.648 65.3302L711.46 65.0925L710.826 70.3214V70.4007L712.727 77.531L712.569 78.9571L709.162 83.473L710.034 87.5928V92.7425L709.4 97.496L712.965 110.489L716.213 109.459L726.196 106.132L730.712 101.22V99.9521L730.949 97.8922L730.395 98.1299L730.316 97.6545L725.324 91.5541L725.166 90.9995L713.678 64.0626Z" fill="#F9F9F9" stroke="black" stroke-width="0.792263" stroke-linejoin="round"/>
<path fill-rule="evenodd" clip-rule="evenodd" d="M732.138 126.176L732.058 124.512L731.821 125.146L732.138 126.176ZM733.722 124.908L732.692 122.928L732.613 124.988L733.722 124.908ZM733.247 122.452L733.801 123.878L734.514 125.146L734.99 124.195L734.277 122.848L734.039 121.898H733.247V122.452ZM724.453 119.204L724.77 120.076L727.226 126.968L727.701 128.632L727.78 130.533L727.939 130.296L731.742 127.285L731.028 121.898L732.613 121.581L729.127 117.382L725.483 118.808L724.453 119.204Z" fill="#F9F9F9" stroke="black" stroke-width="0.792263" stroke-linejoin="round"/>
<path fill-rule="evenodd" clip-rule="evenodd" d="M712.965 110.489L709.399 97.4961L710.033 92.7425V87.5928L709.162 83.473L712.568 78.9571L712.727 77.5311L710.826 70.4007L709.796 70.7968L705.438 72.3813L701.16 74.0451L691.336 77.6103L690.781 77.7687L694.346 86.0875L695.535 93.9309L699.734 100.507L703.695 113.5L703.854 113.421L704.487 113.183L706.31 112.628L707.894 112.074L712.41 110.727L712.965 110.489Z" fill="#F9F9F9" stroke="black" stroke-width="0.792263" stroke-linejoin="round"/>
<path fill-rule="evenodd" clip-rule="evenodd" d="M545.877 283.519L546.194 284.153L547.303 284.866L547.778 317.349L547.937 335.175L551.977 359.577L552.294 359.497L555.859 360.21L556.81 353.159L558.394 357.121L561.088 359.577L566.238 356.566L565.683 356.091L565.842 356.17L562.276 348.01L596.502 342.464L598.8 342.068V341.988L596.661 337.948L596.502 332.164L594.759 328.995L595.631 322.816L597.057 321.231L591.194 310.773L580.578 278.449L580.498 278.29L578.122 278.687L565.445 280.746L559.107 281.539L545.797 283.361L545.877 283.519Z" fill="#F9F9F9" stroke="black" stroke-width="0.792263" stroke-linejoin="round"/>
<path fill-rule="evenodd" clip-rule="evenodd" d="M657.19 438.961H657.031L657.111 439.04L657.19 438.961ZM656.477 438.882V438.961H656.556L656.477 438.882ZM644.989 440.07H644.91V440.15L644.989 440.07ZM667.489 435.079H667.41L667.489 435.238V435.079ZM669.628 434.525V434.366L669.47 434.604L669.628 434.525ZM668.836 434.366L668.519 434.049L668.44 434.128L668.836 434.366ZM668.598 435L667.648 433.811L668.202 434.841L668.598 435ZM676.125 430.326V430.642L676.283 430.484L676.125 430.326ZM677.234 429.533L677.472 429.137L677.155 429.454L677.234 429.533ZM677.472 428.741H677.393V428.82L677.472 428.741ZM676.759 427.315L676.68 427.236V427.394L676.759 427.315ZM677.313 425.413L677.155 425.493L677.393 425.572L677.313 425.413ZM677.63 425.413L677.472 425.255L677.551 425.493L677.63 425.413ZM677.076 425.255L676.996 425.176V425.334L677.076 425.255ZM680.007 424.7V424.621L679.849 424.938L680.007 424.7ZM676.68 425.017H676.521L676.68 425.097V425.017ZM678.343 424.067H678.106L678.026 424.146L678.343 424.067ZM672.322 423.987V423.829L672.243 423.987H672.322ZM673.035 423.75H672.797L673.035 424.225V423.75ZM671.134 423.829V423.354L670.738 423.433L671.134 423.829ZM670.025 423.037L670.421 423.433V423.274L670.025 423.037ZM681.671 423.512L680.245 424.146L680.72 424.225L681.671 423.512ZM670.579 422.799H670.104V422.957L670.579 422.799ZM683.097 418.838L683.176 418.442L683.255 417.412L683.097 418.838ZM683.176 414.401L682.859 413.609L682.701 413.926L683.176 414.401ZM664.875 416.382L664.716 416.619L665.113 416.699L664.875 416.382ZM663.37 415.669L662.657 415.906L663.211 415.986L663.37 415.669ZM661.785 415.827V415.589L661.706 415.669L661.785 415.827ZM660.121 415.748L659.646 416.065L660.28 416.382L660.121 415.748ZM662.34 415.827L662.26 415.589L661.864 415.51L662.34 415.827ZM651.961 408.063L651.486 408.301L652.436 408.618L651.961 408.063ZM650.06 405.528L649.426 404.577L649.663 405.29L650.06 405.528ZM652.516 407.112L651.406 404.577L650.614 404.339L652.516 407.112ZM649.347 403.943L649.109 403.309L648.95 402.913L649.347 403.943ZM642.771 395.149L641.345 394.119L641.899 394.674L642.771 395.149ZM678.423 389.841L672.639 380.175H672.322L678.423 389.841ZM638.413 374.392L638.176 374.313L638.413 374.471V374.392ZM637.938 373.837L637.859 373.916L637.938 373.996V373.837ZM637.383 373.045V372.966L637.304 373.045H637.383ZM637.7 372.728L637.938 372.886V372.728H637.7ZM638.176 372.411L637.859 372.49H637.938L638.176 372.411ZM637.621 372.332L637.383 372.094L637.463 372.173L637.621 372.332ZM637.066 371.46H636.908L637.146 371.54L637.066 371.46ZM637.621 370.51H637.304L637.225 370.589L637.621 370.51ZM637.938 370.668L637.542 370.272L637.7 370.351L637.938 370.668ZM634.927 367.261L634.769 367.182V367.261H634.927ZM631.521 367.261L631.283 366.944L631.362 367.341L631.521 367.261ZM602.682 364.647L605.059 362.825L602.445 364.568L602.682 364.647ZM607.436 360.844L607.674 360.606L606.723 361.002L607.436 360.844ZM577.33 355.536L568.694 358.309L573.448 356.962L577.33 355.536ZM598.8 342.067L596.503 342.464L562.277 348.009L565.842 356.17L566.08 356.249L565.208 359.497L567.743 358.388L570.516 355.932L575.27 355.774L580.737 353.793L584.46 354.348L583.589 355.694L590.402 357.992L596.265 360.844L597.612 364.013L601.969 363.062L612.269 354.664L616.072 354.823L631.6 366.548L634.769 365.915L638.096 370.351L638.73 377.402L637.7 381.839L638.176 384.057L640.949 389.603L639.681 385.246L643.246 385.167L643.563 388.336L641.662 393.248L648.237 402.279L650.693 402.359L648.634 399.586L651.169 399.903L652.674 398.952L652.04 404.022L655.447 406.716L657.745 412.896L660.834 414.797L664.796 415.827L670.262 422.799L673.114 424.304L669.312 424.542L671.055 426.523L677.313 424.463L680.403 422.72L683.255 412.737L681.829 397.209L681.512 395.624L673.907 382.948L667.41 373.758L663.766 366.231L666.856 368.846L667.489 368.371L668.836 374.946L672.322 379.938L668.915 373.283L669.074 370.114L658.854 357.675L656.398 353.793L653.149 347.217L650.931 341.671L649.188 339.691L648.792 337.155L648.713 337.076L643.246 336.759L641.107 338.423L639.919 344.523L638.809 341.671L601.415 346.346L598.721 342.147L598.8 342.067Z" fill="#F9F9F9"/>
<path d="M656.635 438.803V438.723M645.86 439.991V440.07M645.702 440.07V439.991M676.046 428.503L675.967 428.424M674.62 427.236L674.54 427.156M678.977 423.67H678.898M657.19 438.961H657.031L657.111 439.04L657.19 438.961ZM656.477 438.882V438.961H656.556L656.477 438.882ZM644.989 440.07H644.91V440.15L644.989 440.07ZM667.489 435.079H667.41L667.489 435.238V435.079ZM669.628 434.525V434.366L669.47 434.604L669.628 434.525ZM668.836 434.366L668.519 434.049L668.44 434.128L668.836 434.366ZM668.598 435L667.648 433.811L668.202 434.841L668.598 435ZM676.125 430.326V430.642L676.283 430.484L676.125 430.326ZM677.234 429.533L677.472 429.137L677.155 429.454L677.234 429.533ZM677.472 428.741H677.393V428.82L677.472 428.741ZM676.759 427.315L676.68 427.236V427.394L676.759 427.315ZM677.313 425.413L677.155 425.493L677.393 425.572L677.313 425.413ZM677.63 425.413L677.472 425.255L677.551 425.493L677.63 425.413ZM677.076 425.255L676.996 425.176V425.334L677.076 425.255ZM680.007 424.7V424.621L679.849 424.938L680.007 424.7ZM676.68 425.017H676.521L676.68 425.097V425.017ZM678.343 424.067H678.106L678.026 424.146L678.343 424.067ZM672.322 423.987V423.829L672.243 423.987H672.322ZM673.035 423.75H672.797L673.035 424.225V423.75ZM671.134 423.829V423.354L670.738 423.433L671.134 423.829ZM670.025 423.037L670.421 423.433V423.274L670.025 423.037ZM681.671 423.512L680.245 424.146L680.72 424.225L681.671 423.512ZM670.579 422.799H670.104V422.957L670.579 422.799ZM683.097 418.838L683.176 418.442L683.255 417.412L683.097 418.838ZM683.176 414.401L682.859 413.609L682.701 413.926L683.176 414.401ZM664.875 416.382L664.716 416.619L665.113 416.699L664.875 416.382ZM663.37 415.669L662.657 415.906L663.211 415.986L663.37 415.669ZM661.785 415.827V415.589L661.706 415.669L661.785 415.827ZM660.121 415.748L659.646 416.065L660.28 416.382L660.121 415.748ZM662.34 415.827L662.26 415.589L661.864 415.51L662.34 415.827ZM651.961 408.063L651.486 408.301L652.436 408.618L651.961 408.063ZM650.06 405.528L649.426 404.577L649.663 405.29L650.06 405.528ZM652.516 407.112L651.406 404.577L650.614 404.339L652.516 407.112ZM649.347 403.943L649.109 403.309L648.95 402.913L649.347 403.943ZM642.771 395.149L641.345 394.119L641.899 394.674L642.771 395.149ZM678.423 389.841L672.639 380.175H672.322L678.423 389.841ZM638.413 374.392L638.176 374.313L638.413 374.471V374.392ZM637.938 373.837L637.859 373.916L637.938 373.996V373.837ZM637.383 373.045V372.966L637.304 373.045H637.383ZM637.7 372.728L637.938 372.886V372.728H637.7ZM638.176 372.411L637.859 372.49H637.938L638.176 372.411ZM637.621 372.332L637.383 372.094L637.463 372.173L637.621 372.332ZM637.066 371.46H636.908L637.146 371.54L637.066 371.46ZM637.621 370.51H637.304L637.225 370.589L637.621 370.51ZM637.938 370.668L637.542 370.272L637.7 370.351L637.938 370.668ZM634.927 367.261L634.769 367.182V367.261H634.927ZM631.521 367.261L631.283 366.944L631.362 367.341L631.521 367.261ZM602.682 364.647L605.059 362.825L602.445 364.568L602.682 364.647ZM607.436 360.844L607.674 360.606L606.723 361.002L607.436 360.844ZM577.33 355.536L568.694 358.309L573.448 356.962L577.33 355.536ZM598.8 342.067L596.503 342.464L562.277 348.009L565.842 356.17L566.08 356.249L565.208 359.497L567.743 358.388L570.516 355.932L575.27 355.774L580.737 353.793L584.46 354.348L583.589 355.694L590.402 357.992L596.265 360.844L597.612 364.013L601.969 363.062L612.269 354.664L616.072 354.823L631.6 366.548L634.769 365.915L638.096 370.351L638.73 377.402L637.7 381.839L638.176 384.057L640.949 389.603L639.681 385.246L643.246 385.167L643.563 388.336L641.662 393.248L648.237 402.279L650.693 402.359L648.634 399.586L651.169 399.903L652.674 398.952L652.04 404.022L655.447 406.716L657.745 412.896L660.834 414.797L664.796 415.827L670.262 422.799L673.114 424.304L669.312 424.542L671.055 426.523L677.313 424.463L680.403 422.72L683.255 412.737L681.829 397.209L681.512 395.624L673.907 382.948L667.41 373.758L663.766 366.231L666.856 368.846L667.489 368.371L668.836 374.946L672.322 379.938L668.915 373.283L669.074 370.114L658.854 357.675L656.398 353.793L653.149 347.217L650.931 341.671L649.188 339.691L648.792 337.155L648.713 337.076L643.246 336.759L641.107 338.423L639.919 344.523L638.809 341.671L601.415 346.346L598.721 342.147L598.8 342.067Z" stroke="black" stroke-width="0.792263" stroke-linejoin="round"/>
<path fill-rule="evenodd" clip-rule="evenodd" d="M649.98 325.351L649.901 322.974L649.346 325.034L649.98 325.351ZM650.851 321.706L650.535 319.884L650.297 320.993L650.851 321.706ZM613.774 271.794L612.744 272.032L609.733 272.665L598.641 274.963L597.611 275.201L596.502 275.359L590.323 276.547L588.659 276.864L581.925 278.132L580.499 278.29L580.578 278.449L591.194 310.773L597.057 321.231L595.631 322.816L594.759 328.995L596.502 332.164L596.661 337.948L598.8 341.988V342.068L598.721 342.147L601.414 346.346L638.809 341.671L639.918 344.524L641.107 338.423L643.246 336.759L648.712 337.076L648.237 328.52L649.267 326.698L648.712 323.291L649.822 320.043L651.485 318.22L650.297 317.111L653.07 313.705H652.991L648.237 309.268L641.74 299.998L638.175 298.335L622.885 285.5L619.161 280.746L611.951 277.736L611.555 276.151L613.774 271.794Z" fill="#F9F9F9" stroke="black" stroke-width="0.792263" stroke-linejoin="round"/>
<path fill-rule="evenodd" clip-rule="evenodd" d="M544.609 363.459L544.213 363.538V363.617L544.609 363.459ZM551.977 362.508H550.868L551.898 362.587L551.977 362.508ZM542.787 363.3L542.47 363.617L542.549 363.696L542.787 363.3ZM550.234 362.666H547.223L550.076 362.746L550.234 362.666ZM517.197 287.164V287.243L513.869 292.789L514.186 297.067L509.67 302.058L510.859 303.484L507.848 316.161L509.274 318.854L508.482 319.409L508.561 321.152V321.706L510.383 325.985L510.225 328.599L513.156 332.164L507.135 342.464L506.184 348.643L504.521 351.099L505.63 353.951L504.6 354.981L531.933 351.971L530.982 355.774L534.468 362.587L536.29 364.885V364.805L539.222 361.478L545.401 360.131L551.106 360.765L551.977 359.656V359.577L547.936 335.175L547.778 317.349L547.303 284.866L546.194 284.153L545.877 283.519H545.718L541.757 284.074L534.785 285.025L518.94 287.005L517.197 287.164Z" fill="#F9F9F9" stroke="black" stroke-width="0.792263" stroke-linejoin="round"/>
<path fill-rule="evenodd" clip-rule="evenodd" d="M613.774 271.794L611.555 276.151L611.951 277.736L619.161 280.746L622.885 285.5L638.175 298.335L641.74 299.998L648.237 309.268L652.991 313.705L653.783 310.06L652.515 306.574L655.922 309.109L657.823 307.604L654.575 304.91L658.536 304.673L664.716 299.444L664.003 298.097L667.806 295.166L667.41 293.74L670.183 291.997L670.341 287.956L674.699 279.875L677.63 276.151L677.947 275.993L660.279 264.822L653.704 266.09L644.751 265.773L640.314 263.475L614.011 271.794H613.774Z" fill="#F9F9F9" stroke="black" stroke-width="0.792263" stroke-linejoin="round"/>
<path fill-rule="evenodd" clip-rule="evenodd" d="M499.45 163.808L499.292 164.205L502.302 166.106L503.253 168.007L506.422 171.018L506.343 173.553L504.6 178.545L500.639 181.397L497.073 182.11L496.36 186.229L497.549 186.784L496.36 194.865L493.429 196.687L493.984 199.777L493.271 200.094L492.637 203.58L495.172 210.631L504.204 218.237L504.996 221.881L506.739 223.703L512.443 223.387L511.413 228.695L511.017 234.399L514.424 237.172L519.811 239.549L522.663 241.767L524.248 246.283L523.377 247.947L529.002 252.542L529.239 252.621L528.764 252.146L530.348 248.422L536.449 250.086L537.954 248.343L536.766 244.857L541.757 241.926L540.41 240.024L541.599 237.33V237.093L541.282 237.013L541.361 229.962L543.104 228.695L546.114 221.644L545.481 218.554L543.5 214.83L544.609 210.631L539.063 171.573L538.271 170.701L536.211 166.027L534.547 164.284L533.834 159.689V159.53L523.139 161.036L516.722 161.828L499.45 163.808Z" fill="#F9F9F9" stroke="black" stroke-width="0.792263" stroke-linejoin="round"/>
<path fill-rule="evenodd" clip-rule="evenodd" d="M572.022 165.472L559.9 167.611L557.127 168.166L547.303 169.75L545.243 171.414L542.153 172.84L540.965 172.761L539.539 172.048L539.063 171.573L544.609 210.631L543.5 214.83L545.481 218.554L546.115 221.644L543.104 228.695L541.361 229.962L541.282 237.013L541.599 237.093L541.916 237.013L543.104 234.795H546.035L549.601 233.607L554.037 235.27L554.513 233.448L557.048 231.547L560.851 232.101L562.911 228.061L568.536 228.536L568.456 226.239L573.448 219.663L572.655 216.652L576.141 216.573L580.42 213.166L579.39 209.284L579.548 209.126L579.39 207.779L574.636 179.733L572.497 167.77L572.259 166.502L572.022 165.472Z" fill="#F9F9F9" stroke="black" stroke-width="0.792263" stroke-linejoin="round"/>
<path fill-rule="evenodd" clip-rule="evenodd" d="M525.357 260.94L525.119 260.306L524.644 260.148L524.327 261.178L524.406 261.257L525.278 261.178L525.357 260.94ZM579.548 209.126L579.389 209.284L580.419 213.166L576.141 216.573L572.655 216.652L573.447 219.663L568.456 226.239L568.535 228.536L562.91 228.061L560.85 232.102L557.048 231.547L554.512 233.448L554.037 235.271L549.6 233.607L546.035 234.795H543.104L541.915 237.014L541.598 237.093V237.33L540.41 240.024L541.757 241.926L536.766 244.857L537.954 248.343L536.449 250.086L530.348 248.422L528.764 252.146L529.239 252.621L529.398 252.938L528.685 259.435L528.368 259.593L526.308 260.861L526.229 261.098L528.526 260.781L544.53 258.642L543.738 255.473L546.431 255.394L578.676 251.116L601.335 247.313L601.652 247.075L602.207 246.441L608.149 243.272L612.744 237.251L613.377 235.191L616.388 232.815L620.191 227.982L620.745 227.19L620.508 227.11H618.527L615.992 225.684L611.476 220.218L609.891 214.672V214.513L609.733 214.355L606.406 212.453L604.9 209.918L601.89 212.85L599.988 213.325L597.611 212.374L595.552 213.959L591.273 212.057L590.164 212.533L586.124 209.047L584.064 208.017L580.182 208.492L579.548 209.126Z" fill="#F9F9F9" stroke="black" stroke-width="0.792263" stroke-linejoin="round"/>
<path fill-rule="evenodd" clip-rule="evenodd" d="M686.186 273.22L685.315 274.091L685.473 274.25L686.186 273.22ZM686.82 268.625L686.424 269.259L686.583 269.892L686.82 268.625ZM691.574 261.257L690.385 262.049L689.752 263L691.574 261.257ZM701.794 256.265L701.319 255.949L700.289 255.869L701.794 256.265ZM699.655 255.79H698.942L697.753 256.424L699.655 255.79ZM702.111 256.662L704.408 250.957L702.824 253.334L702.111 256.662ZM705.518 249.135L706.548 247.63H705.993L705.518 249.135ZM712.173 242.955L710.43 234.161L711.935 238.757L712.173 242.955ZM702.507 222.911L702.349 222.99L702.111 223.07H702.19L706.548 230.438L709.954 233.845L702.507 222.911ZM701.081 223.387L700.447 223.545L700.606 223.624H701.952L701.794 223.149L701.556 223.228H701.319V223.387L701.16 223.466L701.081 223.387ZM627.797 241.45L627.401 242.639L627.48 246.045L626.608 245.966L624.548 250.165L622.251 250.403L617.973 254.602L616.071 253.889L613.615 257.533L607.119 263.396L603.95 264.188L600.622 267.278L600.464 269.338L597.532 270.922L597.611 274.408V275.201L598.641 274.963L609.733 272.665L612.744 272.031L613.774 271.794H614.011L640.314 263.475L644.751 265.773L653.704 266.09L660.279 264.822L677.947 275.993L678.264 275.755L686.424 272.428L686.503 268.07L689.435 262.762L692.604 259.751L699.18 255.394L700.051 253.809L701.794 254.602L702.586 249.373L701.636 251.195L698.308 252.304L695.139 252.383L699.021 249.531L697.833 248.264L699.18 245.412L691.732 244.223L691.415 243.827L697.754 242.639L699.813 243.669L702.428 243.431L704.567 241.846L706.151 238.757L707.578 238.36L707.34 234.003L705.518 232.26L703.695 233.924L704.092 238.123L702.745 232.973L701.715 232.735L693.871 235.984L697.357 232.577L697.516 231.23L701.16 230.359L702.19 227.665L704.646 229.091L702.032 225.209L700.21 223.624L668.519 232.656L648.316 237.806L627.876 241.609L627.797 241.45Z" fill="#F9F9F9" stroke="black" stroke-width="0.792263" stroke-linejoin="round"/>
<path fill-rule="evenodd" clip-rule="evenodd" d="M627.4 170.701L625.42 162.145L625.023 160.402L622.805 150.657L619.953 152.479L613.853 157.153L609.891 161.986L606.801 162.462L601.097 165.71L597.928 163.808L588.342 162.699L583.271 163.967L578.28 165.155L573.051 166.264L572.259 166.502L572.496 167.77L574.636 179.733L579.389 207.779L579.548 209.126L580.181 208.492L584.064 208.017L586.123 209.047L590.164 212.533L591.273 212.057L595.551 213.959L597.611 212.374L599.988 213.325L601.889 212.85L604.9 209.918L606.405 212.453L609.733 214.355L609.891 214.513L613.298 212.85L614.486 210.235L613.536 207.541L616.229 203.422L618.21 203.105L617.972 199.619L621.221 195.182L621.775 195.816L624.707 193.598L627.242 189.795L627.638 172.444L627.796 172.365L627.4 170.701Z" fill="#F9F9F9" stroke="black" stroke-width="0.792263" stroke-linejoin="round"/>
<path fill-rule="evenodd" clip-rule="evenodd" d="M601.335 247.313L578.676 251.116L546.431 255.394L543.737 255.473L544.53 258.642L528.526 260.781L526.228 261.098V261.178L525.594 261.97L525.278 261.891V261.257V261.178L524.406 261.257L524.485 261.336L524.961 263.554L523.376 265.535L523.218 269.179V269.813V269.893L520.841 274.488L521.316 277.736L519.098 281.222L519.89 284.391L517.038 287.005L517.197 287.164L518.94 287.005L534.785 285.025L541.757 284.074L545.718 283.519H545.876L545.797 283.361L559.107 281.539L565.445 280.747L578.122 278.687L580.498 278.29L581.924 278.132L588.659 276.864L590.322 276.548L596.502 275.359L597.611 275.201V274.408L597.532 270.922L600.463 269.338L600.622 267.278L603.949 264.188L607.118 263.396L613.615 257.533L616.071 253.889L617.972 254.602L622.251 250.403L624.548 250.165L626.608 245.966L627.479 246.045L627.4 242.639L627.796 241.45L626.529 241.688L622.013 242.956L616.625 244.065L603.078 246.838L601.652 247.075L601.335 247.313Z" fill="#F9F9F9" stroke="black" stroke-width="0.792263" stroke-linejoin="round"/>
<path fill-rule="evenodd" clip-rule="evenodd" d="M701.318 223.228H701.556L701.794 223.149L701.635 222.753L701.318 223.228ZM698.625 214.355V214.751L699.021 214.513L698.625 214.355ZM699.575 212.533L699.417 213.563L699.179 213.959L699.575 212.533ZM700.288 210.473L700.368 209.997L700.209 210.473H700.288ZM700.764 208.334L701.002 207.779L700.605 209.205L700.764 208.334ZM700.843 207.145L701.16 205.402L700.764 205.798L700.843 207.145ZM702.269 199.302L702.428 198.589L702.348 198.747L702.269 199.302ZM701.952 197.48L700.922 197.876L699.338 198.589L698.783 199.302L699.021 199.381L697.12 211.186L697.833 213.087L698.942 208.175L701.002 201.758L701.952 197.559V197.48ZM703.537 196.846L703.299 196.925L703.22 197.242L702.824 199.698L703.141 198.826L703.537 196.846ZM620.745 227.189L620.191 227.982L616.388 232.814L613.377 235.191L612.744 237.251L608.148 243.272L602.206 246.441L601.652 247.075L603.078 246.838L616.626 244.065L622.013 242.955L626.529 241.688L627.797 241.45L627.876 241.609L648.316 237.806L668.519 232.656L700.209 223.624L699.972 223.228L699.892 222.99L700.447 223.545L701.081 223.387L701.002 223.307L700.447 220.614L700.843 220.693L702.111 223.07L702.348 222.99L702.507 222.911L702.19 222.277L698.942 217.286L694.901 217.999L693.079 219.504L691.336 217.92L685.394 215.939L681.274 215.781L689.276 215.068L693.713 218.078L694.98 216.098L691.415 211.582L693.95 211.74L692.604 208.096L689.435 208.254L681.908 202.154H680.957L691.574 207.383L690.861 203.738L691.574 202.55L686.186 200.49L681.512 200.173L679.214 198.113L677.313 199.302L676.6 193.835L677.392 193.994L677.234 189.557L677.075 189.398L676.917 189.478L676.758 189.398L676.362 189.082L676.124 188.844L673.589 187.735L670.975 185.833L667.33 184.883L667.093 184.803V184.883L666.617 188.21L659.249 185.041L659.408 189.636L655.367 197.321L652.911 200.015L651.327 204.689L646.494 203.025L644.117 213.8L642.216 217.445L641.899 222.198L640.473 224.496L635.164 226.08L630.807 229.487L628.747 229.804L626.767 231.547L621.775 229.725L620.904 227.269L620.745 227.189Z" fill="#F9F9F9"/>
<path d="M700.051 211.582L699.972 210.948M701.318 223.228H701.556L701.794 223.149L701.635 222.753L701.318 223.228ZM698.625 214.355V214.751L699.021 214.513L698.625 214.355ZM699.575 212.533L699.417 213.563L699.179 213.959L699.575 212.533ZM700.288 210.473L700.368 209.997L700.209 210.473H700.288ZM700.764 208.334L701.002 207.779L700.605 209.205L700.764 208.334ZM700.843 207.145L701.16 205.402L700.764 205.798L700.843 207.145ZM702.269 199.302L702.428 198.589L702.348 198.747L702.269 199.302ZM701.952 197.48L700.922 197.876L699.338 198.589L698.783 199.302L699.021 199.381L697.12 211.186L697.833 213.087L698.942 208.175L701.002 201.758L701.952 197.559V197.48ZM703.537 196.846L703.299 196.925L703.22 197.242L702.824 199.698L703.141 198.826L703.537 196.846ZM620.745 227.189L620.191 227.982L616.388 232.814L613.377 235.191L612.744 237.251L608.148 243.272L602.206 246.441L601.652 247.075L603.078 246.838L616.626 244.065L622.013 242.955L626.529 241.688L627.797 241.45L627.876 241.609L648.316 237.806L668.519 232.656L700.209 223.624L699.972 223.228L699.892 222.99L700.447 223.545L701.081 223.387L701.002 223.307L700.447 220.614L700.843 220.693L702.111 223.07L702.348 222.99L702.507 222.911L702.19 222.277L698.942 217.286L694.901 217.999L693.079 219.504L691.336 217.92L685.394 215.939L681.274 215.781L689.276 215.068L693.713 218.078L694.98 216.098L691.415 211.582L693.95 211.74L692.604 208.096L689.435 208.254L681.908 202.154H680.957L691.574 207.383L690.861 203.738L691.574 202.55L686.186 200.49L681.512 200.173L679.214 198.113L677.313 199.302L676.6 193.835L677.392 193.994L677.234 189.557L677.075 189.398L676.917 189.478L676.758 189.398L676.362 189.082L676.124 188.844L673.589 187.735L670.975 185.833L667.33 184.883L667.093 184.803V184.883L666.617 188.21L659.249 185.041L659.408 189.636L655.367 197.321L652.911 200.015L651.327 204.689L646.494 203.025L644.117 213.8L642.216 217.445L641.899 222.198L640.473 224.496L635.164 226.08L630.807 229.487L628.747 229.804L626.767 231.547L621.775 229.725L620.904 227.269L620.745 227.189Z" stroke="black" stroke-width="0.792263" stroke-linejoin="round"/>
<path fill-rule="evenodd" clip-rule="evenodd" d="M535.657 112.074L533.676 114.53L532.488 118.095L533.042 120.076L535.657 112.074ZM490.181 93.4555L491.369 91.7917L490.498 92.584L490.181 93.4555ZM492.003 90.841L491.607 90.3657L490.735 90.9203L492.003 90.841ZM474.732 95.2777L472.91 97.3376L473.781 106.845L468.711 111.44L467.76 115.877L470.533 118.412L469.74 129.345L472.672 131.563L474.573 131.722L480.594 135.366L484.397 139.328L489.23 141.784L490.339 147.884V148.28L492.637 151.053L492.003 153.192L492.795 157.866L495.172 161.115L499.529 163.412L499.45 163.808L516.722 161.828L523.139 161.036L533.834 159.53L533.518 158.342V154.618L531.378 150.657L530.824 145.666L531.854 140.12L531.299 135.842L533.201 130.533L532.488 129.662L532.646 124.75L533.676 121.026L532.488 119.759L530.19 120.551L528.922 123.878L525.912 125.621L526.863 121.422L529.556 117.857L529.715 116.273L529.794 116.193L525.991 112.391V107.003L521.713 103.517L515.85 103.121L509.829 101.537L496.836 97.5752L494.301 96.1492L494.063 96.3868L490.022 95.8323L488.676 96.6245L489.23 90.841L482.734 94.1685L474.811 95.4361L474.732 95.2777ZM490.26 91.0787L490.102 90.5241L489.547 90.7618L490.26 91.0787ZM487.408 90.5241L487.646 90.0488L487.487 89.8903L487.408 90.5241ZM493.191 89.1773L492.954 88.0681L492.716 89.415L493.191 89.1773Z" fill="#CF202F" stroke="black" stroke-width="0.792263" stroke-linejoin="round"/>
<path fill-rule="evenodd" clip-rule="evenodd" d="M642.533 184.645L631.283 187.418L627.797 172.365L627.638 172.444L627.242 189.795L624.707 193.598L621.776 195.816L621.221 195.182L617.973 199.619L618.21 203.105L616.23 203.422L613.536 207.541L614.487 210.235L613.298 212.85L609.892 214.513V214.672L611.476 220.218L615.992 225.684L618.527 227.11H620.508L620.746 227.19L620.904 227.269L621.776 229.725L626.767 231.547L628.747 229.804L630.807 229.487L635.165 226.08L640.473 224.496L641.899 222.198L642.216 217.445L644.117 213.8L646.494 203.026L651.327 204.689L652.912 200.015L655.367 197.321L659.408 189.636L659.25 185.041L666.618 188.21L667.093 184.883V184.803L664.795 180.842L660.042 180.288L657.269 182.427V184.011L654.892 184.566L651.406 187.022L649.584 187.418L645.94 192.568L644.117 184.249L642.533 184.645Z" fill="#F9F9F9" stroke="black" stroke-width="0.792263" stroke-linejoin="round"/>
<path fill-rule="evenodd" clip-rule="evenodd" d="M689.118 171.573L689.435 172.761L696.01 191.538L703.537 189.319L703.458 189.161H703.616L703.854 189.24L704.012 189.161L703.854 188.844L701.952 183.773L692.683 174.979L693.079 168.879H691.178L689.751 169.988L689.118 171.573Z" fill="#F9F9F9" stroke="black" stroke-width="0.792263" stroke-linejoin="round"/>
<path fill-rule="evenodd" clip-rule="evenodd" d="M676.362 189.082L676.758 189.399L676.917 189.478L677.075 189.399L677.234 189.478L677.788 189.795L677.947 190.032V190.587L678.105 190.904L679.135 189.002L678.026 188.369L676.679 188.448L676.362 189.082Z" fill="#F9F9F9" stroke="black" stroke-width="0.792263" stroke-linejoin="round"/>
<path fill-rule="evenodd" clip-rule="evenodd" d="M703.616 196.529L704.171 192.251L703.695 195.42L703.378 196.767L703.299 196.925L703.537 196.846L703.616 196.529ZM704.012 189.161L703.854 189.24L704.012 189.715V190.666V189.161ZM644.117 184.249L645.939 192.568L649.584 187.418L651.406 187.022L654.892 184.566L657.269 184.011V182.427L660.042 180.287L664.795 180.842L667.093 184.803L667.33 184.883L670.975 185.833L673.589 187.735L676.125 188.844L676.362 189.082L676.679 188.448L678.026 188.369L679.135 189.002L678.105 190.904V190.983L676.6 195.578L681.512 198.747L686.424 198.985L689.672 200.49L688.325 196.687L684.126 195.261L683.097 192.013L685.711 195.499L687.85 195.816L685.949 193.914L684.443 188.289L684.839 185.041L683.176 181.476L684.919 180.05L686.186 175.455L685.711 182.268L687.058 184.566L688.325 181.872L689.038 186.309L687.692 189.557L691.574 190.983L688.246 192.092L689.989 195.341L692.841 196.291L694.426 193.518L694.267 197.4L696.961 197.321L698.704 199.302H698.783L699.338 198.589L700.922 197.876L701.952 197.48L701.873 197.321L703.933 191.221V190.983L703.537 189.399V189.319L696.01 191.538L689.435 172.761L689.118 171.573L687.771 171.969L682.146 173.712L651.168 182.347L645.543 183.853L644.117 184.249Z" fill="#CF202F" stroke="black" stroke-width="0.792263" stroke-linejoin="round"/>
<path fill-rule="evenodd" clip-rule="evenodd" d="M707.895 171.256L707.499 170.305V171.256H707.895ZM708.687 168.324L708.925 165.948L708.449 168.007L708.687 168.324ZM705.439 144.002L697.12 141.942L695.694 141.546L694.347 141.229L691.02 148.597L692.446 150.34L692.366 155.648L693.872 155.886L696.961 163.967L696.803 164.205L692.921 169.909L693.317 174.266L702.666 177.435L702.745 181.08L704.884 178.069L705.201 173.712L707.419 172.206L706.548 168.958L708.212 165.076V156.599L707.657 153.826L703.933 153.905L704.884 150.102L705.439 144.002Z" fill="#CF202F" stroke="black" stroke-width="0.792263" stroke-linejoin="round"/>
<path fill-rule="evenodd" clip-rule="evenodd" d="M705.2 150.419L704.012 152.083L703.695 152.558L705.2 150.419ZM716.134 146.537L720.095 143.051V142.893L716.134 146.537ZM705.755 148.993V146.299L705.517 147.725L705.755 148.993ZM724.135 136.317L723.185 136.079L723.026 136.792L724.135 136.317ZM726.275 134.891L726.195 135.683L726.354 135.208L726.275 134.891ZM724.056 134.97L718.748 139.882L710.588 143.368L708.449 145.19L708.29 146.933L706.072 148.755L706.389 151.132L709.795 149.785L714.787 145.745L720.333 142.813L728.731 134.891L722.789 139.407L720.887 140.199L724.056 134.97ZM726.512 131.643L726.829 131.167L725.878 132.276L726.512 131.643ZM637.462 128.711L636.194 128.553L637.145 129.82L637.462 128.711ZM663.765 104.468L663.923 103.596L663.29 104.389L663.765 104.468ZM664.161 98.7637L663.844 98.9222L663.448 99.7936L664.161 98.7637ZM630.648 143.764L631.203 146.141L635.402 147.171L659.487 140.595L683.73 133.306L688.167 136.713L689.038 138.694L694.188 140.912L694.346 141.229L695.693 141.546L697.119 141.942L705.438 144.002L705.28 143.606L705.993 146.854L707.577 146.458L708.449 142.893V142.813L707.023 141.467L709.082 138.931L708.132 137.743L705.121 126.097L704.963 125.304L704.567 125.067L704.329 121.581L704.091 117.778L703.854 113.658V113.421L703.695 113.5L699.734 100.507L695.535 93.9309L694.346 86.0875L690.781 77.7687L690.306 78.0064L673.748 83.5523L670.42 87.1174L666.696 94.2478L666.855 95.8323L661.943 103.28L664.953 104.31L665.825 109.935L662.339 114.53L651.881 120.868L649.9 120.076L642.136 121.185L634.927 125.542L635.323 127.84L637.858 130.058L636.432 137.03L630.728 143.685L630.648 143.764Z" fill="#F9F9F9" stroke="black" stroke-width="0.792263" stroke-linejoin="round"/>
<path fill-rule="evenodd" clip-rule="evenodd" d="M694.189 140.912L689.039 138.694L688.167 136.713L683.731 133.306L659.487 140.595L635.403 147.171L631.204 146.141L630.649 143.764L629.302 144.794L627.163 146.299L623.281 150.261L622.806 150.657L625.024 160.402L625.42 162.145L627.401 170.701L627.797 172.365L631.283 187.418L642.533 184.645L644.118 184.249L645.544 183.853L651.169 182.347L682.146 173.712L687.771 171.969L689.118 171.573L689.752 169.988L691.178 168.879H693.079L693.317 168.166L696.407 164.68L696.724 164.125L696.961 163.967L693.872 155.886L692.366 155.648L692.446 150.34L691.02 148.597L694.347 141.229L694.189 140.912Z" fill="#F9F9F9" stroke="black" stroke-width="0.792263" stroke-linejoin="round"/>
<path fill-rule="evenodd" clip-rule="evenodd" d="M732.375 98.6845H732.296L732.454 98.7637L732.375 98.6845ZM738.238 81.8093L737.604 80.8585V81.3339L738.238 81.8093ZM737.129 80.9378V80.1455L737.049 79.6701L737.129 80.9378ZM739.981 77.6103L739.822 77.531L739.902 77.7687L739.981 77.6103ZM747.903 73.6489L747.745 72.4606L747.428 73.0151L747.903 73.6489ZM745.923 74.1243L746.002 73.2528L745.051 73.4113L745.923 74.1243ZM748.854 71.5098H748.537V71.6683L748.854 71.5098ZM744.893 72.6982L744.18 72.5398L744.101 73.2528L744.893 72.6982ZM748.933 70.2422L749.646 70.7968L749.409 70.163L748.933 70.2422ZM746.794 70.3214L746.081 71.6683L747.032 71.1929L746.794 70.3214ZM743.388 70.4007L743.071 70.876L743.308 71.5891L743.388 70.4007ZM748.062 67.7862L747.983 67.1524L747.745 67.5485L748.062 67.7862ZM747.666 68.1031L746.953 67.4693V68.0239L747.666 68.1031ZM743.229 69.9253L743.071 69.0538L742.754 69.7669L743.229 69.9253ZM750.756 67.1524L749.567 68.8954L749.488 67.6278L750.756 67.1524ZM756.539 61.8442L755.985 61.052L755.668 61.2104L756.539 61.8442ZM758.678 58.2791L758.203 58.0414L758.124 58.2791H758.678ZM759.708 52.0994H758.995L759.787 52.3371L759.708 52.0994ZM760.897 52.8917L760.659 51.4656L760.025 51.3864L760.897 52.8917ZM759.629 51.624L759.471 50.1187L758.916 51.1487L759.629 51.624ZM713.678 64.0626L725.166 90.9995L725.324 91.5541L730.315 97.6545V97.5752L731.108 97.3376L731.266 92.8217L732.534 91.2371L733.326 87.0381L732.613 86.3251L733.96 82.2053L738.555 80.0662L741.565 76.4218L742.675 70.0837L747.507 69.7668L746.874 66.5185L752.895 64.221L753.291 60.6558L754.717 60.9727L758.678 57.7244L760.421 53.5254L756.381 49.4849L752.102 48.6134L750.518 45.3651V43.4637L747.903 44.256L744.972 43.226V39.9778L737.049 22.8649L731.266 19.8543L724.849 25.2417L723.106 24.9248L721.6 22.1518L719.54 22.9441L716.609 37.5217L717.639 42.2753L718.511 51.9409L716.213 59.3882L717.798 60.5766L715.896 64.221L713.836 63.9041L713.678 64.0626Z" fill="#F9F9F9" stroke="black" stroke-width="0.792263" stroke-linejoin="round"/>
<path fill-rule="evenodd" clip-rule="evenodd" d="M547.223 114.847L546.827 114.213L546.748 115.005L547.223 114.847ZM548.491 113.421L547.54 112.153L547.382 112.707L548.491 113.421ZM549.283 107.716L548.491 107.003V107.162L549.283 107.716ZM547.303 169.75L557.127 168.166L559.9 167.611L572.021 165.472L572.259 166.502L573.051 166.264L578.28 165.155L583.271 163.967L588.342 162.699L588.263 162.462L590.877 157.312L590.639 153.034L593.571 145.666L595.868 147.012L596.74 145.349L596.502 139.011L594.363 135.049L591.194 126.651L588.421 123.562L586.995 123.165L581.845 126.731L582.4 127.444L579.706 132.514L577.092 132.039L576.299 126.731L577.409 126.334L579.706 121.026L579.944 111.678L576.379 103.755L568.456 102.408L567.664 101.22L560.296 99.0806L556.968 103.2L557.285 106.766L554.75 109.935L555.305 114.847L552.848 116.59V110.41L550.63 115.084L548.016 119.204L546.273 120.551L547.144 124.908L546.035 129.424L546.669 135.049L545.877 137.822L551.581 148.755L552.294 152.954L551.581 160.719L547.778 169.434L547.303 169.75ZM564.257 98.3676L562.197 98.526L563.465 99.4767L564.257 98.3676ZM552.215 100.427H551.581L552.294 100.744L552.215 100.427ZM566.079 90.3657L565.287 89.0981L564.97 89.1773L566.079 90.3657ZM494.3 96.1492L496.836 97.5753L509.829 101.537L515.85 103.121L521.713 103.517L525.991 107.003V112.391L529.794 116.193V116.114L532.883 107.162L536.607 104.547L539.459 101.378L539.935 104.23L542.866 99.7144L549.917 97.0207L550.472 95.9115L557.602 96.783L560.375 98.2091L561.722 94.7231L562.989 95.5154L568.535 94.6439L567.188 92.4255L564.732 90.9995L565.208 85.8498L560.375 88.5435L555.938 87.9889L554.512 84.5821L554.988 83.473L548.966 86.3251L545.084 86.5628L538.112 90.841L537.32 92.4255L533.042 91.3956L530.348 92.584L524.961 87.9097L512.998 84.2652L512.76 82.8392L505.075 90.2072L500.718 91.3164L494.538 95.9907L494.3 96.1492ZM522.346 78.1648L513.077 82.76L516.167 85.7706L517.355 82.76L520.524 78.8779L522.346 78.1648ZM511.968 67.3109L505.63 71.6683L505.313 73.8074L510.304 70.163L511.968 67.3109Z" fill="#F9F9F9" stroke="black" stroke-width="0.792263" stroke-linejoin="round"/>
<rect x="90.1621" y="282.011" width="81.6235" height="39.1793" rx="6.52988" fill="#FEE1E4"/>
<path d="M104.789 305.461C106.056 305.461 106.696 304.743 106.853 303.907H108.681C108.354 305.761 106.918 306.989 104.841 306.989C102.007 306.989 100.506 304.873 100.506 302.209C100.506 299.558 102.007 297.416 104.841 297.416C106.905 297.416 108.341 298.644 108.655 300.394H106.8C106.618 299.532 105.951 298.944 104.789 298.944C103.431 298.944 102.308 299.989 102.308 301.883V302.522C102.308 304.416 103.431 305.461 104.789 305.461ZM116.066 306.806L115.374 304.886H111.456L110.777 306.806H108.975L112.436 297.612H114.46L117.947 306.806H116.066ZM113.376 299.467L111.992 303.371H114.826L113.402 299.467H113.376Z" fill="#CF202F"/>
<path d="M130.197 308.491V306.754C128.421 306.545 127.324 305.474 127.298 303.998H128.983C129.009 304.978 129.714 305.5 130.863 305.5C131.999 305.5 132.613 304.939 132.613 304.168C132.613 303.424 132.117 303.215 131.137 303.032L130.132 302.849C128.578 302.575 127.494 301.87 127.494 300.276C127.494 298.97 128.486 297.86 130.197 297.651V295.914H131.529V297.664C133.24 297.899 134.141 298.983 134.18 300.224H132.483C132.47 299.467 131.947 298.905 130.811 298.905C129.714 298.905 129.192 299.493 129.192 300.146C129.192 300.916 129.727 301.151 130.615 301.308L131.608 301.465C133.136 301.713 134.298 302.353 134.298 304.037C134.298 305.5 133.201 306.532 131.529 306.754V308.491H130.197ZM135.725 306.806L139.774 299.075H135.151V297.612H141.602V298.996L137.567 306.806H135.725ZM144.669 306.806V300.655H142.41V299.218H144.669V297.612H146.406V306.806H144.669ZM148.549 306.806V297.612H151.135L153.459 304.064H153.472L155.784 297.612H158.357V306.806H156.659V299.493H156.646L154.021 306.819H152.793L150.181 299.545H150.168V306.806H148.549Z" fill="#CF202F"/>
<rect x="491.75" y="67.3416" width="73.4611" height="39.1793" rx="6.52988" fill="#FEE1E4"/>
<path d="M501.662 82.9423H503.503L505.293 89.4592H505.319L507.147 82.9162H508.793L510.647 89.4983H510.673L512.423 82.9423H514.134L511.522 92.1495H509.824L507.905 85.5412H507.878L505.985 92.1495H504.365L501.662 82.9423ZM515.318 82.9423H517.068V92.1364H515.318V82.9423Z" fill="#CF202F"/>
<path d="M530.152 93.8211V92.0842C528.376 91.8752 527.279 90.8043 527.253 89.3286H528.937C528.963 90.308 529.669 90.8304 530.818 90.8304C531.954 90.8304 532.568 90.2689 532.568 89.4983C532.568 88.7539 532.072 88.545 531.092 88.3621L530.086 88.1793C528.532 87.9051 527.448 87.1998 527.448 85.6065C527.448 84.3006 528.441 83.1905 530.152 82.9815V81.2446H531.484V82.9946C533.195 83.2297 534.096 84.3136 534.135 85.5543H532.437C532.424 84.7968 531.902 84.2353 530.766 84.2353C529.669 84.2353 529.146 84.823 529.146 85.4759C529.146 86.2465 529.682 86.4815 530.57 86.6383L531.562 86.795C533.09 87.0431 534.253 87.683 534.253 89.3677C534.253 90.8304 533.156 91.8622 531.484 92.0842V93.8211H530.152ZM535.393 92.1364V90.7782C535.393 89.6028 535.941 88.8584 537.234 88.0879L538.867 87.0823C539.742 86.5468 539.938 86.0897 539.938 85.5935V85.4498C539.938 84.7315 539.507 84.1438 538.54 84.1438C537.652 84.1438 537.077 84.6401 537.051 85.6327H535.367C535.432 83.8304 536.725 82.7465 538.54 82.7465C540.499 82.7465 541.674 83.961 541.674 85.4759C541.674 86.573 541.152 87.448 539.742 88.323L537.913 89.4592C537.326 89.8379 537.104 90.1513 537.104 90.6868H541.805V92.1364H535.393ZM543.593 92.1364V82.9423H546.179L548.504 89.3939H548.517L550.828 82.9423H553.401V92.1364H551.703V84.823H551.69L549.065 92.1495H547.838L545.226 84.8752H545.213V92.1364H543.593Z" fill="#CF202F"/>
</g>
<rect x="726.009" y="148.149" width="79.991" height="39.1793" rx="6.52988" fill="#FEE1E4"/>
<path d="M736.888 172.944V163.75H738.925L743 170.345H743.013V163.75H744.684V172.944H742.765L738.598 166.113H738.585V172.944H736.888ZM749.656 173.139C747.54 173.139 746.313 171.781 746.313 169.94V169.091H748.063V169.888C748.063 170.985 748.664 171.612 749.656 171.612C750.636 171.612 751.223 170.985 751.223 169.888V163.75H752.986V169.94C752.986 171.781 751.746 173.139 749.656 173.139Z" fill="#CF202F"/>
<path d="M766.044 174.628V172.891C764.268 172.682 763.171 171.612 763.145 170.136H764.829C764.855 171.115 765.561 171.638 766.71 171.638C767.846 171.638 768.46 171.076 768.46 170.306C768.46 169.561 767.964 169.352 766.984 169.169L765.979 168.986C764.424 168.712 763.34 168.007 763.34 166.414C763.34 165.108 764.333 163.998 766.044 163.789V162.052H767.376V163.802C769.087 164.037 769.988 165.121 770.027 166.361H768.329C768.316 165.604 767.794 165.042 766.658 165.042C765.561 165.042 765.038 165.63 765.038 166.283C765.038 167.054 765.574 167.289 766.462 167.445L767.454 167.602C768.982 167.85 770.145 168.49 770.145 170.175C770.145 171.638 769.048 172.669 767.376 172.891V174.628H766.044ZM773.476 172.944V166.792H771.216V165.356H773.476V163.75H775.213V172.944H773.476ZM776.82 172.944V171.585C776.82 170.41 777.368 169.666 778.661 168.895L780.294 167.889C781.169 167.354 781.365 166.897 781.365 166.401V166.257C781.365 165.539 780.934 164.951 779.967 164.951C779.079 164.951 778.505 165.447 778.478 166.44H776.794C776.859 164.638 778.152 163.554 779.967 163.554C781.926 163.554 783.102 164.768 783.102 166.283C783.102 167.38 782.579 168.255 781.169 169.13L779.34 170.266C778.753 170.645 778.531 170.959 778.531 171.494H783.232V172.944H776.82ZM785.02 172.944V163.75H787.606L789.931 170.201H789.944L792.255 163.75H794.828V172.944H793.13V165.63H793.117L790.492 172.957H789.265L786.653 165.682H786.64V172.944H785.02Z" fill="#CF202F"/>
<rect x="726.009" y="195.49" width="79.991" height="39.1793" rx="6.52988" fill="#FEE1E4"/>
<path d="M736.888 220.285V211.091H739.474L741.798 217.543H741.811L744.123 211.091H746.696V220.285H744.998V212.972H744.985L742.36 220.298H741.132L738.52 213.024H738.507V220.285H736.888ZM752.363 211.091C755.171 211.091 756.712 213.142 756.712 215.688C756.712 218.248 755.184 220.285 752.363 220.285H748.863V211.091H752.363ZM752.376 212.606H750.613V218.77H752.376C753.774 218.77 754.923 217.778 754.923 216.015V215.349C754.923 213.599 753.774 212.606 752.376 212.606Z" fill="#CF202F"/>
<path d="M770.941 221.97V220.233C769.165 220.024 768.068 218.953 768.042 217.477H769.727C769.753 218.457 770.458 218.979 771.607 218.979C772.744 218.979 773.357 218.418 773.357 217.647C773.357 216.903 772.861 216.694 771.882 216.511L770.876 216.328C769.322 216.054 768.238 215.349 768.238 213.755C768.238 212.449 769.23 211.339 770.941 211.13V209.393H772.273V211.143C773.984 211.378 774.885 212.462 774.925 213.703H773.227C773.214 212.946 772.691 212.384 771.555 212.384C770.458 212.384 769.936 212.972 769.936 213.625C769.936 214.395 770.471 214.63 771.359 214.787L772.352 214.944C773.88 215.192 775.042 215.832 775.042 217.517C775.042 218.979 773.945 220.011 772.273 220.233V221.97H770.941ZM776.087 218.222V216.837L780.11 211.091H782.134V216.785H783.557V218.222H782.134V220.285H780.423V218.222H776.087ZM777.746 216.772V216.785H780.449V212.946H780.436L777.746 216.772ZM784.957 220.285V211.091H787.542L789.867 217.543H789.88L792.192 211.091H794.764V220.285H793.067V212.972H793.054L790.429 220.298H789.201L786.589 213.024H786.576V220.285H784.957Z" fill="#CF202F"/>
<defs>
<clipPath id="clip0_431_6100">
<rect width="679.107" height="423.626" fill="white" transform="translate(82 20)"/>
</clipPath>
</defs>
</svg>
