<svg width="372" height="372" viewBox="0 0 372 372" fill="none" xmlns="http://www.w3.org/2000/svg">
<rect x="0.333496" width="370" height="372" fill="url(#paint0_radial_151_866)"/>
<g clip-path="url(#clip0_151_866)">
<path d="M222.479 183.492L223.45 186.381L226.37 185.285L224.629 187.825L227.341 189.365L224.219 189.613L224.629 192.65L222.479 190.457L220.328 192.65L220.738 189.613L217.616 189.365L220.328 187.825L218.588 185.285L221.507 186.381L222.479 183.492Z" fill="white"/>
<path d="M222.479 138.401L223.45 141.29L226.37 140.194L224.629 142.734L227.341 144.275L224.219 144.523L224.629 147.558L222.479 145.366L220.328 147.558L220.738 144.523L217.616 144.275L220.328 142.734L218.588 140.194L221.507 141.29L222.479 138.401Z" fill="white"/>
<path d="M237.935 152.189L238.907 155.077L241.826 153.982L240.086 156.522L242.798 158.062L239.676 158.31L240.086 161.346L237.935 159.154L235.785 161.346L236.195 158.31L233.073 158.062L235.785 156.522L234.044 153.982L236.964 155.077L237.935 152.189Z" fill="white"/>
<path d="M229.44 165.774L230.209 167.567L232.204 167.718L230.667 168.961L231.129 170.85L229.44 169.805L227.752 170.85L228.214 168.961L226.676 167.718L228.672 167.567L229.44 165.774Z" fill="white"/>
<path d="M147.328 111.528H108.936V178.463C111.497 213.649 135.249 243.957 169.292 255.352L185.724 260.876V111.528H147.332H147.328Z" fill="url(#paint1_linear_151_866)"/>
<path d="M147.328 111.528H108.936V178.463C111.497 213.649 135.249 243.957 169.292 255.352L185.724 260.876V111.528H147.332H147.328Z" fill="url(#paint2_linear_151_866)"/>
<path d="M224.116 111.528H185.724V260.83L202.156 255.306C236.199 243.907 259.951 213.649 262.512 178.417V111.528H224.12H224.116Z" fill="url(#paint3_linear_151_866)"/>
<path d="M224.116 111.528H185.724V260.83L202.156 255.306C236.199 243.907 259.951 213.649 262.512 178.417V111.528H224.12H224.116Z" fill="url(#paint4_linear_151_866)"/>
<path d="M159.052 141.886H151.884V163.684H155.109V148.704L177.173 163.684H185.771L158.331 145.073H163.76L185.771 160.002V157.861L166.934 145.073H185.771V141.886H159.048H159.052Z" fill="white"/>
<path d="M139.701 126.608L117.534 111.528H108.936L136.22 130.043H130.589L108.936 115.361V117.401L127.622 130.093H108.936V133.229H142.979V111.532H139.649V126.562L139.701 126.613V126.608Z" fill="white"/>
<path d="M139.701 141.886H108.936V145.073H127.773L108.936 157.861V163.684L136.376 145.073H139.706V146.714L114.623 163.684H117.595L139.762 148.654V163.684H143.091V141.886H139.714H139.701Z" fill="white"/>
<path d="M185.724 111.528L158.439 130.042H155.062V128.548L180.097 111.528H177.126L155.062 126.507V111.528H151.836V133.174H185.724V130.038H167.037L185.724 117.347V111.523V111.528Z" fill="white"/>
<path d="M147.889 171.3L150.143 178.068L156.954 175.578L152.911 181.503L159.156 185.134L151.888 185.729L152.911 192.744L147.893 187.618L142.875 192.744L143.899 185.729L136.631 185.134L142.875 181.503L138.833 175.578L145.643 178.068L147.898 171.3H147.889Z" fill="white"/>
<path d="M222.527 183.492L223.498 186.381L226.418 185.285L224.677 187.825L227.389 189.365L224.267 189.613L224.677 192.65L222.527 190.457L220.376 192.65L220.786 189.613L217.664 189.365L220.376 187.825L218.636 185.285L221.555 186.381L222.527 183.492Z" fill="white"/>
<path d="M205.122 156.719L206.094 159.608L209.013 158.512L207.273 161.052L209.985 162.593L206.863 162.84L207.273 165.876L205.122 163.684L202.972 165.876L203.382 162.84L200.26 162.593L202.972 161.052L201.231 158.512L204.151 159.608L205.122 156.719Z" fill="white"/>
<path d="M222.527 138.401L223.498 141.29L226.418 140.194L224.677 142.734L227.389 144.275L224.267 144.523L224.677 147.558L222.527 145.366L220.376 147.558L220.786 144.523L217.664 144.275L220.376 142.734L218.636 140.194L221.555 141.29L222.527 138.401Z" fill="white"/>
<path d="M237.987 152.24L238.958 155.128L241.878 154.032L240.137 156.572L242.849 158.113L239.727 158.361L240.137 161.396L237.987 159.205L235.836 161.396L236.246 158.361L233.124 158.113L235.836 156.572L234.096 154.032L237.015 155.128L237.987 152.24Z" fill="white"/>
<path d="M229.493 165.774L230.261 167.567L232.257 167.718L230.719 168.961L231.181 170.85L229.493 169.805L227.804 170.85L228.266 168.961L226.729 167.718L228.724 167.567L229.493 165.774Z" fill="white"/>
</g>
<defs>
<radialGradient id="paint0_radial_151_866" cx="0" cy="0" r="1" gradientUnits="userSpaceOnUse" gradientTransform="translate(185.333 186) rotate(90.1172) scale(276.46 274.976)">
<stop offset="0.085" stop-color="#F0E8FF"/>
<stop offset="0.89" stop-color="#6B28FF"/>
</radialGradient>
<linearGradient id="paint1_linear_151_866" x1="147.328" y1="111.528" x2="147.328" y2="260.876" gradientUnits="userSpaceOnUse">
<stop stop-color="#5B53A3"/>
<stop offset="1" stop-color="#B09ACA"/>
</linearGradient>
<linearGradient id="paint2_linear_151_866" x1="147.33" y1="111.528" x2="147.33" y2="260.827" gradientUnits="userSpaceOnUse">
<stop stop-color="#6100FF"/>
<stop offset="1" stop-color="#C09AFF"/>
</linearGradient>
<linearGradient id="paint3_linear_151_866" x1="224.116" y1="111.528" x2="224.116" y2="260.83" gradientUnits="userSpaceOnUse">
<stop stop-color="#B09ACA"/>
<stop offset="1" stop-color="#5B53A3"/>
</linearGradient>
<linearGradient id="paint4_linear_151_866" x1="224.118" y1="111.528" x2="224.118" y2="260.781" gradientUnits="userSpaceOnUse">
<stop stop-color="#C09AFF"/>
<stop offset="1" stop-color="#6100FF"/>
</linearGradient>
<clipPath id="clip0_151_866">
<rect width="150" height="150" fill="white" transform="translate(110 111)"/>
</clipPath>
</defs>
</svg>
