<svg width="480" height="480" viewBox="0 0 480 480" fill="none" xmlns="http://www.w3.org/2000/svg">
<path d="M119.995 0H0.000488281V215.161C7.94204 328.361 82.2554 425.737 188.574 462.306L240.004 480V0H119.995Z" fill="url(#paint0_linear_2011_3776)"/>
<path d="M115.3 44.55L107.7 39H117.1L120 30L122.9 39H132.3L124.7 44.55L127.6 53.6L120 48L112.4 53.6L115.3 44.55ZM124.7 201L127.6 210L120 204.45L112.4 210L115.3 201L107.7 195.45H117.1L120 186.4L122.9 195.45H132.3L124.7 201ZM42.3 126L34.7 131.6L37.6 122.6L30 117.2H39.4L42.3 108.2L45.2 117.2H54.65L47 122.8L49.9 131.8L42.3 126.2V126ZM85.85 55L88.75 64L81.15 58.5L73.55 64.05L76.45 55.05L68.85 49.5H78.25L81.15 40.5L84.05 49.5H93.45L85.85 55ZM50 78.1L52.9 69.1L55.85 78.1H65L57.4 83.7L60.3 92.7L52.65 87.1L45 92.7L47.9 83.7L40.3 78.1H50ZM40.4 156.3H50L52.9 147.3L55.85 156.3H65L57.4 161.9L60.3 170.9L52.65 165.35L45 170.9L47.9 161.9L40.3 156.3H40.4ZM76.45 190.5L68.85 185H78.25L81.15 176L84.05 185H93.45L85.85 190.5L88.75 199.5L81.15 193.95L73.55 199.5L76.45 190.5ZM202.4 122.8L205.3 131.8L197.7 126.2L190 131.8L192.9 122.8L185.25 117.2H195L197.9 108.2L200.8 117.2H210L202.4 122.8ZM154.15 55L146.55 49.5H155.95L158.85 40.5L161.75 49.5H171.15L163.55 55L166.45 64L158.85 58.5L151.25 64.05L154.15 55.05V55ZM184.15 78.05L187.1 69.05L190 78.05H199.4L192 83.7L194.9 92.7L187.3 87.1L179.65 92.7L182.55 83.7L175 78.1L184.15 78.05ZM190 156.3H199.4L192 161.9L194.9 170.9L187.3 165.35L179.65 170.9L182.55 161.9L175 156.3H184.4L187.35 147.3L190.25 156.3H190ZM171.15 185L163.55 190.5L166.45 199.5L158.85 193.95L151.25 199.5L154.15 190.5L146.55 185H155.95L158.85 176L161.75 185H171.15Z" fill="white"/>
<path d="M360.006 0H239.997V480L291.426 462.278C397.773 425.709 472.059 328.317 480 215.12V0H360.006Z" fill="url(#paint1_linear_2011_3776)"/>
<defs>
<linearGradient id="paint0_linear_2011_3776" x1="119.995" y1="0" x2="119.995" y2="480" gradientUnits="userSpaceOnUse">
<stop stop-color="#6100FF"/>
<stop offset="1" stop-color="#C09AFF"/>
</linearGradient>
<linearGradient id="paint1_linear_2011_3776" x1="360.006" y1="0" x2="360.006" y2="480" gradientUnits="userSpaceOnUse">
<stop stop-color="#C09AFF"/>
<stop offset="1" stop-color="#6100FF"/>
</linearGradient>
</defs>
</svg>
